<svg class="main-svg" xmlns="http://www.w3.org/2000/svg" xmlns:xlink="http://www.w3.org/1999/xlink" width="1440" height="900" style="" viewBox="0 0 1440 900"><rect x="0" y="0" width="1440" height="900" style="fill: rgb(0, 0, 0); fill-opacity: 0;"/><defs id="defs-41f840"><g class="clips"><clipPath id="clip41f840xyplot" class="plotclip"><rect width="1376" height="900"/></clipPath><clipPath class="axesclip" id="clip41f840x"><rect x="64" y="0" width="1376" height="900"/></clipPath><clipPath class="axesclip" id="clip41f840y"><rect x="0" y="0" width="1440" height="900"/></clipPath><clipPath class="axesclip" id="clip41f840xy"><rect x="64" y="0" width="1376" height="900"/></clipPath></g><g class="gradients"/><g class="patterns"/></defs><g class="bglayer"><rect class="bg" x="64" y="0" width="1376" height="900" style="fill: rgb(0, 0, 0); fill-opacity: 0; stroke-width: 0;"/></g><g class="layer-below"><g class="imagelayer"/><g class="shapelayer"/></g><g class="cartesianlayer"><g class="subplot xy"><g class="layer-subplot"><g class="shapelayer"/><g class="imagelayer"/></g><g class="minor-gridlayer"><g class="x"/><g class="y"/></g><g class="gridlayer"><g class="x"><path class="xgrid crisp" transform="translate(240.8,0)" d="M0,0v900" style="stroke: rgb(0, 0, 0); stroke-opacity: 0.2; stroke-width: 1px;"/><path class="xgrid crisp" transform="translate(479.11,0)" d="M0,0v900" style="stroke: rgb(0, 0, 0); stroke-opacity: 0.2; stroke-width: 1px;"/><path class="xgrid crisp" transform="translate(709.72,0)" d="M0,0v900" style="stroke: rgb(0, 0, 0); stroke-opacity: 0.2; stroke-width: 1px;"/><path class="xgrid crisp" transform="translate(948.02,0)" d="M0,0v900" style="stroke: rgb(0, 0, 0); stroke-opacity: 0.2; stroke-width: 1px;"/><path class="xgrid crisp" transform="translate(1186.32,0)" d="M0,0v900" style="stroke: rgb(0, 0, 0); stroke-opacity: 0.2; stroke-width: 1px;"/><path class="xgrid crisp" transform="translate(1401.56,0)" d="M0,0v900" style="stroke: rgb(0, 0, 0); stroke-opacity: 0.2; stroke-width: 1px;"/></g><g class="y"><path class="ygrid crisp" transform="translate(0,680.82)" d="M64,0h1376" style="stroke: rgb(0, 0, 0); stroke-opacity: 0.2; stroke-width: 1px;"/><path class="ygrid crisp" transform="translate(0,551.04)" d="M64,0h1376" style="stroke: rgb(0, 0, 0); stroke-opacity: 0.2; stroke-width: 1px;"/><path class="ygrid crisp" transform="translate(0,421.27)" d="M64,0h1376" style="stroke: rgb(0, 0, 0); stroke-opacity: 0.2; stroke-width: 1px;"/><path class="ygrid crisp" transform="translate(0,291.49)" d="M64,0h1376" style="stroke: rgb(0, 0, 0); stroke-opacity: 0.2; stroke-width: 1px;"/><path class="ygrid crisp" transform="translate(0,161.72)" d="M64,0h1376" style="stroke: rgb(0, 0, 0); stroke-opacity: 0.2; stroke-width: 1px;"/><path class="ygrid crisp" transform="translate(0,31.94)" d="M64,0h1376" style="stroke: rgb(0, 0, 0); stroke-opacity: 0.2; stroke-width: 1px;"/></g></g><g class="zerolinelayer"><path class="yzl zl crisp" transform="translate(0,810.59)" d="M64,0h1376" style="stroke: rgb(255, 255, 255); stroke-opacity: 1; stroke-width: 2px;"/></g><g class="layer-between"><g class="shapelayer"/><g class="imagelayer"/></g><path class="xlines-below"/><path class="ylines-below"/><g class="overlines-below"/><g class="xaxislayer-below"/><g class="yaxislayer-below"/><g class="overaxes-below"/><g class="overplot"><g class="xy" transform="translate(64,0)" clip-path="url(#clip41f840xyplot)"><g class="scatterlayer mlayer"><g class="trace scatter trace21166b" style="stroke-miterlimit: 2; opacity: 1;"><g class="fills"/><g class="errorbars"/><g class="lines"><path class="js-line" d="M1376,45L1368.31,88.37L1360.63,169.61L1352.94,270.57L1345.25,183.96L1314.5,303.64L1306.82,393.63L1299.13,394.82L1214.57,475.93L1206.88,438.5L1199.2,487.53L1191.51,487.95L1183.82,494.56L1160.76,518.49L1153.07,530.95L1145.39,425.86L1137.7,423.19L1130.01,455.16L1106.95,519.71L1099.26,543.9L1091.58,498.92L1083.89,494.46L1076.2,436.27L1053.14,431.18L1045.45,442.89L1037.77,404.19L1030.08,381.22L1022.39,369.54L999.33,516.94L991.64,588.1L983.96,592.1L976.27,589.53L968.58,661.51L945.52,661.48L937.83,673.42L930.15,672.07L922.46,705.94L914.77,735.97L876.34,781.31L868.65,762.76L860.96,767.22L837.9,744.53L830.21,704.54L822.53,726.7L814.84,736.07L776.4,779.55L768.72,751.18L761.03,760.45L753.34,741.11L730.28,741.13L722.59,784.09L714.91,787.44L707.22,782.07L699.53,785.54L676.47,817.6L668.78,823.83L661.09,819.39L653.41,817.13L645.72,810.82L614.97,810.59L607.28,778.61L599.6,772.96L591.91,774.33L568.85,739.42L561.16,686.32L553.47,675.16L545.79,498.2L538.1,436.45L515.04,425.55L507.35,349.58L499.66,371.36L491.98,261.96L484.29,289.96L461.23,286.54L453.54,295L445.85,327.31L438.17,442.19L430.48,473.7L407.42,517.43L399.73,515.69L392.04,465.47L384.36,578.5L376.67,566.9L353.61,611.23L345.92,636.87L338.23,617.67L330.55,532.98L322.86,521.63L299.8,574.25L292.11,474.58L284.42,495.89L276.74,535.13L269.05,544.14L245.99,530.77L238.3,590.65L169.12,635.84L161.43,662.47L138.37,673.86L130.68,667.53L122.99,662.83L115.31,664.18L107.62,684.92L84.56,722.21L76.87,738.67L69.18,716.94L61.5,728.34L53.81,737.68L30.75,752.22L23.06,743.99L15.37,782.77L7.69,775.32L0,775.84" style="vector-effect: none; fill: none; stroke: rgb(214, 10, 34); stroke-opacity: 1; stroke-width: 3px; opacity: 1;"/></g><g class="points"/><g class="text"/></g><g class="trace scatter tracea06986" style="stroke-miterlimit: 2; opacity: 1;"><g class="fills"/><g class="errorbars"/><g class="lines"><path class="js-line" d="M1376,205.61L1368.31,286.41L1360.63,317.81L1352.94,272.7L1345.25,369.77L1322.19,442.29L1314.5,432.87L1306.82,476.84L1299.13,575.62L1214.57,597.03L1206.88,573.62L1199.2,559.63L1191.51,591.32L1183.82,607.31L1160.76,625.58L1153.07,633.58L1145.39,623.59L1137.7,599.89L1130.01,618.16L1106.95,555.64L1099.26,545.36L1091.58,601.32L1083.89,570.2L1076.2,538.22L1053.14,549.35L1045.45,508.53L1037.77,472.84L1022.39,561.92L999.33,646.43L876.34,646.43L868.65,690.68L860.96,693.25L837.9,699.24L830.21,701.53L822.53,687.25L814.84,715.8L807.15,714.95L784.09,735.5L776.4,740.93L768.72,728.08L761.03,720.37L753.34,712.09L730.28,730.36L722.59,752.06L714.91,745.21L707.22,730.65L699.53,740.93L676.47,734.93L668.78,739.78L653.41,720.37L645.72,734.93L622.66,727.79L614.97,748.35L607.28,767.48L599.6,776.33L591.91,775.76L568.85,789.46L561.16,775.19L553.47,772.9L545.79,758.63L538.1,766.91L515.04,795.46L507.35,792.6L499.66,784.89L491.98,815.73L484.29,808.59L461.23,808.31L453.54,814.3L445.85,814.02L438.17,814.3L430.48,810.59L330.55,810.59L322.86,772.8L299.8,772.07L292.11,776.07L284.42,756.45L276.74,755.36L269.05,736.46L245.99,723.74L238.3,730.65L169.12,738.64L161.43,758.99L138.37,771.35L130.68,773.16L122.99,772.07L115.31,771.71L107.62,765.53L84.56,757.9L76.87,749.54L69.18,740.82L61.5,741.55L53.81,764.81L30.75,760.08L23.06,757.54L15.37,777.52L7.69,797.87L0,810.59" style="vector-effect: none; fill: none; stroke: rgb(234, 112, 52); stroke-opacity: 1; stroke-width: 3px; opacity: 1;"/></g><g class="points"/><g class="text"/></g><g class="trace scatter trace9b39c3" style="stroke-miterlimit: 2; opacity: 1;"><g class="fills"/><g class="errorbars"/><g class="lines"><path class="js-line" d="M1376,542.16L1368.31,565.11L1360.63,609.44L1352.94,644.79L1345.25,612.87L1322.19,638.25L1314.5,645.52L1306.82,683.67L1299.13,686.01L1214.57,707.65L1206.88,685.28L1199.2,717.05L1191.51,711.03L1183.82,735.94L1160.76,763.14L1153.07,757.43L1145.39,764.81L1137.7,767.71L1130.01,778.82L1106.95,776.64L1099.26,770.93L1091.58,760.45L1083.89,756.6L1076.2,749.39L1053.14,737.5L1045.45,745.7L1037.77,741.45L1030.08,748.97L1022.39,735.84L999.33,762.52L991.64,767.45L983.96,768.39L976.27,760.6L968.58,761.74L945.52,754.58L937.83,766.16L930.15,766.78L922.46,776.28L914.77,782.97L876.34,789.36L868.65,783.96L860.96,782.71L837.9,773.47L830.21,770.31L822.53,773.94L814.84,778.2L807.15,792.73L784.09,796.89L776.4,800.73L768.72,794.08L761.03,798.55L753.34,787.44L730.28,784.95L722.59,807.68L714.91,814.43L699.53,812.15L676.47,810.59L599.6,810.59L591.91,853L568.85,850.74L561.16,825.9L553.47,815L545.79,812.61L538.1,795.15L515.04,776.51L507.35,746.22L499.66,773.27L491.98,754.11L484.29,742.95L461.23,749.15L453.54,735.79L445.85,749.54L438.17,781.81L430.48,777.08L407.42,795.48L399.73,785.02L392.04,776.46L384.36,787.75L376.67,782.3L353.61,798.78L345.92,796.83L338.23,796.96L330.55,794.63L322.86,799.56L299.8,747.52L292.11,690.63L284.42,693.43L276.74,718.53L269.05,716.76L245.99,708.9L238.3,704.64L169.12,723.62L161.43,732.65L130.68,738.41L122.99,751.57L115.31,750.4L107.62,747.36L76.87,746.43L69.18,737.01L61.5,742.15L53.81,740.75L30.75,746.04L23.06,736.7L15.37,747.52L7.69,742.61L0,742.54" style="vector-effect: none; fill: none; stroke: rgb(255, 215, 71); stroke-opacity: 1; stroke-width: 3px; opacity: 1;"/></g><g class="points"/><g class="text"/></g><g class="trace scatter trace07306d" style="stroke-miterlimit: 2; opacity: 1;"><g class="fills"/><g class="errorbars"/><g class="lines"><path class="js-line" d="M1376,633.45L1368.31,661.09L1360.63,653.69L1345.25,688.73L1322.19,717.54L1314.5,711.7L1306.82,721.05L1299.13,731.17L1214.57,747.13L1206.88,737.79L1199.2,734.67L1191.51,733.11L1183.82,741.68L1160.76,766.6L1153.07,779.83L1145.39,777.11L1137.7,786.84L1130.01,794.24L1106.95,784.89L1099.26,787.62L1091.58,779.05L1083.89,783.73L1076.2,780.61L1053.14,786.06L1045.45,788.79L1037.77,787.62L1030.08,782.17L1022.39,807.48L999.33,810.2L991.64,806.7L983.96,808.64L976.27,811.76L968.58,807.48L945.52,807.86L937.83,806.7L930.15,809.03L922.46,807.86L914.77,816.43L876.34,817.21L868.65,814.09L860.96,808.64L822.53,810.59L814.84,810.59L730.28,810.59L722.59,805.61L714.91,793.56L707.22,785.26L699.53,779.03L676.47,779.44L668.78,786.5L661.09,773.63L653.41,778.2L645.72,770.31L622.66,774.88L614.97,764.49L607.28,791.9L599.6,786.09L591.91,801.45L568.85,798.13L561.16,775.71L553.47,765.74L545.79,778.61L538.1,774.88L515.04,786.09L507.35,781.11L499.66,793.56L491.98,789.41L461.23,794.39L453.54,803.53L445.85,805.19L438.17,805.19L430.48,806.44L407.42,808.1L399.73,809.34L392.04,808.93L384.36,806.85L376.67,808.93L353.61,808.93L345.92,807.27L338.23,809.76L330.55,807.27L322.86,806.02L299.8,814.33L292.11,812.67L284.42,807.68L276.74,811.84L269.05,810.59L0,810.59" style="vector-effect: none; fill: none; stroke: rgb(129, 169, 73); stroke-opacity: 1; stroke-width: 3px; opacity: 1;"/></g><g class="points"/><g class="text"/></g><g class="trace scatter traced44028" style="stroke-miterlimit: 2; opacity: 1;"><g class="fills"/><g class="errorbars"/><g class="lines"><path class="js-line" d="M1376,741.34L1368.31,790.45L1360.63,784.01L1352.94,793.98L1345.25,799.27L1314.5,804.46L1306.82,808.1L1299.13,811.63L1214.57,810.59L1199.2,810.59L1191.51,793.85L1183.82,791.77L1160.76,805.14L1153.07,803.32L1145.39,794.11L1137.7,788.4L1130.01,793.98L1106.95,796.06L1099.26,788.14L1091.58,785.54L1083.89,787.1L1076.2,785.15L1053.14,782.69L1045.45,779.31L1037.77,779.31L1030.08,771.79L1022.39,768.67L999.33,779.83L991.64,786.84L983.96,782.69L976.27,771.79L968.58,784.12L945.52,799.95L937.83,805.27L930.15,806.31L922.46,812.41L914.77,813.96L876.34,824.61L868.65,824.09L860.96,818.9L837.9,814.09L830.21,810.59L822.53,810.59L0,810.59" style="vector-effect: none; fill: none; stroke: rgb(3, 123, 102); stroke-opacity: 1; stroke-width: 3px; opacity: 1;"/></g><g class="points"/><g class="text"/></g></g></g></g><g class="zerolinelayer-above"/><path class="xlines-above crisp" d="" style="fill: none; stroke-width: 1px; stroke: rgb(0, 0, 0); stroke-opacity: 0;"/><path class="ylines-above crisp" d="" style="fill: none; stroke-width: 1px; stroke: rgb(0, 0, 0); stroke-opacity: 0;"/><g class="overlines-above"/><g class="xaxislayer-above"><path class="xtick ticks crisp" d="M0,900v-5" transform="translate(240.8,0)" style="stroke: rgb(68, 68, 68); stroke-opacity: 1; stroke-width: 1px;"/><path class="xtick ticks crisp" d="M0,900v-5" transform="translate(479.11,0)" style="stroke: rgb(68, 68, 68); stroke-opacity: 1; stroke-width: 1px;"/><path class="xtick ticks crisp" d="M0,900v-5" transform="translate(709.72,0)" style="stroke: rgb(68, 68, 68); stroke-opacity: 1; stroke-width: 1px;"/><path class="xtick ticks crisp" d="M0,900v-5" transform="translate(948.02,0)" style="stroke: rgb(68, 68, 68); stroke-opacity: 1; stroke-width: 1px;"/><path class="xtick ticks crisp" d="M0,900v-5" transform="translate(1186.32,0)" style="stroke: rgb(68, 68, 68); stroke-opacity: 1; stroke-width: 1px;"/><path class="xtick ticks crisp" d="M0,900v-5" transform="translate(1401.56,0)" style="stroke: rgb(68, 68, 68); stroke-opacity: 1; stroke-width: 1px;"/><g class="xtick"><text text-anchor="middle" x="0" y="895" transform="translate(240.8,-3)" style="font-family: Arial; font-size: 32px; fill: rgb(0, 0, 0); fill-opacity: 1; white-space: pre;">Oct 2025</text></g><g class="xtick"><text text-anchor="middle" x="0" y="895" style="font-family: Arial; font-size: 32px; fill: rgb(0, 0, 0); fill-opacity: 1; white-space: pre;" transform="translate(479.11,-3)">Nov 2025</text></g><g class="xtick"><text text-anchor="middle" x="0" y="895" style="font-family: Arial; font-size: 32px; fill: rgb(0, 0, 0); fill-opacity: 1; white-space: pre;" transform="translate(709.72,-3)">Dec 2025</text></g><g class="xtick"><text text-anchor="middle" x="0" y="895" style="font-family: Arial; font-size: 32px; fill: rgb(0, 0, 0); fill-opacity: 1; white-space: pre;" transform="translate(948.02,-3)">Jan 2026</text></g><g class="xtick"><text text-anchor="middle" x="0" y="895" style="font-family: Arial; font-size: 32px; fill: rgb(0, 0, 0); fill-opacity: 1; white-space: pre;" transform="translate(1186.32,-3)">Feb 2026</text></g><g class="xtick"/></g><g class="yaxislayer-above"><path class="ytick ticks crisp" d="M63,0h-5" transform="translate(0,810.59)" style="stroke: rgb(68, 68, 68); stroke-opacity: 1; stroke-width: 1px;"/><path class="ytick ticks crisp" d="M63,0h-5" transform="translate(0,680.82)" style="stroke: rgb(68, 68, 68); stroke-opacity: 1; stroke-width: 1px;"/><path class="ytick ticks crisp" d="M63,0h-5" transform="translate(0,551.04)" style="stroke: rgb(68, 68, 68); stroke-opacity: 1; stroke-width: 1px;"/><path class="ytick ticks crisp" d="M63,0h-5" transform="translate(0,421.27)" style="stroke: rgb(68, 68, 68); stroke-opacity: 1; stroke-width: 1px;"/><path class="ytick ticks crisp" d="M63,0h-5" transform="translate(0,291.49)" style="stroke: rgb(68, 68, 68); stroke-opacity: 1; stroke-width: 1px;"/><path class="ytick ticks crisp" d="M63,0h-5" transform="translate(0,161.72)" style="stroke: rgb(68, 68, 68); stroke-opacity: 1; stroke-width: 1px;"/><path class="ytick ticks crisp" d="M63,0h-5" transform="translate(0,31.94)" style="stroke: rgb(68, 68, 68); stroke-opacity: 1; stroke-width: 1px;"/><g class="ytick"><text text-anchor="end" x="51.6" y="11.2" transform="translate(0,810.59)" style="font-family: Arial; font-size: 32px; fill: rgb(0, 0, 0); fill-opacity: 1; white-space: pre;">0</text></g><g class="ytick"><text text-anchor="end" x="51.6" y="11.2" style="font-family: Arial; font-size: 32px; fill: rgb(0, 0, 0); fill-opacity: 1; white-space: pre;" transform="translate(0,680.82)">5k</text></g><g class="ytick"><text text-anchor="end" x="51.6" y="11.2" style="font-family: Arial; font-size: 32px; fill: rgb(0, 0, 0); fill-opacity: 1; white-space: pre;" transform="translate(0,551.04)">10k</text></g><g class="ytick"><text text-anchor="end" x="51.6" y="11.2" style="font-family: Arial; font-size: 32px; fill: rgb(0, 0, 0); fill-opacity: 1; white-space: pre;" transform="translate(0,421.27)">15k</text></g><g class="ytick"><text text-anchor="end" x="51.6" y="11.2" style="font-family: Arial; font-size: 32px; fill: rgb(0, 0, 0); fill-opacity: 1; white-space: pre;" transform="translate(0,291.49)">20k</text></g><g class="ytick"><text text-anchor="end" x="51.6" y="11.2" style="font-family: Arial; font-size: 32px; fill: rgb(0, 0, 0); fill-opacity: 1; white-space: pre;" transform="translate(0,161.72)">25k</text></g><g class="ytick"><text text-anchor="end" x="51.6" y="11.2" style="font-family: Arial; font-size: 32px; fill: rgb(0, 0, 0); fill-opacity: 1; white-space: pre;" transform="translate(0,31.94)">30k</text></g></g><g class="overaxes-above"/></g></g><g class="polarlayer"/><g class="smithlayer"/><g class="ternarylayer"/><g class="geolayer"/><g class="funnelarealayer"/><g class="pielayer"/><g class="iciclelayer"/><g class="treemaplayer"/><g class="sunburstlayer"/><g class="glimages"/><defs id="topdefs-41f840"><g class="clips"/><clipPath id="legend41f840"><rect width="205" height="233" x="0" y="0"/></clipPath></defs><g class="layer-above"><g class="imagelayer"/><g class="shapelayer"/></g><g class="infolayer"><g class="legend" pointer-events="all" transform="translate(64,0)"><rect class="bg" shape-rendering="crispEdges" style="stroke: rgb(0, 0, 0); stroke-opacity: 0; fill: rgb(246, 248, 249); fill-opacity: 0.8; stroke-width: 0px;" width="205" height="233" x="0" y="0"/><g class="scrollbox" transform="" clip-path="url(#legend41f840)"><g class="groups" transform=""><g class="traces" transform="translate(0,27.3)" style="opacity: 1;"><text class="legendtext" text-anchor="start" x="40" y="12.48" style="font-family: Arial; font-size: 32px; fill: rgb(0, 0, 0); fill-opacity: 1; white-space: pre;">输配电气</text><g class="layers" style="opacity: 1;"><g class="legendfill"/><g class="legendlines"><path class="js-line" d="M5,0h30" style="fill: none; stroke: rgb(214, 10, 34); stroke-opacity: 1; stroke-width: 3px;"/></g><g class="legendsymbols"><g class="legendpoints"/></g></g><rect class="legendtoggle" x="0" y="-22.3" width="200" height="44.6" style="fill: rgb(0, 0, 0); fill-opacity: 0;"/></g></g><g class="groups" transform=""><g class="traces" transform="translate(0,71.9)" style="opacity: 1;"><text class="legendtext" text-anchor="start" x="40" y="12.48" style="font-family: Arial; font-size: 32px; fill: rgb(0, 0, 0); fill-opacity: 1; white-space: pre;">美容护理</text><g class="layers" style="opacity: 1;"><g class="legendfill"/><g class="legendlines"><path class="js-line" d="M5,0h30" style="fill: none; stroke: rgb(234, 112, 52); stroke-opacity: 1; stroke-width: 3px;"/></g><g class="legendsymbols"><g class="legendpoints"/></g></g><rect class="legendtoggle" x="0" y="-22.3" width="200" height="44.6" style="fill: rgb(0, 0, 0); fill-opacity: 0;"/></g></g><g class="groups" transform=""><g class="traces" transform="translate(0,116.5)" style="opacity: 1;"><text class="legendtext" text-anchor="start" x="40" y="12.48" style="font-family: Arial; font-size: 32px; fill: rgb(0, 0, 0); fill-opacity: 1; white-space: pre;">电源设备</text><g class="layers" style="opacity: 1;"><g class="legendfill"/><g class="legendlines"><path class="js-line" d="M5,0h30" style="fill: none; stroke: rgb(255, 215, 71); stroke-opacity: 1; stroke-width: 3px;"/></g><g class="legendsymbols"><g class="legendpoints"/></g></g><rect class="legendtoggle" x="0" y="-22.3" width="200" height="44.6" style="fill: rgb(0, 0, 0); fill-opacity: 0;"/></g></g><g class="groups" transform=""><g class="traces" transform="translate(0,161.10000000000002)" style="opacity: 1;"><text class="legendtext" text-anchor="start" x="40" y="12.48" style="font-family: Arial; font-size: 32px; fill: rgb(0, 0, 0); fill-opacity: 1; white-space: pre;">化工行业</text><g class="layers" style="opacity: 1;"><g class="legendfill"/><g class="legendlines"><path class="js-line" d="M5,0h30" style="fill: none; stroke: rgb(129, 169, 73); stroke-opacity: 1; stroke-width: 3px;"/></g><g class="legendsymbols"><g class="legendpoints"/></g></g><rect class="legendtoggle" x="0" y="-22.3" width="200" height="44.6" style="fill: rgb(0, 0, 0); fill-opacity: 0;"/></g></g><g class="groups" transform=""><g class="traces" transform="translate(0,205.70000000000002)" style="opacity: 1;"><text class="legendtext" text-anchor="start" x="40" y="12.48" style="font-family: Arial; font-size: 32px; fill: rgb(0, 0, 0); fill-opacity: 1; white-space: pre;">互联网服务</text><g class="layers" style="opacity: 1;"><g class="legendfill"/><g class="legendlines"><path class="js-line" d="M5,0h30" style="fill: none; stroke: rgb(3, 123, 102); stroke-opacity: 1; stroke-width: 3px;"/></g><g class="legendsymbols"><g class="legendpoints"/></g></g><rect class="legendtoggle" x="0" y="-22.3" width="200" height="44.6" style="fill: rgb(0, 0, 0); fill-opacity: 0;"/></g></g></g><rect class="scrollbar" rx="20" ry="3" width="0" height="0" style="fill: rgb(128, 139, 164); fill-opacity: 1;" x="0" y="0"/></g><g class="g-gtitle"><text class="gtitle" x="720" y="90" text-anchor="middle" dy="0.7em" style="opacity: 1; font-family: Arial; font-size: 35px; fill: rgb(0, 0, 0); fill-opacity: 1; white-space: pre;">Last 180 days top5 pnl</text></g><g class="g-xtitle"/><g class="g-ytitle"/></g></svg>