<svg class="main-svg" xmlns="http://www.w3.org/2000/svg" xmlns:xlink="http://www.w3.org/1999/xlink" width="1728" height="1080" style="" viewBox="0 0 1440 900"><rect x="0" y="0" width="1440" height="900" style="fill: rgb(0, 0, 0); fill-opacity: 0;"/><defs id="defs-354187"><g class="clips"/><g class="gradients"/><g class="patterns"/></defs><g class="bglayer"/><g class="layer-below"><g class="imagelayer"/><g class="shapelayer"/></g><g class="cartesianlayer"/><g class="polarlayer"/><g class="smithlayer"/><g class="ternarylayer"/><g class="geolayer"/><g class="funnelarealayer"/><g class="pielayer"><g class="trace" stroke-linejoin="round" style="opacity: 0.8;"><g class="slice"><path class="surface" d="M849.8101059296614,401.0347052993552a115.90909090909089,115.90909090909089 0 0 0 -108.00466761283299,-73.83880294699868l0,-270.4545454545454a386.3636363636363,386.3636363636363 0 0 1 360.0155587094433,246.1293431566623Z" style="pointer-events: none; fill: rgb(235, 74, 64); fill-opacity: 1; stroke-width: 2; stroke: rgb(255, 255, 255); stroke-opacity: 1;"/><g class="slicetext"><text data-notex="1" class="slicetext" transform="translate(883.5407873762127,208.88119946085556)" text-anchor="middle" x="0" y="0" style="font-family: Arial; font-size: 28px; fill: rgb(0, 0, 0); fill-opacity: 1; white-space: pre;"><tspan class="line" dy="0em" x="0" y="0">半导体</tspan><tspan class="line" dy="1.3em" x="0" y="0">67</tspan><tspan class="line" dy="2.6em" x="0" y="0">19.1%</tspan></text></g></g><g class="slice"><path class="surface" d="M706.4611628159798,322.9043303254895a115.90909090909089,115.90909090909089 0 0 0 -76.0823460659168,28.465429203522017l-177.52547415380585,-204.03521064632736a386.3636363636363,386.3636363636363 0 0 1 253.60782021972267,-94.88476401174006Z" style="pointer-events: none; fill: rgb(238, 95, 72); fill-opacity: 1; stroke-width: 2; stroke: rgb(255, 255, 255); stroke-opacity: 1;"/><g class="slicetext"><text data-notex="1" class="slicetext" transform="translate(606.2044453658453,143.9412038874171)" text-anchor="middle" x="0" y="0" style="font-family: Arial; font-size: 28px; fill: rgb(0, 0, 0); fill-opacity: 1; white-space: pre;"><tspan class="line" dy="0em" x="0" y="0">互联网服务</tspan><tspan class="line" dy="1.3em" x="0" y="0">40</tspan><tspan class="line" dy="2.6em" x="0" y="0">11.4%</tspan></text></g></g><g class="slice"><path class="surface" d="M609.9509885388181,369.14345592997154a115.90909090909089,115.90909090909089 0 0 0 -38.71311784419226,71.41497426602024l-267.8560824569211,-37.40027069228013a386.3636363636363,386.3636363636363 0 0 1 129.04372614730755,-238.04991422006748Z" style="pointer-events: none; fill: rgb(240, 115, 82); fill-opacity: 1; stroke-width: 2; stroke: rgb(255, 255, 255); stroke-opacity: 1;"/><g class="slicetext"><text data-notex="1" class="slicetext" transform="translate(434.5060927175432,293.3312594996927)" text-anchor="middle" x="0" y="0" style="font-family: Arial; font-size: 28px; fill: rgb(0, 0, 0); fill-opacity: 1; white-space: pre;"><tspan class="line" dy="0em" x="0" y="0">专用设备</tspan><tspan class="line" dy="1.3em" x="0" y="0">40</tspan><tspan class="line" dy="2.6em" x="0" y="0">11.4%</tspan></text></g></g><g class="slice"><path class="surface" d="M567.348988170076,466.69957800179856a115.90909090909089,115.90909090909089 0 0 0 15.468707163716914,75.77073920892576l-231.76243240824834,139.3981207952133a386.3636363636363,386.3636363636363 0 0 1 -51.56235721238971,-252.56913069641922Z" style="pointer-events: none; fill: rgb(242, 133, 93); fill-opacity: 1; stroke-width: 2; stroke: rgb(255, 255, 255); stroke-opacity: 1;"/><g class="slicetext"><text data-notex="1" class="slicetext" transform="translate(398.28374733020615,513.7725932357166)" text-anchor="middle" x="0" y="0" style="font-family: Arial; font-size: 28px; fill: rgb(0, 0, 0); fill-opacity: 1; white-space: pre;"><tspan class="line" dy="0em" x="0" y="0">汽车行业</tspan><tspan class="line" dy="1.3em" x="0" y="0">38</tspan><tspan class="line" dy="2.6em" x="0" y="0">10.8%</tspan></text></g></g><g class="slice"><path class="surface" d="M595.3124612316357,563.8899390045667a115.90909090909089,115.90909090909089 0 0 0 53.89426333079254,46.89192920016839l-106.00915130306575,248.81262226227287a386.3636363636363,386.3636363636363 0 0 1 -179.64754443597514,-156.30643066722797Z" style="pointer-events: none; fill: rgb(244, 150, 107); fill-opacity: 1; stroke-width: 2; stroke: rgb(255, 255, 255); stroke-opacity: 1;"/><g class="slicetext"><text data-notex="1" class="slicetext" transform="translate(500.77399697844146,700.0565960020488)" text-anchor="middle" x="0" y="0" style="font-family: Arial; font-size: 28px; fill: rgb(0, 0, 0); fill-opacity: 1; white-space: pre;"><tspan class="line" dy="0em" x="0" y="0">电子元件</tspan><tspan class="line" dy="1.3em" x="0" y="0">35</tspan><tspan class="line" dy="2.6em" x="0" y="0">9.97%</tspan></text></g></g><g class="slice"><path class="surface" d="M674.5675065844003,581.6339809695455a115.90909090909089,115.90909090909089 0 0 0 69.1252896862192,6.8277692384025785l55.283191298112385,264.74408381854556a386.3636363636363,386.3636363636363 0 0 1 -230.41763228739734,-22.75923079467526Z" style="pointer-events: none; fill: rgb(246, 166, 122); fill-opacity: 1; stroke-width: 2; stroke: rgb(255, 255, 255); stroke-opacity: 1;"/><g class="slicetext"><text data-notex="1" class="slicetext" transform="translate(690.7781816213187,743.9395218844952)" text-anchor="middle" x="0" y="0" style="font-family: Arial; font-size: 28px; fill: rgb(0, 0, 0); fill-opacity: 1; white-space: pre;"><tspan class="line" dy="0em" x="0" y="0">软件服务</tspan><tspan class="line" dy="1.3em" x="0" y="0">34</tspan><tspan class="line" dy="2.6em" x="0" y="0">9.69%</tspan></text></g></g><g class="slice"><path class="surface" d="M743.6927962706196,588.4617502079481a115.90909090909089,115.90909090909089 0 0 0 48.40140029477562,-22.701934336814617l168.21979198592214,211.77290369931146a386.3636363636363,386.3636363636363 0 0 1 -161.3380009825854,75.67311445604872Z" style="pointer-events: none; fill: rgb(248, 181, 139); fill-opacity: 1; stroke-width: 2; stroke: rgb(255, 255, 255); stroke-opacity: 1;"/><g class="slicetext"><text data-notex="1" class="slicetext" transform="translate(879.3630423117156,751.4064319015773)rotate(64.87179487179492)" text-anchor="middle" x="0" y="0" style="font-family: Arial; font-size: 28px; fill: rgb(0, 0, 0); fill-opacity: 1; white-space: pre;"><tspan class="line" dy="0em" x="0" y="0">有色金属</tspan><tspan class="line" dy="1.3em" x="0" y="0">26</tspan><tspan class="line" dy="2.6em" x="0" y="0">7.41%</tspan></text></g></g><g class="slice"><path class="surface" d="M792.0941965653952,565.7598158711335a115.90909090909089,115.90909090909089 0 0 0 33.064461621443584,-42.00969829470608l245.3702024359572,113.75027434499728a386.3636363636363,386.3636363636363 0 0 1 -110.21487207147862,140.03232764902026Z" style="pointer-events: none; fill: rgb(249, 196, 157); fill-opacity: 1; stroke-width: 2; stroke: rgb(255, 255, 255); stroke-opacity: 1;"/><g class="slicetext"><text data-notex="1" class="slicetext" transform="translate(986.4629963105529,650.4838067988303)rotate(38.205128205128176)" text-anchor="middle" x="0" y="0" style="font-family: Arial; font-size: 28px; fill: rgb(0, 0, 0); fill-opacity: 1; white-space: pre;"><tspan class="line" dy="0em" x="0" y="0">消费电子</tspan><tspan class="line" dy="1.3em" x="0" y="0">26</tspan><tspan class="line" dy="2.6em" x="0" y="0">7.41%</tspan></text></g></g><g class="slice"><path class="surface" d="M825.1586581868388,523.7501175764274a115.90909090909089,115.90909090909089 0 0 0 10.721416897922097,-46.15675032089344l270.3868418644421,6.051190262912594a386.3636363636363,386.3636363636363 0 0 1 -35.73805632640699,153.85583440297813Z" style="pointer-events: none; fill: rgb(251, 210, 176); fill-opacity: 1; stroke-width: 2; stroke: rgb(255, 255, 255); stroke-opacity: 1;"/><g class="slicetext"><text data-notex="1" class="slicetext" transform="translate(1032.4629376746134,521.1071967312656)scale(0.9583663888634605)rotate(13.076923076923094)" text-anchor="middle" x="0" y="0" style="font-family: Arial; font-size: 28px; fill: rgb(0, 0, 0); fill-opacity: 1; white-space: pre;"><tspan class="line" dy="0em" x="0" y="0">光学光电子</tspan><tspan class="line" dy="1.3em" x="0" y="0">23</tspan><tspan class="line" dy="2.6em" x="0" y="0">6.55%</tspan></text></g></g><g class="slice"><path class="surface" d="M835.8800750847608,477.59336725553396a115.90909090909089,115.90909090909089 0 0 0 -7.875407471927883,-44.663655217626136l252.01089109661035,-98.16400524488172a386.3636363636363,386.3636363636363 0 0 1 26.25135823975961,148.87885072542045Z" style="pointer-events: none; fill: rgb(253, 224, 197); fill-opacity: 1; stroke-width: 2; stroke: rgb(255, 255, 255); stroke-opacity: 1;"/><g class="slicetext"><text data-notex="1" class="slicetext" transform="translate(1036.2193517256953,391.9574824701484)scale(0.9986527636837191)rotate(-10)" text-anchor="middle" x="0" y="0" style="font-family: Arial; font-size: 28px; fill: rgb(0, 0, 0); fill-opacity: 1; white-space: pre;"><tspan class="line" dy="0em" x="0" y="0">通讯行业</tspan><tspan class="line" dy="1.3em" x="0" y="0">22</tspan><tspan class="line" dy="2.6em" x="0" y="0">6.27%</tspan></text></g></g></g></g><g class="iciclelayer"/><g class="treemaplayer"/><g class="sunburstlayer"/><g class="glimages"/><defs id="topdefs-354187"><g class="clips"/></defs><g class="layer-above"><g class="imagelayer"/><g class="shapelayer"/></g><g class="infolayer"><g class="g-gtitle"><text class="gtitle" x="72" y="25" text-anchor="start" dy="0em" style="opacity: 1; font-family: Arial; font-size: 32px; fill: rgb(0, 0, 0); fill-opacity: 1; white-space: pre;">Top10 Position</text></g></g></svg>