<svg class="main-svg" xmlns="http://www.w3.org/2000/svg" xmlns:xlink="http://www.w3.org/1999/xlink" width="1728" height="1080" style="" viewBox="0 0 1440 900"><rect x="0" y="0" width="1440" height="900" style="fill: rgb(0, 0, 0); fill-opacity: 0;"/><defs id="defs-df19ae"><g class="clips"/><g class="gradients"/><g class="patterns"/></defs><g class="bglayer"/><g class="layer-below"><g class="imagelayer"/><g class="shapelayer"/></g><g class="cartesianlayer"/><g class="polarlayer"/><g class="smithlayer"/><g class="ternarylayer"/><g class="geolayer"/><g class="funnelarealayer"/><g class="pielayer"><g class="trace" stroke-linejoin="round" style="opacity: 0.8;"><g class="slice"><path class="surface" d="M848.4140214890384,398.2516469058927a115.90909090909089,115.90909090909089 0 0 0 -106.98522744784243,-71.31000500696373l0,-270.4545454545454a386.3636363636363,386.3636363636363 0 0 1 356.6174248261415,237.7000166898791Z" style="pointer-events: none; fill: rgb(235, 74, 64); fill-opacity: 1; stroke-width: 2; stroke: rgb(255, 255, 255); stroke-opacity: 1;"/><g class="slicetext"><text data-notex="1" class="slicetext" transform="translate(880.7159553089693,206.97424606014917)" text-anchor="middle" x="0" y="0" style="font-family: Arial; font-size: 28px; fill: rgb(0, 0, 0); fill-opacity: 1; white-space: pre;"><tspan class="line" dy="0em" x="0" y="0">半导体</tspan><tspan class="line" dy="1.3em" x="0" y="0">374,563</tspan><tspan class="line" dy="2.6em" x="0" y="0">18.7%</tspan></text></g></g><g class="slice"><path class="surface" d="M702.3201405440514,324.73699861976735a115.90909090909089,115.90909090909089 0 0 0 -94.32134679264472,48.5414362475729l-220.08314251617102,-157.19119421020864a386.3636363636363,386.3636363636363 0 0 1 314.40448930881576,-161.80478749190968Z" style="pointer-events: none; fill: rgb(238, 95, 72); fill-opacity: 1; stroke-width: 2; stroke: rgb(255, 255, 255); stroke-opacity: 1;"/><g class="slicetext"><text data-notex="1" class="slicetext" transform="translate(581.0255221425053,178.05106204844805)" text-anchor="middle" x="0" y="0" style="font-family: Arial; font-size: 28px; fill: rgb(0, 0, 0); fill-opacity: 1; white-space: pre;"><tspan class="line" dy="0em" x="0" y="0">汽车行业</tspan><tspan class="line" dy="1.3em" x="0" y="0">302,809</tspan><tspan class="line" dy="2.6em" x="0" y="0">15.1%</tspan></text></g></g><g class="slice"><path class="surface" d="M587.6308691829365,400.9141070372232a115.90909090909089,115.90909090909089 0 0 0 -17.367665656561496,98.35929633299057l-260.6076957148145,72.31383056676934a386.3636363636363,386.3636363636363 0 0 1 57.89221885520499,-327.86432110996856Z" style="pointer-events: none; fill: rgb(240, 115, 82); fill-opacity: 1; stroke-width: 2; stroke: rgb(255, 255, 255); stroke-opacity: 1;"/><g class="slicetext"><text data-notex="1" class="slicetext" transform="translate(416.0434584134956,394.42301642208486)" text-anchor="middle" x="0" y="0" style="font-family: Arial; font-size: 28px; fill: rgb(0, 0, 0); fill-opacity: 1; white-space: pre;"><tspan class="line" dy="0em" x="0" y="0">互联网服务</tspan><tspan class="line" dy="1.3em" x="0" y="0">283,794</tspan><tspan class="line" dy="2.6em" x="0" y="0">14.2%</tspan></text></g></g><g class="slice"><path class="surface" d="M577.4539748700396,529.2427354836161a115.90909090909089,115.90909090909089 0 0 0 51.10682442589805,67.8249351245308l-141.35843872105238,230.57201252400785a386.3636363636363,386.3636363636363 0 0 1 -170.35608141966017,-226.08311708176933Z" style="pointer-events: none; fill: rgb(242, 133, 93); fill-opacity: 1; stroke-width: 2; stroke: rgb(255, 255, 255); stroke-opacity: 1;"/><g class="slicetext"><text data-notex="1" class="slicetext" transform="translate(463.3059755216842,641.5154822302409)" text-anchor="middle" x="0" y="0" style="font-family: Arial; font-size: 28px; fill: rgb(0, 0, 0); fill-opacity: 1; white-space: pre;"><tspan class="line" dy="0em" x="0" y="0">专用设备</tspan><tspan class="line" dy="1.3em" x="0" y="0">238,960</tspan><tspan class="line" dy="2.6em" x="0" y="0">11.9%</tspan></text></g></g><g class="slice"><path class="surface" d="M649.4625892772573,611.1483613240163a115.90909090909089,115.90909090909089 0 0 0 63.91652882004561,17.044544926613792l7.780128525720695,270.34261735277335a386.3636363636363,386.3636363636363 0 0 1 -213.05509606681872,-56.81514975537931Z" style="pointer-events: none; fill: rgb(244, 150, 107); fill-opacity: 1; stroke-width: 2; stroke: rgb(255, 255, 255); stroke-opacity: 1;"/><g class="slicetext"><text data-notex="1" class="slicetext" transform="translate(632.5935328117318,775.8653627447952)" text-anchor="middle" x="0" y="0" style="font-family: Arial; font-size: 28px; fill: rgb(0, 0, 0); fill-opacity: 1; white-space: pre;"><tspan class="line" dy="0em" x="0" y="0">电子元件</tspan><tspan class="line" dy="1.3em" x="0" y="0">184,362</tspan><tspan class="line" dy="2.6em" x="0" y="0">9.21%</tspan></text></g></g><g class="slice"><path class="surface" d="M723.3343407967375,590.8611217226171a115.90909090909089,115.90909090909089 0 0 0 53.249071957550555,-14.701669586646334l132.02796309333866,236.0387216505986a386.3636363636363,386.3636363636363 0 0 1 -177.49690652516853,49.00556528882112Z" style="pointer-events: none; fill: rgb(246, 166, 122); fill-opacity: 1; stroke-width: 2; stroke: rgb(255, 255, 255); stroke-opacity: 1;"/><g class="slicetext"><text data-notex="1" class="slicetext" transform="translate(829.6335830411285,770.9901885023395)rotate(74.5655701666733)" text-anchor="middle" x="0" y="0" style="font-family: Arial; font-size: 28px; fill: rgb(0, 0, 0); fill-opacity: 1; white-space: pre;"><tspan class="line" dy="0em" x="0" y="0">机械行业</tspan><tspan class="line" dy="1.3em" x="0" y="0">153,294</tspan><tspan class="line" dy="2.6em" x="0" y="0">7.66%</tspan></text></g></g><g class="slice"><path class="surface" d="M776.583412754288,576.1594521359708a115.90909090909089,115.90909090909089 0 0 0 39.86287523303431,-36.87079925820098l225.04133863708537,150.0068567147963a386.3636363636363,386.3636363636363 0 0 1 -132.87625077678103,122.90266419400328Z" style="pointer-events: none; fill: rgb(248, 181, 139); fill-opacity: 1; stroke-width: 2; stroke: rgb(255, 255, 255); stroke-opacity: 1;"/><g class="slicetext"><text data-notex="1" class="slicetext" transform="translate(953.8959251155238,688.2514410196483)rotate(47.23300291778253)" text-anchor="middle" x="0" y="0" style="font-family: Arial; font-size: 28px; fill: rgb(0, 0, 0); fill-opacity: 1; white-space: pre;"><tspan class="line" dy="0em" x="0" y="0">软件服务</tspan><tspan class="line" dy="1.3em" x="0" y="0">150,632</tspan><tspan class="line" dy="2.6em" x="0" y="0">7.53%</tspan></text></g></g><g class="slice"><path class="surface" d="M816.4462879873223,539.2886528777699a115.90909090909089,115.90909090909089 0 0 0 16.423418676105403,-37.919226014758955l263.3626488813313,61.52866268035874a386.3636363636363,386.3636363636363 0 0 1 -54.74472892035135,126.39742004919653Z" style="pointer-events: none; fill: rgb(249, 196, 157); fill-opacity: 1; stroke-width: 2; stroke: rgb(255, 255, 255); stroke-opacity: 1;"/><g class="slicetext"><text data-notex="1" class="slicetext" transform="translate(1031.199798991534,582.7443581176329)scale(0.9222313274819488)rotate(23.418202166353637)" text-anchor="middle" x="0" y="0" style="font-family: Arial; font-size: 28px; fill: rgb(0, 0, 0); fill-opacity: 1; white-space: pre;"><tspan class="line" dy="0em" x="0" y="0">消费电子</tspan><tspan class="line" dy="1.3em" x="0" y="0">114,178</tspan><tspan class="line" dy="2.6em" x="0" y="0">5.7%</tspan></text></g></g><g class="slice"><path class="surface" d="M832.8697066634277,501.3694268630109a115.90909090909089,115.90909090909089 0 0 0 2.5254480355578437,-37.27243687718077l269.2553609642996,-25.440356699729733a386.3636363636363,386.3636363636363 0 0 1 -8.418160118526146,124.24145625726925Z" style="pointer-events: none; fill: rgb(251, 210, 176); fill-opacity: 1; stroke-width: 2; stroke: rgb(255, 255, 255); stroke-opacity: 1;"/><g class="slicetext"><text data-notex="1" class="slicetext" transform="translate(1053.5348224610896,474.5047445094476)scale(0.8563646243238606)rotate(3.8762340621128715)" text-anchor="middle" x="0" y="0" style="font-family: Arial; font-size: 28px; fill: rgb(0, 0, 0); fill-opacity: 1; white-space: pre;"><tspan class="line" dy="0em" x="0" y="0">电源设备</tspan><tspan class="line" dy="1.3em" x="0" y="0">103,120</tspan><tspan class="line" dy="2.6em" x="0" y="0">5.15%</tspan></text></g></g><g class="slice"><path class="surface" d="M835.3951546989856,464.09698998583013a115.90909090909089,115.90909090909089 0 0 0 -8.409927251143033,-33.69607588795708l249.63219737829922,-104.06453377162958a386.3636363636363,386.3636363636363 0 0 1 28.033090837143448,112.32025295985693Z" style="pointer-events: none; fill: rgb(253, 224, 197); fill-opacity: 1; stroke-width: 2; stroke: rgb(255, 255, 255); stroke-opacity: 1;"/><g class="slicetext"><text data-notex="1" class="slicetext" transform="translate(1041.8680296078437,371.9432015759266)scale(0.8194404870030957)rotate(-14.013689595907067)" text-anchor="middle" x="0" y="0" style="font-family: Arial; font-size: 28px; fill: rgb(0, 0, 0); fill-opacity: 1; white-space: pre;"><tspan class="line" dy="0em" x="0" y="0">通讯行业</tspan><tspan class="line" dy="1.3em" x="0" y="0">95,808</tspan><tspan class="line" dy="2.6em" x="0" y="0">4.79%</tspan></text></g></g></g></g><g class="iciclelayer"/><g class="treemaplayer"/><g class="sunburstlayer"/><g class="glimages"/><defs id="topdefs-df19ae"><g class="clips"/></defs><g class="layer-above"><g class="imagelayer"/><g class="shapelayer"/></g><g class="infolayer"><g class="g-gtitle"><text class="gtitle" x="72" y="25" text-anchor="start" dy="0em" style="opacity: 1; font-family: Arial; font-size: 32px; fill: rgb(0, 0, 0); fill-opacity: 1; white-space: pre;">Top10 Profit</text></g></g></svg>