<svg class="main-svg" xmlns="http://www.w3.org/2000/svg" xmlns:xlink="http://www.w3.org/1999/xlink" width="1728" height="1080" style="" viewBox="0 0 1440 900"><rect x="0" y="0" width="1440" height="900" style="fill: rgb(0, 0, 0); fill-opacity: 0;"/><defs id="defs-70d624"><g class="clips"><clipPath id="clip70d624xyplot" class="plotclip"><rect width="1325" height="692"/></clipPath><clipPath class="axesclip" id="clip70d624x"><rect x="95" y="0" width="1325" height="900"/></clipPath><clipPath class="axesclip" id="clip70d624y"><rect x="0" y="0" width="1440" height="692"/></clipPath><clipPath class="axesclip" id="clip70d624xy"><rect x="95" y="0" width="1325" height="692"/></clipPath></g><g class="gradients"/><g class="patterns"/></defs><g class="bglayer"><rect class="bg" x="95" y="0" width="1325" height="692" style="fill: rgb(0, 0, 0); fill-opacity: 0; stroke-width: 0;"/></g><g class="layer-below"><g class="imagelayer"/><g class="shapelayer"/></g><g class="cartesianlayer"><g class="subplot xy"><g class="layer-subplot"><g class="shapelayer"/><g class="imagelayer"/></g><g class="minor-gridlayer"><g class="x"/><g class="y"/></g><g class="gridlayer"><g class="x"><path class="xgrid crisp" transform="translate(128.13,0)" d="M0,0v692" style="stroke: rgb(255, 255, 255); stroke-opacity: 0.5; stroke-width: 1px;"/><path class="xgrid crisp" transform="translate(282.71000000000004,0)" d="M0,0v692" style="stroke: rgb(255, 255, 255); stroke-opacity: 0.5; stroke-width: 1px;"/><path class="xgrid crisp" transform="translate(437.29,0)" d="M0,0v692" style="stroke: rgb(255, 255, 255); stroke-opacity: 0.5; stroke-width: 1px;"/><path class="xgrid crisp" transform="translate(591.88,0)" d="M0,0v692" style="stroke: rgb(255, 255, 255); stroke-opacity: 0.5; stroke-width: 1px;"/><path class="xgrid crisp" transform="translate(746.46,0)" d="M0,0v692" style="stroke: rgb(255, 255, 255); stroke-opacity: 0.5; stroke-width: 1px;"/><path class="xgrid crisp" transform="translate(901.04,0)" d="M0,0v692" style="stroke: rgb(255, 255, 255); stroke-opacity: 0.5; stroke-width: 1px;"/><path class="xgrid crisp" transform="translate(1055.63,0)" d="M0,0v692" style="stroke: rgb(255, 255, 255); stroke-opacity: 0.5; stroke-width: 1px;"/><path class="xgrid crisp" transform="translate(1210.21,0)" d="M0,0v692" style="stroke: rgb(255, 255, 255); stroke-opacity: 0.5; stroke-width: 1px;"/><path class="xgrid crisp" transform="translate(1364.79,0)" d="M0,0v692" style="stroke: rgb(255, 255, 255); stroke-opacity: 0.5; stroke-width: 1px;"/></g><g class="y"><path class="ygrid crisp" transform="translate(0,629.1)" d="M95,0h1325" style="stroke: rgb(255, 255, 255); stroke-opacity: 0.5; stroke-width: 1px;"/><path class="ygrid crisp" transform="translate(0,515.4)" d="M95,0h1325" style="stroke: rgb(255, 255, 255); stroke-opacity: 0.5; stroke-width: 1px;"/><path class="ygrid crisp" transform="translate(0,401.71)" d="M95,0h1325" style="stroke: rgb(255, 255, 255); stroke-opacity: 0.5; stroke-width: 1px;"/><path class="ygrid crisp" transform="translate(0,288.01)" d="M95,0h1325" style="stroke: rgb(255, 255, 255); stroke-opacity: 0.5; stroke-width: 1px;"/><path class="ygrid crisp" transform="translate(0,174.31)" d="M95,0h1325" style="stroke: rgb(255, 255, 255); stroke-opacity: 0.5; stroke-width: 1px;"/><path class="ygrid crisp" transform="translate(0,60.61)" d="M95,0h1325" style="stroke: rgb(255, 255, 255); stroke-opacity: 0.5; stroke-width: 1px;"/></g></g><g class="zerolinelayer"/><g class="layer-between"><g class="shapelayer"/><g class="imagelayer"/></g><path class="xlines-below"/><path class="ylines-below"/><g class="overlines-below"/><g class="xaxislayer-below"/><g class="yaxislayer-below"/><g class="overaxes-below"/><g class="overplot"><g class="xy" transform="translate(95,0)" clip-path="url(#clip70d624xyplot)"><g class="scatterlayer mlayer"><g class="trace scatter tracefd0e80" style="stroke-miterlimit: 2; opacity: 1;"><g class="fills"/><g class="errorbars"/><g class="lines"><path class="js-line" d="M1325,316.93L1313.96,331.34L1302.92,283.19L1291.88,284.97L1280.83,281.22L1247.71,285.99L1236.67,267.79L1225.63,288.66L1214.58,301.47L1203.54,359.52L1170.42,320.41L1159.38,234.58L1148.33,228.78L1137.29,258.87L1126.25,267.64L1093.13,267.18L1082.08,304.66L1071.04,309.61L1060,365.46L1048.96,325.84L1015.83,340.94L1004.79,323.76L993.75,273.28L982.71,308.68L971.67,288.68L938.54,306.52L927.5,316.84L916.46,368.26L817.08,381.04L783.96,351.29L772.92,368.66L761.88,349.49L750.83,348.03L739.79,382.46L706.67,382.03L695.63,408.44L684.58,382.8L673.54,386.75L662.5,421.89L629.38,398.89L618.33,394.93L607.29,391.18L596.25,402.11L585.21,423.78L552.08,359.36L541.04,302.75L518.96,180.96L507.92,95.65L474.79,81.14L463.75,51.84L452.71,89.33L441.67,65.15L430.63,94.03L397.5,34.6L386.46,101.08L375.42,117L364.38,180.38L353.33,137.76L320.21,98.01L309.17,88.97L298.13,88.72L287.08,126.92L276.04,149.09L242.92,125.38L231.88,143.43L220.83,154.33L209.79,152.16L198.75,132.52L165.63,146.74L154.58,179.47L143.54,181.57L132.5,229.04L121.46,213.18L88.33,211.57L77.29,140.94L66.25,148.11L55.21,161.46L44.17,222.51L11.04,171.62L0,99.58" style="vector-effect: none; fill: none; stroke: rgb(99, 110, 250); stroke-opacity: 1; stroke-width: 3px; opacity: 1;"/></g><g class="points"/><g class="text"/></g><g class="trace scatter trace9dca86" style="stroke-miterlimit: 2; opacity: 1;"><g class="fills"/><g class="errorbars"/><g class="lines"><path class="js-line" d="M1325,398.51L1313.96,434.02L1302.92,395.54L1291.88,404.39L1280.83,404.26L1247.71,406.29L1236.67,425.67L1225.63,440.98L1214.58,464.56L1203.54,483.29L1170.42,483.37L1159.38,435.88L1148.33,435.21L1137.29,445.57L1126.25,454.7L1093.13,455.98L1082.08,469.15L1071.04,486.13L1060,529.32L1048.96,517.52L1015.83,526.97L1004.79,525.5L993.75,511.52L982.71,522.82L971.67,523.03L938.54,521.89L927.5,526.77L916.46,555.71L817.08,564.26L783.96,551.33L772.92,560.96L761.88,555.71L750.83,548.1L739.79,566.25L706.67,576L695.63,580.22L684.58,574.47L673.54,575.48L662.5,605.12L629.38,604.05L618.33,607.86L607.29,618.94L596.25,624.42L585.21,636.18L552.08,628.01L541.04,610.9L518.96,586.32L507.92,570.57L474.79,562.11L463.75,558.46L452.71,573.25L441.67,568.44L430.63,579.28L397.5,555.28L386.46,570.02L364.38,574.92L353.33,558.67L320.21,551.42L309.17,541.01L298.13,537.45L287.08,531.59L276.04,548.56L242.92,556.18L231.88,548.79L220.83,567.2L209.79,569.16L198.75,569.64L165.63,589.15L154.58,608.83L143.54,602.94L132.5,615.19L121.46,598.5L88.33,609.95L77.29,587.52L66.25,586.95L55.21,598.2L44.17,618.51L11.04,608.52L0,590.43" style="vector-effect: none; fill: none; stroke: rgb(239, 85, 59); stroke-opacity: 1; stroke-width: 3px; opacity: 1;"/></g><g class="points"/><g class="text"/></g><g class="trace scatter tracec8b025" style="stroke-miterlimit: 2; opacity: 1;"><g class="fills"/><g class="errorbars"/><g class="lines"><path class="js-line" d="M1325,420.13L1313.96,425.7L1302.92,413.49L1291.88,418.5L1280.83,431.84L1247.71,411.45L1236.67,386.35L1225.63,429.19L1214.58,453.2L1203.54,462.55L1170.42,446.93L1159.38,404.58L1148.33,386.11L1137.29,403.17L1126.25,405.11L1093.13,396.44L1082.08,449.14L1071.04,449.71L1060,469.57L1048.96,438.46L1015.83,446.43L1004.79,474.55L993.75,480.26L982.71,505.45L971.67,501.54L938.54,534.26L927.5,548.58L916.46,564.91L817.08,593.22L783.96,586.33L772.92,610.59L761.88,612.43L750.83,613.51L739.79,618.48L706.67,622.38L695.63,608.51L684.58,614.18L673.54,615.7L662.5,638.69L629.38,633.16L618.33,616.8L596.25,625.13L585.21,639.93L552.08,613.84L541.04,565.87L518.96,458.28L507.92,420.68L474.79,424.36L463.75,419.62L452.71,435.36L441.67,407.27L430.63,405.79L397.5,361.99L386.46,373.92L375.42,401.24L364.38,425.23L353.33,385.03L320.21,376.69L309.17,364.96L298.13,370.83L287.08,379.34L276.04,393.89L242.92,384.38L231.88,390.72L220.83,409.08L209.79,390.42L198.75,386.44L165.63,413.3L154.58,442.79L143.54,442.22L132.5,468.64L121.46,451.5L88.33,457.38L77.29,435.49L66.25,432.67L55.21,468.38L44.17,487.75L11.04,415.23L0,415.12" style="vector-effect: none; fill: none; stroke: rgb(0, 204, 150); stroke-opacity: 1; stroke-width: 3px; opacity: 1;"/></g><g class="points"/><g class="text"/></g><g class="trace scatter trace5a0e8a" style="stroke-miterlimit: 2; opacity: 1;"><g class="fills"/><g class="errorbars"/><g class="lines"><path class="js-line" d="M1325,471.11L1313.96,473.76L1302.92,441.29L1291.88,444.28L1280.83,448.13L1247.71,455.42L1236.67,452.93L1225.63,475.24L1214.58,489.75L1203.54,512.53L1170.42,514.8L1159.38,463.04L1148.33,463.67L1137.29,482.53L1126.25,483.48L1093.13,476.02L1082.08,505.84L1071.04,528.73L1060,565.03L1048.96,554.16L1015.83,573.42L1004.79,565.52L993.75,552.9L982.71,566.85L971.67,566.05L938.54,571.49L927.5,578.18L916.46,591.65L817.08,599.19L783.96,578.72L772.92,592.84L761.88,591.98L750.83,587.25L739.79,594.86L706.67,596.88L695.63,594.63L684.58,594.15L673.54,590.81L662.5,618.34L629.38,610.77L618.33,604.36L607.29,608.82L596.25,619.36L585.21,633.57L552.08,620.43L541.04,590.96L518.96,540.35L507.92,516.38L474.79,507.35L463.75,505.19L452.71,519.3L441.67,507.32L430.63,517.72L397.5,491.73L386.46,507.27L375.42,519.04L364.38,523.84L353.33,495.67L320.21,481.42L309.17,464.12L298.13,463.88L287.08,470.55L276.04,486.19L242.92,486.83L231.88,487.91L220.83,500.25L209.79,494.83L198.75,502.94L165.63,533.52L154.58,549.59L143.54,548.81L132.5,560.77L121.46,546.59L88.33,551.79L77.29,525.73L66.25,525.36L55.21,545.54L44.17,575.95L11.04,560.29L0,545.28" style="vector-effect: none; fill: none; stroke: rgb(171, 99, 250); stroke-opacity: 1; stroke-width: 3px; opacity: 1;"/></g><g class="points"/><g class="text"/></g><g class="trace scatter trace19d477" style="stroke-miterlimit: 2; opacity: 1;"><g class="fills"/><g class="errorbars"/><g class="lines"><path class="js-line" d="M1325,533.18L1313.96,546.3L1302.92,539.93L1291.88,541.29L1280.83,546.22L1247.71,557.41L1236.67,562.65L1225.63,569.4L1214.58,582.75L1203.54,592.91L1170.42,593.33L1159.38,545.51L1148.33,544.45L1137.29,555.13L1126.25,552.95L1093.13,546.36L1082.08,566.24L1071.04,574.77L1060,599.05L1048.96,588.24L1015.83,607.95L1004.79,604.12L993.75,593L982.71,599.78L971.67,600.82L938.54,603.39L927.5,611.27L916.46,628.21L817.08,624.12L783.96,605.5L772.92,610.63L761.88,602.88L750.83,605.06L739.79,613.72L706.67,623.15L695.63,629.38L684.58,627.14L673.54,619.32L662.5,634.36L629.38,632.63L618.33,630.19L607.29,639.76L596.25,642.4L585.21,657.4L552.08,648.8L541.04,638.47L518.96,599.6L507.92,567.39L474.79,561.84L463.75,555.14L452.71,580.5L441.67,576.22L430.63,583.69L397.5,565.97L386.46,581.02L375.42,585.75L364.38,595.17L353.33,588.77L320.21,587.6L309.17,576.14L298.13,576.78L287.08,588.65L276.04,592.62L242.92,586.76L231.88,588.75L220.83,599.14L209.79,595.2L198.75,593.29L165.63,606.11L154.58,616.83L143.54,613.02L132.5,627.83L121.46,622.23L88.33,623.18L77.29,598.32L66.25,595.56L55.21,603.48L44.17,623.28L11.04,605.73L0,595.95" style="vector-effect: none; fill: none; stroke: rgb(255, 161, 90); stroke-opacity: 1; stroke-width: 3px; opacity: 1;"/></g><g class="points"/><g class="text"/></g></g></g></g><path class="xlines-above crisp" d="" style="fill: none; stroke-width: 1px; stroke: rgb(0, 0, 0); stroke-opacity: 0;"/><path class="ylines-above crisp" d="" style="fill: none; stroke-width: 1px; stroke: rgb(0, 0, 0); stroke-opacity: 0;"/><g class="overlines-above"/><g class="xaxislayer-above"><path class="xtick ticks crisp" d="M0,693v5" transform="translate(128.13,0)" style="stroke: rgb(68, 68, 68); stroke-opacity: 1; stroke-width: 1px;"/><path class="xtick ticks crisp" d="M0,693v5" transform="translate(282.71000000000004,0)" style="stroke: rgb(68, 68, 68); stroke-opacity: 1; stroke-width: 1px;"/><path class="xtick ticks crisp" d="M0,693v5" transform="translate(437.29,0)" style="stroke: rgb(68, 68, 68); stroke-opacity: 1; stroke-width: 1px;"/><path class="xtick ticks crisp" d="M0,693v5" transform="translate(591.88,0)" style="stroke: rgb(68, 68, 68); stroke-opacity: 1; stroke-width: 1px;"/><path class="xtick ticks crisp" d="M0,693v5" transform="translate(746.46,0)" style="stroke: rgb(68, 68, 68); stroke-opacity: 1; stroke-width: 1px;"/><path class="xtick ticks crisp" d="M0,693v5" transform="translate(901.04,0)" style="stroke: rgb(68, 68, 68); stroke-opacity: 1; stroke-width: 1px;"/><path class="xtick ticks crisp" d="M0,693v5" transform="translate(1055.63,0)" style="stroke: rgb(68, 68, 68); stroke-opacity: 1; stroke-width: 1px;"/><path class="xtick ticks crisp" d="M0,693v5" transform="translate(1210.21,0)" style="stroke: rgb(68, 68, 68); stroke-opacity: 1; stroke-width: 1px;"/><path class="xtick ticks crisp" d="M0,693v5" transform="translate(1364.79,0)" style="stroke: rgb(68, 68, 68); stroke-opacity: 1; stroke-width: 1px;"/><g class="xtick"><text text-anchor="middle" x="0" y="731.6" transform="translate(128.13,0)" style="font-family: Arial; font-size: 28px; fill: rgb(255, 255, 255); fill-opacity: 1; white-space: pre; opacity: 1;"><tspan class="line" dy="0em" x="0" y="731.6">Nov 17</tspan><tspan class="line" dy="1.3em" x="0" y="731.6">2024</tspan></text></g><g class="xtick"><text text-anchor="middle" x="0" y="731.6" style="font-family: Arial; font-size: 28px; fill: rgb(255, 255, 255); fill-opacity: 1; white-space: pre; opacity: 1;" transform="translate(282.71000000000004,0)">Dec 1</text></g><g class="xtick"><text text-anchor="middle" x="0" y="731.6" style="font-family: Arial; font-size: 28px; fill: rgb(255, 255, 255); fill-opacity: 1; white-space: pre; opacity: 1;" transform="translate(437.29,0)">Dec 15</text></g><g class="xtick"><text text-anchor="middle" x="0" y="731.6" style="font-family: Arial; font-size: 28px; fill: rgb(255, 255, 255); fill-opacity: 1; white-space: pre; opacity: 1;" transform="translate(591.88,0)">Dec 29</text></g><g class="xtick"><text text-anchor="middle" x="0" y="731.6" style="font-family: Arial; font-size: 28px; fill: rgb(255, 255, 255); fill-opacity: 1; white-space: pre; opacity: 1;" transform="translate(746.46,0)"><tspan class="line" dy="0em" x="0" y="731.6">Jan 12</tspan><tspan class="line" dy="1.3em" x="0" y="731.6">2025</tspan></text></g><g class="xtick"><text text-anchor="middle" x="0" y="731.6" style="font-family: Arial; font-size: 28px; fill: rgb(255, 255, 255); fill-opacity: 1; white-space: pre; opacity: 1;" transform="translate(901.04,0)">Jan 26</text></g><g class="xtick"><text text-anchor="middle" x="0" y="731.6" style="font-family: Arial; font-size: 28px; fill: rgb(255, 255, 255); fill-opacity: 1; white-space: pre; opacity: 1;" transform="translate(1055.63,0)">Feb 9</text></g><g class="xtick"><text text-anchor="middle" x="0" y="731.6" style="font-family: Arial; font-size: 28px; fill: rgb(255, 255, 255); fill-opacity: 1; white-space: pre; opacity: 1;" transform="translate(1210.21,0)">Feb 23</text></g><g class="xtick"><text text-anchor="middle" x="0" y="731.6" style="font-family: Arial; font-size: 28px; fill: rgb(255, 255, 255); fill-opacity: 1; white-space: pre; opacity: 1;" transform="translate(1364.79,0)">Mar 9</text></g></g><g class="yaxislayer-above"><path class="ytick ticks crisp" d="M95,0h5" transform="translate(0,629.1)" style="stroke: rgb(68, 68, 68); stroke-opacity: 1; stroke-width: 1px;"/><path class="ytick ticks crisp" d="M95,0h5" transform="translate(0,515.4)" style="stroke: rgb(68, 68, 68); stroke-opacity: 1; stroke-width: 1px;"/><path class="ytick ticks crisp" d="M95,0h5" transform="translate(0,401.71)" style="stroke: rgb(68, 68, 68); stroke-opacity: 1; stroke-width: 1px;"/><path class="ytick ticks crisp" d="M95,0h5" transform="translate(0,288.01)" style="stroke: rgb(68, 68, 68); stroke-opacity: 1; stroke-width: 1px;"/><path class="ytick ticks crisp" d="M95,0h5" transform="translate(0,174.31)" style="stroke: rgb(68, 68, 68); stroke-opacity: 1; stroke-width: 1px;"/><path class="ytick ticks crisp" d="M95,0h5" transform="translate(0,60.61)" style="stroke: rgb(68, 68, 68); stroke-opacity: 1; stroke-width: 1px;"/><g class="ytick"><text text-anchor="end" x="94" y="9.799999999999999" transform="translate(0,629.1)" style="font-family: 'Open Sans', verdana, arial, sans-serif; font-size: 28px; fill: rgb(255, 255, 255); fill-opacity: 1; white-space: pre; opacity: 1;">100k</text></g><g class="ytick"><text text-anchor="end" x="94" y="9.799999999999999" style="font-family: 'Open Sans', verdana, arial, sans-serif; font-size: 28px; fill: rgb(255, 255, 255); fill-opacity: 1; white-space: pre; opacity: 1;" transform="translate(0,515.4)">200k</text></g><g class="ytick"><text text-anchor="end" x="94" y="9.799999999999999" style="font-family: 'Open Sans', verdana, arial, sans-serif; font-size: 28px; fill: rgb(255, 255, 255); fill-opacity: 1; white-space: pre; opacity: 1;" transform="translate(0,401.71)">300k</text></g><g class="ytick"><text text-anchor="end" x="94" y="9.799999999999999" style="font-family: 'Open Sans', verdana, arial, sans-serif; font-size: 28px; fill: rgb(255, 255, 255); fill-opacity: 1; white-space: pre; opacity: 1;" transform="translate(0,288.01)">400k</text></g><g class="ytick"><text text-anchor="end" x="94" y="9.799999999999999" style="font-family: 'Open Sans', verdana, arial, sans-serif; font-size: 28px; fill: rgb(255, 255, 255); fill-opacity: 1; white-space: pre; opacity: 1;" transform="translate(0,174.31)">500k</text></g><g class="ytick"><text text-anchor="end" x="94" y="9.799999999999999" style="font-family: 'Open Sans', verdana, arial, sans-serif; font-size: 28px; fill: rgb(255, 255, 255); fill-opacity: 1; white-space: pre; opacity: 1;" transform="translate(0,60.61)">600k</text></g></g><g class="overaxes-above"/></g></g><g class="polarlayer"/><g class="smithlayer"/><g class="ternarylayer"/><g class="geolayer"/><g class="funnelarealayer"/><g class="pielayer"/><g class="iciclelayer"/><g class="treemaplayer"/><g class="sunburstlayer"/><g class="glimages"/><defs id="topdefs-70d624"><g class="clips"/><clipPath id="legend70d624"><rect width="785" height="50" x="0" y="0"/></clipPath></defs><g class="layer-above"><g class="imagelayer"/><g class="shapelayer"/></g><g class="infolayer"><g class="legend" pointer-events="all" transform="translate(365,849.6)"><rect class="bg" shape-rendering="crispEdges" width="785" height="50" x="0" y="0" style="stroke: rgb(68, 68, 68); stroke-opacity: 1; fill: rgb(0, 0, 0); fill-opacity: 0; stroke-width: 0px;"/><g class="scrollbox" transform="" clip-path="url(#legend70d624)"><g class="groups" transform=""><g class="traces" transform="translate(0,24.7)" style="opacity: 1;"><text class="legendtext" text-anchor="start" x="40" y="10.92" style="font-family: Arial; font-size: 28px; fill: rgb(255, 255, 255); fill-opacity: 1; white-space: pre;">半导体</text><g class="layers" style="opacity: 1;"><g class="legendfill"/><g class="legendlines"><path class="js-line" d="M5,0h30" style="fill: none; stroke: rgb(99, 110, 250); stroke-opacity: 1; stroke-width: 3px;"/></g><g class="legendsymbols"><g class="legendpoints"/></g></g><rect class="legendtoggle" x="0" y="-19.7" width="126.5" height="39.4" style="fill: rgb(0, 0, 0); fill-opacity: 0;"/></g></g><g class="groups" transform="translate(129,0)"><g class="traces" transform="translate(0,24.7)" style="opacity: 1;"><text class="legendtext" text-anchor="start" x="40" y="10.92" style="font-family: Arial; font-size: 28px; fill: rgb(255, 255, 255); fill-opacity: 1; white-space: pre;">汽车行业</text><g class="layers" style="opacity: 1;"><g class="legendfill"/><g class="legendlines"><path class="js-line" d="M5,0h30" style="fill: none; stroke: rgb(239, 85, 59); stroke-opacity: 1; stroke-width: 3px;"/></g><g class="legendsymbols"><g class="legendpoints"/></g></g><rect class="legendtoggle" x="0" y="-19.7" width="154.5" height="39.4" style="fill: rgb(0, 0, 0); fill-opacity: 0;"/></g></g><g class="groups" transform="translate(286,0)"><g class="traces" transform="translate(0,24.7)" style="opacity: 1;"><text class="legendtext" text-anchor="start" x="40" y="10.92" style="font-family: Arial; font-size: 28px; fill: rgb(255, 255, 255); fill-opacity: 1; white-space: pre;">互联网服务</text><g class="layers" style="opacity: 1;"><g class="legendfill"/><g class="legendlines"><path class="js-line" d="M5,0h30" style="fill: none; stroke: rgb(0, 204, 150); stroke-opacity: 1; stroke-width: 3px;"/></g><g class="legendsymbols"><g class="legendpoints"/></g></g><rect class="legendtoggle" x="0" y="-19.7" width="182.5" height="39.4" style="fill: rgb(0, 0, 0); fill-opacity: 0;"/></g></g><g class="groups" transform="translate(471,0)"><g class="traces" transform="translate(0,24.7)" style="opacity: 1;"><text class="legendtext" text-anchor="start" x="40" y="10.92" style="font-family: Arial; font-size: 28px; fill: rgb(255, 255, 255); fill-opacity: 1; white-space: pre;">专用设备</text><g class="layers" style="opacity: 1;"><g class="legendfill"/><g class="legendlines"><path class="js-line" d="M5,0h30" style="fill: none; stroke: rgb(171, 99, 250); stroke-opacity: 1; stroke-width: 3px;"/></g><g class="legendsymbols"><g class="legendpoints"/></g></g><rect class="legendtoggle" x="0" y="-19.7" width="154.5" height="39.4" style="fill: rgb(0, 0, 0); fill-opacity: 0;"/></g></g><g class="groups" transform="translate(628,0)"><g class="traces" transform="translate(0,24.7)" style="opacity: 1;"><text class="legendtext" text-anchor="start" x="40" y="10.92" style="font-family: Arial; font-size: 28px; fill: rgb(255, 255, 255); fill-opacity: 1; white-space: pre;">电子元件</text><g class="layers" style="opacity: 1;"><g class="legendfill"/><g class="legendlines"><path class="js-line" d="M5,0h30" style="fill: none; stroke: rgb(255, 161, 90); stroke-opacity: 1; stroke-width: 3px;"/></g><g class="legendsymbols"><g class="legendpoints"/></g></g><rect class="legendtoggle" x="0" y="-19.7" width="154.5" height="39.4" style="fill: rgb(0, 0, 0); fill-opacity: 0;"/></g></g></g><rect class="scrollbar" rx="20" ry="3" width="0" height="0" x="0" y="0" style="fill: rgb(128, 139, 164); fill-opacity: 1;"/></g><g class="g-gtitle"><text class="gtitle" x="720" y="90" text-anchor="middle" dy="0.7em" style="opacity: 1; font-family: Arial; font-size: 32px; fill: rgb(255, 255, 255); fill-opacity: 1; white-space: pre;">Last 120 days top5 pnl</text></g><g class="g-xtitle"><text class="xtitle" x="757.5" y="811.9" text-anchor="middle" style="opacity: 1; font-family: Arial; font-size: 32px; fill: rgb(255, 255, 255); fill-opacity: 1; white-space: pre;">buy_date</text></g><g class="g-ytitle"/></g></svg>