<svg class="main-svg" xmlns="http://www.w3.org/2000/svg" xmlns:xlink="http://www.w3.org/1999/xlink" width="1728" height="1080" style="" viewBox="0 0 1440 900"><rect x="0" y="0" width="1440" height="900" style="fill: rgb(0, 0, 0); fill-opacity: 0;"/><defs id="defs-f188eb"><g class="clips"><clipPath id="clipf188ebxyplot" class="plotclip"><rect width="1245" height="637"/></clipPath><clipPath class="axesclip" id="clipf188ebx"><rect x="115" y="0" width="1245" height="900"/></clipPath><clipPath class="axesclip" id="clipf188eby"><rect x="0" y="60" width="1440" height="637"/></clipPath><clipPath class="axesclip" id="clipf188ebxy"><rect x="115" y="60" width="1245" height="637"/></clipPath></g><g class="gradients"/><g class="patterns"/></defs><g class="bglayer"><rect class="bg" x="115" y="60" width="1245" height="637" style="fill: rgb(0, 0, 0); fill-opacity: 0; stroke-width: 0;"/></g><g class="layer-below"><g class="imagelayer"/><g class="shapelayer"/></g><g class="cartesianlayer"><g class="subplot xy"><g class="layer-subplot"><g class="shapelayer"/><g class="imagelayer"/></g><g class="minor-gridlayer"><g class="x"/><g class="y"/></g><g class="gridlayer"><g class="x"><path class="xgrid crisp" transform="translate(146.13,0)" d="M0,60v637" style="stroke: rgb(255, 255, 255); stroke-opacity: 0.5; stroke-width: 1px;"/><path class="xgrid crisp" transform="translate(291.38,0)" d="M0,60v637" style="stroke: rgb(255, 255, 255); stroke-opacity: 0.5; stroke-width: 1px;"/><path class="xgrid crisp" transform="translate(436.63,0)" d="M0,60v637" style="stroke: rgb(255, 255, 255); stroke-opacity: 0.5; stroke-width: 1px;"/><path class="xgrid crisp" transform="translate(581.88,0)" d="M0,60v637" style="stroke: rgb(255, 255, 255); stroke-opacity: 0.5; stroke-width: 1px;"/><path class="xgrid crisp" transform="translate(727.13,0)" d="M0,60v637" style="stroke: rgb(255, 255, 255); stroke-opacity: 0.5; stroke-width: 1px;"/><path class="xgrid crisp" transform="translate(872.38,0)" d="M0,60v637" style="stroke: rgb(255, 255, 255); stroke-opacity: 0.5; stroke-width: 1px;"/><path class="xgrid crisp" transform="translate(1017.63,0)" d="M0,60v637" style="stroke: rgb(255, 255, 255); stroke-opacity: 0.5; stroke-width: 1px;"/><path class="xgrid crisp" transform="translate(1162.88,0)" d="M0,60v637" style="stroke: rgb(255, 255, 255); stroke-opacity: 0.5; stroke-width: 1px;"/><path class="xgrid crisp" transform="translate(1308.13,0)" d="M0,60v637" style="stroke: rgb(255, 255, 255); stroke-opacity: 0.5; stroke-width: 1px;"/></g><g class="y"><path class="ygrid crisp" transform="translate(0,587.77)" d="M115,0h1245" style="stroke: rgb(255, 255, 255); stroke-opacity: 0.5; stroke-width: 1px;"/><path class="ygrid crisp" transform="translate(0,478.53)" d="M115,0h1245" style="stroke: rgb(255, 255, 255); stroke-opacity: 0.5; stroke-width: 1px;"/><path class="ygrid crisp" transform="translate(0,369.3)" d="M115,0h1245" style="stroke: rgb(255, 255, 255); stroke-opacity: 0.5; stroke-width: 1px;"/><path class="ygrid crisp" transform="translate(0,260.07)" d="M115,0h1245" style="stroke: rgb(255, 255, 255); stroke-opacity: 0.5; stroke-width: 1px;"/><path class="ygrid crisp" transform="translate(0,150.84)" d="M115,0h1245" style="stroke: rgb(255, 255, 255); stroke-opacity: 0.5; stroke-width: 1px;"/></g></g><g class="zerolinelayer"><path class="yzl zl crisp" transform="translate(0,697)" d="M115,0h1245" style="stroke: rgb(255, 255, 255); stroke-opacity: 1; stroke-width: 2px;"/></g><g class="layer-between"><g class="shapelayer"/><g class="imagelayer"/></g><path class="xlines-below"/><path class="ylines-below"/><g class="overlines-below"/><g class="xaxislayer-below"/><g class="yaxislayer-below"/><g class="overaxes-below"/><g class="overplot"><g class="xy" transform="translate(115,60)" clip-path="url(#clipf188ebxyplot)"><g class="scatterlayer mlayer"><g class="trace scatter tracee4b00e" style="stroke-miterlimit: 2;"><g class="fills"><g><path class="js-fill" d="M1245,637L0,637L0,425.09L342.38,425.09L352.75,427.27L425.38,427.27L435.75,431.64L477.25,431.64L487.63,440.38L508.38,501.55L518.75,512.47L549.88,538.69L560.25,551.8L581,551.8L591.38,549.61L622.5,553.98L632.88,549.61L643.25,538.69L653.63,532.14L664,529.95L695.13,512.47L705.5,510.29L715.88,505.92L726.25,505.92L736.63,503.74L767.75,497.18L861.13,499.37L871.5,486.26L881.88,446.93L913,431.64L923.38,429.46L933.75,433.83L944.13,429.46L954.5,436.01L985.63,438.2L996,438.2L1006.38,449.12L1016.75,442.57L1027.13,453.49L1058.25,444.75L1068.63,440.38L1079,433.83L1089.38,429.46L1099.75,431.64L1130.88,453.49L1141.25,462.23L1151.63,462.23L1162,481.89L1172.38,477.52L1203.5,481.89L1213.88,479.7L1224.25,473.15L1234.63,475.34L1245,490.63" style="fill: rgb(99, 110, 250); fill-opacity: 0.5; stroke-width: 0;"/></g><g><path class="js-fill" d="M0,320.22L51.88,320.22L62.25,322.41L342.38,322.41L352.75,324.59L363.13,326.78L373.5,324.59L415,322.41L425.38,322.41L435.75,326.78L446.13,326.78L477.25,326.78L487.63,339.89L508.38,442.57L518.75,457.86L549.88,495L560.25,510.29L591.38,510.29L622.5,519.03L632.88,514.66L643.25,499.37L653.63,490.63L664,490.63L695.13,473.15L705.5,468.78L715.88,462.23L726.25,460.04L736.63,451.3L767.75,436.01L861.13,433.83L871.5,396.69L881.88,352.99L913,328.96L923.38,326.78L933.75,331.15L944.13,326.78L954.5,333.33L985.63,335.52L996,333.33L1006.38,344.26L1016.75,337.7L1027.13,348.63L1058.25,339.89L1068.63,337.7L1079,331.15L1089.38,331.15L1099.75,333.33L1130.88,363.92L1141.25,370.47L1151.63,370.47L1162,394.5L1172.38,390.13L1203.5,396.69L1213.88,394.5L1224.25,387.95L1234.63,387.95L1245,403.24L1245,490.63L1234.63,475.34L1224.25,473.15L1213.88,479.7L1203.5,481.89L1172.38,477.52L1162,481.89L1151.63,462.23L1141.25,462.23L1130.88,453.49L1099.75,431.64L1089.38,429.46L1079,433.83L1068.63,440.38L1058.25,444.75L1027.13,453.49L1016.75,442.57L1006.38,449.12L996,438.2L985.63,438.2L954.5,436.01L944.13,429.46L933.75,433.83L923.38,429.46L913,431.64L881.88,446.93L871.5,486.26L861.13,499.37L767.75,497.18L736.63,503.74L726.25,505.92L715.88,505.92L705.5,510.29L695.13,512.47L664,529.95L653.63,532.14L643.25,538.69L632.88,549.61L622.5,553.98L591.38,549.61L581,551.8L560.25,551.8L549.88,538.69L518.75,512.47L508.38,501.55L487.63,440.38L477.25,431.64L435.75,431.64L425.38,427.27L352.75,427.27L342.38,425.09L0,425.09Z" style="fill: rgb(239, 85, 59); fill-opacity: 0.5; stroke-width: 0;"/></g></g><g class="errorbars"/><g class="lines"><path class="js-line" d="M0,425.09L342.38,425.09L352.75,427.27L425.38,427.27L435.75,431.64L477.25,431.64L487.63,440.38L508.38,501.55L518.75,512.47L549.88,538.69L560.25,551.8L581,551.8L591.38,549.61L622.5,553.98L632.88,549.61L643.25,538.69L653.63,532.14L664,529.95L695.13,512.47L705.5,510.29L715.88,505.92L726.25,505.92L736.63,503.74L767.75,497.18L861.13,499.37L871.5,486.26L881.88,446.93L913,431.64L923.38,429.46L933.75,433.83L944.13,429.46L954.5,436.01L985.63,438.2L996,438.2L1006.38,449.12L1016.75,442.57L1027.13,453.49L1058.25,444.75L1068.63,440.38L1079,433.83L1089.38,429.46L1099.75,431.64L1130.88,453.49L1141.25,462.23L1151.63,462.23L1162,481.89L1172.38,477.52L1203.5,481.89L1213.88,479.7L1224.25,473.15L1234.63,475.34L1245,490.63" style="vector-effect: none; fill: none; stroke: rgb(99, 110, 250); stroke-opacity: 1; stroke-width: 2px; opacity: 1;"/></g><g class="points"/><g class="text"/></g><g class="trace scatter trace189169" style="stroke-miterlimit: 2;"><g class="fills"><g><path class="js-fill" d="M0,208.81L51.88,208.81L62.25,210.99L72.63,210.99L83,213.18L207.5,213.18L217.88,210.99L280.13,210.99L290.5,213.18L352.75,213.18L363.13,215.36L373.5,213.18L404.63,213.18L425.38,217.55L435.75,221.92L477.25,221.92L487.63,239.39L508.38,372.66L518.75,394.5L549.88,436.01L560.25,453.49L570.63,455.67L581,453.49L591.38,455.67L622.5,473.15L632.88,468.78L643.25,440.38L653.63,431.64L664,429.46L695.13,405.43L705.5,401.06L715.88,394.5L726.25,390.13L736.63,379.21L767.75,361.73L861.13,361.73L871.5,326.78L881.88,269.98L913,235.02L923.38,230.65L933.75,235.02L944.13,224.1L954.5,230.65L985.63,237.21L996,237.21L1006.38,254.69L1016.75,243.76L1027.13,256.87L1058.25,245.95L1068.63,248.13L1079,237.21L1089.38,228.47L1099.75,232.84L1130.88,274.35L1141.25,283.09L1151.63,274.35L1162,302.75L1172.38,298.38L1203.5,304.93L1213.88,300.56L1224.25,289.64L1234.63,294.01L1245,315.86L1245,403.24L1234.63,387.95L1224.25,387.95L1213.88,394.5L1203.5,396.69L1172.38,390.13L1162,394.5L1151.63,370.47L1141.25,370.47L1130.88,363.92L1099.75,333.33L1089.38,331.15L1079,331.15L1068.63,337.7L1058.25,339.89L1027.13,348.63L1016.75,337.7L1006.38,344.26L996,333.33L985.63,335.52L954.5,333.33L944.13,326.78L933.75,331.15L923.38,326.78L913,328.96L881.88,352.99L871.5,396.69L861.13,433.83L767.75,436.01L736.63,451.3L726.25,460.04L715.88,462.23L705.5,468.78L695.13,473.15L664,490.63L653.63,490.63L643.25,499.37L632.88,514.66L622.5,519.03L591.38,510.29L560.25,510.29L549.88,495L518.75,457.86L508.38,442.57L487.63,339.89L477.25,326.78L446.13,326.78L435.75,326.78L425.38,322.41L415,322.41L373.5,324.59L363.13,326.78L352.75,324.59L342.38,322.41L62.25,322.41L51.88,320.22L0,320.22Z" style="fill: rgb(0, 204, 150); fill-opacity: 0.5; stroke-width: 0;"/></g></g><g class="errorbars"/><g class="lines"><path class="js-line" d="M0,320.22L51.88,320.22L62.25,322.41L342.38,322.41L352.75,324.59L363.13,326.78L373.5,324.59L415,322.41L425.38,322.41L435.75,326.78L446.13,326.78L477.25,326.78L487.63,339.89L508.38,442.57L518.75,457.86L549.88,495L560.25,510.29L591.38,510.29L622.5,519.03L632.88,514.66L643.25,499.37L653.63,490.63L664,490.63L695.13,473.15L705.5,468.78L715.88,462.23L726.25,460.04L736.63,451.3L767.75,436.01L861.13,433.83L871.5,396.69L881.88,352.99L913,328.96L923.38,326.78L933.75,331.15L944.13,326.78L954.5,333.33L985.63,335.52L996,333.33L1006.38,344.26L1016.75,337.7L1027.13,348.63L1058.25,339.89L1068.63,337.7L1079,331.15L1089.38,331.15L1099.75,333.33L1130.88,363.92L1141.25,370.47L1151.63,370.47L1162,394.5L1172.38,390.13L1203.5,396.69L1213.88,394.5L1224.25,387.95L1234.63,387.95L1245,403.24" style="vector-effect: none; fill: none; stroke: rgb(239, 85, 59); stroke-opacity: 1; stroke-width: 2px; opacity: 1;"/></g><g class="points"/><g class="text"/></g><g class="trace scatter traced71ea7" style="stroke-miterlimit: 2;"><g class="fills"><g><path class="js-fill" d="M0,114.87L51.88,114.87L62.25,117.05L72.63,117.05L83,119.24L155.63,119.24L186.75,121.42L207.5,121.42L217.88,119.24L259.38,119.24L269.75,121.42L280.13,121.42L290.5,119.24L342.38,119.24L352.75,121.42L363.13,123.61L373.5,121.42L404.63,121.42L415,127.97L425.38,130.16L435.75,134.53L446.13,132.34L477.25,132.34L487.63,149.82L508.38,304.93L518.75,333.33L549.88,381.4L560.25,401.06L570.63,398.87L581,405.43L591.38,407.61L622.5,422.9L632.88,416.35L643.25,379.21L653.63,370.47L664,368.29L695.13,339.89L715.88,322.41L726.25,320.22L736.63,309.3L767.75,287.45L861.13,287.45L871.5,250.32L881.88,180.41L913,145.45L923.38,141.08L933.75,145.45L944.13,130.16L954.5,143.27L985.63,149.82L996,156.38L1006.38,176.04L1016.75,165.11L1027.13,176.04L1058.25,162.93L1068.63,165.11L1079,149.82L1089.38,141.08L1099.75,145.45L1130.88,189.15L1141.25,202.25L1151.63,193.51L1162,221.92L1172.38,215.36L1203.5,217.55L1213.88,213.18L1224.25,206.62L1234.63,210.99L1245,232.84L1245,315.86L1234.63,294.01L1224.25,289.64L1213.88,300.56L1203.5,304.93L1172.38,298.38L1162,302.75L1151.63,274.35L1141.25,283.09L1130.88,274.35L1099.75,232.84L1089.38,228.47L1079,237.21L1068.63,248.13L1058.25,245.95L1027.13,256.87L1016.75,243.76L1006.38,254.69L996,237.21L985.63,237.21L954.5,230.65L944.13,224.1L933.75,235.02L923.38,230.65L913,235.02L881.88,269.98L871.5,326.78L861.13,361.73L767.75,361.73L736.63,379.21L726.25,390.13L715.88,394.5L705.5,401.06L695.13,405.43L664,429.46L653.63,431.64L643.25,440.38L632.88,468.78L622.5,473.15L591.38,455.67L581,453.49L570.63,455.67L560.25,453.49L549.88,436.01L518.75,394.5L508.38,372.66L487.63,239.39L477.25,221.92L435.75,221.92L425.38,217.55L404.63,213.18L373.5,213.18L363.13,215.36L352.75,213.18L290.5,213.18L280.13,210.99L217.88,210.99L207.5,213.18L83,213.18L72.63,210.99L62.25,210.99L51.88,208.81L0,208.81Z" style="fill: rgb(171, 99, 250); fill-opacity: 0.5; stroke-width: 0;"/></g></g><g class="errorbars"/><g class="lines"><path class="js-line" d="M0,208.81L51.88,208.81L62.25,210.99L72.63,210.99L83,213.18L207.5,213.18L217.88,210.99L280.13,210.99L290.5,213.18L352.75,213.18L363.13,215.36L373.5,213.18L404.63,213.18L425.38,217.55L435.75,221.92L477.25,221.92L487.63,239.39L508.38,372.66L518.75,394.5L549.88,436.01L560.25,453.49L570.63,455.67L581,453.49L591.38,455.67L622.5,473.15L632.88,468.78L643.25,440.38L653.63,431.64L664,429.46L695.13,405.43L705.5,401.06L715.88,394.5L726.25,390.13L736.63,379.21L767.75,361.73L861.13,361.73L871.5,326.78L881.88,269.98L913,235.02L923.38,230.65L933.75,235.02L944.13,224.1L954.5,230.65L985.63,237.21L996,237.21L1006.38,254.69L1016.75,243.76L1027.13,256.87L1058.25,245.95L1068.63,248.13L1079,237.21L1089.38,228.47L1099.75,232.84L1130.88,274.35L1141.25,283.09L1151.63,274.35L1162,302.75L1172.38,298.38L1203.5,304.93L1213.88,300.56L1224.25,289.64L1234.63,294.01L1245,315.86" style="vector-effect: none; fill: none; stroke: rgb(0, 204, 150); stroke-opacity: 1; stroke-width: 2px; opacity: 1;"/></g><g class="points"/><g class="text"/></g><g class="trace scatter trace0ff570" style="stroke-miterlimit: 2;"><g class="fills"><g><path class="js-fill" d="M0,31.85L51.88,31.85L62.25,34.03L72.63,34.03L83,36.22L259.38,36.22L269.75,38.4L280.13,38.4L290.5,34.03L332,34.03L342.38,36.22L363.13,40.59L373.5,38.4L404.63,38.4L415,47.14L425.38,49.33L435.75,53.7L446.13,51.51L477.25,49.33L487.63,71.17L508.38,250.32L518.75,278.72L549.88,337.7L560.25,361.73L570.63,359.55L581,366.1L591.38,366.1L622.5,383.58L632.88,374.84L643.25,328.96L653.63,322.41L664,320.22L695.13,287.45L705.5,272.16L715.88,263.42L726.25,259.05L736.63,248.13L767.75,226.28L861.13,226.28L871.5,191.33L881.88,114.87L913,77.73L923.38,68.99L933.75,73.36L944.13,55.88L954.5,66.8L985.63,73.36L996,82.1L1006.38,103.94L1016.75,90.84L1027.13,95.21L1058.25,79.91L1068.63,82.1L1079,66.8L1089.38,58.07L1099.75,64.62L1130.88,112.68L1141.25,121.42L1151.63,112.68L1162,145.45L1172.38,136.71L1203.5,143.27L1213.88,136.71L1224.25,130.16L1234.63,134.53L1245,156.38L1245,232.84L1234.63,210.99L1224.25,206.62L1213.88,213.18L1203.5,217.55L1172.38,215.36L1162,221.92L1151.63,193.51L1141.25,202.25L1130.88,189.15L1099.75,145.45L1089.38,141.08L1079,149.82L1068.63,165.11L1058.25,162.93L1027.13,176.04L1016.75,165.11L1006.38,176.04L996,156.38L985.63,149.82L954.5,143.27L944.13,130.16L933.75,145.45L923.38,141.08L913,145.45L881.88,180.41L871.5,250.32L861.13,287.45L767.75,287.45L736.63,309.3L726.25,320.22L715.88,322.41L695.13,339.89L664,368.29L653.63,370.47L643.25,379.21L632.88,416.35L622.5,422.9L591.38,407.61L581,405.43L570.63,398.87L560.25,401.06L549.88,381.4L518.75,333.33L508.38,304.93L487.63,149.82L477.25,132.34L446.13,132.34L435.75,134.53L425.38,130.16L415,127.97L404.63,121.42L373.5,121.42L363.13,123.61L352.75,121.42L342.38,119.24L290.5,119.24L280.13,121.42L269.75,121.42L259.38,119.24L217.88,119.24L207.5,121.42L186.75,121.42L155.63,119.24L83,119.24L72.63,117.05L62.25,117.05L51.88,114.87L0,114.87Z" style="fill: rgb(255, 161, 90); fill-opacity: 0.5; stroke-width: 0;"/></g></g><g class="errorbars"/><g class="lines"><path class="js-line" d="M0,114.87L51.88,114.87L62.25,117.05L72.63,117.05L83,119.24L155.63,119.24L186.75,121.42L207.5,121.42L217.88,119.24L259.38,119.24L269.75,121.42L280.13,121.42L290.5,119.24L342.38,119.24L352.75,121.42L363.13,123.61L373.5,121.42L404.63,121.42L415,127.97L425.38,130.16L435.75,134.53L446.13,132.34L477.25,132.34L487.63,149.82L508.38,304.93L518.75,333.33L549.88,381.4L560.25,401.06L570.63,398.87L581,405.43L591.38,407.61L622.5,422.9L632.88,416.35L643.25,379.21L653.63,370.47L664,368.29L695.13,339.89L715.88,322.41L726.25,320.22L736.63,309.3L767.75,287.45L861.13,287.45L871.5,250.32L881.88,180.41L913,145.45L923.38,141.08L933.75,145.45L944.13,130.16L954.5,143.27L985.63,149.82L996,156.38L1006.38,176.04L1016.75,165.11L1027.13,176.04L1058.25,162.93L1068.63,165.11L1079,149.82L1089.38,141.08L1099.75,145.45L1130.88,189.15L1141.25,202.25L1151.63,193.51L1162,221.92L1172.38,215.36L1203.5,217.55L1213.88,213.18L1224.25,206.62L1234.63,210.99L1245,232.84" style="vector-effect: none; fill: none; stroke: rgb(171, 99, 250); stroke-opacity: 1; stroke-width: 2px; opacity: 1;"/></g><g class="points"/><g class="text"/></g><g class="trace scatter trace2c12c5" style="stroke-miterlimit: 2;"><g class="fills"/><g class="errorbars"/><g class="lines"><path class="js-line" d="M0,31.85L51.88,31.85L62.25,34.03L72.63,34.03L83,36.22L259.38,36.22L269.75,38.4L280.13,38.4L290.5,34.03L332,34.03L342.38,36.22L363.13,40.59L373.5,38.4L404.63,38.4L415,47.14L425.38,49.33L435.75,53.7L446.13,51.51L477.25,49.33L487.63,71.17L508.38,250.32L518.75,278.72L549.88,337.7L560.25,361.73L570.63,359.55L581,366.1L591.38,366.1L622.5,383.58L632.88,374.84L643.25,328.96L653.63,322.41L664,320.22L695.13,287.45L705.5,272.16L715.88,263.42L726.25,259.05L736.63,248.13L767.75,226.28L861.13,226.28L871.5,191.33L881.88,114.87L913,77.73L923.38,68.99L933.75,73.36L944.13,55.88L954.5,66.8L985.63,73.36L996,82.1L1006.38,103.94L1016.75,90.84L1027.13,95.21L1058.25,79.91L1068.63,82.1L1079,66.8L1089.38,58.07L1099.75,64.62L1130.88,112.68L1141.25,121.42L1151.63,112.68L1162,145.45L1172.38,136.71L1203.5,143.27L1213.88,136.71L1224.25,130.16L1234.63,134.53L1245,156.38" style="vector-effect: none; fill: none; stroke: rgb(255, 161, 90); stroke-opacity: 1; stroke-width: 2px; opacity: 1;"/></g><g class="points"/><g class="text"/></g></g></g></g><path class="xlines-above crisp" d="" style="fill: none; stroke-width: 1px; stroke: rgb(0, 0, 0); stroke-opacity: 0;"/><path class="ylines-above crisp" d="" style="fill: none; stroke-width: 1px; stroke: rgb(0, 0, 0); stroke-opacity: 0;"/><g class="overlines-above"/><g class="xaxislayer-above"><path class="xtick ticks crisp" d="M0,698v5" transform="translate(146.13,0)" style="stroke: rgb(68, 68, 68); stroke-opacity: 1; stroke-width: 1px;"/><path class="xtick ticks crisp" d="M0,698v5" transform="translate(291.38,0)" style="stroke: rgb(68, 68, 68); stroke-opacity: 1; stroke-width: 1px;"/><path class="xtick ticks crisp" d="M0,698v5" transform="translate(436.63,0)" style="stroke: rgb(68, 68, 68); stroke-opacity: 1; stroke-width: 1px;"/><path class="xtick ticks crisp" d="M0,698v5" transform="translate(581.88,0)" style="stroke: rgb(68, 68, 68); stroke-opacity: 1; stroke-width: 1px;"/><path class="xtick ticks crisp" d="M0,698v5" transform="translate(727.13,0)" style="stroke: rgb(68, 68, 68); stroke-opacity: 1; stroke-width: 1px;"/><path class="xtick ticks crisp" d="M0,698v5" transform="translate(872.38,0)" style="stroke: rgb(68, 68, 68); stroke-opacity: 1; stroke-width: 1px;"/><path class="xtick ticks crisp" d="M0,698v5" transform="translate(1017.63,0)" style="stroke: rgb(68, 68, 68); stroke-opacity: 1; stroke-width: 1px;"/><path class="xtick ticks crisp" d="M0,698v5" transform="translate(1162.88,0)" style="stroke: rgb(68, 68, 68); stroke-opacity: 1; stroke-width: 1px;"/><path class="xtick ticks crisp" d="M0,698v5" transform="translate(1308.13,0)" style="stroke: rgb(68, 68, 68); stroke-opacity: 1; stroke-width: 1px;"/><g class="xtick"><text text-anchor="middle" x="0" y="736.6" transform="translate(146.13,0)" style="font-family: Arial; font-size: 28px; fill: rgb(255, 255, 255); fill-opacity: 1; white-space: pre; opacity: 1;"><tspan class="line" dy="0em" x="0" y="736.6">Nov 17</tspan><tspan class="line" dy="1.3em" x="0" y="736.6">2024</tspan></text></g><g class="xtick"><text text-anchor="middle" x="0" y="736.6" style="font-family: Arial; font-size: 28px; fill: rgb(255, 255, 255); fill-opacity: 1; white-space: pre; opacity: 1;" transform="translate(291.38,0)">Dec 1</text></g><g class="xtick"><text text-anchor="middle" x="0" y="736.6" style="font-family: Arial; font-size: 28px; fill: rgb(255, 255, 255); fill-opacity: 1; white-space: pre; opacity: 1;" transform="translate(436.63,0)">Dec 15</text></g><g class="xtick"><text text-anchor="middle" x="0" y="736.6" style="font-family: Arial; font-size: 28px; fill: rgb(255, 255, 255); fill-opacity: 1; white-space: pre; opacity: 1;" transform="translate(581.88,0)">Dec 29</text></g><g class="xtick"><text text-anchor="middle" x="0" y="736.6" style="font-family: Arial; font-size: 28px; fill: rgb(255, 255, 255); fill-opacity: 1; white-space: pre; opacity: 1;" transform="translate(727.13,0)"><tspan class="line" dy="0em" x="0" y="736.6">Jan 12</tspan><tspan class="line" dy="1.3em" x="0" y="736.6">2025</tspan></text></g><g class="xtick"><text text-anchor="middle" x="0" y="736.6" style="font-family: Arial; font-size: 28px; fill: rgb(255, 255, 255); fill-opacity: 1; white-space: pre; opacity: 1;" transform="translate(872.38,0)">Jan 26</text></g><g class="xtick"><text text-anchor="middle" x="0" y="736.6" style="font-family: Arial; font-size: 28px; fill: rgb(255, 255, 255); fill-opacity: 1; white-space: pre; opacity: 1;" transform="translate(1017.63,0)">Feb 9</text></g><g class="xtick"><text text-anchor="middle" x="0" y="736.6" style="font-family: Arial; font-size: 28px; fill: rgb(255, 255, 255); fill-opacity: 1; white-space: pre; opacity: 1;" transform="translate(1162.88,0)">Feb 23</text></g><g class="xtick"><text text-anchor="middle" x="0" y="736.6" style="font-family: Arial; font-size: 28px; fill: rgb(255, 255, 255); fill-opacity: 1; white-space: pre; opacity: 1;" transform="translate(1308.13,0)">Mar 9</text></g></g><g class="yaxislayer-above"><path class="ytick ticks crisp" d="M114,0h-5" transform="translate(0,697)" style="stroke: rgb(68, 68, 68); stroke-opacity: 1; stroke-width: 1px;"/><path class="ytick ticks crisp" d="M114,0h-5" transform="translate(0,587.77)" style="stroke: rgb(68, 68, 68); stroke-opacity: 1; stroke-width: 1px;"/><path class="ytick ticks crisp" d="M114,0h-5" transform="translate(0,478.53)" style="stroke: rgb(68, 68, 68); stroke-opacity: 1; stroke-width: 1px;"/><path class="ytick ticks crisp" d="M114,0h-5" transform="translate(0,369.3)" style="stroke: rgb(68, 68, 68); stroke-opacity: 1; stroke-width: 1px;"/><path class="ytick ticks crisp" d="M114,0h-5" transform="translate(0,260.07)" style="stroke: rgb(68, 68, 68); stroke-opacity: 1; stroke-width: 1px;"/><path class="ytick ticks crisp" d="M114,0h-5" transform="translate(0,150.84)" style="stroke: rgb(68, 68, 68); stroke-opacity: 1; stroke-width: 1px;"/><g class="ytick"><text text-anchor="end" x="103.4" y="9.799999999999999" transform="translate(0,697)" style="font-family: Arial; font-size: 28px; fill: rgb(255, 255, 255); fill-opacity: 1; white-space: pre; opacity: 1;">0</text></g><g class="ytick"><text text-anchor="end" x="103.4" y="9.799999999999999" style="font-family: Arial; font-size: 28px; fill: rgb(255, 255, 255); fill-opacity: 1; white-space: pre; opacity: 1;" transform="translate(0,587.77)">50</text></g><g class="ytick"><text text-anchor="end" x="103.4" y="9.799999999999999" style="font-family: Arial; font-size: 28px; fill: rgb(255, 255, 255); fill-opacity: 1; white-space: pre; opacity: 1;" transform="translate(0,478.53)">100</text></g><g class="ytick"><text text-anchor="end" x="103.4" y="9.799999999999999" style="font-family: Arial; font-size: 28px; fill: rgb(255, 255, 255); fill-opacity: 1; white-space: pre; opacity: 1;" transform="translate(0,369.3)">150</text></g><g class="ytick"><text text-anchor="end" x="103.4" y="9.799999999999999" style="font-family: Arial; font-size: 28px; fill: rgb(255, 255, 255); fill-opacity: 1; white-space: pre; opacity: 1;" transform="translate(0,260.07)">200</text></g><g class="ytick"><text text-anchor="end" x="103.4" y="9.799999999999999" style="font-family: Arial; font-size: 28px; fill: rgb(255, 255, 255); fill-opacity: 1; white-space: pre; opacity: 1;" transform="translate(0,150.84)">250</text></g></g><g class="overaxes-above"/></g></g><g class="polarlayer"/><g class="smithlayer"/><g class="ternarylayer"/><g class="geolayer"/><g class="funnelarealayer"/><g class="pielayer"/><g class="iciclelayer"/><g class="treemaplayer"/><g class="sunburstlayer"/><g class="glimages"/><defs id="topdefs-f188eb"><g class="clips"/><clipPath id="legendf188eb"><rect width="785" height="50" x="0" y="0"/></clipPath></defs><g class="layer-above"><g class="imagelayer"/><g class="shapelayer"/></g><g class="infolayer"><g class="legend" pointer-events="all" transform="translate(345,838.1)"><rect class="bg" shape-rendering="crispEdges" style="stroke: rgb(68, 68, 68); stroke-opacity: 1; fill: rgb(0, 0, 0); fill-opacity: 0; stroke-width: 0px;" width="785" height="50" x="0" y="0"/><g class="scrollbox" transform="" clip-path="url(#legendf188eb)"><g class="groups" transform=""><g class="traces" transform="translate(0,24.7)" style="opacity: 1;"><text class="legendtext" text-anchor="start" x="40" y="10.92" style="font-family: Arial; font-size: 28px; fill: rgb(255, 255, 255); fill-opacity: 1; white-space: pre;">半导体</text><g class="layers"><g class="legendfill"><path class="js-fill" d="M5,-2h30v6h-30z" style="stroke-width: 0; fill: rgb(99, 110, 250); fill-opacity: 0.5;"/></g><g class="legendlines"><path class="js-line" d="M5,-2h30" style="fill: none; stroke: rgb(99, 110, 250); stroke-opacity: 1; stroke-width: 2px;"/></g><g class="legendsymbols"><g class="legendpoints"/></g></g><rect class="legendtoggle" x="0" y="-19.7" width="126.5" height="39.4" style="fill: rgb(0, 0, 0); fill-opacity: 0;"/></g></g><g class="groups" transform="translate(129,0)"><g class="traces" transform="translate(0,24.7)" style="opacity: 1;"><text class="legendtext" text-anchor="start" x="40" y="10.92" style="font-family: Arial; font-size: 28px; fill: rgb(255, 255, 255); fill-opacity: 1; white-space: pre;">互联网服务</text><g class="layers"><g class="legendfill"><path class="js-fill" d="M5,-2h30v6h-30z" style="stroke-width: 0; fill: rgb(239, 85, 59); fill-opacity: 0.5;"/></g><g class="legendlines"><path class="js-line" d="M5,-2h30" style="fill: none; stroke: rgb(239, 85, 59); stroke-opacity: 1; stroke-width: 2px;"/></g><g class="legendsymbols"><g class="legendpoints"/></g></g><rect class="legendtoggle" x="0" y="-19.7" width="182.5" height="39.4" style="fill: rgb(0, 0, 0); fill-opacity: 0;"/></g></g><g class="groups" transform="translate(314,0)"><g class="traces" transform="translate(0,24.7)" style="opacity: 1;"><text class="legendtext" text-anchor="start" x="40" y="10.92" style="font-family: Arial; font-size: 28px; fill: rgb(255, 255, 255); fill-opacity: 1; white-space: pre;">专用设备</text><g class="layers"><g class="legendfill"><path class="js-fill" d="M5,-2h30v6h-30z" style="stroke-width: 0; fill: rgb(0, 204, 150); fill-opacity: 0.5;"/></g><g class="legendlines"><path class="js-line" d="M5,-2h30" style="fill: none; stroke: rgb(0, 204, 150); stroke-opacity: 1; stroke-width: 2px;"/></g><g class="legendsymbols"><g class="legendpoints"/></g></g><rect class="legendtoggle" x="0" y="-19.7" width="154.5" height="39.4" style="fill: rgb(0, 0, 0); fill-opacity: 0;"/></g></g><g class="groups" transform="translate(471,0)"><g class="traces" transform="translate(0,24.7)" style="opacity: 1;"><text class="legendtext" text-anchor="start" x="40" y="10.92" style="font-family: Arial; font-size: 28px; fill: rgb(255, 255, 255); fill-opacity: 1; white-space: pre;">汽车行业</text><g class="layers"><g class="legendfill"><path class="js-fill" d="M5,-2h30v6h-30z" style="stroke-width: 0; fill: rgb(171, 99, 250); fill-opacity: 0.5;"/></g><g class="legendlines"><path class="js-line" d="M5,-2h30" style="fill: none; stroke: rgb(171, 99, 250); stroke-opacity: 1; stroke-width: 2px;"/></g><g class="legendsymbols"><g class="legendpoints"/></g></g><rect class="legendtoggle" x="0" y="-19.7" width="154.5" height="39.4" style="fill: rgb(0, 0, 0); fill-opacity: 0;"/></g></g><g class="groups" transform="translate(628,0)"><g class="traces" transform="translate(0,24.7)" style="opacity: 1;"><text class="legendtext" text-anchor="start" x="40" y="10.92" style="font-family: Arial; font-size: 28px; fill: rgb(255, 255, 255); fill-opacity: 1; white-space: pre;">电子元件</text><g class="layers"><g class="legendfill"><path class="js-fill" d="M5,-2h30v6h-30z" style="stroke-width: 0; fill: rgb(255, 161, 90); fill-opacity: 0.5;"/></g><g class="legendlines"><path class="js-line" d="M5,-2h30" style="fill: none; stroke: rgb(255, 161, 90); stroke-opacity: 1; stroke-width: 2px;"/></g><g class="legendsymbols"><g class="legendpoints"/></g></g><rect class="legendtoggle" x="0" y="-19.7" width="154.5" height="39.4" style="fill: rgb(0, 0, 0); fill-opacity: 0;"/></g></g></g><rect class="scrollbar" rx="20" ry="3" width="0" height="0" style="fill: rgb(128, 139, 164); fill-opacity: 1;" x="0" y="0"/></g><g class="g-gtitle"><text class="gtitle" x="72" y="30" text-anchor="start" dy="0em" style="opacity: 1; font-family: 'Open Sans', verdana, arial, sans-serif; font-size: 17px; fill: rgb(255, 255, 255); fill-opacity: 1; white-space: pre;">Last 120 days top5 positions</text></g><g class="g-xtitle"><text class="xtitle" x="737.5" y="816.9" text-anchor="middle" style="opacity: 1; font-family: Arial; font-size: 32px; fill: rgb(255, 255, 255); fill-opacity: 1; white-space: pre;">buy_date</text></g><g class="g-ytitle" transform="translate(6.3095703125,0)"><text class="ytitle" transform="rotate(-90,23.690624999999997,378.5)" x="23.690624999999997" y="378.5" text-anchor="middle" style="opacity: 1; font-family: Arial; font-size: 32px; fill: rgb(255, 255, 255); fill-opacity: 1; white-space: pre;">total_cnt</text></g></g></svg>