<?xml version="1.0" encoding="utf-8" standalone="no"?>
<!DOCTYPE svg PUBLIC "-//W3C//DTD SVG 1.1//EN"
  "http://www.w3.org/Graphics/SVG/1.1/DTD/svg11.dtd">
<svg xmlns:xlink="http://www.w3.org/1999/xlink" width="1297.706625pt" height="591.285pt" viewBox="0 0 1297.706625 591.285" xmlns="http://www.w3.org/2000/svg" version="1.1">
 <metadata>
  <rdf:RDF xmlns:dc="http://purl.org/dc/elements/1.1/" xmlns:cc="http://creativecommons.org/ns#" xmlns:rdf="http://www.w3.org/1999/02/22-rdf-syntax-ns#">
   <cc:Work>
    <dc:type rdf:resource="http://purl.org/dc/dcmitype/StillImage"/>
    <dc:date>2025-03-14T18:06:31.256077</dc:date>
    <dc:format>image/svg+xml</dc:format>
    <dc:creator>
     <cc:Agent>
      <dc:title>Matplotlib v3.9.2, https://matplotlib.org/</dc:title>
     </cc:Agent>
    </dc:creator>
   </cc:Work>
  </rdf:RDF>
 </metadata>
 <defs>
  <style type="text/css">*{stroke-linejoin: round; stroke-linecap: butt}</style>
 </defs>
 <g id="figure_1">
  <g id="patch_1">
   <path d="M 0 591.285 
L 1297.706625 591.285 
L 1297.706625 0 
L 0 0 
L 0 591.285 
z
" style="fill: none"/>
  </g>
  <g id="axes_1">
   <g id="table_1">
    <g id="patch_2">
     <path d="M 7.2 118.08 
L 106.624125 118.08 
M 106.624125 7.2 
L 7.2 7.2 
M 7.2 118.08 
" style="fill: #ffffff; stroke: #333333; stroke-linejoin: miter"/>
    </g>
    <g id="text_1">
     <!-- Date -->
     <g style="fill: #333333" transform="translate(17.142412 67.606875) scale(0.18 -0.18)">
      <defs>
       <path id="DejaVuSans-44" d="M 1259 4147 
L 1259 519 
L 2022 519 
Q 2988 519 3436 956 
Q 3884 1394 3884 2338 
Q 3884 3275 3436 3711 
Q 2988 4147 2022 4147 
L 1259 4147 
z
M 628 4666 
L 1925 4666 
Q 3281 4666 3915 4102 
Q 4550 3538 4550 2338 
Q 4550 1131 3912 565 
Q 3275 0 1925 0 
L 628 0 
L 628 4666 
z
" transform="scale(0.015625)"/>
       <path id="DejaVuSans-61" d="M 2194 1759 
Q 1497 1759 1228 1600 
Q 959 1441 959 1056 
Q 959 750 1161 570 
Q 1363 391 1709 391 
Q 2188 391 2477 730 
Q 2766 1069 2766 1631 
L 2766 1759 
L 2194 1759 
z
M 3341 1997 
L 3341 0 
L 2766 0 
L 2766 531 
Q 2569 213 2275 61 
Q 1981 -91 1556 -91 
Q 1019 -91 701 211 
Q 384 513 384 1019 
Q 384 1609 779 1909 
Q 1175 2209 1959 2209 
L 2766 2209 
L 2766 2266 
Q 2766 2663 2505 2880 
Q 2244 3097 1772 3097 
Q 1472 3097 1187 3025 
Q 903 2953 641 2809 
L 641 3341 
Q 956 3463 1253 3523 
Q 1550 3584 1831 3584 
Q 2591 3584 2966 3190 
Q 3341 2797 3341 1997 
z
" transform="scale(0.015625)"/>
       <path id="DejaVuSans-74" d="M 1172 4494 
L 1172 3500 
L 2356 3500 
L 2356 3053 
L 1172 3053 
L 1172 1153 
Q 1172 725 1289 603 
Q 1406 481 1766 481 
L 2356 481 
L 2356 0 
L 1766 0 
Q 1100 0 847 248 
Q 594 497 594 1153 
L 594 3053 
L 172 3053 
L 172 3500 
L 594 3500 
L 594 4494 
L 1172 4494 
z
" transform="scale(0.015625)"/>
       <path id="DejaVuSans-65" d="M 3597 1894 
L 3597 1613 
L 953 1613 
Q 991 1019 1311 708 
Q 1631 397 2203 397 
Q 2534 397 2845 478 
Q 3156 559 3463 722 
L 3463 178 
Q 3153 47 2828 -22 
Q 2503 -91 2169 -91 
Q 1331 -91 842 396 
Q 353 884 353 1716 
Q 353 2575 817 3079 
Q 1281 3584 2069 3584 
Q 2775 3584 3186 3129 
Q 3597 2675 3597 1894 
z
M 3022 2063 
Q 3016 2534 2758 2815 
Q 2500 3097 2075 3097 
Q 1594 3097 1305 2825 
Q 1016 2553 972 2059 
L 3022 2063 
z
" transform="scale(0.015625)"/>
      </defs>
      <use xlink:href="#DejaVuSans-44"/>
      <use xlink:href="#DejaVuSans-61" x="77.001953"/>
      <use xlink:href="#DejaVuSans-74" x="138.28125"/>
      <use xlink:href="#DejaVuSans-65" x="177.490234"/>
     </g>
    </g>
    <g id="patch_3">
     <path d="M 106.624125 118.08 
L 212.909839 118.08 
M 212.909839 7.2 
L 106.624125 7.2 
M 106.624125 118.08 
" style="fill: #ffffff; stroke: #333333; stroke-linejoin: miter"/>
    </g>
    <g id="text_2">
     <!-- 2024 -->
     <g style="fill: #333333" transform="translate(136.861982 67.606875) scale(0.18 -0.18)">
      <defs>
       <path id="DejaVuSans-32" d="M 1228 531 
L 3431 531 
L 3431 0 
L 469 0 
L 469 531 
Q 828 903 1448 1529 
Q 2069 2156 2228 2338 
Q 2531 2678 2651 2914 
Q 2772 3150 2772 3378 
Q 2772 3750 2511 3984 
Q 2250 4219 1831 4219 
Q 1534 4219 1204 4116 
Q 875 4013 500 3803 
L 500 4441 
Q 881 4594 1212 4672 
Q 1544 4750 1819 4750 
Q 2544 4750 2975 4387 
Q 3406 4025 3406 3419 
Q 3406 3131 3298 2873 
Q 3191 2616 2906 2266 
Q 2828 2175 2409 1742 
Q 1991 1309 1228 531 
z
" transform="scale(0.015625)"/>
       <path id="DejaVuSans-30" d="M 2034 4250 
Q 1547 4250 1301 3770 
Q 1056 3291 1056 2328 
Q 1056 1369 1301 889 
Q 1547 409 2034 409 
Q 2525 409 2770 889 
Q 3016 1369 3016 2328 
Q 3016 3291 2770 3770 
Q 2525 4250 2034 4250 
z
M 2034 4750 
Q 2819 4750 3233 4129 
Q 3647 3509 3647 2328 
Q 3647 1150 3233 529 
Q 2819 -91 2034 -91 
Q 1250 -91 836 529 
Q 422 1150 422 2328 
Q 422 3509 836 4129 
Q 1250 4750 2034 4750 
z
" transform="scale(0.015625)"/>
       <path id="DejaVuSans-34" d="M 2419 4116 
L 825 1625 
L 2419 1625 
L 2419 4116 
z
M 2253 4666 
L 3047 4666 
L 3047 1625 
L 3713 1625 
L 3713 1100 
L 3047 1100 
L 3047 0 
L 2419 0 
L 2419 1100 
L 313 1100 
L 313 1709 
L 2253 4666 
z
" transform="scale(0.015625)"/>
      </defs>
      <use xlink:href="#DejaVuSans-32"/>
      <use xlink:href="#DejaVuSans-30" x="63.623047"/>
      <use xlink:href="#DejaVuSans-32" x="127.246094"/>
      <use xlink:href="#DejaVuSans-34" x="190.869141"/>
     </g>
    </g>
    <g id="patch_4">
     <path d="M 212.909839 118.08 
L 319.195554 118.08 
M 319.195554 7.2 
L 212.909839 7.2 
M 212.909839 118.08 
" style="fill: #ffffff; stroke: #333333; stroke-linejoin: miter"/>
    </g>
    <g id="text_3">
     <!-- 2025 -->
     <g style="fill: #333333" transform="translate(243.147696 67.606875) scale(0.18 -0.18)">
      <defs>
       <path id="DejaVuSans-35" d="M 691 4666 
L 3169 4666 
L 3169 4134 
L 1269 4134 
L 1269 2991 
Q 1406 3038 1543 3061 
Q 1681 3084 1819 3084 
Q 2600 3084 3056 2656 
Q 3513 2228 3513 1497 
Q 3513 744 3044 326 
Q 2575 -91 1722 -91 
Q 1428 -91 1123 -41 
Q 819 9 494 109 
L 494 744 
Q 775 591 1075 516 
Q 1375 441 1709 441 
Q 2250 441 2565 725 
Q 2881 1009 2881 1497 
Q 2881 1984 2565 2268 
Q 2250 2553 1709 2553 
Q 1456 2553 1204 2497 
Q 953 2441 691 2322 
L 691 4666 
z
" transform="scale(0.015625)"/>
      </defs>
      <use xlink:href="#DejaVuSans-32"/>
      <use xlink:href="#DejaVuSans-30" x="63.623047"/>
      <use xlink:href="#DejaVuSans-32" x="127.246094"/>
      <use xlink:href="#DejaVuSans-35" x="190.869141"/>
     </g>
    </g>
    <g id="patch_5">
     <path d="M 7.2 228.96 
L 106.624125 228.96 
M 106.624125 118.08 
L 7.2 118.08 
M 7.2 228.96 
" style="fill: #ffffff; stroke: #333333; stroke-linejoin: miter"/>
    </g>
    <g id="text_4">
     <!-- AnnualR -->
     <g style="fill: #333333" transform="translate(17.142412 178.486875) scale(0.18 -0.18)">
      <defs>
       <path id="DejaVuSans-41" d="M 2188 4044 
L 1331 1722 
L 3047 1722 
L 2188 4044 
z
M 1831 4666 
L 2547 4666 
L 4325 0 
L 3669 0 
L 3244 1197 
L 1141 1197 
L 716 0 
L 50 0 
L 1831 4666 
z
" transform="scale(0.015625)"/>
       <path id="DejaVuSans-6e" d="M 3513 2113 
L 3513 0 
L 2938 0 
L 2938 2094 
Q 2938 2591 2744 2837 
Q 2550 3084 2163 3084 
Q 1697 3084 1428 2787 
Q 1159 2491 1159 1978 
L 1159 0 
L 581 0 
L 581 3500 
L 1159 3500 
L 1159 2956 
Q 1366 3272 1645 3428 
Q 1925 3584 2291 3584 
Q 2894 3584 3203 3211 
Q 3513 2838 3513 2113 
z
" transform="scale(0.015625)"/>
       <path id="DejaVuSans-75" d="M 544 1381 
L 544 3500 
L 1119 3500 
L 1119 1403 
Q 1119 906 1312 657 
Q 1506 409 1894 409 
Q 2359 409 2629 706 
Q 2900 1003 2900 1516 
L 2900 3500 
L 3475 3500 
L 3475 0 
L 2900 0 
L 2900 538 
Q 2691 219 2414 64 
Q 2138 -91 1772 -91 
Q 1169 -91 856 284 
Q 544 659 544 1381 
z
M 1991 3584 
L 1991 3584 
z
" transform="scale(0.015625)"/>
       <path id="DejaVuSans-6c" d="M 603 4863 
L 1178 4863 
L 1178 0 
L 603 0 
L 603 4863 
z
" transform="scale(0.015625)"/>
       <path id="DejaVuSans-52" d="M 2841 2188 
Q 3044 2119 3236 1894 
Q 3428 1669 3622 1275 
L 4263 0 
L 3584 0 
L 2988 1197 
Q 2756 1666 2539 1819 
Q 2322 1972 1947 1972 
L 1259 1972 
L 1259 0 
L 628 0 
L 628 4666 
L 2053 4666 
Q 2853 4666 3247 4331 
Q 3641 3997 3641 3322 
Q 3641 2881 3436 2590 
Q 3231 2300 2841 2188 
z
M 1259 4147 
L 1259 2491 
L 2053 2491 
Q 2509 2491 2742 2702 
Q 2975 2913 2975 3322 
Q 2975 3731 2742 3939 
Q 2509 4147 2053 4147 
L 1259 4147 
z
" transform="scale(0.015625)"/>
      </defs>
      <use xlink:href="#DejaVuSans-41"/>
      <use xlink:href="#DejaVuSans-6e" x="68.408203"/>
      <use xlink:href="#DejaVuSans-6e" x="131.787109"/>
      <use xlink:href="#DejaVuSans-75" x="195.166016"/>
      <use xlink:href="#DejaVuSans-61" x="258.544922"/>
      <use xlink:href="#DejaVuSans-6c" x="319.824219"/>
      <use xlink:href="#DejaVuSans-52" x="347.607422"/>
     </g>
    </g>
    <g id="patch_6">
     <path d="M 106.624125 228.96 
L 212.909839 228.96 
M 212.909839 118.08 
L 106.624125 118.08 
M 106.624125 228.96 
" style="fill: #ffffff; stroke: #333333; stroke-linejoin: miter"/>
    </g>
    <g id="text_5">
     <!-- 28.10% -->
     <g style="fill: #333333" transform="translate(125.450263 178.486875) scale(0.18 -0.18)">
      <defs>
       <path id="DejaVuSans-38" d="M 2034 2216 
Q 1584 2216 1326 1975 
Q 1069 1734 1069 1313 
Q 1069 891 1326 650 
Q 1584 409 2034 409 
Q 2484 409 2743 651 
Q 3003 894 3003 1313 
Q 3003 1734 2745 1975 
Q 2488 2216 2034 2216 
z
M 1403 2484 
Q 997 2584 770 2862 
Q 544 3141 544 3541 
Q 544 4100 942 4425 
Q 1341 4750 2034 4750 
Q 2731 4750 3128 4425 
Q 3525 4100 3525 3541 
Q 3525 3141 3298 2862 
Q 3072 2584 2669 2484 
Q 3125 2378 3379 2068 
Q 3634 1759 3634 1313 
Q 3634 634 3220 271 
Q 2806 -91 2034 -91 
Q 1263 -91 848 271 
Q 434 634 434 1313 
Q 434 1759 690 2068 
Q 947 2378 1403 2484 
z
M 1172 3481 
Q 1172 3119 1398 2916 
Q 1625 2713 2034 2713 
Q 2441 2713 2670 2916 
Q 2900 3119 2900 3481 
Q 2900 3844 2670 4047 
Q 2441 4250 2034 4250 
Q 1625 4250 1398 4047 
Q 1172 3844 1172 3481 
z
" transform="scale(0.015625)"/>
       <path id="DejaVuSans-2e" d="M 684 794 
L 1344 794 
L 1344 0 
L 684 0 
L 684 794 
z
" transform="scale(0.015625)"/>
       <path id="DejaVuSans-31" d="M 794 531 
L 1825 531 
L 1825 4091 
L 703 3866 
L 703 4441 
L 1819 4666 
L 2450 4666 
L 2450 531 
L 3481 531 
L 3481 0 
L 794 0 
L 794 531 
z
" transform="scale(0.015625)"/>
       <path id="DejaVuSans-25" d="M 4653 2053 
Q 4381 2053 4226 1822 
Q 4072 1591 4072 1178 
Q 4072 772 4226 539 
Q 4381 306 4653 306 
Q 4919 306 5073 539 
Q 5228 772 5228 1178 
Q 5228 1588 5073 1820 
Q 4919 2053 4653 2053 
z
M 4653 2450 
Q 5147 2450 5437 2106 
Q 5728 1763 5728 1178 
Q 5728 594 5436 251 
Q 5144 -91 4653 -91 
Q 4153 -91 3862 251 
Q 3572 594 3572 1178 
Q 3572 1766 3864 2108 
Q 4156 2450 4653 2450 
z
M 1428 4353 
Q 1159 4353 1004 4120 
Q 850 3888 850 3481 
Q 850 3069 1003 2837 
Q 1156 2606 1428 2606 
Q 1700 2606 1854 2837 
Q 2009 3069 2009 3481 
Q 2009 3884 1853 4118 
Q 1697 4353 1428 4353 
z
M 4250 4750 
L 4750 4750 
L 1831 -91 
L 1331 -91 
L 4250 4750 
z
M 1428 4750 
Q 1922 4750 2215 4408 
Q 2509 4066 2509 3481 
Q 2509 2891 2217 2550 
Q 1925 2209 1428 2209 
Q 931 2209 642 2551 
Q 353 2894 353 3481 
Q 353 4063 643 4406 
Q 934 4750 1428 4750 
z
" transform="scale(0.015625)"/>
      </defs>
      <use xlink:href="#DejaVuSans-32"/>
      <use xlink:href="#DejaVuSans-38" x="63.623047"/>
      <use xlink:href="#DejaVuSans-2e" x="127.246094"/>
      <use xlink:href="#DejaVuSans-31" x="159.033203"/>
      <use xlink:href="#DejaVuSans-30" x="222.65625"/>
      <use xlink:href="#DejaVuSans-25" x="286.279297"/>
     </g>
    </g>
    <g id="patch_7">
     <path d="M 212.909839 228.96 
L 319.195554 228.96 
M 319.195554 118.08 
L 212.909839 118.08 
M 212.909839 228.96 
" style="fill: #ffffff; stroke: #333333; stroke-linejoin: miter"/>
    </g>
    <g id="text_6">
     <!-- 62.60% -->
     <g style="fill: #333333" transform="translate(231.735978 178.486875) scale(0.18 -0.18)">
      <defs>
       <path id="DejaVuSans-36" d="M 2113 2584 
Q 1688 2584 1439 2293 
Q 1191 2003 1191 1497 
Q 1191 994 1439 701 
Q 1688 409 2113 409 
Q 2538 409 2786 701 
Q 3034 994 3034 1497 
Q 3034 2003 2786 2293 
Q 2538 2584 2113 2584 
z
M 3366 4563 
L 3366 3988 
Q 3128 4100 2886 4159 
Q 2644 4219 2406 4219 
Q 1781 4219 1451 3797 
Q 1122 3375 1075 2522 
Q 1259 2794 1537 2939 
Q 1816 3084 2150 3084 
Q 2853 3084 3261 2657 
Q 3669 2231 3669 1497 
Q 3669 778 3244 343 
Q 2819 -91 2113 -91 
Q 1303 -91 875 529 
Q 447 1150 447 2328 
Q 447 3434 972 4092 
Q 1497 4750 2381 4750 
Q 2619 4750 2861 4703 
Q 3103 4656 3366 4563 
z
" transform="scale(0.015625)"/>
      </defs>
      <use xlink:href="#DejaVuSans-36"/>
      <use xlink:href="#DejaVuSans-32" x="63.623047"/>
      <use xlink:href="#DejaVuSans-2e" x="127.246094"/>
      <use xlink:href="#DejaVuSans-36" x="159.033203"/>
      <use xlink:href="#DejaVuSans-30" x="222.65625"/>
      <use xlink:href="#DejaVuSans-25" x="286.279297"/>
     </g>
    </g>
    <g id="patch_8">
     <path d="M 7.2 339.84 
L 106.624125 339.84 
M 106.624125 228.96 
L 7.2 228.96 
M 7.2 339.84 
" style="fill: #ffffff; stroke: #333333; stroke-linejoin: miter"/>
    </g>
    <g id="text_7">
     <!-- CumR -->
     <g style="fill: #333333" transform="translate(17.142412 289.366875) scale(0.18 -0.18)">
      <defs>
       <path id="DejaVuSans-43" d="M 4122 4306 
L 4122 3641 
Q 3803 3938 3442 4084 
Q 3081 4231 2675 4231 
Q 1875 4231 1450 3742 
Q 1025 3253 1025 2328 
Q 1025 1406 1450 917 
Q 1875 428 2675 428 
Q 3081 428 3442 575 
Q 3803 722 4122 1019 
L 4122 359 
Q 3791 134 3420 21 
Q 3050 -91 2638 -91 
Q 1578 -91 968 557 
Q 359 1206 359 2328 
Q 359 3453 968 4101 
Q 1578 4750 2638 4750 
Q 3056 4750 3426 4639 
Q 3797 4528 4122 4306 
z
" transform="scale(0.015625)"/>
       <path id="DejaVuSans-6d" d="M 3328 2828 
Q 3544 3216 3844 3400 
Q 4144 3584 4550 3584 
Q 5097 3584 5394 3201 
Q 5691 2819 5691 2113 
L 5691 0 
L 5113 0 
L 5113 2094 
Q 5113 2597 4934 2840 
Q 4756 3084 4391 3084 
Q 3944 3084 3684 2787 
Q 3425 2491 3425 1978 
L 3425 0 
L 2847 0 
L 2847 2094 
Q 2847 2600 2669 2842 
Q 2491 3084 2119 3084 
Q 1678 3084 1418 2786 
Q 1159 2488 1159 1978 
L 1159 0 
L 581 0 
L 581 3500 
L 1159 3500 
L 1159 2956 
Q 1356 3278 1631 3431 
Q 1906 3584 2284 3584 
Q 2666 3584 2933 3390 
Q 3200 3197 3328 2828 
z
" transform="scale(0.015625)"/>
      </defs>
      <use xlink:href="#DejaVuSans-43"/>
      <use xlink:href="#DejaVuSans-75" x="69.824219"/>
      <use xlink:href="#DejaVuSans-6d" x="133.203125"/>
      <use xlink:href="#DejaVuSans-52" x="230.615234"/>
     </g>
    </g>
    <g id="patch_9">
     <path d="M 106.624125 339.84 
L 212.909839 339.84 
M 212.909839 228.96 
L 106.624125 228.96 
M 106.624125 339.84 
" style="fill: #ffffff; stroke: #333333; stroke-linejoin: miter"/>
    </g>
    <g id="text_8">
     <!-- 26.85% -->
     <g style="fill: #333333" transform="translate(125.450263 289.366875) scale(0.18 -0.18)">
      <use xlink:href="#DejaVuSans-32"/>
      <use xlink:href="#DejaVuSans-36" x="63.623047"/>
      <use xlink:href="#DejaVuSans-2e" x="127.246094"/>
      <use xlink:href="#DejaVuSans-38" x="159.033203"/>
      <use xlink:href="#DejaVuSans-35" x="222.65625"/>
      <use xlink:href="#DejaVuSans-25" x="286.279297"/>
     </g>
    </g>
    <g id="patch_10">
     <path d="M 212.909839 339.84 
L 319.195554 339.84 
M 319.195554 228.96 
L 212.909839 228.96 
M 212.909839 339.84 
" style="fill: #ffffff; stroke: #333333; stroke-linejoin: miter"/>
    </g>
    <g id="text_9">
     <!-- 9.28% -->
     <g style="fill: #333333" transform="translate(237.462228 289.366875) scale(0.18 -0.18)">
      <defs>
       <path id="DejaVuSans-39" d="M 703 97 
L 703 672 
Q 941 559 1184 500 
Q 1428 441 1663 441 
Q 2288 441 2617 861 
Q 2947 1281 2994 2138 
Q 2813 1869 2534 1725 
Q 2256 1581 1919 1581 
Q 1219 1581 811 2004 
Q 403 2428 403 3163 
Q 403 3881 828 4315 
Q 1253 4750 1959 4750 
Q 2769 4750 3195 4129 
Q 3622 3509 3622 2328 
Q 3622 1225 3098 567 
Q 2575 -91 1691 -91 
Q 1453 -91 1209 -44 
Q 966 3 703 97 
z
M 1959 2075 
Q 2384 2075 2632 2365 
Q 2881 2656 2881 3163 
Q 2881 3666 2632 3958 
Q 2384 4250 1959 4250 
Q 1534 4250 1286 3958 
Q 1038 3666 1038 3163 
Q 1038 2656 1286 2365 
Q 1534 2075 1959 2075 
z
" transform="scale(0.015625)"/>
      </defs>
      <use xlink:href="#DejaVuSans-39"/>
      <use xlink:href="#DejaVuSans-2e" x="63.623047"/>
      <use xlink:href="#DejaVuSans-32" x="95.410156"/>
      <use xlink:href="#DejaVuSans-38" x="159.033203"/>
      <use xlink:href="#DejaVuSans-25" x="222.65625"/>
     </g>
    </g>
    <g id="patch_11">
     <path d="M 7.2 450.72 
L 106.624125 450.72 
M 106.624125 339.84 
L 7.2 339.84 
M 7.2 450.72 
" style="fill: #ffffff; stroke: #333333; stroke-linejoin: miter"/>
    </g>
    <g id="text_10">
     <!-- MaxDD -->
     <g style="fill: #333333" transform="translate(17.142412 400.246875) scale(0.18 -0.18)">
      <defs>
       <path id="DejaVuSans-4d" d="M 628 4666 
L 1569 4666 
L 2759 1491 
L 3956 4666 
L 4897 4666 
L 4897 0 
L 4281 0 
L 4281 4097 
L 3078 897 
L 2444 897 
L 1241 4097 
L 1241 0 
L 628 0 
L 628 4666 
z
" transform="scale(0.015625)"/>
       <path id="DejaVuSans-78" d="M 3513 3500 
L 2247 1797 
L 3578 0 
L 2900 0 
L 1881 1375 
L 863 0 
L 184 0 
L 1544 1831 
L 300 3500 
L 978 3500 
L 1906 2253 
L 2834 3500 
L 3513 3500 
z
" transform="scale(0.015625)"/>
      </defs>
      <use xlink:href="#DejaVuSans-4d"/>
      <use xlink:href="#DejaVuSans-61" x="86.279297"/>
      <use xlink:href="#DejaVuSans-78" x="147.558594"/>
      <use xlink:href="#DejaVuSans-44" x="206.738281"/>
      <use xlink:href="#DejaVuSans-44" x="283.740234"/>
     </g>
    </g>
    <g id="patch_12">
     <path d="M 106.624125 450.72 
L 212.909839 450.72 
M 212.909839 339.84 
L 106.624125 339.84 
M 106.624125 450.72 
" style="fill: #ffffff; stroke: #333333; stroke-linejoin: miter"/>
    </g>
    <g id="text_11">
     <!-- -12.76% -->
     <g style="fill: #333333" transform="translate(122.203232 400.246875) scale(0.18 -0.18)">
      <defs>
       <path id="DejaVuSans-2d" d="M 313 2009 
L 1997 2009 
L 1997 1497 
L 313 1497 
L 313 2009 
z
" transform="scale(0.015625)"/>
       <path id="DejaVuSans-37" d="M 525 4666 
L 3525 4666 
L 3525 4397 
L 1831 0 
L 1172 0 
L 2766 4134 
L 525 4134 
L 525 4666 
z
" transform="scale(0.015625)"/>
      </defs>
      <use xlink:href="#DejaVuSans-2d"/>
      <use xlink:href="#DejaVuSans-31" x="36.083984"/>
      <use xlink:href="#DejaVuSans-32" x="99.707031"/>
      <use xlink:href="#DejaVuSans-2e" x="163.330078"/>
      <use xlink:href="#DejaVuSans-37" x="195.117188"/>
      <use xlink:href="#DejaVuSans-36" x="258.740234"/>
      <use xlink:href="#DejaVuSans-25" x="322.363281"/>
     </g>
    </g>
    <g id="patch_13">
     <path d="M 212.909839 450.72 
L 319.195554 450.72 
M 319.195554 339.84 
L 212.909839 339.84 
M 212.909839 450.72 
" style="fill: #ffffff; stroke: #333333; stroke-linejoin: miter"/>
    </g>
    <g id="text_12">
     <!-- -3.87% -->
     <g style="fill: #333333" transform="translate(234.215196 400.246875) scale(0.18 -0.18)">
      <defs>
       <path id="DejaVuSans-33" d="M 2597 2516 
Q 3050 2419 3304 2112 
Q 3559 1806 3559 1356 
Q 3559 666 3084 287 
Q 2609 -91 1734 -91 
Q 1441 -91 1130 -33 
Q 819 25 488 141 
L 488 750 
Q 750 597 1062 519 
Q 1375 441 1716 441 
Q 2309 441 2620 675 
Q 2931 909 2931 1356 
Q 2931 1769 2642 2001 
Q 2353 2234 1838 2234 
L 1294 2234 
L 1294 2753 
L 1863 2753 
Q 2328 2753 2575 2939 
Q 2822 3125 2822 3475 
Q 2822 3834 2567 4026 
Q 2313 4219 1838 4219 
Q 1578 4219 1281 4162 
Q 984 4106 628 3988 
L 628 4550 
Q 988 4650 1302 4700 
Q 1616 4750 1894 4750 
Q 2613 4750 3031 4423 
Q 3450 4097 3450 3541 
Q 3450 3153 3228 2886 
Q 3006 2619 2597 2516 
z
" transform="scale(0.015625)"/>
      </defs>
      <use xlink:href="#DejaVuSans-2d"/>
      <use xlink:href="#DejaVuSans-33" x="36.083984"/>
      <use xlink:href="#DejaVuSans-2e" x="99.707031"/>
      <use xlink:href="#DejaVuSans-38" x="131.494141"/>
      <use xlink:href="#DejaVuSans-37" x="195.117188"/>
      <use xlink:href="#DejaVuSans-25" x="258.740234"/>
     </g>
    </g>
    <g id="patch_14">
     <path d="M 7.2 561.6 
L 106.624125 561.6 
M 106.624125 450.72 
L 7.2 450.72 
M 7.2 561.6 
" style="fill: #ffffff; stroke: #333333; stroke-linejoin: miter"/>
    </g>
    <g id="text_13">
     <!-- DailyRisk -->
     <g style="fill: #333333" transform="translate(17.142412 511.126875) scale(0.18 -0.18)">
      <defs>
       <path id="DejaVuSans-69" d="M 603 3500 
L 1178 3500 
L 1178 0 
L 603 0 
L 603 3500 
z
M 603 4863 
L 1178 4863 
L 1178 4134 
L 603 4134 
L 603 4863 
z
" transform="scale(0.015625)"/>
       <path id="DejaVuSans-79" d="M 2059 -325 
Q 1816 -950 1584 -1140 
Q 1353 -1331 966 -1331 
L 506 -1331 
L 506 -850 
L 844 -850 
Q 1081 -850 1212 -737 
Q 1344 -625 1503 -206 
L 1606 56 
L 191 3500 
L 800 3500 
L 1894 763 
L 2988 3500 
L 3597 3500 
L 2059 -325 
z
" transform="scale(0.015625)"/>
       <path id="DejaVuSans-73" d="M 2834 3397 
L 2834 2853 
Q 2591 2978 2328 3040 
Q 2066 3103 1784 3103 
Q 1356 3103 1142 2972 
Q 928 2841 928 2578 
Q 928 2378 1081 2264 
Q 1234 2150 1697 2047 
L 1894 2003 
Q 2506 1872 2764 1633 
Q 3022 1394 3022 966 
Q 3022 478 2636 193 
Q 2250 -91 1575 -91 
Q 1294 -91 989 -36 
Q 684 19 347 128 
L 347 722 
Q 666 556 975 473 
Q 1284 391 1588 391 
Q 1994 391 2212 530 
Q 2431 669 2431 922 
Q 2431 1156 2273 1281 
Q 2116 1406 1581 1522 
L 1381 1569 
Q 847 1681 609 1914 
Q 372 2147 372 2553 
Q 372 3047 722 3315 
Q 1072 3584 1716 3584 
Q 2034 3584 2315 3537 
Q 2597 3491 2834 3397 
z
" transform="scale(0.015625)"/>
       <path id="DejaVuSans-6b" d="M 581 4863 
L 1159 4863 
L 1159 1991 
L 2875 3500 
L 3609 3500 
L 1753 1863 
L 3688 0 
L 2938 0 
L 1159 1709 
L 1159 0 
L 581 0 
L 581 4863 
z
" transform="scale(0.015625)"/>
      </defs>
      <use xlink:href="#DejaVuSans-44"/>
      <use xlink:href="#DejaVuSans-61" x="77.001953"/>
      <use xlink:href="#DejaVuSans-69" x="138.28125"/>
      <use xlink:href="#DejaVuSans-6c" x="166.064453"/>
      <use xlink:href="#DejaVuSans-79" x="193.847656"/>
      <use xlink:href="#DejaVuSans-52" x="253.027344"/>
      <use xlink:href="#DejaVuSans-69" x="322.509766"/>
      <use xlink:href="#DejaVuSans-73" x="350.292969"/>
      <use xlink:href="#DejaVuSans-6b" x="402.392578"/>
     </g>
    </g>
    <g id="patch_15">
     <path d="M 106.624125 561.6 
L 212.909839 561.6 
M 212.909839 450.72 
L 106.624125 450.72 
M 106.624125 561.6 
" style="fill: #ffffff; stroke: #333333; stroke-linejoin: miter"/>
    </g>
    <g id="text_14">
     <!-- -3.14% -->
     <g style="fill: #333333" transform="translate(127.929482 511.126875) scale(0.18 -0.18)">
      <use xlink:href="#DejaVuSans-2d"/>
      <use xlink:href="#DejaVuSans-33" x="36.083984"/>
      <use xlink:href="#DejaVuSans-2e" x="99.707031"/>
      <use xlink:href="#DejaVuSans-31" x="131.494141"/>
      <use xlink:href="#DejaVuSans-34" x="195.117188"/>
      <use xlink:href="#DejaVuSans-25" x="258.740234"/>
     </g>
    </g>
    <g id="patch_16">
     <path d="M 212.909839 561.6 
L 319.195554 561.6 
M 319.195554 450.72 
L 212.909839 450.72 
M 212.909839 561.6 
" style="fill: #ffffff; stroke: #333333; stroke-linejoin: miter"/>
    </g>
    <g id="text_15">
     <!-- -2.03% -->
     <g style="fill: #333333" transform="translate(234.215196 511.126875) scale(0.18 -0.18)">
      <use xlink:href="#DejaVuSans-2d"/>
      <use xlink:href="#DejaVuSans-32" x="36.083984"/>
      <use xlink:href="#DejaVuSans-2e" x="99.707031"/>
      <use xlink:href="#DejaVuSans-30" x="131.494141"/>
      <use xlink:href="#DejaVuSans-33" x="195.117188"/>
      <use xlink:href="#DejaVuSans-25" x="258.740234"/>
     </g>
    </g>
   </g>
  </g>
  <g id="axes_2">
   <g id="patch_17">
    <path d="M 372.338411 561.6 
L 1222.624125 561.6 
L 1222.624125 7.2 
L 372.338411 7.2 
L 372.338411 561.6 
z
" style="fill: none"/>
   </g>
   <g id="matplotlib.axis_1">
    <g id="xtick_1">
     <g id="line2d_1">
      <path d="M 545.420285 561.6 
L 545.420285 7.2 
" clip-path="url(#pf5feb293f2)" style="fill: none; stroke: #333333; stroke-opacity: 0.4; stroke-width: 1.5; stroke-linecap: square"/>
     </g>
     <g id="line2d_2">
      <defs>
       <path id="m26d315af5b" d="M 0 0 
L 0 3.5 
" style="stroke: #333333; stroke-width: 0.8"/>
      </defs>
      <g>
       <use xlink:href="#m26d315af5b" x="545.420285" y="561.6" style="fill: #333333; stroke: #333333; stroke-width: 0.8"/>
      </g>
     </g>
     <g id="text_16">
      <!-- 2024-03-18 -->
      <g style="fill: #333333" transform="translate(498.927785 580.7575) scale(0.16 -0.16)">
       <use xlink:href="#DejaVuSans-32"/>
       <use xlink:href="#DejaVuSans-30" x="63.623047"/>
       <use xlink:href="#DejaVuSans-32" x="127.246094"/>
       <use xlink:href="#DejaVuSans-34" x="190.869141"/>
       <use xlink:href="#DejaVuSans-2d" x="254.492188"/>
       <use xlink:href="#DejaVuSans-30" x="290.576172"/>
       <use xlink:href="#DejaVuSans-33" x="354.199219"/>
       <use xlink:href="#DejaVuSans-2d" x="417.822266"/>
       <use xlink:href="#DejaVuSans-31" x="453.90625"/>
       <use xlink:href="#DejaVuSans-38" x="517.529297"/>
      </g>
     </g>
    </g>
    <g id="xtick_2">
     <g id="line2d_3">
      <path d="M 722.305185 561.6 
L 722.305185 7.2 
" clip-path="url(#pf5feb293f2)" style="fill: none; stroke: #333333; stroke-opacity: 0.4; stroke-width: 1.5; stroke-linecap: square"/>
     </g>
     <g id="line2d_4">
      <g>
       <use xlink:href="#m26d315af5b" x="722.305185" y="561.6" style="fill: #333333; stroke: #333333; stroke-width: 0.8"/>
      </g>
     </g>
     <g id="text_17">
      <!-- 2024-06-26 -->
      <g style="fill: #333333" transform="translate(675.812685 580.7575) scale(0.16 -0.16)">
       <use xlink:href="#DejaVuSans-32"/>
       <use xlink:href="#DejaVuSans-30" x="63.623047"/>
       <use xlink:href="#DejaVuSans-32" x="127.246094"/>
       <use xlink:href="#DejaVuSans-34" x="190.869141"/>
       <use xlink:href="#DejaVuSans-2d" x="254.492188"/>
       <use xlink:href="#DejaVuSans-30" x="290.576172"/>
       <use xlink:href="#DejaVuSans-36" x="354.199219"/>
       <use xlink:href="#DejaVuSans-2d" x="417.822266"/>
       <use xlink:href="#DejaVuSans-32" x="453.90625"/>
       <use xlink:href="#DejaVuSans-36" x="517.529297"/>
      </g>
     </g>
    </g>
    <g id="xtick_3">
     <g id="line2d_5">
      <path d="M 899.190085 561.6 
L 899.190085 7.2 
" clip-path="url(#pf5feb293f2)" style="fill: none; stroke: #333333; stroke-opacity: 0.4; stroke-width: 1.5; stroke-linecap: square"/>
     </g>
     <g id="line2d_6">
      <g>
       <use xlink:href="#m26d315af5b" x="899.190085" y="561.6" style="fill: #333333; stroke: #333333; stroke-width: 0.8"/>
      </g>
     </g>
     <g id="text_18">
      <!-- 2024-10-04 -->
      <g style="fill: #333333" transform="translate(852.697585 580.7575) scale(0.16 -0.16)">
       <use xlink:href="#DejaVuSans-32"/>
       <use xlink:href="#DejaVuSans-30" x="63.623047"/>
       <use xlink:href="#DejaVuSans-32" x="127.246094"/>
       <use xlink:href="#DejaVuSans-34" x="190.869141"/>
       <use xlink:href="#DejaVuSans-2d" x="254.492188"/>
       <use xlink:href="#DejaVuSans-31" x="290.576172"/>
       <use xlink:href="#DejaVuSans-30" x="354.199219"/>
       <use xlink:href="#DejaVuSans-2d" x="417.822266"/>
       <use xlink:href="#DejaVuSans-30" x="453.90625"/>
       <use xlink:href="#DejaVuSans-34" x="517.529297"/>
      </g>
     </g>
    </g>
    <g id="xtick_4">
     <g id="line2d_7">
      <path d="M 1076.074985 561.6 
L 1076.074985 7.2 
" clip-path="url(#pf5feb293f2)" style="fill: none; stroke: #333333; stroke-opacity: 0.4; stroke-width: 1.5; stroke-linecap: square"/>
     </g>
     <g id="line2d_8">
      <g>
       <use xlink:href="#m26d315af5b" x="1076.074985" y="561.6" style="fill: #333333; stroke: #333333; stroke-width: 0.8"/>
      </g>
     </g>
     <g id="text_19">
      <!-- 2025-01-12 -->
      <g style="fill: #333333" transform="translate(1029.582485 580.7575) scale(0.16 -0.16)">
       <use xlink:href="#DejaVuSans-32"/>
       <use xlink:href="#DejaVuSans-30" x="63.623047"/>
       <use xlink:href="#DejaVuSans-32" x="127.246094"/>
       <use xlink:href="#DejaVuSans-35" x="190.869141"/>
       <use xlink:href="#DejaVuSans-2d" x="254.492188"/>
       <use xlink:href="#DejaVuSans-30" x="290.576172"/>
       <use xlink:href="#DejaVuSans-31" x="354.199219"/>
       <use xlink:href="#DejaVuSans-2d" x="417.822266"/>
       <use xlink:href="#DejaVuSans-31" x="453.90625"/>
       <use xlink:href="#DejaVuSans-32" x="517.529297"/>
      </g>
     </g>
    </g>
   </g>
   <g id="matplotlib.axis_2">
    <g id="ytick_1">
     <g id="line2d_9">
      <path d="M 372.338411 483.11787 
L 1222.624125 483.11787 
" clip-path="url(#pf5feb293f2)" style="fill: none; stroke: #333333; stroke-opacity: 0.4; stroke-width: 1.5; stroke-linecap: square"/>
     </g>
     <g id="line2d_10">
      <defs>
       <path id="mff0616014d" d="M 0 0 
L -3.5 0 
" style="stroke: #d9534f; stroke-width: 0.8"/>
      </defs>
      <g>
       <use xlink:href="#mff0616014d" x="372.338411" y="483.11787" style="fill: #d9534f; stroke: #d9534f; stroke-width: 0.8"/>
      </g>
     </g>
     <g id="text_20">
      <!-- 1.0 -->
      <g style="fill: #d9534f" transform="translate(339.893411 489.19662) scale(0.16 -0.16)">
       <use xlink:href="#DejaVuSans-31"/>
       <use xlink:href="#DejaVuSans-2e" x="63.623047"/>
       <use xlink:href="#DejaVuSans-30" x="95.410156"/>
      </g>
     </g>
    </g>
    <g id="ytick_2">
     <g id="line2d_11">
      <path d="M 372.338411 366.760505 
L 1222.624125 366.760505 
" clip-path="url(#pf5feb293f2)" style="fill: none; stroke: #333333; stroke-opacity: 0.4; stroke-width: 1.5; stroke-linecap: square"/>
     </g>
     <g id="line2d_12">
      <g>
       <use xlink:href="#mff0616014d" x="372.338411" y="366.760505" style="fill: #d9534f; stroke: #d9534f; stroke-width: 0.8"/>
      </g>
     </g>
     <g id="text_21">
      <!-- 1.1 -->
      <g style="fill: #d9534f" transform="translate(339.893411 372.839255) scale(0.16 -0.16)">
       <use xlink:href="#DejaVuSans-31"/>
       <use xlink:href="#DejaVuSans-2e" x="63.623047"/>
       <use xlink:href="#DejaVuSans-31" x="95.410156"/>
      </g>
     </g>
    </g>
    <g id="ytick_3">
     <g id="line2d_13">
      <path d="M 372.338411 250.403141 
L 1222.624125 250.403141 
" clip-path="url(#pf5feb293f2)" style="fill: none; stroke: #333333; stroke-opacity: 0.4; stroke-width: 1.5; stroke-linecap: square"/>
     </g>
     <g id="line2d_14">
      <g>
       <use xlink:href="#mff0616014d" x="372.338411" y="250.403141" style="fill: #d9534f; stroke: #d9534f; stroke-width: 0.8"/>
      </g>
     </g>
     <g id="text_22">
      <!-- 1.2 -->
      <g style="fill: #d9534f" transform="translate(339.893411 256.481891) scale(0.16 -0.16)">
       <use xlink:href="#DejaVuSans-31"/>
       <use xlink:href="#DejaVuSans-2e" x="63.623047"/>
       <use xlink:href="#DejaVuSans-32" x="95.410156"/>
      </g>
     </g>
    </g>
    <g id="ytick_4">
     <g id="line2d_15">
      <path d="M 372.338411 134.045776 
L 1222.624125 134.045776 
" clip-path="url(#pf5feb293f2)" style="fill: none; stroke: #333333; stroke-opacity: 0.4; stroke-width: 1.5; stroke-linecap: square"/>
     </g>
     <g id="line2d_16">
      <g>
       <use xlink:href="#mff0616014d" x="372.338411" y="134.045776" style="fill: #d9534f; stroke: #d9534f; stroke-width: 0.8"/>
      </g>
     </g>
     <g id="text_23">
      <!-- 1.3 -->
      <g style="fill: #d9534f" transform="translate(339.893411 140.124526) scale(0.16 -0.16)">
       <use xlink:href="#DejaVuSans-31"/>
       <use xlink:href="#DejaVuSans-2e" x="63.623047"/>
       <use xlink:href="#DejaVuSans-33" x="95.410156"/>
      </g>
     </g>
    </g>
    <g id="ytick_5">
     <g id="line2d_17">
      <path d="M 372.338411 17.688411 
L 1222.624125 17.688411 
" clip-path="url(#pf5feb293f2)" style="fill: none; stroke: #333333; stroke-opacity: 0.4; stroke-width: 1.5; stroke-linecap: square"/>
     </g>
     <g id="line2d_18">
      <g>
       <use xlink:href="#mff0616014d" x="372.338411" y="17.688411" style="fill: #d9534f; stroke: #d9534f; stroke-width: 0.8"/>
      </g>
     </g>
     <g id="text_24">
      <!-- 1.4 -->
      <g style="fill: #d9534f" transform="translate(339.893411 23.767161) scale(0.16 -0.16)">
       <use xlink:href="#DejaVuSans-31"/>
       <use xlink:href="#DejaVuSans-2e" x="63.623047"/>
       <use xlink:href="#DejaVuSans-34" x="95.410156"/>
      </g>
     </g>
    </g>
    <g id="text_25">
     <!-- Cumulative Return -->
     <g style="fill: #d9534f" transform="translate(332.565911 359.14875) rotate(-90) scale(0.16 -0.16)">
      <defs>
       <path id="DejaVuSans-76" d="M 191 3500 
L 800 3500 
L 1894 563 
L 2988 3500 
L 3597 3500 
L 2284 0 
L 1503 0 
L 191 3500 
z
" transform="scale(0.015625)"/>
       <path id="DejaVuSans-20" transform="scale(0.015625)"/>
       <path id="DejaVuSans-72" d="M 2631 2963 
Q 2534 3019 2420 3045 
Q 2306 3072 2169 3072 
Q 1681 3072 1420 2755 
Q 1159 2438 1159 1844 
L 1159 0 
L 581 0 
L 581 3500 
L 1159 3500 
L 1159 2956 
Q 1341 3275 1631 3429 
Q 1922 3584 2338 3584 
Q 2397 3584 2469 3576 
Q 2541 3569 2628 3553 
L 2631 2963 
z
" transform="scale(0.015625)"/>
      </defs>
      <use xlink:href="#DejaVuSans-43"/>
      <use xlink:href="#DejaVuSans-75" x="69.824219"/>
      <use xlink:href="#DejaVuSans-6d" x="133.203125"/>
      <use xlink:href="#DejaVuSans-75" x="230.615234"/>
      <use xlink:href="#DejaVuSans-6c" x="293.994141"/>
      <use xlink:href="#DejaVuSans-61" x="321.777344"/>
      <use xlink:href="#DejaVuSans-74" x="383.056641"/>
      <use xlink:href="#DejaVuSans-69" x="422.265625"/>
      <use xlink:href="#DejaVuSans-76" x="450.048828"/>
      <use xlink:href="#DejaVuSans-65" x="509.228516"/>
      <use xlink:href="#DejaVuSans-20" x="570.751953"/>
      <use xlink:href="#DejaVuSans-52" x="602.539062"/>
      <use xlink:href="#DejaVuSans-65" x="667.521484"/>
      <use xlink:href="#DejaVuSans-74" x="729.044922"/>
      <use xlink:href="#DejaVuSans-75" x="768.253906"/>
      <use xlink:href="#DejaVuSans-72" x="831.632812"/>
      <use xlink:href="#DejaVuSans-6e" x="870.996094"/>
     </g>
    </g>
   </g>
   <g id="line2d_19">
    <path d="M 410.987761 483.11787 
L 460.515533 483.167584 
L 462.284382 483.366438 
L 465.82208 483.322265 
L 471.128627 483.581068 
L 472.897476 483.488644 
L 474.666325 483.583453 
L 476.435174 483.356279 
L 495.892513 483.961922 
L 499.430211 482.98004 
L 501.19906 475.297454 
L 502.967909 466.144009 
L 508.274456 463.445856 
L 510.043305 439.551271 
L 511.812154 483.230763 
L 513.581003 449.178612 
L 515.349852 436.146355 
L 520.656399 430.153952 
L 522.425248 438.733846 
L 524.194097 434.798781 
L 525.962946 448.961059 
L 527.731795 435.310383 
L 534.807191 411.854524 
L 536.57604 409.832277 
L 538.344889 417.611676 
L 540.113738 404.546251 
L 545.420285 385.263866 
L 547.189134 391.231182 
L 548.957983 381.358353 
L 550.726832 382.748408 
L 552.495681 393.276287 
L 557.802228 418.407399 
L 559.571077 422.040257 
L 561.339926 458.113195 
L 563.108775 434.104331 
L 564.877624 422.912706 
L 570.184171 401.200901 
L 571.95302 408.246831 
L 573.721869 418.601561 
L 582.566114 433.360475 
L 584.334963 428.309473 
L 586.103812 437.77259 
L 587.872661 434.887435 
L 589.64151 438.244867 
L 594.948057 439.594366 
L 596.716906 457.529177 
L 598.485755 442.453973 
L 600.254604 441.908354 
L 602.023453 440.401018 
L 607.33 446.104222 
L 609.098849 453.290752 
L 610.867698 446.02719 
L 612.636547 446.727258 
L 614.405396 436.876898 
L 619.711943 424.307457 
L 621.480792 428.885796 
L 632.093886 410.383436 
L 633.862735 406.904567 
L 635.631584 418.706374 
L 637.400433 405.214228 
L 639.169282 412.497953 
L 644.475829 419.883337 
L 646.244678 416.533369 
L 648.013527 425.014681 
L 649.782376 425.090021 
L 651.551225 416.045082 
L 656.857772 409.855595 
L 658.626621 415.329932 
L 660.39547 414.712282 
L 662.164319 428.860092 
L 663.933168 436.224698 
L 669.239715 429.012619 
L 671.008564 435.379723 
L 672.777413 433.941801 
L 674.546262 438.561618 
L 676.315111 436.960705 
L 681.621658 440.246338 
L 683.390507 436.336901 
L 686.928205 453.076816 
L 688.697054 452.493258 
L 695.77245 450.32164 
L 697.541299 445.581154 
L 699.310148 447.574466 
L 701.078997 447.976098 
L 706.385544 446.295689 
L 708.154393 440.34892 
L 709.923242 445.856349 
L 711.692091 453.601039 
L 713.46094 453.818516 
L 720.536336 472.88073 
L 722.305185 466.033114 
L 724.074034 474.01229 
L 725.842883 469.263263 
L 731.14943 465.489575 
L 732.918279 468.596671 
L 736.455977 478.953938 
L 738.224826 476.635332 
L 743.531373 480.914776 
L 745.300222 472.634856 
L 747.069071 474.984167 
L 748.83792 468.515483 
L 750.606769 470.630308 
L 755.913316 473.837677 
L 757.682165 470.145333 
L 759.451014 478.321745 
L 761.219863 476.105876 
L 762.988712 475.466525 
L 768.295259 474.610238 
L 770.064108 488.512633 
L 771.832957 493.777881 
L 773.601806 495.371254 
L 775.370655 491.829434 
L 780.677202 490.362654 
L 782.446051 488.676705 
L 784.2149 478.921848 
L 785.983749 477.775513 
L 787.752598 487.525212 
L 793.059145 505.871198 
L 794.827994 497.934658 
L 796.596843 497.986987 
L 798.365692 501.46778 
L 800.134541 506.222501 
L 805.441088 509.209699 
L 807.209937 506.920569 
L 808.978786 508.84593 
L 810.747635 504.363092 
L 812.516484 505.707591 
L 817.823031 506.764195 
L 819.59188 511.614573 
L 821.360729 512.334187 
L 823.129578 517.122386 
L 824.898427 517.274989 
L 830.204974 517.962129 
L 831.973823 522.968958 
L 833.742672 522.579791 
L 835.511521 520.948942 
L 837.28037 515.911715 
L 842.586917 523.525734 
L 844.355766 518.736767 
L 846.124615 521.458084 
L 847.893464 518.437793 
L 849.662313 527.135507 
L 854.96886 530.355651 
L 856.737709 529.202158 
L 858.506558 529.728074 
L 860.275407 531.564244 
L 862.044256 536.121496 
L 870.888501 536.4 
L 872.65735 531.658515 
L 874.426199 530.284697 
L 879.732746 529.423099 
L 881.501595 515.034803 
L 883.270444 505.854806 
L 885.039293 472.140413 
L 886.808142 411.599108 
L 892.114689 266.23136 
L 906.265481 130.64186 
L 908.03433 252.590537 
L 909.803179 267.031548 
L 911.572028 324.104142 
L 916.878575 277.630378 
L 918.647424 303.285098 
L 920.416273 303.210608 
L 922.185122 306.071366 
L 923.953971 250.194974 
L 929.260518 218.821273 
L 931.029367 217.708029 
L 932.798216 214.890749 
L 934.567065 223.029069 
L 936.335914 198.168073 
L 941.642461 172.777004 
L 943.41131 194.453487 
L 945.180159 191.325072 
L 946.949008 170.414069 
L 948.717857 220.123982 
L 954.024404 190.098396 
L 955.793253 138.050715 
L 957.562102 128.916353 
L 959.330951 96.735233 
L 961.0998 90.503419 
L 966.406347 53.312157 
L 968.175196 76.693215 
L 969.944045 73.498851 
L 971.712894 120.446353 
L 973.481743 153.182175 
L 978.78829 192.732366 
L 980.557139 156.993265 
L 982.325988 130.130488 
L 984.094837 131.928796 
L 985.863686 185.314046 
L 991.170233 178.911852 
L 992.939082 195.804603 
L 994.707931 161.784539 
L 996.47678 166.562041 
L 998.245629 135.282613 
L 1003.552176 104.624523 
L 1005.321025 103.621941 
L 1007.089874 121.487799 
L 1008.858723 101.740216 
L 1010.627572 88.577522 
L 1015.934119 95.861398 
L 1019.471817 61.156199 
L 1021.240666 49.367397 
L 1023.009515 79.714736 
L 1028.316062 96.937087 
L 1030.084911 133.49377 
L 1031.85376 116.532144 
L 1033.622609 111.245811 
L 1035.391458 93.577192 
L 1040.698005 138.015857 
L 1042.466854 123.083096 
L 1044.235703 142.77858 
L 1046.004552 124.248824 
L 1047.773401 125.386311 
L 1053.079948 131.339312 
L 1054.848797 170.712892 
L 1058.386495 190.786691 
L 1060.155344 218.94956 
L 1065.461891 227.86398 
L 1067.23074 209.369238 
L 1068.999589 203.877433 
L 1070.768438 200.643514 
L 1072.537287 214.126578 
L 1077.843834 216.430791 
L 1079.612683 186.806376 
L 1081.381532 189.695455 
L 1083.150381 188.454388 
L 1084.91923 186.066138 
L 1090.225777 179.427535 
L 1091.994626 167.306359 
L 1093.763475 173.771582 
L 1095.532324 177.118703 
L 1097.301173 161.689499 
L 1102.60772 179.709346 
L 1118.527361 175.695788 
L 1120.29621 148.330257 
L 1122.065059 133.318851 
L 1127.371606 116.871676 
L 1129.140455 118.513915 
L 1130.909304 98.558781 
L 1132.678153 112.442785 
L 1139.753549 92.761308 
L 1141.522398 122.682235 
L 1143.291247 87.40656 
L 1145.060096 76.687522 
L 1146.828945 47.487826 
L 1152.135492 50.139651 
L 1153.904341 52.096409 
L 1155.67319 35.291851 
L 1157.442039 40.57757 
L 1159.210888 91.253433 
L 1164.517435 93.961743 
L 1168.055133 64.582817 
L 1169.823982 40.304837 
L 1171.592831 43.18753 
L 1176.899378 42.589197 
L 1178.668227 37.888959 
L 1180.437076 32.4 
L 1182.205925 51.960198 
L 1183.974774 33.753811 
L 1183.974774 33.753811 
" clip-path="url(#pf5feb293f2)" style="fill: none; stroke: #d9534f; stroke-width: 2; stroke-linecap: square"/>
    <defs>
     <path id="m4b9524eb35" d="M 0 1.5 
C 0.397805 1.5 0.77937 1.341951 1.06066 1.06066 
C 1.341951 0.77937 1.5 0.397805 1.5 0 
C 1.5 -0.397805 1.341951 -0.77937 1.06066 -1.06066 
C 0.77937 -1.341951 0.397805 -1.5 0 -1.5 
C -0.397805 -1.5 -0.77937 -1.341951 -1.06066 -1.06066 
C -1.341951 -0.77937 -1.5 -0.397805 -1.5 0 
C -1.5 0.397805 -1.341951 0.77937 -1.06066 1.06066 
C -0.77937 1.341951 -0.397805 1.5 0 1.5 
z
" style="stroke: #d9534f; stroke-width: 2"/>
    </defs>
    <g clip-path="url(#pf5feb293f2)">
     <use xlink:href="#m4b9524eb35" x="410.987761" y="483.11787" style="fill: #333333; stroke: #d9534f; stroke-width: 2"/>
     <use xlink:href="#m4b9524eb35" x="412.75661" y="483.11787" style="fill: #333333; stroke: #d9534f; stroke-width: 2"/>
     <use xlink:href="#m4b9524eb35" x="414.525459" y="483.11787" style="fill: #333333; stroke: #d9534f; stroke-width: 2"/>
     <use xlink:href="#m4b9524eb35" x="416.294308" y="483.11787" style="fill: #333333; stroke: #d9534f; stroke-width: 2"/>
     <use xlink:href="#m4b9524eb35" x="421.600855" y="483.11787" style="fill: #333333; stroke: #d9534f; stroke-width: 2"/>
     <use xlink:href="#m4b9524eb35" x="423.369704" y="483.11787" style="fill: #333333; stroke: #d9534f; stroke-width: 2"/>
     <use xlink:href="#m4b9524eb35" x="425.138553" y="483.11787" style="fill: #333333; stroke: #d9534f; stroke-width: 2"/>
     <use xlink:href="#m4b9524eb35" x="426.907402" y="483.11787" style="fill: #333333; stroke: #d9534f; stroke-width: 2"/>
     <use xlink:href="#m4b9524eb35" x="428.676251" y="483.11787" style="fill: #333333; stroke: #d9534f; stroke-width: 2"/>
     <use xlink:href="#m4b9524eb35" x="433.982798" y="483.11787" style="fill: #333333; stroke: #d9534f; stroke-width: 2"/>
     <use xlink:href="#m4b9524eb35" x="435.751647" y="483.11787" style="fill: #333333; stroke: #d9534f; stroke-width: 2"/>
     <use xlink:href="#m4b9524eb35" x="437.520496" y="483.11787" style="fill: #333333; stroke: #d9534f; stroke-width: 2"/>
     <use xlink:href="#m4b9524eb35" x="439.289345" y="483.11787" style="fill: #333333; stroke: #d9534f; stroke-width: 2"/>
     <use xlink:href="#m4b9524eb35" x="441.058194" y="483.11787" style="fill: #333333; stroke: #d9534f; stroke-width: 2"/>
     <use xlink:href="#m4b9524eb35" x="446.364741" y="483.11787" style="fill: #333333; stroke: #d9534f; stroke-width: 2"/>
     <use xlink:href="#m4b9524eb35" x="448.13359" y="483.11787" style="fill: #333333; stroke: #d9534f; stroke-width: 2"/>
     <use xlink:href="#m4b9524eb35" x="449.902439" y="483.11787" style="fill: #333333; stroke: #d9534f; stroke-width: 2"/>
     <use xlink:href="#m4b9524eb35" x="451.671288" y="483.11787" style="fill: #333333; stroke: #d9534f; stroke-width: 2"/>
     <use xlink:href="#m4b9524eb35" x="453.440137" y="483.11787" style="fill: #333333; stroke: #d9534f; stroke-width: 2"/>
     <use xlink:href="#m4b9524eb35" x="458.746684" y="483.11787" style="fill: #333333; stroke: #d9534f; stroke-width: 2"/>
     <use xlink:href="#m4b9524eb35" x="460.515533" y="483.167584" style="fill: #333333; stroke: #d9534f; stroke-width: 2"/>
     <use xlink:href="#m4b9524eb35" x="462.284382" y="483.366438" style="fill: #333333; stroke: #d9534f; stroke-width: 2"/>
     <use xlink:href="#m4b9524eb35" x="464.053231" y="483.293176" style="fill: #333333; stroke: #d9534f; stroke-width: 2"/>
     <use xlink:href="#m4b9524eb35" x="465.82208" y="483.322265" style="fill: #333333; stroke: #d9534f; stroke-width: 2"/>
     <use xlink:href="#m4b9524eb35" x="471.128627" y="483.581068" style="fill: #333333; stroke: #d9534f; stroke-width: 2"/>
     <use xlink:href="#m4b9524eb35" x="472.897476" y="483.488644" style="fill: #333333; stroke: #d9534f; stroke-width: 2"/>
     <use xlink:href="#m4b9524eb35" x="474.666325" y="483.583453" style="fill: #333333; stroke: #d9534f; stroke-width: 2"/>
     <use xlink:href="#m4b9524eb35" x="476.435174" y="483.356279" style="fill: #333333; stroke: #d9534f; stroke-width: 2"/>
     <use xlink:href="#m4b9524eb35" x="495.892513" y="483.961922" style="fill: #333333; stroke: #d9534f; stroke-width: 2"/>
     <use xlink:href="#m4b9524eb35" x="497.661362" y="483.422692" style="fill: #333333; stroke: #d9534f; stroke-width: 2"/>
     <use xlink:href="#m4b9524eb35" x="499.430211" y="482.98004" style="fill: #333333; stroke: #d9534f; stroke-width: 2"/>
     <use xlink:href="#m4b9524eb35" x="501.19906" y="475.297454" style="fill: #333333; stroke: #d9534f; stroke-width: 2"/>
     <use xlink:href="#m4b9524eb35" x="502.967909" y="466.144009" style="fill: #333333; stroke: #d9534f; stroke-width: 2"/>
     <use xlink:href="#m4b9524eb35" x="508.274456" y="463.445856" style="fill: #333333; stroke: #d9534f; stroke-width: 2"/>
     <use xlink:href="#m4b9524eb35" x="510.043305" y="439.551271" style="fill: #333333; stroke: #d9534f; stroke-width: 2"/>
     <use xlink:href="#m4b9524eb35" x="511.812154" y="483.230763" style="fill: #333333; stroke: #d9534f; stroke-width: 2"/>
     <use xlink:href="#m4b9524eb35" x="513.581003" y="449.178612" style="fill: #333333; stroke: #d9534f; stroke-width: 2"/>
     <use xlink:href="#m4b9524eb35" x="515.349852" y="436.146355" style="fill: #333333; stroke: #d9534f; stroke-width: 2"/>
     <use xlink:href="#m4b9524eb35" x="520.656399" y="430.153952" style="fill: #333333; stroke: #d9534f; stroke-width: 2"/>
     <use xlink:href="#m4b9524eb35" x="522.425248" y="438.733846" style="fill: #333333; stroke: #d9534f; stroke-width: 2"/>
     <use xlink:href="#m4b9524eb35" x="524.194097" y="434.798781" style="fill: #333333; stroke: #d9534f; stroke-width: 2"/>
     <use xlink:href="#m4b9524eb35" x="525.962946" y="448.961059" style="fill: #333333; stroke: #d9534f; stroke-width: 2"/>
     <use xlink:href="#m4b9524eb35" x="527.731795" y="435.310383" style="fill: #333333; stroke: #d9534f; stroke-width: 2"/>
     <use xlink:href="#m4b9524eb35" x="533.038342" y="417.492548" style="fill: #333333; stroke: #d9534f; stroke-width: 2"/>
     <use xlink:href="#m4b9524eb35" x="534.807191" y="411.854524" style="fill: #333333; stroke: #d9534f; stroke-width: 2"/>
     <use xlink:href="#m4b9524eb35" x="536.57604" y="409.832277" style="fill: #333333; stroke: #d9534f; stroke-width: 2"/>
     <use xlink:href="#m4b9524eb35" x="538.344889" y="417.611676" style="fill: #333333; stroke: #d9534f; stroke-width: 2"/>
     <use xlink:href="#m4b9524eb35" x="540.113738" y="404.546251" style="fill: #333333; stroke: #d9534f; stroke-width: 2"/>
     <use xlink:href="#m4b9524eb35" x="545.420285" y="385.263866" style="fill: #333333; stroke: #d9534f; stroke-width: 2"/>
     <use xlink:href="#m4b9524eb35" x="547.189134" y="391.231182" style="fill: #333333; stroke: #d9534f; stroke-width: 2"/>
     <use xlink:href="#m4b9524eb35" x="548.957983" y="381.358353" style="fill: #333333; stroke: #d9534f; stroke-width: 2"/>
     <use xlink:href="#m4b9524eb35" x="550.726832" y="382.748408" style="fill: #333333; stroke: #d9534f; stroke-width: 2"/>
     <use xlink:href="#m4b9524eb35" x="552.495681" y="393.276287" style="fill: #333333; stroke: #d9534f; stroke-width: 2"/>
     <use xlink:href="#m4b9524eb35" x="557.802228" y="418.407399" style="fill: #333333; stroke: #d9534f; stroke-width: 2"/>
     <use xlink:href="#m4b9524eb35" x="559.571077" y="422.040257" style="fill: #333333; stroke: #d9534f; stroke-width: 2"/>
     <use xlink:href="#m4b9524eb35" x="561.339926" y="458.113195" style="fill: #333333; stroke: #d9534f; stroke-width: 2"/>
     <use xlink:href="#m4b9524eb35" x="563.108775" y="434.104331" style="fill: #333333; stroke: #d9534f; stroke-width: 2"/>
     <use xlink:href="#m4b9524eb35" x="564.877624" y="422.912706" style="fill: #333333; stroke: #d9534f; stroke-width: 2"/>
     <use xlink:href="#m4b9524eb35" x="570.184171" y="401.200901" style="fill: #333333; stroke: #d9534f; stroke-width: 2"/>
     <use xlink:href="#m4b9524eb35" x="571.95302" y="408.246831" style="fill: #333333; stroke: #d9534f; stroke-width: 2"/>
     <use xlink:href="#m4b9524eb35" x="573.721869" y="418.601561" style="fill: #333333; stroke: #d9534f; stroke-width: 2"/>
     <use xlink:href="#m4b9524eb35" x="582.566114" y="433.360475" style="fill: #333333; stroke: #d9534f; stroke-width: 2"/>
     <use xlink:href="#m4b9524eb35" x="584.334963" y="428.309473" style="fill: #333333; stroke: #d9534f; stroke-width: 2"/>
     <use xlink:href="#m4b9524eb35" x="586.103812" y="437.77259" style="fill: #333333; stroke: #d9534f; stroke-width: 2"/>
     <use xlink:href="#m4b9524eb35" x="587.872661" y="434.887435" style="fill: #333333; stroke: #d9534f; stroke-width: 2"/>
     <use xlink:href="#m4b9524eb35" x="589.64151" y="438.244867" style="fill: #333333; stroke: #d9534f; stroke-width: 2"/>
     <use xlink:href="#m4b9524eb35" x="594.948057" y="439.594366" style="fill: #333333; stroke: #d9534f; stroke-width: 2"/>
     <use xlink:href="#m4b9524eb35" x="596.716906" y="457.529177" style="fill: #333333; stroke: #d9534f; stroke-width: 2"/>
     <use xlink:href="#m4b9524eb35" x="598.485755" y="442.453973" style="fill: #333333; stroke: #d9534f; stroke-width: 2"/>
     <use xlink:href="#m4b9524eb35" x="600.254604" y="441.908354" style="fill: #333333; stroke: #d9534f; stroke-width: 2"/>
     <use xlink:href="#m4b9524eb35" x="602.023453" y="440.401018" style="fill: #333333; stroke: #d9534f; stroke-width: 2"/>
     <use xlink:href="#m4b9524eb35" x="607.33" y="446.104222" style="fill: #333333; stroke: #d9534f; stroke-width: 2"/>
     <use xlink:href="#m4b9524eb35" x="609.098849" y="453.290752" style="fill: #333333; stroke: #d9534f; stroke-width: 2"/>
     <use xlink:href="#m4b9524eb35" x="610.867698" y="446.02719" style="fill: #333333; stroke: #d9534f; stroke-width: 2"/>
     <use xlink:href="#m4b9524eb35" x="612.636547" y="446.727258" style="fill: #333333; stroke: #d9534f; stroke-width: 2"/>
     <use xlink:href="#m4b9524eb35" x="614.405396" y="436.876898" style="fill: #333333; stroke: #d9534f; stroke-width: 2"/>
     <use xlink:href="#m4b9524eb35" x="619.711943" y="424.307457" style="fill: #333333; stroke: #d9534f; stroke-width: 2"/>
     <use xlink:href="#m4b9524eb35" x="621.480792" y="428.885796" style="fill: #333333; stroke: #d9534f; stroke-width: 2"/>
     <use xlink:href="#m4b9524eb35" x="632.093886" y="410.383436" style="fill: #333333; stroke: #d9534f; stroke-width: 2"/>
     <use xlink:href="#m4b9524eb35" x="633.862735" y="406.904567" style="fill: #333333; stroke: #d9534f; stroke-width: 2"/>
     <use xlink:href="#m4b9524eb35" x="635.631584" y="418.706374" style="fill: #333333; stroke: #d9534f; stroke-width: 2"/>
     <use xlink:href="#m4b9524eb35" x="637.400433" y="405.214228" style="fill: #333333; stroke: #d9534f; stroke-width: 2"/>
     <use xlink:href="#m4b9524eb35" x="639.169282" y="412.497953" style="fill: #333333; stroke: #d9534f; stroke-width: 2"/>
     <use xlink:href="#m4b9524eb35" x="644.475829" y="419.883337" style="fill: #333333; stroke: #d9534f; stroke-width: 2"/>
     <use xlink:href="#m4b9524eb35" x="646.244678" y="416.533369" style="fill: #333333; stroke: #d9534f; stroke-width: 2"/>
     <use xlink:href="#m4b9524eb35" x="648.013527" y="425.014681" style="fill: #333333; stroke: #d9534f; stroke-width: 2"/>
     <use xlink:href="#m4b9524eb35" x="649.782376" y="425.090021" style="fill: #333333; stroke: #d9534f; stroke-width: 2"/>
     <use xlink:href="#m4b9524eb35" x="651.551225" y="416.045082" style="fill: #333333; stroke: #d9534f; stroke-width: 2"/>
     <use xlink:href="#m4b9524eb35" x="656.857772" y="409.855595" style="fill: #333333; stroke: #d9534f; stroke-width: 2"/>
     <use xlink:href="#m4b9524eb35" x="658.626621" y="415.329932" style="fill: #333333; stroke: #d9534f; stroke-width: 2"/>
     <use xlink:href="#m4b9524eb35" x="660.39547" y="414.712282" style="fill: #333333; stroke: #d9534f; stroke-width: 2"/>
     <use xlink:href="#m4b9524eb35" x="662.164319" y="428.860092" style="fill: #333333; stroke: #d9534f; stroke-width: 2"/>
     <use xlink:href="#m4b9524eb35" x="663.933168" y="436.224698" style="fill: #333333; stroke: #d9534f; stroke-width: 2"/>
     <use xlink:href="#m4b9524eb35" x="669.239715" y="429.012619" style="fill: #333333; stroke: #d9534f; stroke-width: 2"/>
     <use xlink:href="#m4b9524eb35" x="671.008564" y="435.379723" style="fill: #333333; stroke: #d9534f; stroke-width: 2"/>
     <use xlink:href="#m4b9524eb35" x="672.777413" y="433.941801" style="fill: #333333; stroke: #d9534f; stroke-width: 2"/>
     <use xlink:href="#m4b9524eb35" x="674.546262" y="438.561618" style="fill: #333333; stroke: #d9534f; stroke-width: 2"/>
     <use xlink:href="#m4b9524eb35" x="676.315111" y="436.960705" style="fill: #333333; stroke: #d9534f; stroke-width: 2"/>
     <use xlink:href="#m4b9524eb35" x="681.621658" y="440.246338" style="fill: #333333; stroke: #d9534f; stroke-width: 2"/>
     <use xlink:href="#m4b9524eb35" x="683.390507" y="436.336901" style="fill: #333333; stroke: #d9534f; stroke-width: 2"/>
     <use xlink:href="#m4b9524eb35" x="685.159356" y="444.520239" style="fill: #333333; stroke: #d9534f; stroke-width: 2"/>
     <use xlink:href="#m4b9524eb35" x="686.928205" y="453.076816" style="fill: #333333; stroke: #d9534f; stroke-width: 2"/>
     <use xlink:href="#m4b9524eb35" x="688.697054" y="452.493258" style="fill: #333333; stroke: #d9534f; stroke-width: 2"/>
     <use xlink:href="#m4b9524eb35" x="695.77245" y="450.32164" style="fill: #333333; stroke: #d9534f; stroke-width: 2"/>
     <use xlink:href="#m4b9524eb35" x="697.541299" y="445.581154" style="fill: #333333; stroke: #d9534f; stroke-width: 2"/>
     <use xlink:href="#m4b9524eb35" x="699.310148" y="447.574466" style="fill: #333333; stroke: #d9534f; stroke-width: 2"/>
     <use xlink:href="#m4b9524eb35" x="701.078997" y="447.976098" style="fill: #333333; stroke: #d9534f; stroke-width: 2"/>
     <use xlink:href="#m4b9524eb35" x="706.385544" y="446.295689" style="fill: #333333; stroke: #d9534f; stroke-width: 2"/>
     <use xlink:href="#m4b9524eb35" x="708.154393" y="440.34892" style="fill: #333333; stroke: #d9534f; stroke-width: 2"/>
     <use xlink:href="#m4b9524eb35" x="709.923242" y="445.856349" style="fill: #333333; stroke: #d9534f; stroke-width: 2"/>
     <use xlink:href="#m4b9524eb35" x="711.692091" y="453.601039" style="fill: #333333; stroke: #d9534f; stroke-width: 2"/>
     <use xlink:href="#m4b9524eb35" x="713.46094" y="453.818516" style="fill: #333333; stroke: #d9534f; stroke-width: 2"/>
     <use xlink:href="#m4b9524eb35" x="718.767487" y="468.09992" style="fill: #333333; stroke: #d9534f; stroke-width: 2"/>
     <use xlink:href="#m4b9524eb35" x="720.536336" y="472.88073" style="fill: #333333; stroke: #d9534f; stroke-width: 2"/>
     <use xlink:href="#m4b9524eb35" x="722.305185" y="466.033114" style="fill: #333333; stroke: #d9534f; stroke-width: 2"/>
     <use xlink:href="#m4b9524eb35" x="724.074034" y="474.01229" style="fill: #333333; stroke: #d9534f; stroke-width: 2"/>
     <use xlink:href="#m4b9524eb35" x="725.842883" y="469.263263" style="fill: #333333; stroke: #d9534f; stroke-width: 2"/>
     <use xlink:href="#m4b9524eb35" x="731.14943" y="465.489575" style="fill: #333333; stroke: #d9534f; stroke-width: 2"/>
     <use xlink:href="#m4b9524eb35" x="732.918279" y="468.596671" style="fill: #333333; stroke: #d9534f; stroke-width: 2"/>
     <use xlink:href="#m4b9524eb35" x="734.687128" y="473.767186" style="fill: #333333; stroke: #d9534f; stroke-width: 2"/>
     <use xlink:href="#m4b9524eb35" x="736.455977" y="478.953938" style="fill: #333333; stroke: #d9534f; stroke-width: 2"/>
     <use xlink:href="#m4b9524eb35" x="738.224826" y="476.635332" style="fill: #333333; stroke: #d9534f; stroke-width: 2"/>
     <use xlink:href="#m4b9524eb35" x="743.531373" y="480.914776" style="fill: #333333; stroke: #d9534f; stroke-width: 2"/>
     <use xlink:href="#m4b9524eb35" x="745.300222" y="472.634856" style="fill: #333333; stroke: #d9534f; stroke-width: 2"/>
     <use xlink:href="#m4b9524eb35" x="747.069071" y="474.984167" style="fill: #333333; stroke: #d9534f; stroke-width: 2"/>
     <use xlink:href="#m4b9524eb35" x="748.83792" y="468.515483" style="fill: #333333; stroke: #d9534f; stroke-width: 2"/>
     <use xlink:href="#m4b9524eb35" x="750.606769" y="470.630308" style="fill: #333333; stroke: #d9534f; stroke-width: 2"/>
     <use xlink:href="#m4b9524eb35" x="755.913316" y="473.837677" style="fill: #333333; stroke: #d9534f; stroke-width: 2"/>
     <use xlink:href="#m4b9524eb35" x="757.682165" y="470.145333" style="fill: #333333; stroke: #d9534f; stroke-width: 2"/>
     <use xlink:href="#m4b9524eb35" x="759.451014" y="478.321745" style="fill: #333333; stroke: #d9534f; stroke-width: 2"/>
     <use xlink:href="#m4b9524eb35" x="761.219863" y="476.105876" style="fill: #333333; stroke: #d9534f; stroke-width: 2"/>
     <use xlink:href="#m4b9524eb35" x="762.988712" y="475.466525" style="fill: #333333; stroke: #d9534f; stroke-width: 2"/>
     <use xlink:href="#m4b9524eb35" x="768.295259" y="474.610238" style="fill: #333333; stroke: #d9534f; stroke-width: 2"/>
     <use xlink:href="#m4b9524eb35" x="770.064108" y="488.512633" style="fill: #333333; stroke: #d9534f; stroke-width: 2"/>
     <use xlink:href="#m4b9524eb35" x="771.832957" y="493.777881" style="fill: #333333; stroke: #d9534f; stroke-width: 2"/>
     <use xlink:href="#m4b9524eb35" x="773.601806" y="495.371254" style="fill: #333333; stroke: #d9534f; stroke-width: 2"/>
     <use xlink:href="#m4b9524eb35" x="775.370655" y="491.829434" style="fill: #333333; stroke: #d9534f; stroke-width: 2"/>
     <use xlink:href="#m4b9524eb35" x="780.677202" y="490.362654" style="fill: #333333; stroke: #d9534f; stroke-width: 2"/>
     <use xlink:href="#m4b9524eb35" x="782.446051" y="488.676705" style="fill: #333333; stroke: #d9534f; stroke-width: 2"/>
     <use xlink:href="#m4b9524eb35" x="784.2149" y="478.921848" style="fill: #333333; stroke: #d9534f; stroke-width: 2"/>
     <use xlink:href="#m4b9524eb35" x="785.983749" y="477.775513" style="fill: #333333; stroke: #d9534f; stroke-width: 2"/>
     <use xlink:href="#m4b9524eb35" x="787.752598" y="487.525212" style="fill: #333333; stroke: #d9534f; stroke-width: 2"/>
     <use xlink:href="#m4b9524eb35" x="793.059145" y="505.871198" style="fill: #333333; stroke: #d9534f; stroke-width: 2"/>
     <use xlink:href="#m4b9524eb35" x="794.827994" y="497.934658" style="fill: #333333; stroke: #d9534f; stroke-width: 2"/>
     <use xlink:href="#m4b9524eb35" x="796.596843" y="497.986987" style="fill: #333333; stroke: #d9534f; stroke-width: 2"/>
     <use xlink:href="#m4b9524eb35" x="798.365692" y="501.46778" style="fill: #333333; stroke: #d9534f; stroke-width: 2"/>
     <use xlink:href="#m4b9524eb35" x="800.134541" y="506.222501" style="fill: #333333; stroke: #d9534f; stroke-width: 2"/>
     <use xlink:href="#m4b9524eb35" x="805.441088" y="509.209699" style="fill: #333333; stroke: #d9534f; stroke-width: 2"/>
     <use xlink:href="#m4b9524eb35" x="807.209937" y="506.920569" style="fill: #333333; stroke: #d9534f; stroke-width: 2"/>
     <use xlink:href="#m4b9524eb35" x="808.978786" y="508.84593" style="fill: #333333; stroke: #d9534f; stroke-width: 2"/>
     <use xlink:href="#m4b9524eb35" x="810.747635" y="504.363092" style="fill: #333333; stroke: #d9534f; stroke-width: 2"/>
     <use xlink:href="#m4b9524eb35" x="812.516484" y="505.707591" style="fill: #333333; stroke: #d9534f; stroke-width: 2"/>
     <use xlink:href="#m4b9524eb35" x="817.823031" y="506.764195" style="fill: #333333; stroke: #d9534f; stroke-width: 2"/>
     <use xlink:href="#m4b9524eb35" x="819.59188" y="511.614573" style="fill: #333333; stroke: #d9534f; stroke-width: 2"/>
     <use xlink:href="#m4b9524eb35" x="821.360729" y="512.334187" style="fill: #333333; stroke: #d9534f; stroke-width: 2"/>
     <use xlink:href="#m4b9524eb35" x="823.129578" y="517.122386" style="fill: #333333; stroke: #d9534f; stroke-width: 2"/>
     <use xlink:href="#m4b9524eb35" x="824.898427" y="517.274989" style="fill: #333333; stroke: #d9534f; stroke-width: 2"/>
     <use xlink:href="#m4b9524eb35" x="830.204974" y="517.962129" style="fill: #333333; stroke: #d9534f; stroke-width: 2"/>
     <use xlink:href="#m4b9524eb35" x="831.973823" y="522.968958" style="fill: #333333; stroke: #d9534f; stroke-width: 2"/>
     <use xlink:href="#m4b9524eb35" x="833.742672" y="522.579791" style="fill: #333333; stroke: #d9534f; stroke-width: 2"/>
     <use xlink:href="#m4b9524eb35" x="835.511521" y="520.948942" style="fill: #333333; stroke: #d9534f; stroke-width: 2"/>
     <use xlink:href="#m4b9524eb35" x="837.28037" y="515.911715" style="fill: #333333; stroke: #d9534f; stroke-width: 2"/>
     <use xlink:href="#m4b9524eb35" x="842.586917" y="523.525734" style="fill: #333333; stroke: #d9534f; stroke-width: 2"/>
     <use xlink:href="#m4b9524eb35" x="844.355766" y="518.736767" style="fill: #333333; stroke: #d9534f; stroke-width: 2"/>
     <use xlink:href="#m4b9524eb35" x="846.124615" y="521.458084" style="fill: #333333; stroke: #d9534f; stroke-width: 2"/>
     <use xlink:href="#m4b9524eb35" x="847.893464" y="518.437793" style="fill: #333333; stroke: #d9534f; stroke-width: 2"/>
     <use xlink:href="#m4b9524eb35" x="849.662313" y="527.135507" style="fill: #333333; stroke: #d9534f; stroke-width: 2"/>
     <use xlink:href="#m4b9524eb35" x="854.96886" y="530.355651" style="fill: #333333; stroke: #d9534f; stroke-width: 2"/>
     <use xlink:href="#m4b9524eb35" x="856.737709" y="529.202158" style="fill: #333333; stroke: #d9534f; stroke-width: 2"/>
     <use xlink:href="#m4b9524eb35" x="858.506558" y="529.728074" style="fill: #333333; stroke: #d9534f; stroke-width: 2"/>
     <use xlink:href="#m4b9524eb35" x="860.275407" y="531.564244" style="fill: #333333; stroke: #d9534f; stroke-width: 2"/>
     <use xlink:href="#m4b9524eb35" x="862.044256" y="536.121496" style="fill: #333333; stroke: #d9534f; stroke-width: 2"/>
     <use xlink:href="#m4b9524eb35" x="870.888501" y="536.4" style="fill: #333333; stroke: #d9534f; stroke-width: 2"/>
     <use xlink:href="#m4b9524eb35" x="872.65735" y="531.658515" style="fill: #333333; stroke: #d9534f; stroke-width: 2"/>
     <use xlink:href="#m4b9524eb35" x="874.426199" y="530.284697" style="fill: #333333; stroke: #d9534f; stroke-width: 2"/>
     <use xlink:href="#m4b9524eb35" x="879.732746" y="529.423099" style="fill: #333333; stroke: #d9534f; stroke-width: 2"/>
     <use xlink:href="#m4b9524eb35" x="881.501595" y="515.034803" style="fill: #333333; stroke: #d9534f; stroke-width: 2"/>
     <use xlink:href="#m4b9524eb35" x="883.270444" y="505.854806" style="fill: #333333; stroke: #d9534f; stroke-width: 2"/>
     <use xlink:href="#m4b9524eb35" x="885.039293" y="472.140413" style="fill: #333333; stroke: #d9534f; stroke-width: 2"/>
     <use xlink:href="#m4b9524eb35" x="886.808142" y="411.599108" style="fill: #333333; stroke: #d9534f; stroke-width: 2"/>
     <use xlink:href="#m4b9524eb35" x="892.114689" y="266.23136" style="fill: #333333; stroke: #d9534f; stroke-width: 2"/>
     <use xlink:href="#m4b9524eb35" x="906.265481" y="130.64186" style="fill: #333333; stroke: #d9534f; stroke-width: 2"/>
     <use xlink:href="#m4b9524eb35" x="908.03433" y="252.590537" style="fill: #333333; stroke: #d9534f; stroke-width: 2"/>
     <use xlink:href="#m4b9524eb35" x="909.803179" y="267.031548" style="fill: #333333; stroke: #d9534f; stroke-width: 2"/>
     <use xlink:href="#m4b9524eb35" x="911.572028" y="324.104142" style="fill: #333333; stroke: #d9534f; stroke-width: 2"/>
     <use xlink:href="#m4b9524eb35" x="916.878575" y="277.630378" style="fill: #333333; stroke: #d9534f; stroke-width: 2"/>
     <use xlink:href="#m4b9524eb35" x="918.647424" y="303.285098" style="fill: #333333; stroke: #d9534f; stroke-width: 2"/>
     <use xlink:href="#m4b9524eb35" x="920.416273" y="303.210608" style="fill: #333333; stroke: #d9534f; stroke-width: 2"/>
     <use xlink:href="#m4b9524eb35" x="922.185122" y="306.071366" style="fill: #333333; stroke: #d9534f; stroke-width: 2"/>
     <use xlink:href="#m4b9524eb35" x="923.953971" y="250.194974" style="fill: #333333; stroke: #d9534f; stroke-width: 2"/>
     <use xlink:href="#m4b9524eb35" x="929.260518" y="218.821273" style="fill: #333333; stroke: #d9534f; stroke-width: 2"/>
     <use xlink:href="#m4b9524eb35" x="931.029367" y="217.708029" style="fill: #333333; stroke: #d9534f; stroke-width: 2"/>
     <use xlink:href="#m4b9524eb35" x="932.798216" y="214.890749" style="fill: #333333; stroke: #d9534f; stroke-width: 2"/>
     <use xlink:href="#m4b9524eb35" x="934.567065" y="223.029069" style="fill: #333333; stroke: #d9534f; stroke-width: 2"/>
     <use xlink:href="#m4b9524eb35" x="936.335914" y="198.168073" style="fill: #333333; stroke: #d9534f; stroke-width: 2"/>
     <use xlink:href="#m4b9524eb35" x="941.642461" y="172.777004" style="fill: #333333; stroke: #d9534f; stroke-width: 2"/>
     <use xlink:href="#m4b9524eb35" x="943.41131" y="194.453487" style="fill: #333333; stroke: #d9534f; stroke-width: 2"/>
     <use xlink:href="#m4b9524eb35" x="945.180159" y="191.325072" style="fill: #333333; stroke: #d9534f; stroke-width: 2"/>
     <use xlink:href="#m4b9524eb35" x="946.949008" y="170.414069" style="fill: #333333; stroke: #d9534f; stroke-width: 2"/>
     <use xlink:href="#m4b9524eb35" x="948.717857" y="220.123982" style="fill: #333333; stroke: #d9534f; stroke-width: 2"/>
     <use xlink:href="#m4b9524eb35" x="954.024404" y="190.098396" style="fill: #333333; stroke: #d9534f; stroke-width: 2"/>
     <use xlink:href="#m4b9524eb35" x="955.793253" y="138.050715" style="fill: #333333; stroke: #d9534f; stroke-width: 2"/>
     <use xlink:href="#m4b9524eb35" x="957.562102" y="128.916353" style="fill: #333333; stroke: #d9534f; stroke-width: 2"/>
     <use xlink:href="#m4b9524eb35" x="959.330951" y="96.735233" style="fill: #333333; stroke: #d9534f; stroke-width: 2"/>
     <use xlink:href="#m4b9524eb35" x="961.0998" y="90.503419" style="fill: #333333; stroke: #d9534f; stroke-width: 2"/>
     <use xlink:href="#m4b9524eb35" x="966.406347" y="53.312157" style="fill: #333333; stroke: #d9534f; stroke-width: 2"/>
     <use xlink:href="#m4b9524eb35" x="968.175196" y="76.693215" style="fill: #333333; stroke: #d9534f; stroke-width: 2"/>
     <use xlink:href="#m4b9524eb35" x="969.944045" y="73.498851" style="fill: #333333; stroke: #d9534f; stroke-width: 2"/>
     <use xlink:href="#m4b9524eb35" x="971.712894" y="120.446353" style="fill: #333333; stroke: #d9534f; stroke-width: 2"/>
     <use xlink:href="#m4b9524eb35" x="973.481743" y="153.182175" style="fill: #333333; stroke: #d9534f; stroke-width: 2"/>
     <use xlink:href="#m4b9524eb35" x="978.78829" y="192.732366" style="fill: #333333; stroke: #d9534f; stroke-width: 2"/>
     <use xlink:href="#m4b9524eb35" x="980.557139" y="156.993265" style="fill: #333333; stroke: #d9534f; stroke-width: 2"/>
     <use xlink:href="#m4b9524eb35" x="982.325988" y="130.130488" style="fill: #333333; stroke: #d9534f; stroke-width: 2"/>
     <use xlink:href="#m4b9524eb35" x="984.094837" y="131.928796" style="fill: #333333; stroke: #d9534f; stroke-width: 2"/>
     <use xlink:href="#m4b9524eb35" x="985.863686" y="185.314046" style="fill: #333333; stroke: #d9534f; stroke-width: 2"/>
     <use xlink:href="#m4b9524eb35" x="991.170233" y="178.911852" style="fill: #333333; stroke: #d9534f; stroke-width: 2"/>
     <use xlink:href="#m4b9524eb35" x="992.939082" y="195.804603" style="fill: #333333; stroke: #d9534f; stroke-width: 2"/>
     <use xlink:href="#m4b9524eb35" x="994.707931" y="161.784539" style="fill: #333333; stroke: #d9534f; stroke-width: 2"/>
     <use xlink:href="#m4b9524eb35" x="996.47678" y="166.562041" style="fill: #333333; stroke: #d9534f; stroke-width: 2"/>
     <use xlink:href="#m4b9524eb35" x="998.245629" y="135.282613" style="fill: #333333; stroke: #d9534f; stroke-width: 2"/>
     <use xlink:href="#m4b9524eb35" x="1003.552176" y="104.624523" style="fill: #333333; stroke: #d9534f; stroke-width: 2"/>
     <use xlink:href="#m4b9524eb35" x="1005.321025" y="103.621941" style="fill: #333333; stroke: #d9534f; stroke-width: 2"/>
     <use xlink:href="#m4b9524eb35" x="1007.089874" y="121.487799" style="fill: #333333; stroke: #d9534f; stroke-width: 2"/>
     <use xlink:href="#m4b9524eb35" x="1008.858723" y="101.740216" style="fill: #333333; stroke: #d9534f; stroke-width: 2"/>
     <use xlink:href="#m4b9524eb35" x="1010.627572" y="88.577522" style="fill: #333333; stroke: #d9534f; stroke-width: 2"/>
     <use xlink:href="#m4b9524eb35" x="1015.934119" y="95.861398" style="fill: #333333; stroke: #d9534f; stroke-width: 2"/>
     <use xlink:href="#m4b9524eb35" x="1017.702968" y="78.826819" style="fill: #333333; stroke: #d9534f; stroke-width: 2"/>
     <use xlink:href="#m4b9524eb35" x="1019.471817" y="61.156199" style="fill: #333333; stroke: #d9534f; stroke-width: 2"/>
     <use xlink:href="#m4b9524eb35" x="1021.240666" y="49.367397" style="fill: #333333; stroke: #d9534f; stroke-width: 2"/>
     <use xlink:href="#m4b9524eb35" x="1023.009515" y="79.714736" style="fill: #333333; stroke: #d9534f; stroke-width: 2"/>
     <use xlink:href="#m4b9524eb35" x="1028.316062" y="96.937087" style="fill: #333333; stroke: #d9534f; stroke-width: 2"/>
     <use xlink:href="#m4b9524eb35" x="1030.084911" y="133.49377" style="fill: #333333; stroke: #d9534f; stroke-width: 2"/>
     <use xlink:href="#m4b9524eb35" x="1031.85376" y="116.532144" style="fill: #333333; stroke: #d9534f; stroke-width: 2"/>
     <use xlink:href="#m4b9524eb35" x="1033.622609" y="111.245811" style="fill: #333333; stroke: #d9534f; stroke-width: 2"/>
     <use xlink:href="#m4b9524eb35" x="1035.391458" y="93.577192" style="fill: #333333; stroke: #d9534f; stroke-width: 2"/>
     <use xlink:href="#m4b9524eb35" x="1040.698005" y="138.015857" style="fill: #333333; stroke: #d9534f; stroke-width: 2"/>
     <use xlink:href="#m4b9524eb35" x="1042.466854" y="123.083096" style="fill: #333333; stroke: #d9534f; stroke-width: 2"/>
     <use xlink:href="#m4b9524eb35" x="1044.235703" y="142.77858" style="fill: #333333; stroke: #d9534f; stroke-width: 2"/>
     <use xlink:href="#m4b9524eb35" x="1046.004552" y="124.248824" style="fill: #333333; stroke: #d9534f; stroke-width: 2"/>
     <use xlink:href="#m4b9524eb35" x="1047.773401" y="125.386311" style="fill: #333333; stroke: #d9534f; stroke-width: 2"/>
     <use xlink:href="#m4b9524eb35" x="1053.079948" y="131.339312" style="fill: #333333; stroke: #d9534f; stroke-width: 2"/>
     <use xlink:href="#m4b9524eb35" x="1054.848797" y="170.712892" style="fill: #333333; stroke: #d9534f; stroke-width: 2"/>
     <use xlink:href="#m4b9524eb35" x="1058.386495" y="190.786691" style="fill: #333333; stroke: #d9534f; stroke-width: 2"/>
     <use xlink:href="#m4b9524eb35" x="1060.155344" y="218.94956" style="fill: #333333; stroke: #d9534f; stroke-width: 2"/>
     <use xlink:href="#m4b9524eb35" x="1065.461891" y="227.86398" style="fill: #333333; stroke: #d9534f; stroke-width: 2"/>
     <use xlink:href="#m4b9524eb35" x="1067.23074" y="209.369238" style="fill: #333333; stroke: #d9534f; stroke-width: 2"/>
     <use xlink:href="#m4b9524eb35" x="1068.999589" y="203.877433" style="fill: #333333; stroke: #d9534f; stroke-width: 2"/>
     <use xlink:href="#m4b9524eb35" x="1070.768438" y="200.643514" style="fill: #333333; stroke: #d9534f; stroke-width: 2"/>
     <use xlink:href="#m4b9524eb35" x="1072.537287" y="214.126578" style="fill: #333333; stroke: #d9534f; stroke-width: 2"/>
     <use xlink:href="#m4b9524eb35" x="1077.843834" y="216.430791" style="fill: #333333; stroke: #d9534f; stroke-width: 2"/>
     <use xlink:href="#m4b9524eb35" x="1079.612683" y="186.806376" style="fill: #333333; stroke: #d9534f; stroke-width: 2"/>
     <use xlink:href="#m4b9524eb35" x="1081.381532" y="189.695455" style="fill: #333333; stroke: #d9534f; stroke-width: 2"/>
     <use xlink:href="#m4b9524eb35" x="1083.150381" y="188.454388" style="fill: #333333; stroke: #d9534f; stroke-width: 2"/>
     <use xlink:href="#m4b9524eb35" x="1084.91923" y="186.066138" style="fill: #333333; stroke: #d9534f; stroke-width: 2"/>
     <use xlink:href="#m4b9524eb35" x="1090.225777" y="179.427535" style="fill: #333333; stroke: #d9534f; stroke-width: 2"/>
     <use xlink:href="#m4b9524eb35" x="1091.994626" y="167.306359" style="fill: #333333; stroke: #d9534f; stroke-width: 2"/>
     <use xlink:href="#m4b9524eb35" x="1093.763475" y="173.771582" style="fill: #333333; stroke: #d9534f; stroke-width: 2"/>
     <use xlink:href="#m4b9524eb35" x="1095.532324" y="177.118703" style="fill: #333333; stroke: #d9534f; stroke-width: 2"/>
     <use xlink:href="#m4b9524eb35" x="1097.301173" y="161.689499" style="fill: #333333; stroke: #d9534f; stroke-width: 2"/>
     <use xlink:href="#m4b9524eb35" x="1102.60772" y="179.709346" style="fill: #333333; stroke: #d9534f; stroke-width: 2"/>
     <use xlink:href="#m4b9524eb35" x="1118.527361" y="175.695788" style="fill: #333333; stroke: #d9534f; stroke-width: 2"/>
     <use xlink:href="#m4b9524eb35" x="1120.29621" y="148.330257" style="fill: #333333; stroke: #d9534f; stroke-width: 2"/>
     <use xlink:href="#m4b9524eb35" x="1122.065059" y="133.318851" style="fill: #333333; stroke: #d9534f; stroke-width: 2"/>
     <use xlink:href="#m4b9524eb35" x="1127.371606" y="116.871676" style="fill: #333333; stroke: #d9534f; stroke-width: 2"/>
     <use xlink:href="#m4b9524eb35" x="1129.140455" y="118.513915" style="fill: #333333; stroke: #d9534f; stroke-width: 2"/>
     <use xlink:href="#m4b9524eb35" x="1130.909304" y="98.558781" style="fill: #333333; stroke: #d9534f; stroke-width: 2"/>
     <use xlink:href="#m4b9524eb35" x="1132.678153" y="112.442785" style="fill: #333333; stroke: #d9534f; stroke-width: 2"/>
     <use xlink:href="#m4b9524eb35" x="1134.447002" y="107.593022" style="fill: #333333; stroke: #d9534f; stroke-width: 2"/>
     <use xlink:href="#m4b9524eb35" x="1139.753549" y="92.761308" style="fill: #333333; stroke: #d9534f; stroke-width: 2"/>
     <use xlink:href="#m4b9524eb35" x="1141.522398" y="122.682235" style="fill: #333333; stroke: #d9534f; stroke-width: 2"/>
     <use xlink:href="#m4b9524eb35" x="1143.291247" y="87.40656" style="fill: #333333; stroke: #d9534f; stroke-width: 2"/>
     <use xlink:href="#m4b9524eb35" x="1145.060096" y="76.687522" style="fill: #333333; stroke: #d9534f; stroke-width: 2"/>
     <use xlink:href="#m4b9524eb35" x="1146.828945" y="47.487826" style="fill: #333333; stroke: #d9534f; stroke-width: 2"/>
     <use xlink:href="#m4b9524eb35" x="1152.135492" y="50.139651" style="fill: #333333; stroke: #d9534f; stroke-width: 2"/>
     <use xlink:href="#m4b9524eb35" x="1153.904341" y="52.096409" style="fill: #333333; stroke: #d9534f; stroke-width: 2"/>
     <use xlink:href="#m4b9524eb35" x="1155.67319" y="35.291851" style="fill: #333333; stroke: #d9534f; stroke-width: 2"/>
     <use xlink:href="#m4b9524eb35" x="1157.442039" y="40.57757" style="fill: #333333; stroke: #d9534f; stroke-width: 2"/>
     <use xlink:href="#m4b9524eb35" x="1159.210888" y="91.253433" style="fill: #333333; stroke: #d9534f; stroke-width: 2"/>
     <use xlink:href="#m4b9524eb35" x="1164.517435" y="93.961743" style="fill: #333333; stroke: #d9534f; stroke-width: 2"/>
     <use xlink:href="#m4b9524eb35" x="1166.286284" y="78.817124" style="fill: #333333; stroke: #d9534f; stroke-width: 2"/>
     <use xlink:href="#m4b9524eb35" x="1168.055133" y="64.582817" style="fill: #333333; stroke: #d9534f; stroke-width: 2"/>
     <use xlink:href="#m4b9524eb35" x="1169.823982" y="40.304837" style="fill: #333333; stroke: #d9534f; stroke-width: 2"/>
     <use xlink:href="#m4b9524eb35" x="1171.592831" y="43.18753" style="fill: #333333; stroke: #d9534f; stroke-width: 2"/>
     <use xlink:href="#m4b9524eb35" x="1176.899378" y="42.589197" style="fill: #333333; stroke: #d9534f; stroke-width: 2"/>
     <use xlink:href="#m4b9524eb35" x="1178.668227" y="37.888959" style="fill: #333333; stroke: #d9534f; stroke-width: 2"/>
     <use xlink:href="#m4b9524eb35" x="1180.437076" y="32.4" style="fill: #333333; stroke: #d9534f; stroke-width: 2"/>
     <use xlink:href="#m4b9524eb35" x="1182.205925" y="51.960198" style="fill: #333333; stroke: #d9534f; stroke-width: 2"/>
     <use xlink:href="#m4b9524eb35" x="1183.974774" y="33.753811" style="fill: #333333; stroke: #d9534f; stroke-width: 2"/>
    </g>
   </g>
   <g id="legend_1">
    <g id="line2d_20">
     <path d="M 386.738411 28.1575 
L 402.738411 28.1575 
L 418.738411 28.1575 
" style="fill: none; stroke: #d9534f; stroke-width: 2; stroke-linecap: square"/>
     <g>
      <use xlink:href="#m4b9524eb35" x="402.738411" y="28.1575" style="fill: #333333; stroke: #d9534f; stroke-width: 2"/>
     </g>
    </g>
    <g id="text_26">
     <!-- Cumulative Return -->
     <g style="fill: #333333" transform="translate(431.538411 33.7575) scale(0.16 -0.16)">
      <use xlink:href="#DejaVuSans-43"/>
      <use xlink:href="#DejaVuSans-75" x="69.824219"/>
      <use xlink:href="#DejaVuSans-6d" x="133.203125"/>
      <use xlink:href="#DejaVuSans-75" x="230.615234"/>
      <use xlink:href="#DejaVuSans-6c" x="293.994141"/>
      <use xlink:href="#DejaVuSans-61" x="321.777344"/>
      <use xlink:href="#DejaVuSans-74" x="383.056641"/>
      <use xlink:href="#DejaVuSans-69" x="422.265625"/>
      <use xlink:href="#DejaVuSans-76" x="450.048828"/>
      <use xlink:href="#DejaVuSans-65" x="509.228516"/>
      <use xlink:href="#DejaVuSans-20" x="570.751953"/>
      <use xlink:href="#DejaVuSans-52" x="602.539062"/>
      <use xlink:href="#DejaVuSans-65" x="667.521484"/>
      <use xlink:href="#DejaVuSans-74" x="729.044922"/>
      <use xlink:href="#DejaVuSans-75" x="768.253906"/>
      <use xlink:href="#DejaVuSans-72" x="831.632812"/>
      <use xlink:href="#DejaVuSans-6e" x="870.996094"/>
     </g>
    </g>
    <g id="line2d_21">
     <path d="M 386.738411 51.6425 
L 402.738411 51.6425 
L 418.738411 51.6425 
" style="fill: none; stroke: #228b22; stroke-width: 2; stroke-linecap: square"/>
    </g>
    <g id="text_27">
     <!-- Drawdown -->
     <g style="fill: #333333" transform="translate(431.538411 57.2425) scale(0.16 -0.16)">
      <defs>
       <path id="DejaVuSans-77" d="M 269 3500 
L 844 3500 
L 1563 769 
L 2278 3500 
L 2956 3500 
L 3675 769 
L 4391 3500 
L 4966 3500 
L 4050 0 
L 3372 0 
L 2619 2869 
L 1863 0 
L 1184 0 
L 269 3500 
z
" transform="scale(0.015625)"/>
       <path id="DejaVuSans-64" d="M 2906 2969 
L 2906 4863 
L 3481 4863 
L 3481 0 
L 2906 0 
L 2906 525 
Q 2725 213 2448 61 
Q 2172 -91 1784 -91 
Q 1150 -91 751 415 
Q 353 922 353 1747 
Q 353 2572 751 3078 
Q 1150 3584 1784 3584 
Q 2172 3584 2448 3432 
Q 2725 3281 2906 2969 
z
M 947 1747 
Q 947 1113 1208 752 
Q 1469 391 1925 391 
Q 2381 391 2643 752 
Q 2906 1113 2906 1747 
Q 2906 2381 2643 2742 
Q 2381 3103 1925 3103 
Q 1469 3103 1208 2742 
Q 947 2381 947 1747 
z
" transform="scale(0.015625)"/>
       <path id="DejaVuSans-6f" d="M 1959 3097 
Q 1497 3097 1228 2736 
Q 959 2375 959 1747 
Q 959 1119 1226 758 
Q 1494 397 1959 397 
Q 2419 397 2687 759 
Q 2956 1122 2956 1747 
Q 2956 2369 2687 2733 
Q 2419 3097 1959 3097 
z
M 1959 3584 
Q 2709 3584 3137 3096 
Q 3566 2609 3566 1747 
Q 3566 888 3137 398 
Q 2709 -91 1959 -91 
Q 1206 -91 779 398 
Q 353 888 353 1747 
Q 353 2609 779 3096 
Q 1206 3584 1959 3584 
z
" transform="scale(0.015625)"/>
      </defs>
      <use xlink:href="#DejaVuSans-44"/>
      <use xlink:href="#DejaVuSans-72" x="77.001953"/>
      <use xlink:href="#DejaVuSans-61" x="118.115234"/>
      <use xlink:href="#DejaVuSans-77" x="179.394531"/>
      <use xlink:href="#DejaVuSans-64" x="261.181641"/>
      <use xlink:href="#DejaVuSans-6f" x="324.658203"/>
      <use xlink:href="#DejaVuSans-77" x="385.839844"/>
      <use xlink:href="#DejaVuSans-6e" x="467.626953"/>
     </g>
    </g>
   </g>
  </g>
  <g id="axes_3">
   <g id="matplotlib.axis_3">
    <g id="ytick_6">
     <g id="line2d_22">
      <defs>
       <path id="m4bdb2527ae" d="M 0 0 
L 3.5 0 
" style="stroke: #228b22; stroke-width: 0.8"/>
      </defs>
      <g>
       <use xlink:href="#m4bdb2527ae" x="1222.624125" y="506.346044" style="fill: #228b22; stroke: #228b22; stroke-width: 0.8"/>
      </g>
     </g>
     <g id="text_28">
      <!-- -0.12 -->
      <g style="fill: #228b22" transform="translate(1229.624125 512.424794) scale(0.16 -0.16)">
       <use xlink:href="#DejaVuSans-2d"/>
       <use xlink:href="#DejaVuSans-30" x="36.083984"/>
       <use xlink:href="#DejaVuSans-2e" x="99.707031"/>
       <use xlink:href="#DejaVuSans-31" x="131.494141"/>
       <use xlink:href="#DejaVuSans-32" x="195.117188"/>
      </g>
     </g>
    </g>
    <g id="ytick_7">
     <g id="line2d_23">
      <g>
       <use xlink:href="#m4bdb2527ae" x="1222.624125" y="427.355037" style="fill: #228b22; stroke: #228b22; stroke-width: 0.8"/>
      </g>
     </g>
     <g id="text_29">
      <!-- -0.10 -->
      <g style="fill: #228b22" transform="translate(1229.624125 433.433787) scale(0.16 -0.16)">
       <use xlink:href="#DejaVuSans-2d"/>
       <use xlink:href="#DejaVuSans-30" x="36.083984"/>
       <use xlink:href="#DejaVuSans-2e" x="99.707031"/>
       <use xlink:href="#DejaVuSans-31" x="131.494141"/>
       <use xlink:href="#DejaVuSans-30" x="195.117188"/>
      </g>
     </g>
    </g>
    <g id="ytick_8">
     <g id="line2d_24">
      <g>
       <use xlink:href="#m4bdb2527ae" x="1222.624125" y="348.36403" style="fill: #228b22; stroke: #228b22; stroke-width: 0.8"/>
      </g>
     </g>
     <g id="text_30">
      <!-- -0.08 -->
      <g style="fill: #228b22" transform="translate(1229.624125 354.44278) scale(0.16 -0.16)">
       <use xlink:href="#DejaVuSans-2d"/>
       <use xlink:href="#DejaVuSans-30" x="36.083984"/>
       <use xlink:href="#DejaVuSans-2e" x="99.707031"/>
       <use xlink:href="#DejaVuSans-30" x="131.494141"/>
       <use xlink:href="#DejaVuSans-38" x="195.117188"/>
      </g>
     </g>
    </g>
    <g id="ytick_9">
     <g id="line2d_25">
      <g>
       <use xlink:href="#m4bdb2527ae" x="1222.624125" y="269.373022" style="fill: #228b22; stroke: #228b22; stroke-width: 0.8"/>
      </g>
     </g>
     <g id="text_31">
      <!-- -0.06 -->
      <g style="fill: #228b22" transform="translate(1229.624125 275.451772) scale(0.16 -0.16)">
       <use xlink:href="#DejaVuSans-2d"/>
       <use xlink:href="#DejaVuSans-30" x="36.083984"/>
       <use xlink:href="#DejaVuSans-2e" x="99.707031"/>
       <use xlink:href="#DejaVuSans-30" x="131.494141"/>
       <use xlink:href="#DejaVuSans-36" x="195.117188"/>
      </g>
     </g>
    </g>
    <g id="ytick_10">
     <g id="line2d_26">
      <g>
       <use xlink:href="#m4bdb2527ae" x="1222.624125" y="190.382015" style="fill: #228b22; stroke: #228b22; stroke-width: 0.8"/>
      </g>
     </g>
     <g id="text_32">
      <!-- -0.04 -->
      <g style="fill: #228b22" transform="translate(1229.624125 196.460765) scale(0.16 -0.16)">
       <use xlink:href="#DejaVuSans-2d"/>
       <use xlink:href="#DejaVuSans-30" x="36.083984"/>
       <use xlink:href="#DejaVuSans-2e" x="99.707031"/>
       <use xlink:href="#DejaVuSans-30" x="131.494141"/>
       <use xlink:href="#DejaVuSans-34" x="195.117188"/>
      </g>
     </g>
    </g>
    <g id="ytick_11">
     <g id="line2d_27">
      <g>
       <use xlink:href="#m4bdb2527ae" x="1222.624125" y="111.391007" style="fill: #228b22; stroke: #228b22; stroke-width: 0.8"/>
      </g>
     </g>
     <g id="text_33">
      <!-- -0.02 -->
      <g style="fill: #228b22" transform="translate(1229.624125 117.469757) scale(0.16 -0.16)">
       <use xlink:href="#DejaVuSans-2d"/>
       <use xlink:href="#DejaVuSans-30" x="36.083984"/>
       <use xlink:href="#DejaVuSans-2e" x="99.707031"/>
       <use xlink:href="#DejaVuSans-30" x="131.494141"/>
       <use xlink:href="#DejaVuSans-32" x="195.117188"/>
      </g>
     </g>
    </g>
    <g id="ytick_12">
     <g id="line2d_28">
      <g>
       <use xlink:href="#m4bdb2527ae" x="1222.624125" y="32.4" style="fill: #228b22; stroke: #228b22; stroke-width: 0.8"/>
      </g>
     </g>
     <g id="text_34">
      <!-- 0.00 -->
      <g style="fill: #228b22" transform="translate(1229.624125 38.47875) scale(0.16 -0.16)">
       <use xlink:href="#DejaVuSans-30"/>
       <use xlink:href="#DejaVuSans-2e" x="63.623047"/>
       <use xlink:href="#DejaVuSans-30" x="95.410156"/>
       <use xlink:href="#DejaVuSans-30" x="159.033203"/>
      </g>
     </g>
    </g>
    <g id="text_35">
     <!-- Drawdown -->
     <g style="fill: #228b22" transform="translate(1287.179125 326.88) rotate(-90) scale(0.16 -0.16)">
      <use xlink:href="#DejaVuSans-44"/>
      <use xlink:href="#DejaVuSans-72" x="77.001953"/>
      <use xlink:href="#DejaVuSans-61" x="118.115234"/>
      <use xlink:href="#DejaVuSans-77" x="179.394531"/>
      <use xlink:href="#DejaVuSans-64" x="261.181641"/>
      <use xlink:href="#DejaVuSans-6f" x="324.658203"/>
      <use xlink:href="#DejaVuSans-77" x="385.839844"/>
      <use xlink:href="#DejaVuSans-6e" x="467.626953"/>
     </g>
    </g>
   </g>
   <g id="line2d_29">
    <path d="M 410.987761 32.4 
L 458.746684 32.4 
L 460.515533 32.568744 
L 462.284382 33.24372 
L 464.053231 32.995045 
L 465.82208 33.093784 
L 471.128627 33.972245 
L 472.897476 33.658528 
L 474.666325 33.980343 
L 476.435174 33.209239 
L 495.892513 35.264989 
L 497.661362 33.434665 
L 499.430211 32.4 
L 510.043305 32.4 
L 511.812154 175.311606 
L 513.581003 63.898962 
L 515.349852 32.4 
L 520.656399 32.4 
L 522.425248 60.255055 
L 524.194097 47.479672 
L 525.962946 93.458218 
L 527.731795 49.140614 
L 533.038342 32.4 
L 536.57604 32.4 
L 538.344889 57.241246 
L 540.113738 32.4 
L 545.420285 32.4 
L 547.189134 51.083763 
L 548.957983 32.4 
L 550.726832 36.73885 
L 552.495681 69.600069 
L 557.802228 148.04312 
L 559.571077 159.382549 
L 561.339926 271.978891 
L 563.108775 197.038771 
L 564.877624 162.10577 
L 570.184171 94.33558 
L 571.95302 116.328408 
L 573.721869 148.649165 
L 582.566114 194.716934 
L 584.334963 178.950978 
L 586.103812 208.488698 
L 587.872661 199.483114 
L 589.64151 209.962843 
L 594.948057 214.175104 
L 596.716906 270.155965 
L 598.485755 223.100943 
L 600.254604 221.397874 
L 602.023453 216.692949 
L 607.33 234.494658 
L 609.098849 256.926347 
L 610.867698 234.254213 
L 612.636547 236.43937 
L 614.405396 205.69293 
L 619.711943 166.459276 
L 621.480792 180.749887 
L 632.093886 122.997504 
L 633.862735 112.138728 
L 635.631584 148.976325 
L 637.400433 106.862586 
L 639.169282 129.597657 
L 644.475829 152.65004 
L 646.244678 142.193613 
L 648.013527 168.666771 
L 649.782376 168.901937 
L 651.551225 140.669496 
L 656.857772 121.349927 
L 658.626621 138.43726 
L 660.39547 136.509357 
L 662.164319 180.669655 
L 663.933168 203.657183 
L 669.239715 181.145745 
L 671.008564 201.019717 
L 672.777413 196.531458 
L 674.546262 210.951534 
L 676.315111 205.954519 
L 681.621658 216.210137 
L 683.390507 204.007407 
L 686.928205 256.258577 
L 688.697054 254.437087 
L 695.77245 247.658702 
L 697.541299 232.861976 
L 699.310148 239.083806 
L 701.078997 240.337441 
L 706.385544 235.092292 
L 708.154393 216.530331 
L 709.923242 233.720956 
L 711.692091 257.894861 
L 713.46094 258.573685 
L 720.536336 318.073567 
L 722.305185 296.699747 
L 724.074034 321.605564 
L 725.842883 306.782178 
L 731.14943 295.003168 
L 732.918279 304.701511 
L 736.455977 337.030189 
L 738.224826 329.793002 
L 743.531373 343.150652 
L 745.300222 317.306109 
L 747.069071 324.639135 
L 748.83792 304.448093 
L 750.606769 311.049209 
L 755.913316 321.060537 
L 757.682165 309.535429 
L 759.451014 335.056891 
L 761.219863 328.140384 
L 762.988712 326.144745 
L 768.295259 323.47197 
L 770.064108 366.866241 
L 771.832957 383.300935 
L 773.601806 388.274411 
L 775.370655 377.219145 
L 780.677202 372.640808 
L 782.446051 367.378366 
L 784.2149 336.930022 
L 785.983749 333.351907 
L 787.752598 363.784153 
L 793.059145 421.048436 
L 794.827994 396.275697 
L 796.596843 396.439035 
L 798.365692 407.303816 
L 800.134541 422.144975 
L 805.441088 431.469073 
L 807.209937 424.32389 
L 808.978786 430.333619 
L 810.747635 416.341105 
L 812.516484 420.537759 
L 817.823031 423.835793 
L 819.59188 438.97553 
L 821.360729 441.221699 
L 823.129578 456.167353 
L 824.898427 456.643683 
L 830.204974 458.788488 
L 831.973823 474.416565 
L 833.742672 473.201839 
L 835.511521 468.111384 
L 837.28037 452.388422 
L 842.586917 476.154458 
L 844.355766 461.206407 
L 846.124615 469.700596 
L 847.893464 460.273203 
L 849.662313 487.42183 
L 854.96886 497.473035 
L 856.737709 493.872577 
L 858.506558 495.514146 
L 860.275407 501.245477 
L 862.044256 515.470266 
L 870.888501 516.339576 
L 872.65735 501.53973 
L 874.426199 497.251561 
L 879.732746 494.562211 
L 881.501595 449.651273 
L 883.270444 420.99727 
L 885.039293 315.762778 
L 886.808142 126.792047 
L 892.114689 32.4 
L 906.265481 32.4 
L 908.03433 350.09569 
L 909.803179 387.716818 
L 911.572028 536.4 
L 916.878575 415.328456 
L 918.647424 482.163081 
L 920.416273 481.969021 
L 922.185122 489.421752 
L 923.953971 343.854868 
L 929.260518 262.121387 
L 931.029367 259.22121 
L 932.798216 251.881748 
L 934.567065 273.083365 
L 936.335914 208.316518 
L 941.642461 142.168747 
L 943.41131 198.639431 
L 945.180159 190.489415 
L 946.949008 136.012926 
L 948.717857 265.515154 
L 954.024404 187.293727 
L 955.793253 51.701245 
L 957.562102 32.4 
L 966.406347 32.4 
L 968.175196 90.35523 
L 969.944045 82.437277 
L 971.712894 198.807258 
L 973.481743 279.95038 
L 978.78829 377.984456 
L 980.557139 289.397027 
L 982.325988 222.811572 
L 984.094837 227.269084 
L 985.863686 359.596476 
L 991.170233 343.727192 
L 992.939082 385.599688 
L 994.707931 301.273282 
L 996.47678 313.115399 
L 998.245629 235.582277 
L 1003.552176 159.589279 
L 1005.321025 157.104156 
L 1007.089874 201.388717 
L 1008.858723 152.439874 
L 1010.627572 119.813166 
L 1015.934119 137.867898 
L 1019.471817 51.843229 
L 1021.240666 32.4 
L 1023.009515 107.436959 
L 1028.316062 150.021016 
L 1030.084911 240.411225 
L 1031.85376 198.471838 
L 1033.622609 185.400829 
L 1035.391458 141.713327 
L 1040.698005 251.592558 
L 1042.466854 214.669749 
L 1044.235703 263.368886 
L 1046.004552 217.552132 
L 1047.773401 220.364689 
L 1053.079948 235.084103 
L 1054.848797 332.439383 
L 1058.386495 382.073944 
L 1060.155344 451.709573 
L 1065.461891 473.751407 
L 1067.23074 428.021229 
L 1068.999589 414.442168 
L 1070.768438 406.445966 
L 1072.537287 439.784247 
L 1077.843834 445.481654 
L 1079.612683 372.232201 
L 1081.381532 379.375751 
L 1083.150381 376.307081 
L 1084.91923 370.401885 
L 1090.225777 353.987246 
L 1091.994626 324.016375 
L 1093.763475 340.002313 
L 1095.532324 348.27842 
L 1097.301173 310.128105 
L 1102.60772 354.684055 
L 1118.527361 344.760114 
L 1120.29621 277.095987 
L 1122.065059 239.978719 
L 1127.371606 199.311366 
L 1129.140455 203.371974 
L 1130.909304 154.030824 
L 1132.678153 188.360472 
L 1139.753549 139.695967 
L 1141.522398 213.678578 
L 1143.291247 126.455795 
L 1145.060096 99.951857 
L 1146.828945 32.4 
L 1152.135492 38.949207 
L 1153.904341 43.781808 
L 1155.67319 32.4 
L 1157.442039 45.355328 
L 1159.210888 169.562176 
L 1164.517435 176.200261 
L 1168.055133 104.192336 
L 1169.823982 44.68686 
L 1171.592831 51.752356 
L 1176.899378 50.285839 
L 1178.668227 38.765527 
L 1180.437076 32.4 
L 1182.205925 80.25628 
L 1183.974774 35.712255 
L 1183.974774 35.712255 
" clip-path="url(#pf5feb293f2)" style="fill: none; stroke: #228b22; stroke-width: 2; stroke-linecap: square"/>
   </g>
  </g>
 </g>
 <defs>
  <clipPath id="pf5feb293f2">
   <rect x="372.338411" y="7.2" width="850.285714" height="554.4"/>
  </clipPath>
 </defs>
</svg>
