<svg class="main-svg" xmlns="http://www.w3.org/2000/svg" xmlns:xlink="http://www.w3.org/1999/xlink" width="1440" height="900" style="" viewBox="0 0 1440 900"><rect x="0" y="0" width="1440" height="900" style="fill: rgb(0, 0, 0); fill-opacity: 0;"/><defs id="defs-5d1e1c"><g class="clips"><clipPath id="clip5d1e1cxyplot" class="plotclip"><rect width="1392" height="900"/></clipPath><clipPath class="axesclip" id="clip5d1e1cx"><rect x="48" y="0" width="1392" height="900"/></clipPath><clipPath class="axesclip" id="clip5d1e1cy"><rect x="0" y="0" width="1440" height="900"/></clipPath><clipPath class="axesclip" id="clip5d1e1cxy"><rect x="48" y="0" width="1392" height="900"/></clipPath></g><g class="gradients"/><g class="patterns"/></defs><g class="bglayer"><rect class="bg" x="48" y="0" width="1392" height="900" style="fill: rgb(0, 0, 0); fill-opacity: 0; stroke-width: 0;"/></g><g class="layer-below"><g class="imagelayer"/><g class="shapelayer"/></g><g class="cartesianlayer"><g class="subplot xy"><g class="layer-subplot"><g class="shapelayer"/><g class="imagelayer"/></g><g class="minor-gridlayer"><g class="x"/><g class="y"/></g><g class="gridlayer"><g class="x"><path class="xgrid crisp" transform="translate(226.86,0)" d="M0,0v900" style="stroke: rgb(0, 0, 0); stroke-opacity: 0.2; stroke-width: 1px;"/><path class="xgrid crisp" transform="translate(467.93,0)" d="M0,0v900" style="stroke: rgb(0, 0, 0); stroke-opacity: 0.2; stroke-width: 1px;"/><path class="xgrid crisp" transform="translate(701.23,0)" d="M0,0v900" style="stroke: rgb(0, 0, 0); stroke-opacity: 0.2; stroke-width: 1px;"/><path class="xgrid crisp" transform="translate(942.3,0)" d="M0,0v900" style="stroke: rgb(0, 0, 0); stroke-opacity: 0.2; stroke-width: 1px;"/><path class="xgrid crisp" transform="translate(1183.37,0)" d="M0,0v900" style="stroke: rgb(0, 0, 0); stroke-opacity: 0.2; stroke-width: 1px;"/><path class="xgrid crisp" transform="translate(1401.12,0)" d="M0,0v900" style="stroke: rgb(0, 0, 0); stroke-opacity: 0.2; stroke-width: 1px;"/></g><g class="y"><path class="ygrid crisp" transform="translate(0,774.81)" d="M48,0h1392" style="stroke: rgb(0, 0, 0); stroke-opacity: 0.2; stroke-width: 1px;"/><path class="ygrid crisp" transform="translate(0,644.48)" d="M48,0h1392" style="stroke: rgb(0, 0, 0); stroke-opacity: 0.2; stroke-width: 1px;"/><path class="ygrid crisp" transform="translate(0,514.16)" d="M48,0h1392" style="stroke: rgb(0, 0, 0); stroke-opacity: 0.2; stroke-width: 1px;"/><path class="ygrid crisp" transform="translate(0,383.84)" d="M48,0h1392" style="stroke: rgb(0, 0, 0); stroke-opacity: 0.2; stroke-width: 1px;"/><path class="ygrid crisp" transform="translate(0,253.52)" d="M48,0h1392" style="stroke: rgb(0, 0, 0); stroke-opacity: 0.2; stroke-width: 1px;"/><path class="ygrid crisp" transform="translate(0,123.19)" d="M48,0h1392" style="stroke: rgb(0, 0, 0); stroke-opacity: 0.2; stroke-width: 1px;"/></g></g><g class="zerolinelayer"/><g class="layer-between"><g class="shapelayer"/><g class="imagelayer"/></g><path class="xlines-below"/><path class="ylines-below"/><g class="overlines-below"/><g class="xaxislayer-below"/><g class="yaxislayer-below"/><g class="overaxes-below"/><g class="overplot"><g class="xy" transform="translate(48,0)" clip-path="url(#clip5d1e1cxyplot)"><g class="scatterlayer mlayer"><g class="trace scatter trace0cfe31" style="stroke-miterlimit: 2; opacity: 1;"><g class="fills"/><g class="errorbars"/><g class="lines"><path class="js-line" d="M1392,45L1368.67,45L1360.89,71.06L1337.56,201.39L1329.79,253.52L1322.01,305.65L1314.23,435.97L1228.69,331.71L1220.92,383.84L1213.14,383.84L1205.36,331.71L1197.59,331.71L1174.26,357.77L1166.48,383.84L1158.7,383.84L1112.04,383.84L1104.27,331.71L1096.49,227.45L1088.72,201.39L1065.39,149.26L1057.61,175.32L1049.83,149.26L1042.06,201.39L1034.28,279.58L1010.95,279.58L1003.17,279.58L995.4,253.52L987.62,253.52L979.84,357.77L956.51,409.9L948.74,514.16L940.96,566.29L933.18,592.35L925.41,592.35L886.53,514.16L878.75,488.1L870.97,383.84L847.64,383.84L839.87,435.97L832.09,488.1L824.31,514.16L816.54,592.35L793.21,618.42L785.43,566.29L777.65,566.29L769.88,435.97L762.1,409.9L738.77,514.16L730.99,488.1L715.44,488.1L707.66,435.97L684.34,566.29L676.56,566.29L668.78,644.48L661.01,696.61L653.23,826.94L629.9,826.94L622.12,853L614.35,853L606.57,853L598.79,800.87L575.46,748.74L567.69,644.48L559.91,566.29L552.13,279.58L544.36,175.32L521.03,149.26L497.7,71.06L489.92,71.06L466.59,97.13L458.82,175.32L451.04,175.32L443.26,201.39L435.49,253.52L412.16,201.39L404.38,201.39L396.6,227.45L388.83,227.45L381.05,305.65L349.94,305.65L342.17,175.32L334.39,175.32L326.61,149.26L303.28,97.13L295.51,97.13L279.96,149.26L272.18,149.26L248.85,305.65L241.07,540.23L171.08,566.29L163.31,592.35L139.98,644.48L132.2,670.55L124.42,722.68L116.65,748.74L85.54,540.23L77.77,409.9L62.21,409.9L54.44,462.03L31.11,435.97L23.33,462.03L15.55,488.1L7.78,488.1L0,488.1" style="vector-effect: none; fill: none; stroke: rgb(214, 10, 34); stroke-opacity: 1; stroke-width: 3px; opacity: 1;"/></g><g class="points"/><g class="text"/></g><g class="trace scatter tracef34524" style="stroke-miterlimit: 2; opacity: 1;"><g class="fills"/><g class="errorbars"/><g class="lines"><path class="js-line" d="M1392,123.19L1384.22,149.26L1376.45,149.26L1368.67,123.19L1360.89,123.19L1329.79,123.19L1322.01,149.26L1314.23,175.32L1228.69,175.32L1220.92,227.45L1213.14,175.32L1205.36,149.26L1197.59,149.26L1174.26,175.32L1166.48,201.39L1158.7,175.32L1150.93,175.32L1119.82,175.32L1112.04,149.26L1104.27,149.26L1096.49,123.19L1088.72,97.13L1065.39,97.13L987.62,97.13L979.84,123.19L948.74,123.19L940.96,149.26L933.18,175.32L925.41,149.26L886.53,123.19L878.75,123.19L847.64,123.19L839.87,149.26L832.09,227.45L824.31,253.52L816.54,305.65L793.21,331.71L785.43,253.52L777.65,253.52L769.88,175.32L762.1,227.45L730.99,331.71L723.22,331.71L715.44,357.77L707.66,357.77L684.34,514.16L676.56,514.16L668.78,514.16L661.01,540.23L653.23,592.35L629.9,696.61L622.12,696.61L614.35,618.42L606.57,644.48L598.79,644.48L575.46,462.03L567.69,409.9L552.13,253.52L544.36,227.45L521.03,227.45L513.25,201.39L505.47,175.32L497.7,175.32L489.92,149.26L466.59,175.32L458.82,201.39L451.04,201.39L443.26,201.39L435.49,175.32L412.16,175.32L404.38,149.26L388.83,201.39L381.05,201.39L357.72,253.52L349.94,253.52L342.17,227.45L334.39,253.52L326.61,227.45L303.28,123.19L279.96,123.19L272.18,201.39L248.85,227.45L241.07,305.65L171.08,357.77L163.31,331.71L139.98,331.71L132.2,305.65L116.65,357.77L108.87,331.71L85.54,253.52L77.77,201.39L69.99,409.9L62.21,409.9L31.11,409.9L23.33,514.16L7.78,514.16L0,592.35" style="vector-effect: none; fill: none; stroke: rgb(234, 112, 52); stroke-opacity: 1; stroke-width: 3px; opacity: 1;"/></g><g class="points"/><g class="text"/></g><g class="trace scatter trace85630f" style="stroke-miterlimit: 2; opacity: 1;"><g class="fills"/><g class="errorbars"/><g class="lines"><path class="js-line" d="M1392,279.58L1384.22,279.58L1376.45,253.52L1368.67,227.45L1360.89,227.45L1337.56,227.45L1329.79,279.58L1322.01,305.65L1314.23,462.03L1228.69,435.97L1220.92,566.29L1213.14,540.23L1205.36,592.35L1197.59,618.42L1174.26,670.55L1166.48,618.42L1158.7,618.42L1150.93,670.55L1143.15,540.23L1119.82,592.35L1112.04,435.97L1104.27,435.97L1096.49,409.9L1088.72,409.9L1065.39,357.77L1049.83,409.9L1042.06,357.77L1034.28,383.84L1010.95,409.9L1003.17,409.9L995.4,435.97L987.62,383.84L979.84,305.65L956.51,305.65L948.74,253.52L933.18,253.52L925.41,305.65L886.53,279.58L878.75,279.58L839.87,279.58L832.09,305.65L816.54,409.9L793.21,383.84L785.43,357.77L777.65,409.9L769.88,305.65L762.1,279.58L738.77,279.58L730.99,253.52L723.22,253.52L715.44,279.58L707.66,383.84L684.34,409.9L676.56,435.97L668.78,488.1L661.01,540.23L653.23,540.23L629.9,722.68L622.12,722.68L614.35,748.74L606.57,800.87L598.79,800.87L575.46,618.42L567.69,592.35L559.91,540.23L552.13,540.23L544.36,514.16L521.03,540.23L513.25,540.23L505.47,514.16L497.7,514.16L489.92,514.16L466.59,409.9L458.82,462.03L451.04,462.03L443.26,383.84L435.49,331.71L412.16,279.58L404.38,279.58L396.6,279.58L388.83,409.9L357.72,722.68L349.94,696.61L342.17,670.55L334.39,748.74L326.61,748.74L303.28,566.29L295.51,566.29L287.73,592.35L279.96,435.97L272.18,462.03L248.85,462.03L241.07,435.97L163.31,435.97L139.98,253.52L124.42,253.52L116.65,227.45L77.77,227.45L69.99,279.58L54.44,331.71L31.11,357.77L23.33,409.9L15.55,383.84L7.78,409.9L0,383.84" style="vector-effect: none; fill: none; stroke: rgb(255, 215, 71); stroke-opacity: 1; stroke-width: 3px; opacity: 1;"/></g><g class="points"/><g class="text"/></g><g class="trace scatter trace53d7f8" style="stroke-miterlimit: 2; opacity: 1;"><g class="fills"/><g class="errorbars"/><g class="lines"><path class="js-line" d="M1392,409.9L1368.67,409.9L1360.89,435.97L1337.56,462.03L1329.79,488.1L1322.01,592.35L1314.23,592.35L1228.69,540.23L1220.92,540.23L1205.36,540.23L1197.59,514.16L1174.26,514.16L1166.48,462.03L1150.93,462.03L1143.15,409.9L870.97,409.9L847.64,435.97L832.09,435.97L824.31,488.1L816.54,540.23L793.21,540.23L777.65,540.23L769.88,488.1L762.1,514.16L738.77,488.1L730.99,435.97L723.22,409.9L707.66,409.9L684.34,514.16L676.56,514.16L668.78,592.35L661.01,618.42L653.23,774.81L629.9,800.87L622.12,774.81L606.57,774.81L598.79,748.74L575.46,618.42L567.69,566.29L559.91,566.29L552.13,462.03L544.36,462.03L521.03,488.1L497.7,488.1L489.92,514.16L466.59,488.1L458.82,488.1L451.04,488.1L443.26,435.97L435.49,409.9L412.16,409.9L396.6,409.9L388.83,435.97L241.07,435.97L171.08,540.23L163.31,618.42L139.98,644.48L124.42,644.48L116.65,540.23L108.87,488.1L85.54,488.1L69.99,488.1L62.21,462.03L54.44,462.03L31.11,514.16L0,514.16" style="vector-effect: none; fill: none; stroke: rgb(129, 169, 73); stroke-opacity: 1; stroke-width: 3px; opacity: 1;"/></g><g class="points"/><g class="text"/></g><g class="trace scatter tracee5bb16" style="stroke-miterlimit: 2; opacity: 1;"><g class="fills"/><g class="errorbars"/><g class="lines"><path class="js-line" d="M1392,435.97L1376.45,383.84L1368.67,201.39L1337.56,201.39L1329.79,253.52L1322.01,305.65L1314.23,383.84L1228.69,409.9L1220.92,435.97L1213.14,409.9L1205.36,409.9L1197.59,409.9L1174.26,383.84L1166.48,357.77L1158.7,357.77L1150.93,357.77L1143.15,279.58L1112.04,279.58L1104.27,305.65L1096.49,305.65L1088.72,253.52L1042.06,253.52L1034.28,279.58L995.4,279.58L987.62,227.45L979.84,227.45L956.51,253.52L933.18,253.52L925.41,279.58L878.75,279.58L870.97,331.71L847.64,331.71L839.87,383.84L832.09,488.1L824.31,514.16L816.54,540.23L793.21,566.29L785.43,540.23L777.65,540.23L762.1,331.71L738.77,331.71L730.99,305.65L723.22,331.71L715.44,331.71L707.66,462.03L684.34,540.23L676.56,618.42L661.01,618.42L653.23,696.61L629.9,826.94L622.12,800.87L614.35,800.87L606.57,774.81L567.69,514.16L559.91,488.1L544.36,488.1L521.03,435.97L513.25,435.97L505.47,488.1L497.7,540.23L489.92,566.29L458.82,566.29L451.04,540.23L443.26,462.03L435.49,331.71L412.16,305.65L404.38,253.52L396.6,253.52L388.83,279.58L381.05,279.58L357.72,435.97L349.94,435.97L342.17,462.03L326.61,462.03L303.28,409.9L295.51,409.9L287.73,435.97L279.96,305.65L272.18,305.65L248.85,305.65L241.07,331.71L171.08,305.65L163.31,305.65L139.98,253.52L132.2,253.52L124.42,253.52L116.65,227.45L85.54,227.45L77.77,305.65L69.99,383.84L62.21,435.97L54.44,435.97L31.11,488.1L23.33,540.23L15.55,540.23L7.78,514.16L0,514.16" style="vector-effect: none; fill: none; stroke: rgb(3, 123, 102); stroke-opacity: 1; stroke-width: 3px; opacity: 1;"/></g><g class="points"/><g class="text"/></g></g></g></g><g class="zerolinelayer-above"/><path class="xlines-above crisp" d="" style="fill: none; stroke-width: 1px; stroke: rgb(0, 0, 0); stroke-opacity: 0;"/><path class="ylines-above crisp" d="" style="fill: none; stroke-width: 1px; stroke: rgb(0, 0, 0); stroke-opacity: 0;"/><g class="overlines-above"/><g class="xaxislayer-above"><path class="xtick ticks crisp" d="M0,900v-5" transform="translate(226.86,0)" style="stroke: rgb(68, 68, 68); stroke-opacity: 1; stroke-width: 1px;"/><path class="xtick ticks crisp" d="M0,900v-5" transform="translate(467.93,0)" style="stroke: rgb(68, 68, 68); stroke-opacity: 1; stroke-width: 1px;"/><path class="xtick ticks crisp" d="M0,900v-5" transform="translate(701.23,0)" style="stroke: rgb(68, 68, 68); stroke-opacity: 1; stroke-width: 1px;"/><path class="xtick ticks crisp" d="M0,900v-5" transform="translate(942.3,0)" style="stroke: rgb(68, 68, 68); stroke-opacity: 1; stroke-width: 1px;"/><path class="xtick ticks crisp" d="M0,900v-5" transform="translate(1183.37,0)" style="stroke: rgb(68, 68, 68); stroke-opacity: 1; stroke-width: 1px;"/><path class="xtick ticks crisp" d="M0,900v-5" transform="translate(1401.12,0)" style="stroke: rgb(68, 68, 68); stroke-opacity: 1; stroke-width: 1px;"/><g class="xtick"><text text-anchor="middle" x="0" y="895" transform="translate(226.86,-3)" style="font-family: Arial; font-size: 32px; fill: rgb(0, 0, 0); fill-opacity: 1; white-space: pre;">Oct 2025</text></g><g class="xtick"><text text-anchor="middle" x="0" y="895" style="font-family: Arial; font-size: 32px; fill: rgb(0, 0, 0); fill-opacity: 1; white-space: pre;" transform="translate(467.93,-3)">Nov 2025</text></g><g class="xtick"><text text-anchor="middle" x="0" y="895" style="font-family: Arial; font-size: 32px; fill: rgb(0, 0, 0); fill-opacity: 1; white-space: pre;" transform="translate(701.23,-3)">Dec 2025</text></g><g class="xtick"><text text-anchor="middle" x="0" y="895" style="font-family: Arial; font-size: 32px; fill: rgb(0, 0, 0); fill-opacity: 1; white-space: pre;" transform="translate(942.3,-3)">Jan 2026</text></g><g class="xtick"><text text-anchor="middle" x="0" y="895" style="font-family: Arial; font-size: 32px; fill: rgb(0, 0, 0); fill-opacity: 1; white-space: pre;" transform="translate(1183.37,-3)">Feb 2026</text></g><g class="xtick"/></g><g class="yaxislayer-above"><path class="ytick ticks crisp" d="M47,0h-5" transform="translate(0,774.81)" style="stroke: rgb(68, 68, 68); stroke-opacity: 1; stroke-width: 1px;"/><path class="ytick ticks crisp" d="M47,0h-5" transform="translate(0,644.48)" style="stroke: rgb(68, 68, 68); stroke-opacity: 1; stroke-width: 1px;"/><path class="ytick ticks crisp" d="M47,0h-5" transform="translate(0,514.16)" style="stroke: rgb(68, 68, 68); stroke-opacity: 1; stroke-width: 1px;"/><path class="ytick ticks crisp" d="M47,0h-5" transform="translate(0,383.84)" style="stroke: rgb(68, 68, 68); stroke-opacity: 1; stroke-width: 1px;"/><path class="ytick ticks crisp" d="M47,0h-5" transform="translate(0,253.52)" style="stroke: rgb(68, 68, 68); stroke-opacity: 1; stroke-width: 1px;"/><path class="ytick ticks crisp" d="M47,0h-5" transform="translate(0,123.19)" style="stroke: rgb(68, 68, 68); stroke-opacity: 1; stroke-width: 1px;"/><g class="ytick"><text text-anchor="end" x="35.6" y="11.2" transform="translate(0,774.81)" style="font-family: Arial; font-size: 32px; fill: rgb(0, 0, 0); fill-opacity: 1; white-space: pre;">5</text></g><g class="ytick"><text text-anchor="end" x="35.6" y="11.2" style="font-family: Arial; font-size: 32px; fill: rgb(0, 0, 0); fill-opacity: 1; white-space: pre;" transform="translate(0,644.48)">10</text></g><g class="ytick"><text text-anchor="end" x="35.6" y="11.2" style="font-family: Arial; font-size: 32px; fill: rgb(0, 0, 0); fill-opacity: 1; white-space: pre;" transform="translate(0,514.16)">15</text></g><g class="ytick"><text text-anchor="end" x="35.6" y="11.2" style="font-family: Arial; font-size: 32px; fill: rgb(0, 0, 0); fill-opacity: 1; white-space: pre;" transform="translate(0,383.84)">20</text></g><g class="ytick"><text text-anchor="end" x="35.6" y="11.2" style="font-family: Arial; font-size: 32px; fill: rgb(0, 0, 0); fill-opacity: 1; white-space: pre;" transform="translate(0,253.52)">25</text></g><g class="ytick"><text text-anchor="end" x="35.6" y="11.2" style="font-family: Arial; font-size: 32px; fill: rgb(0, 0, 0); fill-opacity: 1; white-space: pre;" transform="translate(0,123.19)">30</text></g></g><g class="overaxes-above"/></g></g><g class="polarlayer"/><g class="smithlayer"/><g class="ternarylayer"/><g class="geolayer"/><g class="funnelarealayer"/><g class="pielayer"/><g class="iciclelayer"/><g class="treemaplayer"/><g class="sunburstlayer"/><g class="glimages"/><defs id="topdefs-5d1e1c"><g class="clips"/><clipPath id="legend5d1e1c"><rect width="173" height="233" x="0" y="0"/></clipPath></defs><g class="layer-above"><g class="imagelayer"/><g class="shapelayer"/></g><g class="infolayer"><g class="legend" pointer-events="all" transform="translate(48,0)"><rect class="bg" shape-rendering="crispEdges" style="stroke: rgb(0, 0, 0); stroke-opacity: 0; fill: rgb(246, 248, 249); fill-opacity: 0.8; stroke-width: 0px;" width="173" height="233" x="0" y="0"/><g class="scrollbox" transform="" clip-path="url(#legend5d1e1c)"><g class="groups" transform=""><g class="traces" transform="translate(0,27.3)" style="opacity: 1;"><text class="legendtext" text-anchor="start" x="40" y="12.48" style="font-family: Arial; font-size: 32px; fill: rgb(0, 0, 0); fill-opacity: 1; white-space: pre;">电力行业</text><g class="layers" style="opacity: 1;"><g class="legendfill"/><g class="legendlines"><path class="js-line" d="M5,0h30" style="fill: none; stroke: rgb(214, 10, 34); stroke-opacity: 1; stroke-width: 3px;"/></g><g class="legendsymbols"><g class="legendpoints"/></g></g><rect class="legendtoggle" x="0" y="-22.3" width="168" height="44.6" style="fill: rgb(0, 0, 0); fill-opacity: 0;"/></g></g><g class="groups" transform=""><g class="traces" transform="translate(0,71.9)" style="opacity: 1;"><text class="legendtext" text-anchor="start" x="40" y="12.48" style="font-family: Arial; font-size: 32px; fill: rgb(0, 0, 0); fill-opacity: 1; white-space: pre;">输配电气</text><g class="layers" style="opacity: 1;"><g class="legendfill"/><g class="legendlines"><path class="js-line" d="M5,0h30" style="fill: none; stroke: rgb(234, 112, 52); stroke-opacity: 1; stroke-width: 3px;"/></g><g class="legendsymbols"><g class="legendpoints"/></g></g><rect class="legendtoggle" x="0" y="-22.3" width="168" height="44.6" style="fill: rgb(0, 0, 0); fill-opacity: 0;"/></g></g><g class="groups" transform=""><g class="traces" transform="translate(0,116.5)" style="opacity: 1;"><text class="legendtext" text-anchor="start" x="40" y="12.48" style="font-family: Arial; font-size: 32px; fill: rgb(0, 0, 0); fill-opacity: 1; white-space: pre;">电子元件</text><g class="layers" style="opacity: 1;"><g class="legendfill"/><g class="legendlines"><path class="js-line" d="M5,0h30" style="fill: none; stroke: rgb(255, 215, 71); stroke-opacity: 1; stroke-width: 3px;"/></g><g class="legendsymbols"><g class="legendpoints"/></g></g><rect class="legendtoggle" x="0" y="-22.3" width="168" height="44.6" style="fill: rgb(0, 0, 0); fill-opacity: 0;"/></g></g><g class="groups" transform=""><g class="traces" transform="translate(0,161.10000000000002)" style="opacity: 1;"><text class="legendtext" text-anchor="start" x="40" y="12.48" style="font-family: Arial; font-size: 32px; fill: rgb(0, 0, 0); fill-opacity: 1; white-space: pre;">有色金属</text><g class="layers" style="opacity: 1;"><g class="legendfill"/><g class="legendlines"><path class="js-line" d="M5,0h30" style="fill: none; stroke: rgb(129, 169, 73); stroke-opacity: 1; stroke-width: 3px;"/></g><g class="legendsymbols"><g class="legendpoints"/></g></g><rect class="legendtoggle" x="0" y="-22.3" width="168" height="44.6" style="fill: rgb(0, 0, 0); fill-opacity: 0;"/></g></g><g class="groups" transform=""><g class="traces" transform="translate(0,205.70000000000002)" style="opacity: 1;"><text class="legendtext" text-anchor="start" x="40" y="12.48" style="font-family: Arial; font-size: 32px; fill: rgb(0, 0, 0); fill-opacity: 1; white-space: pre;">半导体</text><g class="layers" style="opacity: 1;"><g class="legendfill"/><g class="legendlines"><path class="js-line" d="M5,0h30" style="fill: none; stroke: rgb(3, 123, 102); stroke-opacity: 1; stroke-width: 3px;"/></g><g class="legendsymbols"><g class="legendpoints"/></g></g><rect class="legendtoggle" x="0" y="-22.3" width="168" height="44.6" style="fill: rgb(0, 0, 0); fill-opacity: 0;"/></g></g></g><rect class="scrollbar" rx="20" ry="3" width="0" height="0" style="fill: rgb(128, 139, 164); fill-opacity: 1;" x="0" y="0"/></g><g class="g-gtitle"><text class="gtitle" x="720" y="90" text-anchor="middle" dy="0.7em" style="opacity: 1; font-family: Arial; font-size: 35px; fill: rgb(0, 0, 0); fill-opacity: 1; white-space: pre;">Last 180 days top5 Positions</text></g><g class="g-xtitle"/><g class="g-ytitle"/></g></svg>