<svg class="main-svg" xmlns="http://www.w3.org/2000/svg" xmlns:xlink="http://www.w3.org/1999/xlink" width="1728" height="1080" style="" viewBox="0 0 1440 900"><rect x="0" y="0" width="1440" height="900" style="fill: rgb(0, 0, 0); fill-opacity: 0;"/><defs id="defs-8ab010"><g class="clips"><clipPath id="clip8ab010xyplot" class="plotclip"><rect width="1324" height="692"/></clipPath><clipPath class="axesclip" id="clip8ab010x"><rect x="96" y="0" width="1324" height="900"/></clipPath><clipPath class="axesclip" id="clip8ab010y"><rect x="0" y="0" width="1440" height="692"/></clipPath><clipPath class="axesclip" id="clip8ab010xy"><rect x="96" y="0" width="1324" height="692"/></clipPath></g><g class="gradients"/><g class="patterns"/></defs><g class="bglayer"><rect class="bg" x="96" y="0" width="1324" height="692" style="fill: rgb(0, 0, 0); fill-opacity: 0; stroke-width: 0;"/></g><g class="layer-below"><g class="imagelayer"/><g class="shapelayer"/></g><g class="cartesianlayer"><g class="subplot xy"><g class="layer-subplot"><g class="shapelayer"/><g class="imagelayer"/></g><g class="minor-gridlayer"><g class="x"/><g class="y"/></g><g class="gridlayer"><g class="x"><path class="xgrid crisp" transform="translate(129.1,0)" d="M0,0v692" style="stroke: rgb(0, 0, 0); stroke-opacity: 0.5; stroke-width: 1px;"/><path class="xgrid crisp" transform="translate(283.57,0)" d="M0,0v692" style="stroke: rgb(0, 0, 0); stroke-opacity: 0.5; stroke-width: 1px;"/><path class="xgrid crisp" transform="translate(438.03,0)" d="M0,0v692" style="stroke: rgb(0, 0, 0); stroke-opacity: 0.5; stroke-width: 1px;"/><path class="xgrid crisp" transform="translate(592.5,0)" d="M0,0v692" style="stroke: rgb(0, 0, 0); stroke-opacity: 0.5; stroke-width: 1px;"/><path class="xgrid crisp" transform="translate(746.97,0)" d="M0,0v692" style="stroke: rgb(0, 0, 0); stroke-opacity: 0.5; stroke-width: 1px;"/><path class="xgrid crisp" transform="translate(901.43,0)" d="M0,0v692" style="stroke: rgb(0, 0, 0); stroke-opacity: 0.5; stroke-width: 1px;"/><path class="xgrid crisp" transform="translate(1055.9,0)" d="M0,0v692" style="stroke: rgb(0, 0, 0); stroke-opacity: 0.5; stroke-width: 1px;"/><path class="xgrid crisp" transform="translate(1210.37,0)" d="M0,0v692" style="stroke: rgb(0, 0, 0); stroke-opacity: 0.5; stroke-width: 1px;"/><path class="xgrid crisp" transform="translate(1364.83,0)" d="M0,0v692" style="stroke: rgb(0, 0, 0); stroke-opacity: 0.5; stroke-width: 1px;"/></g><g class="y"><path class="ygrid crisp" transform="translate(0,629.1)" d="M96,0h1324" style="stroke: rgb(0, 0, 0); stroke-opacity: 0.5; stroke-width: 1px;"/><path class="ygrid crisp" transform="translate(0,515.4)" d="M96,0h1324" style="stroke: rgb(0, 0, 0); stroke-opacity: 0.5; stroke-width: 1px;"/><path class="ygrid crisp" transform="translate(0,401.71)" d="M96,0h1324" style="stroke: rgb(0, 0, 0); stroke-opacity: 0.5; stroke-width: 1px;"/><path class="ygrid crisp" transform="translate(0,288.01)" d="M96,0h1324" style="stroke: rgb(0, 0, 0); stroke-opacity: 0.5; stroke-width: 1px;"/><path class="ygrid crisp" transform="translate(0,174.31)" d="M96,0h1324" style="stroke: rgb(0, 0, 0); stroke-opacity: 0.5; stroke-width: 1px;"/><path class="ygrid crisp" transform="translate(0,60.61)" d="M96,0h1324" style="stroke: rgb(0, 0, 0); stroke-opacity: 0.5; stroke-width: 1px;"/></g></g><g class="zerolinelayer"/><g class="layer-between"><g class="shapelayer"/><g class="imagelayer"/></g><path class="xlines-below"/><path class="ylines-below"/><g class="overlines-below"/><g class="xaxislayer-below"/><g class="yaxislayer-below"/><g class="overaxes-below"/><g class="overplot"><g class="xy" transform="translate(96,0)" clip-path="url(#clip8ab010xyplot)"><g class="scatterlayer mlayer"><g class="trace scatter trace711a2b" style="stroke-miterlimit: 2; opacity: 1;"><g class="fills"/><g class="errorbars"/><g class="lines"><path class="js-line" d="M1324,316.93L1312.97,331.34L1301.93,283.19L1290.9,284.97L1279.87,281.22L1246.77,285.99L1235.73,267.79L1224.7,288.66L1213.67,301.47L1202.63,359.52L1169.53,320.41L1158.5,234.58L1147.47,228.78L1136.43,258.87L1125.4,267.64L1092.3,267.18L1081.27,304.66L1070.23,309.61L1059.2,365.46L1048.17,325.84L1015.07,340.94L1004.03,323.76L993,273.28L981.97,308.68L970.93,288.68L937.83,306.52L926.8,316.84L915.77,368.26L816.47,381.04L783.37,351.29L772.33,368.66L761.3,349.49L750.27,348.03L739.23,382.46L706.13,382.03L695.1,408.44L684.07,382.8L673.03,386.75L662,421.89L628.9,398.89L617.87,394.93L606.83,391.18L595.8,402.11L584.77,423.78L551.67,359.36L540.63,302.75L518.57,180.96L507.53,95.65L474.43,81.14L463.4,51.84L452.37,89.33L441.33,65.15L430.3,94.03L397.2,34.6L386.17,101.08L375.13,117L364.1,180.38L353.07,137.76L319.97,98.01L308.93,88.97L297.9,88.72L286.87,126.92L275.83,149.09L242.73,125.38L231.7,143.43L220.67,154.33L209.63,152.16L198.6,132.52L165.5,146.74L154.47,179.47L143.43,181.57L132.4,229.04L121.37,213.18L88.27,211.57L77.23,140.94L66.2,148.11L55.17,161.46L44.13,222.51L11.03,171.62L0,99.58" style="vector-effect: none; fill: none; stroke: rgb(99, 110, 250); stroke-opacity: 1; stroke-width: 3px; opacity: 1;"/></g><g class="points"/><g class="text"/></g><g class="trace scatter tracea7a9f0" style="stroke-miterlimit: 2; opacity: 1;"><g class="fills"/><g class="errorbars"/><g class="lines"><path class="js-line" d="M1324,398.51L1312.97,434.02L1301.93,395.54L1290.9,404.39L1279.87,404.26L1246.77,406.29L1235.73,425.67L1224.7,440.98L1213.67,464.56L1202.63,483.29L1169.53,483.37L1158.5,435.88L1147.47,435.21L1136.43,445.57L1125.4,454.7L1092.3,455.98L1081.27,469.15L1070.23,486.13L1059.2,529.32L1048.17,517.52L1015.07,526.97L1004.03,525.5L993,511.52L981.97,522.82L970.93,523.03L937.83,521.89L926.8,526.77L915.77,555.71L816.47,564.26L783.37,551.33L772.33,560.96L761.3,555.71L750.27,548.1L739.23,566.25L706.13,576L695.1,580.22L684.07,574.47L673.03,575.48L662,605.12L628.9,604.05L617.87,607.86L606.83,618.94L595.8,624.42L584.77,636.18L551.67,628.01L540.63,610.9L518.57,586.32L507.53,570.57L474.43,562.11L463.4,558.46L452.37,573.25L441.33,568.44L430.3,579.28L397.2,555.28L386.17,570.02L364.1,574.92L353.07,558.67L319.97,551.42L308.93,541.01L297.9,537.45L286.87,531.59L275.83,548.56L242.73,556.18L231.7,548.79L220.67,567.2L209.63,569.16L198.6,569.64L165.5,589.15L154.47,608.83L143.43,602.94L132.4,615.19L121.37,598.5L88.27,609.95L77.23,587.52L66.2,586.95L55.17,598.2L44.13,618.51L11.03,608.52L0,590.43" style="vector-effect: none; fill: none; stroke: rgb(239, 85, 59); stroke-opacity: 1; stroke-width: 3px; opacity: 1;"/></g><g class="points"/><g class="text"/></g><g class="trace scatter tracebf34e7" style="stroke-miterlimit: 2; opacity: 1;"><g class="fills"/><g class="errorbars"/><g class="lines"><path class="js-line" d="M1324,420.13L1312.97,425.7L1301.93,413.49L1290.9,418.5L1279.87,431.84L1246.77,411.45L1235.73,386.35L1224.7,429.19L1213.67,453.2L1202.63,462.55L1169.53,446.93L1158.5,404.58L1147.47,386.11L1136.43,403.17L1125.4,405.11L1092.3,396.44L1081.27,449.14L1070.23,449.71L1059.2,469.57L1048.17,438.46L1015.07,446.43L1004.03,474.55L993,480.26L981.97,505.45L970.93,501.54L937.83,534.26L926.8,548.58L915.77,564.91L816.47,593.22L783.37,586.33L772.33,610.59L750.27,613.51L739.23,618.48L706.13,622.38L695.1,608.51L684.07,614.18L673.03,615.7L662,638.69L628.9,633.16L617.87,616.8L606.83,620.9L595.8,625.13L584.77,639.93L551.67,613.84L540.63,565.87L518.57,458.28L507.53,420.68L474.43,424.36L463.4,419.62L452.37,435.36L441.33,407.27L430.3,405.79L397.2,361.99L386.17,373.92L375.13,401.24L364.1,425.23L353.07,385.03L319.97,376.69L308.93,364.96L297.9,370.83L286.87,379.34L275.83,393.89L242.73,384.38L231.7,390.72L220.67,409.08L209.63,390.42L198.6,386.44L165.5,413.3L154.47,442.79L143.43,442.22L132.4,468.64L121.37,451.5L88.27,457.38L77.23,435.49L66.2,432.67L55.17,468.38L44.13,487.75L11.03,415.23L0,415.12" style="vector-effect: none; fill: none; stroke: rgb(0, 204, 150); stroke-opacity: 1; stroke-width: 3px; opacity: 1;"/></g><g class="points"/><g class="text"/></g><g class="trace scatter tracee717e8" style="stroke-miterlimit: 2; opacity: 1;"><g class="fills"/><g class="errorbars"/><g class="lines"><path class="js-line" d="M1324,471.11L1312.97,473.76L1301.93,441.29L1290.9,444.28L1279.87,448.13L1246.77,455.42L1235.73,452.93L1224.7,475.24L1213.67,489.75L1202.63,512.53L1169.53,514.8L1158.5,463.04L1147.47,463.67L1136.43,482.53L1125.4,483.48L1092.3,476.02L1081.27,505.84L1070.23,528.73L1059.2,565.03L1048.17,554.16L1015.07,573.42L1004.03,565.52L993,552.9L981.97,566.85L970.93,566.05L937.83,571.49L926.8,578.18L915.77,591.65L816.47,599.19L783.37,578.72L772.33,592.84L761.3,591.98L750.27,587.25L739.23,594.86L706.13,596.88L695.1,594.63L684.07,594.15L673.03,590.81L662,618.34L628.9,610.77L617.87,604.36L606.83,608.82L595.8,619.36L584.77,633.57L551.67,620.43L540.63,590.96L518.57,540.35L507.53,516.38L474.43,507.35L463.4,505.19L452.37,519.3L441.33,507.32L430.3,517.72L397.2,491.73L386.17,507.27L375.13,519.04L364.1,523.84L353.07,495.67L319.97,481.42L308.93,464.12L297.9,463.88L286.87,470.55L275.83,486.19L242.73,486.83L231.7,487.91L220.67,500.25L209.63,494.83L198.6,502.94L165.5,533.52L154.47,549.59L143.43,548.81L132.4,560.77L121.37,546.59L88.27,551.79L77.23,525.73L66.2,525.36L55.17,545.54L44.13,575.95L11.03,560.29L0,545.28" style="vector-effect: none; fill: none; stroke: rgb(171, 99, 250); stroke-opacity: 1; stroke-width: 3px; opacity: 1;"/></g><g class="points"/><g class="text"/></g><g class="trace scatter trace803208" style="stroke-miterlimit: 2; opacity: 1;"><g class="fills"/><g class="errorbars"/><g class="lines"><path class="js-line" d="M1324,533.18L1312.97,546.3L1301.93,539.93L1290.9,541.29L1279.87,546.22L1246.77,557.41L1235.73,562.65L1224.7,569.4L1213.67,582.75L1202.63,592.91L1169.53,593.33L1158.5,545.51L1147.47,544.45L1136.43,555.13L1125.4,552.95L1092.3,546.36L1081.27,566.24L1070.23,574.77L1059.2,599.05L1048.17,588.24L1015.07,607.95L1004.03,604.12L993,593L981.97,599.78L970.93,600.82L937.83,603.39L926.8,611.27L915.77,628.21L816.47,624.12L783.37,605.5L772.33,610.63L761.3,602.88L750.27,605.06L739.23,613.72L706.13,623.15L695.1,629.38L684.07,627.14L673.03,619.32L662,634.36L628.9,632.63L617.87,630.19L606.83,639.76L595.8,642.4L584.77,657.4L551.67,648.8L540.63,638.47L518.57,599.6L507.53,567.39L474.43,561.84L463.4,555.14L452.37,580.5L441.33,576.22L430.3,583.69L397.2,565.97L386.17,581.02L375.13,585.75L364.1,595.17L353.07,588.77L319.97,587.6L308.93,576.14L297.9,576.78L286.87,588.65L275.83,592.62L242.73,586.76L231.7,588.75L220.67,599.14L209.63,595.2L198.6,593.29L165.5,606.11L154.47,616.83L143.43,613.02L132.4,627.83L121.37,622.23L88.27,623.18L77.23,598.32L66.2,595.56L55.17,603.48L44.13,623.28L11.03,605.73L0,595.95" style="vector-effect: none; fill: none; stroke: rgb(255, 161, 90); stroke-opacity: 1; stroke-width: 3px; opacity: 1;"/></g><g class="points"/><g class="text"/></g></g></g></g><path class="xlines-above crisp" d="" style="fill: none; stroke-width: 1px; stroke: rgb(0, 0, 0); stroke-opacity: 0;"/><path class="ylines-above crisp" d="" style="fill: none; stroke-width: 1px; stroke: rgb(0, 0, 0); stroke-opacity: 0;"/><g class="overlines-above"/><g class="xaxislayer-above"><path class="xtick ticks crisp" d="M0,693v5" transform="translate(129.1,0)" style="stroke: rgb(68, 68, 68); stroke-opacity: 1; stroke-width: 1px;"/><path class="xtick ticks crisp" d="M0,693v5" transform="translate(283.57,0)" style="stroke: rgb(68, 68, 68); stroke-opacity: 1; stroke-width: 1px;"/><path class="xtick ticks crisp" d="M0,693v5" transform="translate(438.03,0)" style="stroke: rgb(68, 68, 68); stroke-opacity: 1; stroke-width: 1px;"/><path class="xtick ticks crisp" d="M0,693v5" transform="translate(592.5,0)" style="stroke: rgb(68, 68, 68); stroke-opacity: 1; stroke-width: 1px;"/><path class="xtick ticks crisp" d="M0,693v5" transform="translate(746.97,0)" style="stroke: rgb(68, 68, 68); stroke-opacity: 1; stroke-width: 1px;"/><path class="xtick ticks crisp" d="M0,693v5" transform="translate(901.43,0)" style="stroke: rgb(68, 68, 68); stroke-opacity: 1; stroke-width: 1px;"/><path class="xtick ticks crisp" d="M0,693v5" transform="translate(1055.9,0)" style="stroke: rgb(68, 68, 68); stroke-opacity: 1; stroke-width: 1px;"/><path class="xtick ticks crisp" d="M0,693v5" transform="translate(1210.37,0)" style="stroke: rgb(68, 68, 68); stroke-opacity: 1; stroke-width: 1px;"/><path class="xtick ticks crisp" d="M0,693v5" transform="translate(1364.83,0)" style="stroke: rgb(68, 68, 68); stroke-opacity: 1; stroke-width: 1px;"/><g class="xtick"><text text-anchor="middle" x="0" y="731.6" transform="translate(129.1,0)" style="font-family: Arial; font-size: 28px; fill: rgb(0, 0, 0); fill-opacity: 1; white-space: pre; opacity: 1;"><tspan class="line" dy="0em" x="0" y="731.6">Nov 17</tspan><tspan class="line" dy="1.3em" x="0" y="731.6">2024</tspan></text></g><g class="xtick"><text text-anchor="middle" x="0" y="731.6" style="font-family: Arial; font-size: 28px; fill: rgb(0, 0, 0); fill-opacity: 1; white-space: pre; opacity: 1;" transform="translate(283.57,0)">Dec 1</text></g><g class="xtick"><text text-anchor="middle" x="0" y="731.6" style="font-family: Arial; font-size: 28px; fill: rgb(0, 0, 0); fill-opacity: 1; white-space: pre; opacity: 1;" transform="translate(438.03,0)">Dec 15</text></g><g class="xtick"><text text-anchor="middle" x="0" y="731.6" style="font-family: Arial; font-size: 28px; fill: rgb(0, 0, 0); fill-opacity: 1; white-space: pre; opacity: 1;" transform="translate(592.5,0)">Dec 29</text></g><g class="xtick"><text text-anchor="middle" x="0" y="731.6" style="font-family: Arial; font-size: 28px; fill: rgb(0, 0, 0); fill-opacity: 1; white-space: pre; opacity: 1;" transform="translate(746.97,0)"><tspan class="line" dy="0em" x="0" y="731.6">Jan 12</tspan><tspan class="line" dy="1.3em" x="0" y="731.6">2025</tspan></text></g><g class="xtick"><text text-anchor="middle" x="0" y="731.6" style="font-family: Arial; font-size: 28px; fill: rgb(0, 0, 0); fill-opacity: 1; white-space: pre; opacity: 1;" transform="translate(901.43,0)">Jan 26</text></g><g class="xtick"><text text-anchor="middle" x="0" y="731.6" style="font-family: Arial; font-size: 28px; fill: rgb(0, 0, 0); fill-opacity: 1; white-space: pre; opacity: 1;" transform="translate(1055.9,0)">Feb 9</text></g><g class="xtick"><text text-anchor="middle" x="0" y="731.6" style="font-family: Arial; font-size: 28px; fill: rgb(0, 0, 0); fill-opacity: 1; white-space: pre; opacity: 1;" transform="translate(1210.37,0)">Feb 23</text></g><g class="xtick"><text text-anchor="middle" x="0" y="731.6" style="font-family: Arial; font-size: 28px; fill: rgb(0, 0, 0); fill-opacity: 1; white-space: pre; opacity: 1;" transform="translate(1364.83,0)">Mar 9</text></g></g><g class="yaxislayer-above"><path class="ytick ticks crisp" d="M96,0h5" transform="translate(0,629.1)" style="stroke: rgb(68, 68, 68); stroke-opacity: 1; stroke-width: 1px;"/><path class="ytick ticks crisp" d="M96,0h5" transform="translate(0,515.4)" style="stroke: rgb(68, 68, 68); stroke-opacity: 1; stroke-width: 1px;"/><path class="ytick ticks crisp" d="M96,0h5" transform="translate(0,401.71)" style="stroke: rgb(68, 68, 68); stroke-opacity: 1; stroke-width: 1px;"/><path class="ytick ticks crisp" d="M96,0h5" transform="translate(0,288.01)" style="stroke: rgb(68, 68, 68); stroke-opacity: 1; stroke-width: 1px;"/><path class="ytick ticks crisp" d="M96,0h5" transform="translate(0,174.31)" style="stroke: rgb(68, 68, 68); stroke-opacity: 1; stroke-width: 1px;"/><path class="ytick ticks crisp" d="M96,0h5" transform="translate(0,60.61)" style="stroke: rgb(68, 68, 68); stroke-opacity: 1; stroke-width: 1px;"/><g class="ytick"><text text-anchor="end" x="95" y="9.799999999999999" transform="translate(0,629.1)" style="font-family: Arial; font-size: 28px; fill: rgb(0, 0, 0); fill-opacity: 1; white-space: pre; opacity: 1;">100k</text></g><g class="ytick"><text text-anchor="end" x="95" y="9.799999999999999" style="font-family: Arial; font-size: 28px; fill: rgb(0, 0, 0); fill-opacity: 1; white-space: pre; opacity: 1;" transform="translate(0,515.4)">200k</text></g><g class="ytick"><text text-anchor="end" x="95" y="9.799999999999999" style="font-family: Arial; font-size: 28px; fill: rgb(0, 0, 0); fill-opacity: 1; white-space: pre; opacity: 1;" transform="translate(0,401.71)">300k</text></g><g class="ytick"><text text-anchor="end" x="95" y="9.799999999999999" style="font-family: Arial; font-size: 28px; fill: rgb(0, 0, 0); fill-opacity: 1; white-space: pre; opacity: 1;" transform="translate(0,288.01)">400k</text></g><g class="ytick"><text text-anchor="end" x="95" y="9.799999999999999" style="font-family: Arial; font-size: 28px; fill: rgb(0, 0, 0); fill-opacity: 1; white-space: pre; opacity: 1;" transform="translate(0,174.31)">500k</text></g><g class="ytick"><text text-anchor="end" x="95" y="9.799999999999999" style="font-family: Arial; font-size: 28px; fill: rgb(0, 0, 0); fill-opacity: 1; white-space: pre; opacity: 1;" transform="translate(0,60.61)">600k</text></g></g><g class="overaxes-above"/></g></g><g class="polarlayer"/><g class="smithlayer"/><g class="ternarylayer"/><g class="geolayer"/><g class="funnelarealayer"/><g class="pielayer"/><g class="iciclelayer"/><g class="treemaplayer"/><g class="sunburstlayer"/><g class="glimages"/><defs id="topdefs-8ab010"><g class="clips"/><clipPath id="legend8ab010"><rect width="785" height="50" x="0" y="0"/></clipPath></defs><g class="layer-above"><g class="imagelayer"/><g class="shapelayer"/></g><g class="infolayer"><g class="legend" pointer-events="all" transform="translate(365.5,849.6)"><rect class="bg" shape-rendering="crispEdges" width="785" height="50" x="0" y="0" style="stroke: rgb(68, 68, 68); stroke-opacity: 1; fill: rgb(0, 0, 0); fill-opacity: 0; stroke-width: 0px;"/><g class="scrollbox" transform="" clip-path="url(#legend8ab010)"><g class="groups" transform=""><g class="traces" transform="translate(0,24.7)" style="opacity: 1;"><text class="legendtext" text-anchor="start" x="40" y="10.92" style="font-family: Arial; font-size: 28px; fill: rgb(0, 0, 0); fill-opacity: 1; white-space: pre;">半导体</text><g class="layers" style="opacity: 1;"><g class="legendfill"/><g class="legendlines"><path class="js-line" d="M5,0h30" style="fill: none; stroke: rgb(99, 110, 250); stroke-opacity: 1; stroke-width: 3px;"/></g><g class="legendsymbols"><g class="legendpoints"/></g></g><rect class="legendtoggle" x="0" y="-19.7" width="126.5" height="39.4" style="fill: rgb(0, 0, 0); fill-opacity: 0;"/></g></g><g class="groups" transform="translate(129,0)"><g class="traces" transform="translate(0,24.7)" style="opacity: 1;"><text class="legendtext" text-anchor="start" x="40" y="10.92" style="font-family: Arial; font-size: 28px; fill: rgb(0, 0, 0); fill-opacity: 1; white-space: pre;">汽车行业</text><g class="layers" style="opacity: 1;"><g class="legendfill"/><g class="legendlines"><path class="js-line" d="M5,0h30" style="fill: none; stroke: rgb(239, 85, 59); stroke-opacity: 1; stroke-width: 3px;"/></g><g class="legendsymbols"><g class="legendpoints"/></g></g><rect class="legendtoggle" x="0" y="-19.7" width="154.5" height="39.4" style="fill: rgb(0, 0, 0); fill-opacity: 0;"/></g></g><g class="groups" transform="translate(286,0)"><g class="traces" transform="translate(0,24.7)" style="opacity: 1;"><text class="legendtext" text-anchor="start" x="40" y="10.92" style="font-family: Arial; font-size: 28px; fill: rgb(0, 0, 0); fill-opacity: 1; white-space: pre;">互联网服务</text><g class="layers" style="opacity: 1;"><g class="legendfill"/><g class="legendlines"><path class="js-line" d="M5,0h30" style="fill: none; stroke: rgb(0, 204, 150); stroke-opacity: 1; stroke-width: 3px;"/></g><g class="legendsymbols"><g class="legendpoints"/></g></g><rect class="legendtoggle" x="0" y="-19.7" width="182.5" height="39.4" style="fill: rgb(0, 0, 0); fill-opacity: 0;"/></g></g><g class="groups" transform="translate(471,0)"><g class="traces" transform="translate(0,24.7)" style="opacity: 1;"><text class="legendtext" text-anchor="start" x="40" y="10.92" style="font-family: Arial; font-size: 28px; fill: rgb(0, 0, 0); fill-opacity: 1; white-space: pre;">专用设备</text><g class="layers" style="opacity: 1;"><g class="legendfill"/><g class="legendlines"><path class="js-line" d="M5,0h30" style="fill: none; stroke: rgb(171, 99, 250); stroke-opacity: 1; stroke-width: 3px;"/></g><g class="legendsymbols"><g class="legendpoints"/></g></g><rect class="legendtoggle" x="0" y="-19.7" width="154.5" height="39.4" style="fill: rgb(0, 0, 0); fill-opacity: 0;"/></g></g><g class="groups" transform="translate(628,0)"><g class="traces" transform="translate(0,24.7)" style="opacity: 1;"><text class="legendtext" text-anchor="start" x="40" y="10.92" style="font-family: Arial; font-size: 28px; fill: rgb(0, 0, 0); fill-opacity: 1; white-space: pre;">电子元件</text><g class="layers" style="opacity: 1;"><g class="legendfill"/><g class="legendlines"><path class="js-line" d="M5,0h30" style="fill: none; stroke: rgb(255, 161, 90); stroke-opacity: 1; stroke-width: 3px;"/></g><g class="legendsymbols"><g class="legendpoints"/></g></g><rect class="legendtoggle" x="0" y="-19.7" width="154.5" height="39.4" style="fill: rgb(0, 0, 0); fill-opacity: 0;"/></g></g></g><rect class="scrollbar" rx="20" ry="3" width="0" height="0" x="0" y="0" style="fill: rgb(128, 139, 164); fill-opacity: 1;"/></g><g class="g-gtitle"><text class="gtitle" x="720" y="90" text-anchor="middle" dy="0.7em" style="opacity: 1; font-family: Arial; font-size: 32px; fill: rgb(0, 0, 0); fill-opacity: 1; white-space: pre;">Last 120 days top5 pnl</text></g><g class="g-xtitle"><text class="xtitle" x="758" y="811.9" text-anchor="middle" style="opacity: 1; font-family: Arial; font-size: 32px; fill: rgb(0, 0, 0); fill-opacity: 1; white-space: pre;">buy_date</text></g><g class="g-ytitle"/></g></svg>