<svg class="main-svg" xmlns="http://www.w3.org/2000/svg" xmlns:xlink="http://www.w3.org/1999/xlink" width="1440" height="900" style="" viewBox="0 0 1440 900"><rect x="0" y="0" width="1440" height="900" style="fill: rgb(0, 0, 0); fill-opacity: 0;"/><defs id="defs-451e65"><g class="clips"><clipPath id="clip451e65xyplot" class="plotclip"><rect width="1358" height="898"/></clipPath><clipPath class="axesclip" id="clip451e65x"><rect x="82" y="0" width="1358" height="900"/></clipPath><clipPath class="axesclip" id="clip451e65y"><rect x="0" y="2" width="1440" height="898"/></clipPath><clipPath class="axesclip" id="clip451e65xy"><rect x="82" y="2" width="1358" height="898"/></clipPath></g><g class="gradients"/><g class="patterns"/></defs><g class="bglayer"><rect class="bg" x="82" y="2" width="1358" height="898" style="fill: rgb(0, 0, 0); fill-opacity: 0; stroke-width: 0;"/></g><g class="layer-below"><g class="imagelayer"/><g class="shapelayer"/></g><g class="cartesianlayer"><g class="subplot xy"><g class="layer-subplot"><g class="shapelayer"/><g class="imagelayer"/></g><g class="minor-gridlayer"><g class="x"/><g class="y"/></g><g class="gridlayer"><g class="x"><path class="xgrid crisp" transform="translate(256.49,0)" d="M0,2v898" style="stroke: rgb(0, 0, 0); stroke-opacity: 0.2; stroke-width: 1px;"/><path class="xgrid crisp" transform="translate(491.68,0)" d="M0,2v898" style="stroke: rgb(0, 0, 0); stroke-opacity: 0.2; stroke-width: 1px;"/><path class="xgrid crisp" transform="translate(719.27,0)" d="M0,2v898" style="stroke: rgb(0, 0, 0); stroke-opacity: 0.2; stroke-width: 1px;"/><path class="xgrid crisp" transform="translate(954.46,0)" d="M0,2v898" style="stroke: rgb(0, 0, 0); stroke-opacity: 0.2; stroke-width: 1px;"/><path class="xgrid crisp" transform="translate(1189.64,0)" d="M0,2v898" style="stroke: rgb(0, 0, 0); stroke-opacity: 0.2; stroke-width: 1px;"/><path class="xgrid crisp" transform="translate(1402.07,0)" d="M0,2v898" style="stroke: rgb(0, 0, 0); stroke-opacity: 0.2; stroke-width: 1px;"/></g><g class="y"><path class="ygrid crisp" transform="translate(0,747.14)" d="M82,0h1358" style="stroke: rgb(0, 0, 0); stroke-opacity: 0.2; stroke-width: 1px;"/><path class="ygrid crisp" transform="translate(0,655.94)" d="M82,0h1358" style="stroke: rgb(0, 0, 0); stroke-opacity: 0.2; stroke-width: 1px;"/><path class="ygrid crisp" transform="translate(0,564.74)" d="M82,0h1358" style="stroke: rgb(0, 0, 0); stroke-opacity: 0.2; stroke-width: 1px;"/><path class="ygrid crisp" transform="translate(0,473.53)" d="M82,0h1358" style="stroke: rgb(0, 0, 0); stroke-opacity: 0.2; stroke-width: 1px;"/><path class="ygrid crisp" transform="translate(0,382.33)" d="M82,0h1358" style="stroke: rgb(0, 0, 0); stroke-opacity: 0.2; stroke-width: 1px;"/><path class="ygrid crisp" transform="translate(0,291.13)" d="M82,0h1358" style="stroke: rgb(0, 0, 0); stroke-opacity: 0.2; stroke-width: 1px;"/><path class="ygrid crisp" transform="translate(0,199.92)" d="M82,0h1358" style="stroke: rgb(0, 0, 0); stroke-opacity: 0.2; stroke-width: 1px;"/><path class="ygrid crisp" transform="translate(0,108.72)" d="M82,0h1358" style="stroke: rgb(0, 0, 0); stroke-opacity: 0.2; stroke-width: 1px;"/><path class="ygrid crisp" transform="translate(0,17.509999999999998)" d="M82,0h1358" style="stroke: rgb(0, 0, 0); stroke-opacity: 0.2; stroke-width: 1px;"/></g></g><g class="zerolinelayer"><path class="yzl zl crisp" transform="translate(0,838.35)" d="M82,0h1358" style="stroke: rgb(255, 255, 255); stroke-opacity: 1; stroke-width: 2px;"/></g><g class="layer-between"><g class="shapelayer"/><g class="imagelayer"/></g><path class="xlines-below"/><path class="ylines-below"/><g class="overlines-below"/><g class="xaxislayer-below"/><g class="yaxislayer-below"/><g class="overaxes-below"/><g class="overplot"><g class="xy" transform="translate(82,2)" clip-path="url(#clip451e65xyplot)"><g class="scatterlayer mlayer"><g class="trace scatter trace503c51" style="stroke-miterlimit: 2; opacity: 1;"><g class="fills"/><g class="errorbars"/><g class="lines"><path class="js-line" d="M1358,44.9L1350.41,81.89L1342.83,169.8L1335.24,237.03L1327.65,166.31L1304.89,180.76L1297.31,196.49L1289.72,262.45L1282.13,280.24L1198.68,373.84L1191.09,347.06L1183.51,324.99L1175.92,325.22L1168.34,315.23L1145.58,347.31L1137.99,364.97L1130.4,272.76L1122.82,280.53L1115.23,339.08L1092.47,415.02L1084.88,406.84L1077.3,350.27L1069.71,367.89L1062.12,323.11L1039.36,313.29L1031.78,348.88L1024.19,317.21L1016.6,302.76L1009.02,325.83L986.26,462.2L978.67,518.65L971.08,528.57L963.5,544.74L955.91,570.18L933.15,579.61L925.56,605.31L917.98,617.41L910.39,652L902.8,654.34L864.87,683.16L857.28,667.57L849.7,657.79L826.94,648.12L819.35,642.33L811.77,652.35L804.18,668.46L796.59,671.38L773.83,684.04L766.25,692.02L758.66,669.5L751.07,668.31L743.49,647.47L720.73,648.6L713.14,695.58L705.55,693.74L697.97,690.77L690.38,694.79L667.62,714.83L660.03,754.68L652.45,752.07L644.86,724.55L637.27,720.05L614.51,722.85L606.93,734.56L599.34,726.54L591.75,713.61L584.17,723.69L561.41,721.45L553.82,663.34L546.23,631.66L538.65,594.6L531.06,551.66L508.3,552.52L500.72,514.65L493.13,527.49L485.54,485.14L477.96,449.35L455.2,456.98L447.61,462.24L440.02,496.83L432.44,570.76L424.85,579.32L402.09,611.33L394.5,590.97L386.92,549.69L379.33,609.53L371.74,610.01L348.98,631.79L341.4,654.18L333.81,646.92L326.22,624.58L318.64,642.73L295.88,670.94L288.29,595.08L280.7,589.79L273.12,633.84L265.53,622.1L242.77,625.21L235.18,645.07L166.91,680.79L159.32,673.17L136.56,686.01L128.97,677.44L121.39,679.03L113.8,682.5L106.21,695.46L83.45,707.17L75.87,719.82L68.28,713.71L60.69,735.87L53.11,748.64L30.35,746.08L22.76,738.75L15.17,756.86L7.59,742.68L0,735.23" style="vector-effect: none; fill: none; stroke: rgb(214, 10, 34); stroke-opacity: 1; stroke-width: 3px; opacity: 1;"/></g><g class="points"/><g class="text"/></g><g class="trace scatter trace0a3907" style="stroke-miterlimit: 2; opacity: 1;"><g class="fills"/><g class="errorbars"/><g class="lines"><path class="js-line" d="M1358,457.49L1342.83,535.95L1335.24,566.89L1327.65,547.51L1304.89,571.62L1297.31,643.89L1289.72,679.92L1282.13,694.54L1198.68,734.9L1191.09,718L1183.51,733.6L1175.92,737.67L1168.34,728.14L1145.58,735.72L1137.99,753.38L1130.4,728.74L1122.82,741.68L1115.23,757.38L1092.47,747.94L1084.88,750.32L1077.3,742.8L1069.71,745.4L1062.12,734.21L1039.36,738.73L1031.78,753.2L1024.19,754.48L1016.6,735.82L1009.02,752.89L986.26,772.42L978.67,779.6L971.08,775.75L963.5,789.08L955.91,794.03L933.15,814.09L925.56,817.35L917.98,822.64L910.39,823.32L902.8,830.56L864.87,841.86L857.28,839.42L849.7,840.23L826.94,823.03L819.35,831.44L811.77,833.8L804.18,839.22L796.59,836.82L773.83,836.11L766.25,844.46L758.66,841.05L751.07,834.72L743.49,819.09L720.73,815.77L713.14,825.82L705.55,824.38L697.97,825.98L690.38,824.12L667.62,817.71L660.03,815.96L652.45,812.79L644.86,819.39L637.27,823.14L614.51,823.07L606.93,826.21L599.34,827.5L591.75,827.95L584.17,828.08L561.41,752.44L553.82,744.39L546.23,744.81L538.65,739.67L531.06,705.53L508.3,694.48L500.72,680.45L493.13,666.37L485.54,657.04L477.96,647.15L455.2,656.1L447.61,649.37L440.02,668.54L432.44,689.21L424.85,691.86L402.09,698.58L394.5,673.8L386.92,678.93L379.33,698.89L371.74,697.92L348.98,724.28L341.4,728.67L333.81,731.49L326.22,723.91L318.64,735.08L295.88,728.66L288.29,706.02L280.7,698.43L273.12,719.17L265.53,720.62L242.77,704.32L235.18,723.26L166.91,748.8L159.32,757.59L136.56,757.51L128.97,767.01L121.39,771.19L113.8,772.4L106.21,768.55L83.45,763.17L75.87,760.38L68.28,744.1L60.69,747.18L53.11,735.15L30.35,729.98L22.76,731.5L15.17,747.22L7.59,733.37L0,738.14" style="vector-effect: none; fill: none; stroke: rgb(234, 112, 52); stroke-opacity: 1; stroke-width: 3px; opacity: 1;"/></g><g class="points"/><g class="text"/></g><g class="trace scatter tracee28fec" style="stroke-miterlimit: 2; opacity: 1;"><g class="fills"/><g class="errorbars"/><g class="lines"><path class="js-line" d="M1358,638.27L1342.83,667.43L1335.24,706.66L1327.65,693.99L1304.89,697.55L1297.31,686.79L1289.72,707.66L1282.13,718.9L1198.68,743.81L1191.09,733.33L1183.51,748.7L1175.92,749.65L1168.34,747.06L1145.58,758.78L1137.99,766.91L1130.4,742.13L1122.82,746.67L1115.23,759.47L1092.47,778.59L1084.88,767.97L1077.3,748.2L1069.71,752.98L1062.12,746.97L1039.36,748.41L1031.78,761.56L1024.19,759.81L1016.6,742.98L1009.02,749.01L986.26,777.71L978.67,785.12L971.08,794.34L963.5,793.51L955.91,811.14L933.15,817.24L925.56,823.4L910.39,831.16L902.8,833.65L864.87,840.88L857.28,838.99L826.94,834.04L819.35,833.11L811.77,835.25L804.18,838.55L796.59,838.03L773.83,840.55L766.25,844.56L758.66,837.13L751.07,842.48L743.49,832.08L720.73,831.28L713.14,842.44L705.55,840.69L697.97,839.8L690.38,837.25L667.62,836.81L660.03,837.51L652.45,834.9L644.86,832.63L637.27,831.72L614.51,829.93L606.93,830.34L591.75,827.81L584.17,828.67L561.41,798.94L553.82,786.64L546.23,784.23L538.65,772.92L531.06,764.16L508.3,755.8L500.72,748.82L493.13,753.57L485.54,745.45L477.96,742.85L455.2,741.36L447.61,739.27L440.02,740.9L432.44,767L424.85,769.89L402.09,780.31L394.5,776.26L386.92,765.88L379.33,785.69L371.74,781.62L348.98,776.72L341.4,781.91L333.81,787.76L326.22,775.63L318.64,786.52L295.88,774.53L288.29,737.88L280.7,734.62L273.12,764.74L265.53,765.28L242.77,759.86L235.18,776.29L166.91,784.78L159.32,784.49L136.56,787.72L128.97,791.31L121.39,792.18L113.8,791L106.21,796.8L83.45,795.01L75.87,797.38L68.28,793.4L53.11,802.66L30.35,800.89L22.76,796.25L15.17,804.66L7.59,777.6L0,772.03" style="vector-effect: none; fill: none; stroke: rgb(255, 215, 71); stroke-opacity: 1; stroke-width: 3px; opacity: 1;"/></g><g class="points"/><g class="text"/></g><g class="trace scatter trace74f0be" style="stroke-miterlimit: 2; opacity: 1;"><g class="fills"/><g class="errorbars"/><g class="lines"><path class="js-line" d="M1358,640.73L1350.41,654.98L1342.83,661.15L1335.24,661.42L1327.65,680.19L1304.89,704.08L1297.31,714.58L1289.72,714.04L1282.13,720.84L1198.68,738.73L1191.09,724.86L1183.51,725.64L1175.92,733.37L1168.34,733.7L1145.58,740.75L1137.99,753.52L1130.4,745.19L1122.82,745.66L1115.23,759L1092.47,729.5L1084.88,721.92L1077.3,721.96L1069.71,739.5L1062.12,738.81L1039.36,742.11L1031.78,752.77L1024.19,755.38L1016.6,762.34L1009.02,767.25L986.26,779.72L978.67,771.39L971.08,775.76L963.5,790.2L955.91,792.11L933.15,791.03L925.56,796.1L917.98,792.66L910.39,791.18L902.8,808.33L864.87,812.07L857.28,808.75L849.7,811.91L826.94,810.97L819.35,813.23L811.77,814.22L804.18,818.86L796.59,816.66L773.83,821.16L766.25,807.6L758.66,800.39L751.07,803.35L743.49,801.18L720.73,800.83L713.14,811.1L705.55,806.53L697.97,806.01L690.38,802.58L667.62,801.13L660.03,809.93L652.45,805.35L644.86,804.32L637.27,803.39L614.51,804.61L606.93,807.5L599.34,809.54L591.75,806.08L584.17,809.95L561.41,810.67L553.82,797.56L546.23,794.23L538.65,797.03L531.06,779.78L508.3,779.56L500.72,774.05L493.13,773.63L485.54,769.01L477.96,780.65L455.2,788.57L447.61,797.92L440.02,809.47L432.44,817.19L424.85,819.77L402.09,823.32L394.5,824.11L386.92,830.37L379.33,834.87L371.74,833.58L348.98,834.34L341.4,835.8L333.81,836.75L326.22,836.17L318.64,837.99L295.88,851L288.29,848.01L280.7,842.34L273.12,844.85L265.53,835.72L242.77,829.9L235.18,832.34L166.91,835.09L159.32,836.35L136.56,830.63L128.97,827.92L121.39,827.43L113.8,828.82L83.45,821.97L75.87,818.27L68.28,814.13L60.69,814.01L53.11,809.66L30.35,806.01L22.76,807.2L15.17,813.14L7.59,806.1L0,801.32" style="vector-effect: none; fill: none; stroke: rgb(129, 169, 73); stroke-opacity: 1; stroke-width: 3px; opacity: 1;"/></g><g class="points"/><g class="text"/></g><g class="trace scatter tracebf0797" style="stroke-miterlimit: 2; opacity: 1;"><g class="fills"/><g class="errorbars"/><g class="lines"><path class="js-line" d="M1358,753.43L1350.41,763.79L1342.83,777.63L1335.24,794.6L1327.65,783.56L1304.89,779.57L1297.31,775.94L1289.72,783.65L1282.13,793.61L1198.68,805.51L1191.09,804.6L1183.51,805.81L1175.92,804.66L1168.34,803.88L1145.58,807.39L1137.99,807.93L1130.4,806.13L1122.82,804.31L1115.23,813.31L1092.47,802.02L1084.88,804.07L1077.3,801.05L1069.71,800.04L1062.12,801.36L1039.36,796.06L1031.78,799.65L1024.19,793.77L1009.02,804.48L986.26,804.14L978.67,813.71L971.08,820.93L963.5,819.89L955.91,811.49L933.15,818.26L925.56,822.15L917.98,828.69L910.39,832.76L902.8,834.61L864.87,837.81L857.28,834.93L849.7,833.25L826.94,829.07L819.35,830.71L811.77,834.13L804.18,836.35L713.14,836.35L705.55,821.76L697.97,817.01L690.38,819.45L667.62,820.05L660.03,822.79L644.86,815.88L637.27,815.91L614.51,814.48L606.93,814.96L599.34,820.95L591.75,817.22L584.17,820.19L561.41,823.45L553.82,811.12L546.23,787.08L538.65,791.21L531.06,787.64L508.3,791.15L500.72,782.23L493.13,791.93L485.54,785.94L477.96,791.9L455.2,806.75L447.61,814.04L440.02,819.92L432.44,820.15L424.85,821.23L402.09,820.36L394.5,822.32L379.33,818.54L371.74,820.22L348.98,822.12L341.4,823.81L333.81,818.5L326.22,820.26L318.64,813.89L295.88,824.35L288.29,829.4L280.7,832.65L273.12,837.93L265.53,835.55L242.77,835.61L235.18,834.78L166.91,835.45L159.32,836.35L83.45,836.35L75.87,840.04L68.28,837.56L60.69,837.31L53.11,838.47L30.35,837.25L22.76,836.35L15.17,836.35L0,836.35" style="vector-effect: none; fill: none; stroke: rgb(3, 123, 102); stroke-opacity: 1; stroke-width: 3px; opacity: 1;"/></g><g class="points"/><g class="text"/></g></g></g></g><g class="zerolinelayer-above"/><path class="xlines-above crisp" d="" style="fill: none; stroke-width: 1px; stroke: rgb(0, 0, 0); stroke-opacity: 0;"/><path class="ylines-above crisp" d="" style="fill: none; stroke-width: 1px; stroke: rgb(0, 0, 0); stroke-opacity: 0;"/><g class="overlines-above"/><g class="xaxislayer-above"><path class="xtick ticks crisp" d="M0,900v-5" transform="translate(256.49,0)" style="stroke: rgb(68, 68, 68); stroke-opacity: 1; stroke-width: 1px;"/><path class="xtick ticks crisp" d="M0,900v-5" transform="translate(491.68,0)" style="stroke: rgb(68, 68, 68); stroke-opacity: 1; stroke-width: 1px;"/><path class="xtick ticks crisp" d="M0,900v-5" transform="translate(719.27,0)" style="stroke: rgb(68, 68, 68); stroke-opacity: 1; stroke-width: 1px;"/><path class="xtick ticks crisp" d="M0,900v-5" transform="translate(954.46,0)" style="stroke: rgb(68, 68, 68); stroke-opacity: 1; stroke-width: 1px;"/><path class="xtick ticks crisp" d="M0,900v-5" transform="translate(1189.64,0)" style="stroke: rgb(68, 68, 68); stroke-opacity: 1; stroke-width: 1px;"/><path class="xtick ticks crisp" d="M0,900v-5" transform="translate(1402.07,0)" style="stroke: rgb(68, 68, 68); stroke-opacity: 1; stroke-width: 1px;"/><g class="xtick"><text text-anchor="middle" x="0" y="895" transform="translate(256.49,-3)" style="font-family: Arial; font-size: 32px; fill: rgb(0, 0, 0); fill-opacity: 1; white-space: pre;">Oct 2025</text></g><g class="xtick"><text text-anchor="middle" x="0" y="895" style="font-family: Arial; font-size: 32px; fill: rgb(0, 0, 0); fill-opacity: 1; white-space: pre;" transform="translate(491.68,-3)">Nov 2025</text></g><g class="xtick"><text text-anchor="middle" x="0" y="895" style="font-family: Arial; font-size: 32px; fill: rgb(0, 0, 0); fill-opacity: 1; white-space: pre;" transform="translate(719.27,-3)">Dec 2025</text></g><g class="xtick"><text text-anchor="middle" x="0" y="895" style="font-family: Arial; font-size: 32px; fill: rgb(0, 0, 0); fill-opacity: 1; white-space: pre;" transform="translate(954.46,-3)">Jan 2026</text></g><g class="xtick"><text text-anchor="middle" x="0" y="895" style="font-family: Arial; font-size: 32px; fill: rgb(0, 0, 0); fill-opacity: 1; white-space: pre;" transform="translate(1189.64,-3)">Feb 2026</text></g><g class="xtick"/></g><g class="yaxislayer-above"><path class="ytick ticks crisp" d="M81,0h-5" transform="translate(0,838.35)" style="stroke: rgb(68, 68, 68); stroke-opacity: 1; stroke-width: 1px;"/><path class="ytick ticks crisp" d="M81,0h-5" transform="translate(0,747.14)" style="stroke: rgb(68, 68, 68); stroke-opacity: 1; stroke-width: 1px;"/><path class="ytick ticks crisp" d="M81,0h-5" transform="translate(0,655.94)" style="stroke: rgb(68, 68, 68); stroke-opacity: 1; stroke-width: 1px;"/><path class="ytick ticks crisp" d="M81,0h-5" transform="translate(0,564.74)" style="stroke: rgb(68, 68, 68); stroke-opacity: 1; stroke-width: 1px;"/><path class="ytick ticks crisp" d="M81,0h-5" transform="translate(0,473.53)" style="stroke: rgb(68, 68, 68); stroke-opacity: 1; stroke-width: 1px;"/><path class="ytick ticks crisp" d="M81,0h-5" transform="translate(0,382.33)" style="stroke: rgb(68, 68, 68); stroke-opacity: 1; stroke-width: 1px;"/><path class="ytick ticks crisp" d="M81,0h-5" transform="translate(0,291.13)" style="stroke: rgb(68, 68, 68); stroke-opacity: 1; stroke-width: 1px;"/><path class="ytick ticks crisp" d="M81,0h-5" transform="translate(0,199.92)" style="stroke: rgb(68, 68, 68); stroke-opacity: 1; stroke-width: 1px;"/><path class="ytick ticks crisp" d="M81,0h-5" transform="translate(0,108.72)" style="stroke: rgb(68, 68, 68); stroke-opacity: 1; stroke-width: 1px;"/><path class="ytick ticks crisp" d="M81,0h-5" transform="translate(0,17.509999999999998)" style="stroke: rgb(68, 68, 68); stroke-opacity: 1; stroke-width: 1px;"/><g class="ytick"><text text-anchor="end" x="69.6" y="11.2" transform="translate(0,838.35)" style="font-family: Arial; font-size: 32px; fill: rgb(0, 0, 0); fill-opacity: 1; white-space: pre;">0</text></g><g class="ytick"><text text-anchor="end" x="69.6" y="11.2" style="font-family: Arial; font-size: 32px; fill: rgb(0, 0, 0); fill-opacity: 1; white-space: pre;" transform="translate(0,747.14)">20k</text></g><g class="ytick"><text text-anchor="end" x="69.6" y="11.2" style="font-family: Arial; font-size: 32px; fill: rgb(0, 0, 0); fill-opacity: 1; white-space: pre;" transform="translate(0,655.94)">40k</text></g><g class="ytick"><text text-anchor="end" x="69.6" y="11.2" style="font-family: Arial; font-size: 32px; fill: rgb(0, 0, 0); fill-opacity: 1; white-space: pre;" transform="translate(0,564.74)">60k</text></g><g class="ytick"><text text-anchor="end" x="69.6" y="11.2" style="font-family: Arial; font-size: 32px; fill: rgb(0, 0, 0); fill-opacity: 1; white-space: pre;" transform="translate(0,473.53)">80k</text></g><g class="ytick"><text text-anchor="end" x="69.6" y="11.2" style="font-family: Arial; font-size: 32px; fill: rgb(0, 0, 0); fill-opacity: 1; white-space: pre;" transform="translate(0,382.33)">100k</text></g><g class="ytick"><text text-anchor="end" x="69.6" y="11.2" style="font-family: Arial; font-size: 32px; fill: rgb(0, 0, 0); fill-opacity: 1; white-space: pre;" transform="translate(0,291.13)">120k</text></g><g class="ytick"><text text-anchor="end" x="69.6" y="11.2" style="font-family: Arial; font-size: 32px; fill: rgb(0, 0, 0); fill-opacity: 1; white-space: pre;" transform="translate(0,199.92)">140k</text></g><g class="ytick"><text text-anchor="end" x="69.6" y="11.2" style="font-family: Arial; font-size: 32px; fill: rgb(0, 0, 0); fill-opacity: 1; white-space: pre;" transform="translate(0,108.72)">160k</text></g><g class="ytick"><text text-anchor="end" x="69.6" y="11.2" style="font-family: Arial; font-size: 32px; fill: rgb(0, 0, 0); fill-opacity: 1; white-space: pre;" transform="translate(0,17.509999999999998)">180k</text></g></g><g class="overaxes-above"/></g></g><g class="polarlayer"/><g class="smithlayer"/><g class="ternarylayer"/><g class="geolayer"/><g class="funnelarealayer"/><g class="pielayer"/><g class="iciclelayer"/><g class="treemaplayer"/><g class="sunburstlayer"/><g class="glimages"/><defs id="topdefs-451e65"><g class="clips"/><clipPath id="legend451e65"><rect width="173" height="233" x="0" y="0"/></clipPath></defs><g class="layer-above"><g class="imagelayer"/><g class="shapelayer"/></g><g class="infolayer"><g class="legend" pointer-events="all" transform="translate(82,2)"><rect class="bg" shape-rendering="crispEdges" style="stroke: rgb(0, 0, 0); stroke-opacity: 0; fill: rgb(246, 248, 249); fill-opacity: 0.8; stroke-width: 0px;" width="173" height="233" x="0" y="0"/><g class="scrollbox" transform="" clip-path="url(#legend451e65)"><g class="groups" transform=""><g class="traces" transform="translate(0,27.3)" style="opacity: 1;"><text class="legendtext" text-anchor="start" x="40" y="12.48" style="font-family: Arial; font-size: 32px; fill: rgb(0, 0, 0); fill-opacity: 1; white-space: pre;">输配电气</text><g class="layers" style="opacity: 1;"><g class="legendfill"/><g class="legendlines"><path class="js-line" d="M5,0h30" style="fill: none; stroke: rgb(214, 10, 34); stroke-opacity: 1; stroke-width: 3px;"/></g><g class="legendsymbols"><g class="legendpoints"/></g></g><rect class="legendtoggle" x="0" y="-22.3" width="168" height="44.6" style="fill: rgb(0, 0, 0); fill-opacity: 0;"/></g></g><g class="groups" transform=""><g class="traces" transform="translate(0,71.9)" style="opacity: 1;"><text class="legendtext" text-anchor="start" x="40" y="12.48" style="font-family: Arial; font-size: 32px; fill: rgb(0, 0, 0); fill-opacity: 1; white-space: pre;">电力行业</text><g class="layers" style="opacity: 1;"><g class="legendfill"/><g class="legendlines"><path class="js-line" d="M5,0h30" style="fill: none; stroke: rgb(234, 112, 52); stroke-opacity: 1; stroke-width: 3px;"/></g><g class="legendsymbols"><g class="legendpoints"/></g></g><rect class="legendtoggle" x="0" y="-22.3" width="168" height="44.6" style="fill: rgb(0, 0, 0); fill-opacity: 0;"/></g></g><g class="groups" transform=""><g class="traces" transform="translate(0,116.5)" style="opacity: 1;"><text class="legendtext" text-anchor="start" x="40" y="12.48" style="font-family: Arial; font-size: 32px; fill: rgb(0, 0, 0); fill-opacity: 1; white-space: pre;">电网设备</text><g class="layers" style="opacity: 1;"><g class="legendfill"/><g class="legendlines"><path class="js-line" d="M5,0h30" style="fill: none; stroke: rgb(255, 215, 71); stroke-opacity: 1; stroke-width: 3px;"/></g><g class="legendsymbols"><g class="legendpoints"/></g></g><rect class="legendtoggle" x="0" y="-22.3" width="168" height="44.6" style="fill: rgb(0, 0, 0); fill-opacity: 0;"/></g></g><g class="groups" transform=""><g class="traces" transform="translate(0,161.10000000000002)" style="opacity: 1;"><text class="legendtext" text-anchor="start" x="40" y="12.48" style="font-family: Arial; font-size: 32px; fill: rgb(0, 0, 0); fill-opacity: 1; white-space: pre;">化学原料</text><g class="layers" style="opacity: 1;"><g class="legendfill"/><g class="legendlines"><path class="js-line" d="M5,0h30" style="fill: none; stroke: rgb(129, 169, 73); stroke-opacity: 1; stroke-width: 3px;"/></g><g class="legendsymbols"><g class="legendpoints"/></g></g><rect class="legendtoggle" x="0" y="-22.3" width="168" height="44.6" style="fill: rgb(0, 0, 0); fill-opacity: 0;"/></g></g><g class="groups" transform=""><g class="traces" transform="translate(0,205.70000000000002)" style="opacity: 1;"><text class="legendtext" text-anchor="start" x="40" y="12.48" style="font-family: Arial; font-size: 32px; fill: rgb(0, 0, 0); fill-opacity: 1; white-space: pre;">化学制品</text><g class="layers" style="opacity: 1;"><g class="legendfill"/><g class="legendlines"><path class="js-line" d="M5,0h30" style="fill: none; stroke: rgb(3, 123, 102); stroke-opacity: 1; stroke-width: 3px;"/></g><g class="legendsymbols"><g class="legendpoints"/></g></g><rect class="legendtoggle" x="0" y="-22.3" width="168" height="44.6" style="fill: rgb(0, 0, 0); fill-opacity: 0;"/></g></g></g><rect class="scrollbar" rx="20" ry="3" width="0" height="0" style="fill: rgb(128, 139, 164); fill-opacity: 1;" x="0" y="0"/></g><g class="g-gtitle"><text class="gtitle" x="720" y="90" text-anchor="middle" dy="0.7em" style="opacity: 1; font-family: Arial; font-size: 35px; fill: rgb(0, 0, 0); fill-opacity: 1; white-space: pre;">Last 180 days top5 pnl</text></g><g class="g-xtitle"/><g class="g-ytitle"/></g></svg>