<?xml version="1.0" encoding="utf-8" standalone="no"?>
<!DOCTYPE svg PUBLIC "-//W3C//DTD SVG 1.1//EN"
  "http://www.w3.org/Graphics/SVG/1.1/DTD/svg11.dtd">
<svg xmlns:xlink="http://www.w3.org/1999/xlink" width="1297.706625pt" height="591.285pt" viewBox="0 0 1297.706625 591.285" xmlns="http://www.w3.org/2000/svg" version="1.1">
 <metadata>
  <rdf:RDF xmlns:dc="http://purl.org/dc/elements/1.1/" xmlns:cc="http://creativecommons.org/ns#" xmlns:rdf="http://www.w3.org/1999/02/22-rdf-syntax-ns#">
   <cc:Work>
    <dc:type rdf:resource="http://purl.org/dc/dcmitype/StillImage"/>
    <dc:date>2025-03-14T17:47:56.210873</dc:date>
    <dc:format>image/svg+xml</dc:format>
    <dc:creator>
     <cc:Agent>
      <dc:title>Matplotlib v3.9.2, https://matplotlib.org/</dc:title>
     </cc:Agent>
    </dc:creator>
   </cc:Work>
  </rdf:RDF>
 </metadata>
 <defs>
  <style type="text/css">*{stroke-linejoin: round; stroke-linecap: butt}</style>
 </defs>
 <g id="figure_1">
  <g id="patch_1">
   <path d="M 0 591.285 
L 1297.706625 591.285 
L 1297.706625 0 
L 0 0 
L 0 591.285 
z
" style="fill: none"/>
  </g>
  <g id="axes_1">
   <g id="table_1">
    <g id="patch_2">
     <path d="M 7.2 118.08 
L 106.624125 118.08 
M 106.624125 7.2 
L 7.2 7.2 
M 7.2 118.08 
" style="fill: #ffffff; stroke: #333333; stroke-linejoin: miter"/>
    </g>
    <g id="text_1">
     <!-- Date -->
     <g style="fill: #333333" transform="translate(17.142412 67.606875) scale(0.18 -0.18)">
      <defs>
       <path id="DejaVuSans-44" d="M 1259 4147 
L 1259 519 
L 2022 519 
Q 2988 519 3436 956 
Q 3884 1394 3884 2338 
Q 3884 3275 3436 3711 
Q 2988 4147 2022 4147 
L 1259 4147 
z
M 628 4666 
L 1925 4666 
Q 3281 4666 3915 4102 
Q 4550 3538 4550 2338 
Q 4550 1131 3912 565 
Q 3275 0 1925 0 
L 628 0 
L 628 4666 
z
" transform="scale(0.015625)"/>
       <path id="DejaVuSans-61" d="M 2194 1759 
Q 1497 1759 1228 1600 
Q 959 1441 959 1056 
Q 959 750 1161 570 
Q 1363 391 1709 391 
Q 2188 391 2477 730 
Q 2766 1069 2766 1631 
L 2766 1759 
L 2194 1759 
z
M 3341 1997 
L 3341 0 
L 2766 0 
L 2766 531 
Q 2569 213 2275 61 
Q 1981 -91 1556 -91 
Q 1019 -91 701 211 
Q 384 513 384 1019 
Q 384 1609 779 1909 
Q 1175 2209 1959 2209 
L 2766 2209 
L 2766 2266 
Q 2766 2663 2505 2880 
Q 2244 3097 1772 3097 
Q 1472 3097 1187 3025 
Q 903 2953 641 2809 
L 641 3341 
Q 956 3463 1253 3523 
Q 1550 3584 1831 3584 
Q 2591 3584 2966 3190 
Q 3341 2797 3341 1997 
z
" transform="scale(0.015625)"/>
       <path id="DejaVuSans-74" d="M 1172 4494 
L 1172 3500 
L 2356 3500 
L 2356 3053 
L 1172 3053 
L 1172 1153 
Q 1172 725 1289 603 
Q 1406 481 1766 481 
L 2356 481 
L 2356 0 
L 1766 0 
Q 1100 0 847 248 
Q 594 497 594 1153 
L 594 3053 
L 172 3053 
L 172 3500 
L 594 3500 
L 594 4494 
L 1172 4494 
z
" transform="scale(0.015625)"/>
       <path id="DejaVuSans-65" d="M 3597 1894 
L 3597 1613 
L 953 1613 
Q 991 1019 1311 708 
Q 1631 397 2203 397 
Q 2534 397 2845 478 
Q 3156 559 3463 722 
L 3463 178 
Q 3153 47 2828 -22 
Q 2503 -91 2169 -91 
Q 1331 -91 842 396 
Q 353 884 353 1716 
Q 353 2575 817 3079 
Q 1281 3584 2069 3584 
Q 2775 3584 3186 3129 
Q 3597 2675 3597 1894 
z
M 3022 2063 
Q 3016 2534 2758 2815 
Q 2500 3097 2075 3097 
Q 1594 3097 1305 2825 
Q 1016 2553 972 2059 
L 3022 2063 
z
" transform="scale(0.015625)"/>
      </defs>
      <use xlink:href="#DejaVuSans-44"/>
      <use xlink:href="#DejaVuSans-61" x="77.001953"/>
      <use xlink:href="#DejaVuSans-74" x="138.28125"/>
      <use xlink:href="#DejaVuSans-65" x="177.490234"/>
     </g>
    </g>
    <g id="patch_3">
     <path d="M 106.624125 118.08 
L 212.909839 118.08 
M 212.909839 7.2 
L 106.624125 7.2 
M 106.624125 118.08 
" style="fill: #ffffff; stroke: #333333; stroke-linejoin: miter"/>
    </g>
    <g id="text_2">
     <!-- 2024 -->
     <g style="fill: #333333" transform="translate(136.861982 67.606875) scale(0.18 -0.18)">
      <defs>
       <path id="DejaVuSans-32" d="M 1228 531 
L 3431 531 
L 3431 0 
L 469 0 
L 469 531 
Q 828 903 1448 1529 
Q 2069 2156 2228 2338 
Q 2531 2678 2651 2914 
Q 2772 3150 2772 3378 
Q 2772 3750 2511 3984 
Q 2250 4219 1831 4219 
Q 1534 4219 1204 4116 
Q 875 4013 500 3803 
L 500 4441 
Q 881 4594 1212 4672 
Q 1544 4750 1819 4750 
Q 2544 4750 2975 4387 
Q 3406 4025 3406 3419 
Q 3406 3131 3298 2873 
Q 3191 2616 2906 2266 
Q 2828 2175 2409 1742 
Q 1991 1309 1228 531 
z
" transform="scale(0.015625)"/>
       <path id="DejaVuSans-30" d="M 2034 4250 
Q 1547 4250 1301 3770 
Q 1056 3291 1056 2328 
Q 1056 1369 1301 889 
Q 1547 409 2034 409 
Q 2525 409 2770 889 
Q 3016 1369 3016 2328 
Q 3016 3291 2770 3770 
Q 2525 4250 2034 4250 
z
M 2034 4750 
Q 2819 4750 3233 4129 
Q 3647 3509 3647 2328 
Q 3647 1150 3233 529 
Q 2819 -91 2034 -91 
Q 1250 -91 836 529 
Q 422 1150 422 2328 
Q 422 3509 836 4129 
Q 1250 4750 2034 4750 
z
" transform="scale(0.015625)"/>
       <path id="DejaVuSans-34" d="M 2419 4116 
L 825 1625 
L 2419 1625 
L 2419 4116 
z
M 2253 4666 
L 3047 4666 
L 3047 1625 
L 3713 1625 
L 3713 1100 
L 3047 1100 
L 3047 0 
L 2419 0 
L 2419 1100 
L 313 1100 
L 313 1709 
L 2253 4666 
z
" transform="scale(0.015625)"/>
      </defs>
      <use xlink:href="#DejaVuSans-32"/>
      <use xlink:href="#DejaVuSans-30" x="63.623047"/>
      <use xlink:href="#DejaVuSans-32" x="127.246094"/>
      <use xlink:href="#DejaVuSans-34" x="190.869141"/>
     </g>
    </g>
    <g id="patch_4">
     <path d="M 212.909839 118.08 
L 319.195554 118.08 
M 319.195554 7.2 
L 212.909839 7.2 
M 212.909839 118.08 
" style="fill: #ffffff; stroke: #333333; stroke-linejoin: miter"/>
    </g>
    <g id="text_3">
     <!-- 2025 -->
     <g style="fill: #333333" transform="translate(243.147696 67.606875) scale(0.18 -0.18)">
      <defs>
       <path id="DejaVuSans-35" d="M 691 4666 
L 3169 4666 
L 3169 4134 
L 1269 4134 
L 1269 2991 
Q 1406 3038 1543 3061 
Q 1681 3084 1819 3084 
Q 2600 3084 3056 2656 
Q 3513 2228 3513 1497 
Q 3513 744 3044 326 
Q 2575 -91 1722 -91 
Q 1428 -91 1123 -41 
Q 819 9 494 109 
L 494 744 
Q 775 591 1075 516 
Q 1375 441 1709 441 
Q 2250 441 2565 725 
Q 2881 1009 2881 1497 
Q 2881 1984 2565 2268 
Q 2250 2553 1709 2553 
Q 1456 2553 1204 2497 
Q 953 2441 691 2322 
L 691 4666 
z
" transform="scale(0.015625)"/>
      </defs>
      <use xlink:href="#DejaVuSans-32"/>
      <use xlink:href="#DejaVuSans-30" x="63.623047"/>
      <use xlink:href="#DejaVuSans-32" x="127.246094"/>
      <use xlink:href="#DejaVuSans-35" x="190.869141"/>
     </g>
    </g>
    <g id="patch_5">
     <path d="M 7.2 228.96 
L 106.624125 228.96 
M 106.624125 118.08 
L 7.2 118.08 
M 7.2 228.96 
" style="fill: #ffffff; stroke: #333333; stroke-linejoin: miter"/>
    </g>
    <g id="text_4">
     <!-- AnnualR -->
     <g style="fill: #333333" transform="translate(17.142412 178.486875) scale(0.18 -0.18)">
      <defs>
       <path id="DejaVuSans-41" d="M 2188 4044 
L 1331 1722 
L 3047 1722 
L 2188 4044 
z
M 1831 4666 
L 2547 4666 
L 4325 0 
L 3669 0 
L 3244 1197 
L 1141 1197 
L 716 0 
L 50 0 
L 1831 4666 
z
" transform="scale(0.015625)"/>
       <path id="DejaVuSans-6e" d="M 3513 2113 
L 3513 0 
L 2938 0 
L 2938 2094 
Q 2938 2591 2744 2837 
Q 2550 3084 2163 3084 
Q 1697 3084 1428 2787 
Q 1159 2491 1159 1978 
L 1159 0 
L 581 0 
L 581 3500 
L 1159 3500 
L 1159 2956 
Q 1366 3272 1645 3428 
Q 1925 3584 2291 3584 
Q 2894 3584 3203 3211 
Q 3513 2838 3513 2113 
z
" transform="scale(0.015625)"/>
       <path id="DejaVuSans-75" d="M 544 1381 
L 544 3500 
L 1119 3500 
L 1119 1403 
Q 1119 906 1312 657 
Q 1506 409 1894 409 
Q 2359 409 2629 706 
Q 2900 1003 2900 1516 
L 2900 3500 
L 3475 3500 
L 3475 0 
L 2900 0 
L 2900 538 
Q 2691 219 2414 64 
Q 2138 -91 1772 -91 
Q 1169 -91 856 284 
Q 544 659 544 1381 
z
M 1991 3584 
L 1991 3584 
z
" transform="scale(0.015625)"/>
       <path id="DejaVuSans-6c" d="M 603 4863 
L 1178 4863 
L 1178 0 
L 603 0 
L 603 4863 
z
" transform="scale(0.015625)"/>
       <path id="DejaVuSans-52" d="M 2841 2188 
Q 3044 2119 3236 1894 
Q 3428 1669 3622 1275 
L 4263 0 
L 3584 0 
L 2988 1197 
Q 2756 1666 2539 1819 
Q 2322 1972 1947 1972 
L 1259 1972 
L 1259 0 
L 628 0 
L 628 4666 
L 2053 4666 
Q 2853 4666 3247 4331 
Q 3641 3997 3641 3322 
Q 3641 2881 3436 2590 
Q 3231 2300 2841 2188 
z
M 1259 4147 
L 1259 2491 
L 2053 2491 
Q 2509 2491 2742 2702 
Q 2975 2913 2975 3322 
Q 2975 3731 2742 3939 
Q 2509 4147 2053 4147 
L 1259 4147 
z
" transform="scale(0.015625)"/>
      </defs>
      <use xlink:href="#DejaVuSans-41"/>
      <use xlink:href="#DejaVuSans-6e" x="68.408203"/>
      <use xlink:href="#DejaVuSans-6e" x="131.787109"/>
      <use xlink:href="#DejaVuSans-75" x="195.166016"/>
      <use xlink:href="#DejaVuSans-61" x="258.544922"/>
      <use xlink:href="#DejaVuSans-6c" x="319.824219"/>
      <use xlink:href="#DejaVuSans-52" x="347.607422"/>
     </g>
    </g>
    <g id="patch_6">
     <path d="M 106.624125 228.96 
L 212.909839 228.96 
M 212.909839 118.08 
L 106.624125 118.08 
M 106.624125 228.96 
" style="fill: #ffffff; stroke: #333333; stroke-linejoin: miter"/>
    </g>
    <g id="text_5">
     <!-- 12.16% -->
     <g style="fill: #333333" transform="translate(125.450263 178.486875) scale(0.18 -0.18)">
      <defs>
       <path id="DejaVuSans-31" d="M 794 531 
L 1825 531 
L 1825 4091 
L 703 3866 
L 703 4441 
L 1819 4666 
L 2450 4666 
L 2450 531 
L 3481 531 
L 3481 0 
L 794 0 
L 794 531 
z
" transform="scale(0.015625)"/>
       <path id="DejaVuSans-2e" d="M 684 794 
L 1344 794 
L 1344 0 
L 684 0 
L 684 794 
z
" transform="scale(0.015625)"/>
       <path id="DejaVuSans-36" d="M 2113 2584 
Q 1688 2584 1439 2293 
Q 1191 2003 1191 1497 
Q 1191 994 1439 701 
Q 1688 409 2113 409 
Q 2538 409 2786 701 
Q 3034 994 3034 1497 
Q 3034 2003 2786 2293 
Q 2538 2584 2113 2584 
z
M 3366 4563 
L 3366 3988 
Q 3128 4100 2886 4159 
Q 2644 4219 2406 4219 
Q 1781 4219 1451 3797 
Q 1122 3375 1075 2522 
Q 1259 2794 1537 2939 
Q 1816 3084 2150 3084 
Q 2853 3084 3261 2657 
Q 3669 2231 3669 1497 
Q 3669 778 3244 343 
Q 2819 -91 2113 -91 
Q 1303 -91 875 529 
Q 447 1150 447 2328 
Q 447 3434 972 4092 
Q 1497 4750 2381 4750 
Q 2619 4750 2861 4703 
Q 3103 4656 3366 4563 
z
" transform="scale(0.015625)"/>
       <path id="DejaVuSans-25" d="M 4653 2053 
Q 4381 2053 4226 1822 
Q 4072 1591 4072 1178 
Q 4072 772 4226 539 
Q 4381 306 4653 306 
Q 4919 306 5073 539 
Q 5228 772 5228 1178 
Q 5228 1588 5073 1820 
Q 4919 2053 4653 2053 
z
M 4653 2450 
Q 5147 2450 5437 2106 
Q 5728 1763 5728 1178 
Q 5728 594 5436 251 
Q 5144 -91 4653 -91 
Q 4153 -91 3862 251 
Q 3572 594 3572 1178 
Q 3572 1766 3864 2108 
Q 4156 2450 4653 2450 
z
M 1428 4353 
Q 1159 4353 1004 4120 
Q 850 3888 850 3481 
Q 850 3069 1003 2837 
Q 1156 2606 1428 2606 
Q 1700 2606 1854 2837 
Q 2009 3069 2009 3481 
Q 2009 3884 1853 4118 
Q 1697 4353 1428 4353 
z
M 4250 4750 
L 4750 4750 
L 1831 -91 
L 1331 -91 
L 4250 4750 
z
M 1428 4750 
Q 1922 4750 2215 4408 
Q 2509 4066 2509 3481 
Q 2509 2891 2217 2550 
Q 1925 2209 1428 2209 
Q 931 2209 642 2551 
Q 353 2894 353 3481 
Q 353 4063 643 4406 
Q 934 4750 1428 4750 
z
" transform="scale(0.015625)"/>
      </defs>
      <use xlink:href="#DejaVuSans-31"/>
      <use xlink:href="#DejaVuSans-32" x="63.623047"/>
      <use xlink:href="#DejaVuSans-2e" x="127.246094"/>
      <use xlink:href="#DejaVuSans-31" x="159.033203"/>
      <use xlink:href="#DejaVuSans-36" x="222.65625"/>
      <use xlink:href="#DejaVuSans-25" x="286.279297"/>
     </g>
    </g>
    <g id="patch_7">
     <path d="M 212.909839 228.96 
L 319.195554 228.96 
M 319.195554 118.08 
L 212.909839 118.08 
M 212.909839 228.96 
" style="fill: #ffffff; stroke: #333333; stroke-linejoin: miter"/>
    </g>
    <g id="text_6">
     <!-- 13.30% -->
     <g style="fill: #333333" transform="translate(231.735978 178.486875) scale(0.18 -0.18)">
      <defs>
       <path id="DejaVuSans-33" d="M 2597 2516 
Q 3050 2419 3304 2112 
Q 3559 1806 3559 1356 
Q 3559 666 3084 287 
Q 2609 -91 1734 -91 
Q 1441 -91 1130 -33 
Q 819 25 488 141 
L 488 750 
Q 750 597 1062 519 
Q 1375 441 1716 441 
Q 2309 441 2620 675 
Q 2931 909 2931 1356 
Q 2931 1769 2642 2001 
Q 2353 2234 1838 2234 
L 1294 2234 
L 1294 2753 
L 1863 2753 
Q 2328 2753 2575 2939 
Q 2822 3125 2822 3475 
Q 2822 3834 2567 4026 
Q 2313 4219 1838 4219 
Q 1578 4219 1281 4162 
Q 984 4106 628 3988 
L 628 4550 
Q 988 4650 1302 4700 
Q 1616 4750 1894 4750 
Q 2613 4750 3031 4423 
Q 3450 4097 3450 3541 
Q 3450 3153 3228 2886 
Q 3006 2619 2597 2516 
z
" transform="scale(0.015625)"/>
      </defs>
      <use xlink:href="#DejaVuSans-31"/>
      <use xlink:href="#DejaVuSans-33" x="63.623047"/>
      <use xlink:href="#DejaVuSans-2e" x="127.246094"/>
      <use xlink:href="#DejaVuSans-33" x="159.033203"/>
      <use xlink:href="#DejaVuSans-30" x="222.65625"/>
      <use xlink:href="#DejaVuSans-25" x="286.279297"/>
     </g>
    </g>
    <g id="patch_8">
     <path d="M 7.2 339.84 
L 106.624125 339.84 
M 106.624125 228.96 
L 7.2 228.96 
M 7.2 339.84 
" style="fill: #ffffff; stroke: #333333; stroke-linejoin: miter"/>
    </g>
    <g id="text_7">
     <!-- CumR -->
     <g style="fill: #333333" transform="translate(17.142412 289.366875) scale(0.18 -0.18)">
      <defs>
       <path id="DejaVuSans-43" d="M 4122 4306 
L 4122 3641 
Q 3803 3938 3442 4084 
Q 3081 4231 2675 4231 
Q 1875 4231 1450 3742 
Q 1025 3253 1025 2328 
Q 1025 1406 1450 917 
Q 1875 428 2675 428 
Q 3081 428 3442 575 
Q 3803 722 4122 1019 
L 4122 359 
Q 3791 134 3420 21 
Q 3050 -91 2638 -91 
Q 1578 -91 968 557 
Q 359 1206 359 2328 
Q 359 3453 968 4101 
Q 1578 4750 2638 4750 
Q 3056 4750 3426 4639 
Q 3797 4528 4122 4306 
z
" transform="scale(0.015625)"/>
       <path id="DejaVuSans-6d" d="M 3328 2828 
Q 3544 3216 3844 3400 
Q 4144 3584 4550 3584 
Q 5097 3584 5394 3201 
Q 5691 2819 5691 2113 
L 5691 0 
L 5113 0 
L 5113 2094 
Q 5113 2597 4934 2840 
Q 4756 3084 4391 3084 
Q 3944 3084 3684 2787 
Q 3425 2491 3425 1978 
L 3425 0 
L 2847 0 
L 2847 2094 
Q 2847 2600 2669 2842 
Q 2491 3084 2119 3084 
Q 1678 3084 1418 2786 
Q 1159 2488 1159 1978 
L 1159 0 
L 581 0 
L 581 3500 
L 1159 3500 
L 1159 2956 
Q 1356 3278 1631 3431 
Q 1906 3584 2284 3584 
Q 2666 3584 2933 3390 
Q 3200 3197 3328 2828 
z
" transform="scale(0.015625)"/>
      </defs>
      <use xlink:href="#DejaVuSans-43"/>
      <use xlink:href="#DejaVuSans-75" x="69.824219"/>
      <use xlink:href="#DejaVuSans-6d" x="133.203125"/>
      <use xlink:href="#DejaVuSans-52" x="230.615234"/>
     </g>
    </g>
    <g id="patch_9">
     <path d="M 106.624125 339.84 
L 212.909839 339.84 
M 212.909839 228.96 
L 106.624125 228.96 
M 106.624125 339.84 
" style="fill: #ffffff; stroke: #333333; stroke-linejoin: miter"/>
    </g>
    <g id="text_8">
     <!-- 11.65% -->
     <g style="fill: #333333" transform="translate(125.450263 289.366875) scale(0.18 -0.18)">
      <use xlink:href="#DejaVuSans-31"/>
      <use xlink:href="#DejaVuSans-31" x="63.623047"/>
      <use xlink:href="#DejaVuSans-2e" x="127.246094"/>
      <use xlink:href="#DejaVuSans-36" x="159.033203"/>
      <use xlink:href="#DejaVuSans-35" x="222.65625"/>
      <use xlink:href="#DejaVuSans-25" x="286.279297"/>
     </g>
    </g>
    <g id="patch_10">
     <path d="M 212.909839 339.84 
L 319.195554 339.84 
M 319.195554 228.96 
L 212.909839 228.96 
M 212.909839 339.84 
" style="fill: #ffffff; stroke: #333333; stroke-linejoin: miter"/>
    </g>
    <g id="text_9">
     <!-- 2.31% -->
     <g style="fill: #333333" transform="translate(237.462228 289.366875) scale(0.18 -0.18)">
      <use xlink:href="#DejaVuSans-32"/>
      <use xlink:href="#DejaVuSans-2e" x="63.623047"/>
      <use xlink:href="#DejaVuSans-33" x="95.410156"/>
      <use xlink:href="#DejaVuSans-31" x="159.033203"/>
      <use xlink:href="#DejaVuSans-25" x="222.65625"/>
     </g>
    </g>
    <g id="patch_11">
     <path d="M 7.2 450.72 
L 106.624125 450.72 
M 106.624125 339.84 
L 7.2 339.84 
M 7.2 450.72 
" style="fill: #ffffff; stroke: #333333; stroke-linejoin: miter"/>
    </g>
    <g id="text_10">
     <!-- MaxDD -->
     <g style="fill: #333333" transform="translate(17.142412 400.246875) scale(0.18 -0.18)">
      <defs>
       <path id="DejaVuSans-4d" d="M 628 4666 
L 1569 4666 
L 2759 1491 
L 3956 4666 
L 4897 4666 
L 4897 0 
L 4281 0 
L 4281 4097 
L 3078 897 
L 2444 897 
L 1241 4097 
L 1241 0 
L 628 0 
L 628 4666 
z
" transform="scale(0.015625)"/>
       <path id="DejaVuSans-78" d="M 3513 3500 
L 2247 1797 
L 3578 0 
L 2900 0 
L 1881 1375 
L 863 0 
L 184 0 
L 1544 1831 
L 300 3500 
L 978 3500 
L 1906 2253 
L 2834 3500 
L 3513 3500 
z
" transform="scale(0.015625)"/>
      </defs>
      <use xlink:href="#DejaVuSans-4d"/>
      <use xlink:href="#DejaVuSans-61" x="86.279297"/>
      <use xlink:href="#DejaVuSans-78" x="147.558594"/>
      <use xlink:href="#DejaVuSans-44" x="206.738281"/>
      <use xlink:href="#DejaVuSans-44" x="283.740234"/>
     </g>
    </g>
    <g id="patch_12">
     <path d="M 106.624125 450.72 
L 212.909839 450.72 
M 212.909839 339.84 
L 106.624125 339.84 
M 106.624125 450.72 
" style="fill: #ffffff; stroke: #333333; stroke-linejoin: miter"/>
    </g>
    <g id="text_11">
     <!-- -7.20% -->
     <g style="fill: #333333" transform="translate(127.929482 400.246875) scale(0.18 -0.18)">
      <defs>
       <path id="DejaVuSans-2d" d="M 313 2009 
L 1997 2009 
L 1997 1497 
L 313 1497 
L 313 2009 
z
" transform="scale(0.015625)"/>
       <path id="DejaVuSans-37" d="M 525 4666 
L 3525 4666 
L 3525 4397 
L 1831 0 
L 1172 0 
L 2766 4134 
L 525 4134 
L 525 4666 
z
" transform="scale(0.015625)"/>
      </defs>
      <use xlink:href="#DejaVuSans-2d"/>
      <use xlink:href="#DejaVuSans-37" x="36.083984"/>
      <use xlink:href="#DejaVuSans-2e" x="99.707031"/>
      <use xlink:href="#DejaVuSans-32" x="131.494141"/>
      <use xlink:href="#DejaVuSans-30" x="195.117188"/>
      <use xlink:href="#DejaVuSans-25" x="258.740234"/>
     </g>
    </g>
    <g id="patch_13">
     <path d="M 212.909839 450.72 
L 319.195554 450.72 
M 319.195554 339.84 
L 212.909839 339.84 
M 212.909839 450.72 
" style="fill: #ffffff; stroke: #333333; stroke-linejoin: miter"/>
    </g>
    <g id="text_12">
     <!-- -2.25% -->
     <g style="fill: #333333" transform="translate(234.215196 400.246875) scale(0.18 -0.18)">
      <use xlink:href="#DejaVuSans-2d"/>
      <use xlink:href="#DejaVuSans-32" x="36.083984"/>
      <use xlink:href="#DejaVuSans-2e" x="99.707031"/>
      <use xlink:href="#DejaVuSans-32" x="131.494141"/>
      <use xlink:href="#DejaVuSans-35" x="195.117188"/>
      <use xlink:href="#DejaVuSans-25" x="258.740234"/>
     </g>
    </g>
    <g id="patch_14">
     <path d="M 7.2 561.6 
L 106.624125 561.6 
M 106.624125 450.72 
L 7.2 450.72 
M 7.2 561.6 
" style="fill: #ffffff; stroke: #333333; stroke-linejoin: miter"/>
    </g>
    <g id="text_13">
     <!-- DailyRisk -->
     <g style="fill: #333333" transform="translate(17.142412 511.126875) scale(0.18 -0.18)">
      <defs>
       <path id="DejaVuSans-69" d="M 603 3500 
L 1178 3500 
L 1178 0 
L 603 0 
L 603 3500 
z
M 603 4863 
L 1178 4863 
L 1178 4134 
L 603 4134 
L 603 4863 
z
" transform="scale(0.015625)"/>
       <path id="DejaVuSans-79" d="M 2059 -325 
Q 1816 -950 1584 -1140 
Q 1353 -1331 966 -1331 
L 506 -1331 
L 506 -850 
L 844 -850 
Q 1081 -850 1212 -737 
Q 1344 -625 1503 -206 
L 1606 56 
L 191 3500 
L 800 3500 
L 1894 763 
L 2988 3500 
L 3597 3500 
L 2059 -325 
z
" transform="scale(0.015625)"/>
       <path id="DejaVuSans-73" d="M 2834 3397 
L 2834 2853 
Q 2591 2978 2328 3040 
Q 2066 3103 1784 3103 
Q 1356 3103 1142 2972 
Q 928 2841 928 2578 
Q 928 2378 1081 2264 
Q 1234 2150 1697 2047 
L 1894 2003 
Q 2506 1872 2764 1633 
Q 3022 1394 3022 966 
Q 3022 478 2636 193 
Q 2250 -91 1575 -91 
Q 1294 -91 989 -36 
Q 684 19 347 128 
L 347 722 
Q 666 556 975 473 
Q 1284 391 1588 391 
Q 1994 391 2212 530 
Q 2431 669 2431 922 
Q 2431 1156 2273 1281 
Q 2116 1406 1581 1522 
L 1381 1569 
Q 847 1681 609 1914 
Q 372 2147 372 2553 
Q 372 3047 722 3315 
Q 1072 3584 1716 3584 
Q 2034 3584 2315 3537 
Q 2597 3491 2834 3397 
z
" transform="scale(0.015625)"/>
       <path id="DejaVuSans-6b" d="M 581 4863 
L 1159 4863 
L 1159 1991 
L 2875 3500 
L 3609 3500 
L 1753 1863 
L 3688 0 
L 2938 0 
L 1159 1709 
L 1159 0 
L 581 0 
L 581 4863 
z
" transform="scale(0.015625)"/>
      </defs>
      <use xlink:href="#DejaVuSans-44"/>
      <use xlink:href="#DejaVuSans-61" x="77.001953"/>
      <use xlink:href="#DejaVuSans-69" x="138.28125"/>
      <use xlink:href="#DejaVuSans-6c" x="166.064453"/>
      <use xlink:href="#DejaVuSans-79" x="193.847656"/>
      <use xlink:href="#DejaVuSans-52" x="253.027344"/>
      <use xlink:href="#DejaVuSans-69" x="322.509766"/>
      <use xlink:href="#DejaVuSans-73" x="350.292969"/>
      <use xlink:href="#DejaVuSans-6b" x="402.392578"/>
     </g>
    </g>
    <g id="patch_15">
     <path d="M 106.624125 561.6 
L 212.909839 561.6 
M 212.909839 450.72 
L 106.624125 450.72 
M 106.624125 561.6 
" style="fill: #ffffff; stroke: #333333; stroke-linejoin: miter"/>
    </g>
    <g id="text_14">
     <!-- -1.50% -->
     <g style="fill: #333333" transform="translate(127.929482 511.126875) scale(0.18 -0.18)">
      <use xlink:href="#DejaVuSans-2d"/>
      <use xlink:href="#DejaVuSans-31" x="36.083984"/>
      <use xlink:href="#DejaVuSans-2e" x="99.707031"/>
      <use xlink:href="#DejaVuSans-35" x="131.494141"/>
      <use xlink:href="#DejaVuSans-30" x="195.117188"/>
      <use xlink:href="#DejaVuSans-25" x="258.740234"/>
     </g>
    </g>
    <g id="patch_16">
     <path d="M 212.909839 561.6 
L 319.195554 561.6 
M 319.195554 450.72 
L 212.909839 450.72 
M 212.909839 561.6 
" style="fill: #ffffff; stroke: #333333; stroke-linejoin: miter"/>
    </g>
    <g id="text_15">
     <!-- -1.07% -->
     <g style="fill: #333333" transform="translate(234.215196 511.126875) scale(0.18 -0.18)">
      <use xlink:href="#DejaVuSans-2d"/>
      <use xlink:href="#DejaVuSans-31" x="36.083984"/>
      <use xlink:href="#DejaVuSans-2e" x="99.707031"/>
      <use xlink:href="#DejaVuSans-30" x="131.494141"/>
      <use xlink:href="#DejaVuSans-37" x="195.117188"/>
      <use xlink:href="#DejaVuSans-25" x="258.740234"/>
     </g>
    </g>
   </g>
  </g>
  <g id="axes_2">
   <g id="patch_17">
    <path d="M 372.338411 561.6 
L 1222.624125 561.6 
L 1222.624125 7.2 
L 372.338411 7.2 
L 372.338411 561.6 
z
" style="fill: none"/>
   </g>
   <g id="matplotlib.axis_1">
    <g id="xtick_1">
     <g id="line2d_1">
      <path d="M 545.420285 561.6 
L 545.420285 7.2 
" clip-path="url(#p3570f64d15)" style="fill: none; stroke: #333333; stroke-opacity: 0.4; stroke-width: 1.5; stroke-linecap: square"/>
     </g>
     <g id="line2d_2">
      <defs>
       <path id="m367b248db8" d="M 0 0 
L 0 3.5 
" style="stroke: #333333; stroke-width: 0.8"/>
      </defs>
      <g>
       <use xlink:href="#m367b248db8" x="545.420285" y="561.6" style="fill: #333333; stroke: #333333; stroke-width: 0.8"/>
      </g>
     </g>
     <g id="text_16">
      <!-- 2024-03-18 -->
      <g style="fill: #333333" transform="translate(498.927785 580.7575) scale(0.16 -0.16)">
       <defs>
        <path id="DejaVuSans-38" d="M 2034 2216 
Q 1584 2216 1326 1975 
Q 1069 1734 1069 1313 
Q 1069 891 1326 650 
Q 1584 409 2034 409 
Q 2484 409 2743 651 
Q 3003 894 3003 1313 
Q 3003 1734 2745 1975 
Q 2488 2216 2034 2216 
z
M 1403 2484 
Q 997 2584 770 2862 
Q 544 3141 544 3541 
Q 544 4100 942 4425 
Q 1341 4750 2034 4750 
Q 2731 4750 3128 4425 
Q 3525 4100 3525 3541 
Q 3525 3141 3298 2862 
Q 3072 2584 2669 2484 
Q 3125 2378 3379 2068 
Q 3634 1759 3634 1313 
Q 3634 634 3220 271 
Q 2806 -91 2034 -91 
Q 1263 -91 848 271 
Q 434 634 434 1313 
Q 434 1759 690 2068 
Q 947 2378 1403 2484 
z
M 1172 3481 
Q 1172 3119 1398 2916 
Q 1625 2713 2034 2713 
Q 2441 2713 2670 2916 
Q 2900 3119 2900 3481 
Q 2900 3844 2670 4047 
Q 2441 4250 2034 4250 
Q 1625 4250 1398 4047 
Q 1172 3844 1172 3481 
z
" transform="scale(0.015625)"/>
       </defs>
       <use xlink:href="#DejaVuSans-32"/>
       <use xlink:href="#DejaVuSans-30" x="63.623047"/>
       <use xlink:href="#DejaVuSans-32" x="127.246094"/>
       <use xlink:href="#DejaVuSans-34" x="190.869141"/>
       <use xlink:href="#DejaVuSans-2d" x="254.492188"/>
       <use xlink:href="#DejaVuSans-30" x="290.576172"/>
       <use xlink:href="#DejaVuSans-33" x="354.199219"/>
       <use xlink:href="#DejaVuSans-2d" x="417.822266"/>
       <use xlink:href="#DejaVuSans-31" x="453.90625"/>
       <use xlink:href="#DejaVuSans-38" x="517.529297"/>
      </g>
     </g>
    </g>
    <g id="xtick_2">
     <g id="line2d_3">
      <path d="M 722.305185 561.6 
L 722.305185 7.2 
" clip-path="url(#p3570f64d15)" style="fill: none; stroke: #333333; stroke-opacity: 0.4; stroke-width: 1.5; stroke-linecap: square"/>
     </g>
     <g id="line2d_4">
      <g>
       <use xlink:href="#m367b248db8" x="722.305185" y="561.6" style="fill: #333333; stroke: #333333; stroke-width: 0.8"/>
      </g>
     </g>
     <g id="text_17">
      <!-- 2024-06-26 -->
      <g style="fill: #333333" transform="translate(675.812685 580.7575) scale(0.16 -0.16)">
       <use xlink:href="#DejaVuSans-32"/>
       <use xlink:href="#DejaVuSans-30" x="63.623047"/>
       <use xlink:href="#DejaVuSans-32" x="127.246094"/>
       <use xlink:href="#DejaVuSans-34" x="190.869141"/>
       <use xlink:href="#DejaVuSans-2d" x="254.492188"/>
       <use xlink:href="#DejaVuSans-30" x="290.576172"/>
       <use xlink:href="#DejaVuSans-36" x="354.199219"/>
       <use xlink:href="#DejaVuSans-2d" x="417.822266"/>
       <use xlink:href="#DejaVuSans-32" x="453.90625"/>
       <use xlink:href="#DejaVuSans-36" x="517.529297"/>
      </g>
     </g>
    </g>
    <g id="xtick_3">
     <g id="line2d_5">
      <path d="M 899.190085 561.6 
L 899.190085 7.2 
" clip-path="url(#p3570f64d15)" style="fill: none; stroke: #333333; stroke-opacity: 0.4; stroke-width: 1.5; stroke-linecap: square"/>
     </g>
     <g id="line2d_6">
      <g>
       <use xlink:href="#m367b248db8" x="899.190085" y="561.6" style="fill: #333333; stroke: #333333; stroke-width: 0.8"/>
      </g>
     </g>
     <g id="text_18">
      <!-- 2024-10-04 -->
      <g style="fill: #333333" transform="translate(852.697585 580.7575) scale(0.16 -0.16)">
       <use xlink:href="#DejaVuSans-32"/>
       <use xlink:href="#DejaVuSans-30" x="63.623047"/>
       <use xlink:href="#DejaVuSans-32" x="127.246094"/>
       <use xlink:href="#DejaVuSans-34" x="190.869141"/>
       <use xlink:href="#DejaVuSans-2d" x="254.492188"/>
       <use xlink:href="#DejaVuSans-31" x="290.576172"/>
       <use xlink:href="#DejaVuSans-30" x="354.199219"/>
       <use xlink:href="#DejaVuSans-2d" x="417.822266"/>
       <use xlink:href="#DejaVuSans-30" x="453.90625"/>
       <use xlink:href="#DejaVuSans-34" x="517.529297"/>
      </g>
     </g>
    </g>
    <g id="xtick_4">
     <g id="line2d_7">
      <path d="M 1076.074985 561.6 
L 1076.074985 7.2 
" clip-path="url(#p3570f64d15)" style="fill: none; stroke: #333333; stroke-opacity: 0.4; stroke-width: 1.5; stroke-linecap: square"/>
     </g>
     <g id="line2d_8">
      <g>
       <use xlink:href="#m367b248db8" x="1076.074985" y="561.6" style="fill: #333333; stroke: #333333; stroke-width: 0.8"/>
      </g>
     </g>
     <g id="text_19">
      <!-- 2025-01-12 -->
      <g style="fill: #333333" transform="translate(1029.582485 580.7575) scale(0.16 -0.16)">
       <use xlink:href="#DejaVuSans-32"/>
       <use xlink:href="#DejaVuSans-30" x="63.623047"/>
       <use xlink:href="#DejaVuSans-32" x="127.246094"/>
       <use xlink:href="#DejaVuSans-35" x="190.869141"/>
       <use xlink:href="#DejaVuSans-2d" x="254.492188"/>
       <use xlink:href="#DejaVuSans-30" x="290.576172"/>
       <use xlink:href="#DejaVuSans-31" x="354.199219"/>
       <use xlink:href="#DejaVuSans-2d" x="417.822266"/>
       <use xlink:href="#DejaVuSans-31" x="453.90625"/>
       <use xlink:href="#DejaVuSans-32" x="517.529297"/>
      </g>
     </g>
    </g>
   </g>
   <g id="matplotlib.axis_2">
    <g id="ytick_1">
     <g id="line2d_9">
      <path d="M 372.338411 502.693934 
L 1222.624125 502.693934 
" clip-path="url(#p3570f64d15)" style="fill: none; stroke: #333333; stroke-opacity: 0.4; stroke-width: 1.5; stroke-linecap: square"/>
     </g>
     <g id="line2d_10">
      <defs>
       <path id="me711e1ff7d" d="M 0 0 
L -3.5 0 
" style="stroke: #d9534f; stroke-width: 0.8"/>
      </defs>
      <g>
       <use xlink:href="#me711e1ff7d" x="372.338411" y="502.693934" style="fill: #d9534f; stroke: #d9534f; stroke-width: 0.8"/>
      </g>
     </g>
     <g id="text_20">
      <!-- 1.000 -->
      <g style="fill: #d9534f" transform="translate(319.533411 508.772684) scale(0.16 -0.16)">
       <use xlink:href="#DejaVuSans-31"/>
       <use xlink:href="#DejaVuSans-2e" x="63.623047"/>
       <use xlink:href="#DejaVuSans-30" x="95.410156"/>
       <use xlink:href="#DejaVuSans-30" x="159.033203"/>
       <use xlink:href="#DejaVuSans-30" x="222.65625"/>
      </g>
     </g>
    </g>
    <g id="ytick_2">
     <g id="line2d_11">
      <path d="M 372.338411 430.262514 
L 1222.624125 430.262514 
" clip-path="url(#p3570f64d15)" style="fill: none; stroke: #333333; stroke-opacity: 0.4; stroke-width: 1.5; stroke-linecap: square"/>
     </g>
     <g id="line2d_12">
      <g>
       <use xlink:href="#me711e1ff7d" x="372.338411" y="430.262514" style="fill: #d9534f; stroke: #d9534f; stroke-width: 0.8"/>
      </g>
     </g>
     <g id="text_21">
      <!-- 1.025 -->
      <g style="fill: #d9534f" transform="translate(319.533411 436.341264) scale(0.16 -0.16)">
       <use xlink:href="#DejaVuSans-31"/>
       <use xlink:href="#DejaVuSans-2e" x="63.623047"/>
       <use xlink:href="#DejaVuSans-30" x="95.410156"/>
       <use xlink:href="#DejaVuSans-32" x="159.033203"/>
       <use xlink:href="#DejaVuSans-35" x="222.65625"/>
      </g>
     </g>
    </g>
    <g id="ytick_3">
     <g id="line2d_13">
      <path d="M 372.338411 357.831094 
L 1222.624125 357.831094 
" clip-path="url(#p3570f64d15)" style="fill: none; stroke: #333333; stroke-opacity: 0.4; stroke-width: 1.5; stroke-linecap: square"/>
     </g>
     <g id="line2d_14">
      <g>
       <use xlink:href="#me711e1ff7d" x="372.338411" y="357.831094" style="fill: #d9534f; stroke: #d9534f; stroke-width: 0.8"/>
      </g>
     </g>
     <g id="text_22">
      <!-- 1.050 -->
      <g style="fill: #d9534f" transform="translate(319.533411 363.909844) scale(0.16 -0.16)">
       <use xlink:href="#DejaVuSans-31"/>
       <use xlink:href="#DejaVuSans-2e" x="63.623047"/>
       <use xlink:href="#DejaVuSans-30" x="95.410156"/>
       <use xlink:href="#DejaVuSans-35" x="159.033203"/>
       <use xlink:href="#DejaVuSans-30" x="222.65625"/>
      </g>
     </g>
    </g>
    <g id="ytick_4">
     <g id="line2d_15">
      <path d="M 372.338411 285.399673 
L 1222.624125 285.399673 
" clip-path="url(#p3570f64d15)" style="fill: none; stroke: #333333; stroke-opacity: 0.4; stroke-width: 1.5; stroke-linecap: square"/>
     </g>
     <g id="line2d_16">
      <g>
       <use xlink:href="#me711e1ff7d" x="372.338411" y="285.399673" style="fill: #d9534f; stroke: #d9534f; stroke-width: 0.8"/>
      </g>
     </g>
     <g id="text_23">
      <!-- 1.075 -->
      <g style="fill: #d9534f" transform="translate(319.533411 291.478423) scale(0.16 -0.16)">
       <use xlink:href="#DejaVuSans-31"/>
       <use xlink:href="#DejaVuSans-2e" x="63.623047"/>
       <use xlink:href="#DejaVuSans-30" x="95.410156"/>
       <use xlink:href="#DejaVuSans-37" x="159.033203"/>
       <use xlink:href="#DejaVuSans-35" x="222.65625"/>
      </g>
     </g>
    </g>
    <g id="ytick_5">
     <g id="line2d_17">
      <path d="M 372.338411 212.968253 
L 1222.624125 212.968253 
" clip-path="url(#p3570f64d15)" style="fill: none; stroke: #333333; stroke-opacity: 0.4; stroke-width: 1.5; stroke-linecap: square"/>
     </g>
     <g id="line2d_18">
      <g>
       <use xlink:href="#me711e1ff7d" x="372.338411" y="212.968253" style="fill: #d9534f; stroke: #d9534f; stroke-width: 0.8"/>
      </g>
     </g>
     <g id="text_24">
      <!-- 1.100 -->
      <g style="fill: #d9534f" transform="translate(319.533411 219.047003) scale(0.16 -0.16)">
       <use xlink:href="#DejaVuSans-31"/>
       <use xlink:href="#DejaVuSans-2e" x="63.623047"/>
       <use xlink:href="#DejaVuSans-31" x="95.410156"/>
       <use xlink:href="#DejaVuSans-30" x="159.033203"/>
       <use xlink:href="#DejaVuSans-30" x="222.65625"/>
      </g>
     </g>
    </g>
    <g id="ytick_6">
     <g id="line2d_19">
      <path d="M 372.338411 140.536833 
L 1222.624125 140.536833 
" clip-path="url(#p3570f64d15)" style="fill: none; stroke: #333333; stroke-opacity: 0.4; stroke-width: 1.5; stroke-linecap: square"/>
     </g>
     <g id="line2d_20">
      <g>
       <use xlink:href="#me711e1ff7d" x="372.338411" y="140.536833" style="fill: #d9534f; stroke: #d9534f; stroke-width: 0.8"/>
      </g>
     </g>
     <g id="text_25">
      <!-- 1.125 -->
      <g style="fill: #d9534f" transform="translate(319.533411 146.615583) scale(0.16 -0.16)">
       <use xlink:href="#DejaVuSans-31"/>
       <use xlink:href="#DejaVuSans-2e" x="63.623047"/>
       <use xlink:href="#DejaVuSans-31" x="95.410156"/>
       <use xlink:href="#DejaVuSans-32" x="159.033203"/>
       <use xlink:href="#DejaVuSans-35" x="222.65625"/>
      </g>
     </g>
    </g>
    <g id="ytick_7">
     <g id="line2d_21">
      <path d="M 372.338411 68.105412 
L 1222.624125 68.105412 
" clip-path="url(#p3570f64d15)" style="fill: none; stroke: #333333; stroke-opacity: 0.4; stroke-width: 1.5; stroke-linecap: square"/>
     </g>
     <g id="line2d_22">
      <g>
       <use xlink:href="#me711e1ff7d" x="372.338411" y="68.105412" style="fill: #d9534f; stroke: #d9534f; stroke-width: 0.8"/>
      </g>
     </g>
     <g id="text_26">
      <!-- 1.150 -->
      <g style="fill: #d9534f" transform="translate(319.533411 74.184162) scale(0.16 -0.16)">
       <use xlink:href="#DejaVuSans-31"/>
       <use xlink:href="#DejaVuSans-2e" x="63.623047"/>
       <use xlink:href="#DejaVuSans-31" x="95.410156"/>
       <use xlink:href="#DejaVuSans-35" x="159.033203"/>
       <use xlink:href="#DejaVuSans-30" x="222.65625"/>
      </g>
     </g>
    </g>
    <g id="text_27">
     <!-- Cumulative Return -->
     <g style="fill: #d9534f" transform="translate(312.205911 359.14875) rotate(-90) scale(0.16 -0.16)">
      <defs>
       <path id="DejaVuSans-76" d="M 191 3500 
L 800 3500 
L 1894 563 
L 2988 3500 
L 3597 3500 
L 2284 0 
L 1503 0 
L 191 3500 
z
" transform="scale(0.015625)"/>
       <path id="DejaVuSans-20" transform="scale(0.015625)"/>
       <path id="DejaVuSans-72" d="M 2631 2963 
Q 2534 3019 2420 3045 
Q 2306 3072 2169 3072 
Q 1681 3072 1420 2755 
Q 1159 2438 1159 1844 
L 1159 0 
L 581 0 
L 581 3500 
L 1159 3500 
L 1159 2956 
Q 1341 3275 1631 3429 
Q 1922 3584 2338 3584 
Q 2397 3584 2469 3576 
Q 2541 3569 2628 3553 
L 2631 2963 
z
" transform="scale(0.015625)"/>
      </defs>
      <use xlink:href="#DejaVuSans-43"/>
      <use xlink:href="#DejaVuSans-75" x="69.824219"/>
      <use xlink:href="#DejaVuSans-6d" x="133.203125"/>
      <use xlink:href="#DejaVuSans-75" x="230.615234"/>
      <use xlink:href="#DejaVuSans-6c" x="293.994141"/>
      <use xlink:href="#DejaVuSans-61" x="321.777344"/>
      <use xlink:href="#DejaVuSans-74" x="383.056641"/>
      <use xlink:href="#DejaVuSans-69" x="422.265625"/>
      <use xlink:href="#DejaVuSans-76" x="450.048828"/>
      <use xlink:href="#DejaVuSans-65" x="509.228516"/>
      <use xlink:href="#DejaVuSans-20" x="570.751953"/>
      <use xlink:href="#DejaVuSans-52" x="602.539062"/>
      <use xlink:href="#DejaVuSans-65" x="667.521484"/>
      <use xlink:href="#DejaVuSans-74" x="729.044922"/>
      <use xlink:href="#DejaVuSans-75" x="768.253906"/>
      <use xlink:href="#DejaVuSans-72" x="831.632812"/>
      <use xlink:href="#DejaVuSans-6e" x="870.996094"/>
     </g>
    </g>
   </g>
   <g id="line2d_23">
    <path d="M 410.987761 502.693934 
L 471.128627 502.693934 
L 474.666325 501.870434 
L 476.435174 501.090002 
L 495.892513 496.086353 
L 497.661362 496.540522 
L 499.430211 489.387432 
L 501.19906 477.580458 
L 502.967909 471.686757 
L 508.274456 479.153072 
L 510.043305 458.226261 
L 511.812154 482.273485 
L 513.581003 454.479393 
L 515.349852 444.014054 
L 520.656399 441.452178 
L 522.425248 447.648669 
L 524.194097 447.976228 
L 525.962946 464.751623 
L 527.731795 449.625837 
L 533.038342 429.093159 
L 534.807191 419.25163 
L 536.57604 424.04776 
L 538.344889 431.461873 
L 540.113738 427.085969 
L 545.420285 407.830957 
L 547.189134 423.704535 
L 548.957983 419.566167 
L 550.726832 416.503146 
L 552.495681 438.336978 
L 557.802228 454.752159 
L 559.571077 452.384756 
L 561.339926 478.204286 
L 563.108775 464.570194 
L 564.877624 456.52705 
L 570.184171 431.45795 
L 571.95302 438.231272 
L 573.721869 448.89631 
L 582.566114 462.211941 
L 584.334963 457.695093 
L 586.103812 464.86516 
L 587.872661 464.537592 
L 589.64151 471.026397 
L 594.948057 460.062498 
L 596.716906 481.037591 
L 598.485755 473.768341 
L 600.254604 471.644992 
L 602.023453 479.60332 
L 607.33 481.780175 
L 609.098849 483.741698 
L 610.867698 473.853179 
L 612.636547 474.232955 
L 614.405396 458.227565 
L 619.711943 439.827389 
L 621.480792 450.091782 
L 632.093886 417.526341 
L 633.862735 419.786721 
L 635.631584 437.414312 
L 637.400433 416.912961 
L 639.169282 415.118485 
L 644.475829 417.217037 
L 646.244678 415.504771 
L 648.013527 427.384834 
L 649.782376 418.715262 
L 651.551225 402.563701 
L 656.857772 394.134258 
L 658.626621 409.955621 
L 660.39547 405.928184 
L 663.933168 449.255214 
L 669.239715 433.01883 
L 671.008564 441.179442 
L 672.777413 443.865273 
L 674.546262 452.388676 
L 676.315111 453.867329 
L 681.621658 451.154096 
L 683.390507 442.981749 
L 685.159356 447.130569 
L 686.928205 446.483247 
L 688.697054 452.9055 
L 695.77245 455.492139 
L 697.541299 454.664748 
L 699.310148 453.012517 
L 701.078997 452.241222 
L 706.385544 451.113643 
L 708.154393 447.683917 
L 709.923242 445.375241 
L 711.692091 447.97755 
L 713.46094 452.388688 
L 718.767487 465.297134 
L 720.536336 470.152002 
L 722.305185 463.325177 
L 724.074034 469.948413 
L 725.842883 466.322927 
L 731.14943 464.032523 
L 732.918279 466.385569 
L 734.687128 461.933973 
L 736.455977 461.156154 
L 738.224826 463.441332 
L 743.531373 465.233196 
L 745.300222 460.05337 
L 747.069071 462.694835 
L 748.83792 455.347286 
L 750.606769 454.656902 
L 755.913316 456.204728 
L 757.682165 451.520827 
L 759.451014 453.109098 
L 761.219863 451.897977 
L 762.988712 456.550557 
L 768.295259 457.424953 
L 770.064108 482.426194 
L 771.832957 493.465784 
L 773.601806 501.490664 
L 775.370655 498.808744 
L 780.677202 496.900729 
L 782.446051 498.727829 
L 784.2149 491.552551 
L 785.983749 490.409306 
L 787.752598 502.744839 
L 793.059145 519.991348 
L 794.827994 516.816111 
L 796.596843 517.567833 
L 798.365692 518.440925 
L 800.134541 519.85562 
L 805.441088 521.500009 
L 807.209937 520.213209 
L 808.978786 523.747339 
L 810.747635 522.482726 
L 812.516484 518.549242 
L 819.59188 519.811245 
L 821.360729 520.780915 
L 823.129578 520.923166 
L 824.898427 521.755801 
L 830.204974 520.683031 
L 831.973823 522.452708 
L 833.742672 523.165278 
L 835.511521 526.891259 
L 837.28037 524.703955 
L 842.586917 530.640722 
L 844.355766 528.838418 
L 846.124615 535.648277 
L 847.893464 533.292625 
L 849.662313 534.460665 
L 854.96886 536.4 
L 856.737709 536.307338 
L 858.506558 535.298519 
L 860.275407 535.934086 
L 862.044256 535.058382 
L 870.888501 534.73864 
L 872.65735 531.928824 
L 874.426199 530.874329 
L 879.732746 529.611019 
L 881.501595 514.142021 
L 883.270444 501.477619 
L 885.039293 438.65281 
L 886.808142 343.172548 
L 892.114689 171.194269 
L 906.265481 32.4 
L 908.03433 174.608317 
L 909.803179 180.6038 
L 911.572028 244.325192 
L 916.878575 205.74992 
L 918.647424 254.978482 
L 922.185122 274.704626 
L 923.953971 186.680237 
L 929.260518 179.598908 
L 931.029367 175.86771 
L 932.798216 170.425568 
L 934.567065 192.044054 
L 936.335914 168.775947 
L 941.642461 159.630009 
L 943.41131 177.318935 
L 945.180159 192.041452 
L 946.949008 184.739582 
L 948.717857 204.581858 
L 954.024404 175.234748 
L 955.793253 115.65698 
L 957.562102 117.224365 
L 959.330951 58.16731 
L 961.0998 71.922757 
L 966.406347 43.02065 
L 968.175196 73.23694 
L 969.944045 67.90181 
L 971.712894 115.991082 
L 973.481743 157.861646 
L 978.78829 178.182913 
L 980.557139 149.804147 
L 982.325988 137.218055 
L 984.094837 136.068283 
L 985.863686 197.324375 
L 991.170233 204.686289 
L 992.939082 213.422426 
L 994.707931 171.831129 
L 996.47678 188.504696 
L 998.245629 162.460711 
L 1003.552176 141.978951 
L 1005.321025 140.334556 
L 1007.089874 152.337286 
L 1008.858723 149.841999 
L 1010.627572 125.691662 
L 1015.934119 132.04735 
L 1017.702968 112.574399 
L 1019.471817 113.200816 
L 1021.240666 90.764067 
L 1023.009515 131.123359 
L 1028.316062 151.661245 
L 1030.084911 156.114156 
L 1031.85376 144.05399 
L 1033.622609 144.469023 
L 1035.391458 141.006667 
L 1040.698005 151.393707 
L 1042.466854 129.908354 
L 1044.235703 131.980812 
L 1046.004552 123.888038 
L 1047.773401 126.423814 
L 1053.079948 126.825767 
L 1054.848797 165.036934 
L 1058.386495 208.367871 
L 1060.155344 226.048982 
L 1065.461891 224.758264 
L 1067.23074 219.745486 
L 1070.768438 224.553364 
L 1072.537287 232.310699 
L 1077.843834 237.818105 
L 1079.612683 224.398074 
L 1081.381532 226.941653 
L 1083.150381 226.217344 
L 1084.91923 222.409142 
L 1090.225777 217.573865 
L 1091.994626 212.418829 
L 1093.763475 219.133424 
L 1095.532324 224.036571 
L 1097.301173 210.125825 
L 1102.60772 221.847955 
L 1118.527361 208.922542 
L 1120.29621 182.2978 
L 1122.065059 164.372666 
L 1127.371606 150.379701 
L 1129.140455 161.780796 
L 1130.909304 141.946337 
L 1132.678153 148.544774 
L 1134.447002 130.895 
L 1139.753549 122.569949 
L 1141.522398 136.966187 
L 1143.291247 114.161373 
L 1145.060096 121.574174 
L 1146.828945 80.623667 
L 1152.135492 84.828621 
L 1153.904341 106.086912 
L 1155.67319 76.40308 
L 1157.442039 80.679801 
L 1159.210888 138.986428 
L 1164.517435 140.774379 
L 1166.286284 132.389303 
L 1168.055133 120.830285 
L 1169.823982 88.309235 
L 1171.592831 96.917474 
L 1176.899378 104.642191 
L 1178.668227 103.966176 
L 1180.437076 109.114675 
L 1182.205925 124.386612 
L 1183.974774 90.437807 
L 1183.974774 90.437807 
" clip-path="url(#p3570f64d15)" style="fill: none; stroke: #d9534f; stroke-width: 2; stroke-linecap: square"/>
    <defs>
     <path id="m6c8a34e07d" d="M 0 1.5 
C 0.397805 1.5 0.77937 1.341951 1.06066 1.06066 
C 1.341951 0.77937 1.5 0.397805 1.5 0 
C 1.5 -0.397805 1.341951 -0.77937 1.06066 -1.06066 
C 0.77937 -1.341951 0.397805 -1.5 0 -1.5 
C -0.397805 -1.5 -0.77937 -1.341951 -1.06066 -1.06066 
C -1.341951 -0.77937 -1.5 -0.397805 -1.5 0 
C -1.5 0.397805 -1.341951 0.77937 -1.06066 1.06066 
C -0.77937 1.341951 -0.397805 1.5 0 1.5 
z
" style="stroke: #d9534f; stroke-width: 2"/>
    </defs>
    <g clip-path="url(#p3570f64d15)">
     <use xlink:href="#m6c8a34e07d" x="410.987761" y="502.693934" style="fill: #333333; stroke: #d9534f; stroke-width: 2"/>
     <use xlink:href="#m6c8a34e07d" x="412.75661" y="502.693934" style="fill: #333333; stroke: #d9534f; stroke-width: 2"/>
     <use xlink:href="#m6c8a34e07d" x="414.525459" y="502.693934" style="fill: #333333; stroke: #d9534f; stroke-width: 2"/>
     <use xlink:href="#m6c8a34e07d" x="416.294308" y="502.693934" style="fill: #333333; stroke: #d9534f; stroke-width: 2"/>
     <use xlink:href="#m6c8a34e07d" x="421.600855" y="502.693934" style="fill: #333333; stroke: #d9534f; stroke-width: 2"/>
     <use xlink:href="#m6c8a34e07d" x="423.369704" y="502.693934" style="fill: #333333; stroke: #d9534f; stroke-width: 2"/>
     <use xlink:href="#m6c8a34e07d" x="425.138553" y="502.693934" style="fill: #333333; stroke: #d9534f; stroke-width: 2"/>
     <use xlink:href="#m6c8a34e07d" x="426.907402" y="502.693934" style="fill: #333333; stroke: #d9534f; stroke-width: 2"/>
     <use xlink:href="#m6c8a34e07d" x="428.676251" y="502.693934" style="fill: #333333; stroke: #d9534f; stroke-width: 2"/>
     <use xlink:href="#m6c8a34e07d" x="433.982798" y="502.693934" style="fill: #333333; stroke: #d9534f; stroke-width: 2"/>
     <use xlink:href="#m6c8a34e07d" x="435.751647" y="502.693934" style="fill: #333333; stroke: #d9534f; stroke-width: 2"/>
     <use xlink:href="#m6c8a34e07d" x="437.520496" y="502.693934" style="fill: #333333; stroke: #d9534f; stroke-width: 2"/>
     <use xlink:href="#m6c8a34e07d" x="439.289345" y="502.693934" style="fill: #333333; stroke: #d9534f; stroke-width: 2"/>
     <use xlink:href="#m6c8a34e07d" x="441.058194" y="502.693934" style="fill: #333333; stroke: #d9534f; stroke-width: 2"/>
     <use xlink:href="#m6c8a34e07d" x="446.364741" y="502.693934" style="fill: #333333; stroke: #d9534f; stroke-width: 2"/>
     <use xlink:href="#m6c8a34e07d" x="448.13359" y="502.693934" style="fill: #333333; stroke: #d9534f; stroke-width: 2"/>
     <use xlink:href="#m6c8a34e07d" x="449.902439" y="502.693934" style="fill: #333333; stroke: #d9534f; stroke-width: 2"/>
     <use xlink:href="#m6c8a34e07d" x="451.671288" y="502.693934" style="fill: #333333; stroke: #d9534f; stroke-width: 2"/>
     <use xlink:href="#m6c8a34e07d" x="453.440137" y="502.693934" style="fill: #333333; stroke: #d9534f; stroke-width: 2"/>
     <use xlink:href="#m6c8a34e07d" x="458.746684" y="502.693934" style="fill: #333333; stroke: #d9534f; stroke-width: 2"/>
     <use xlink:href="#m6c8a34e07d" x="460.515533" y="502.693934" style="fill: #333333; stroke: #d9534f; stroke-width: 2"/>
     <use xlink:href="#m6c8a34e07d" x="462.284382" y="502.693934" style="fill: #333333; stroke: #d9534f; stroke-width: 2"/>
     <use xlink:href="#m6c8a34e07d" x="464.053231" y="502.693934" style="fill: #333333; stroke: #d9534f; stroke-width: 2"/>
     <use xlink:href="#m6c8a34e07d" x="465.82208" y="502.693934" style="fill: #333333; stroke: #d9534f; stroke-width: 2"/>
     <use xlink:href="#m6c8a34e07d" x="471.128627" y="502.693934" style="fill: #333333; stroke: #d9534f; stroke-width: 2"/>
     <use xlink:href="#m6c8a34e07d" x="472.897476" y="502.337649" style="fill: #333333; stroke: #d9534f; stroke-width: 2"/>
     <use xlink:href="#m6c8a34e07d" x="474.666325" y="501.870434" style="fill: #333333; stroke: #d9534f; stroke-width: 2"/>
     <use xlink:href="#m6c8a34e07d" x="476.435174" y="501.090002" style="fill: #333333; stroke: #d9534f; stroke-width: 2"/>
     <use xlink:href="#m6c8a34e07d" x="495.892513" y="496.086353" style="fill: #333333; stroke: #d9534f; stroke-width: 2"/>
     <use xlink:href="#m6c8a34e07d" x="497.661362" y="496.540522" style="fill: #333333; stroke: #d9534f; stroke-width: 2"/>
     <use xlink:href="#m6c8a34e07d" x="499.430211" y="489.387432" style="fill: #333333; stroke: #d9534f; stroke-width: 2"/>
     <use xlink:href="#m6c8a34e07d" x="501.19906" y="477.580458" style="fill: #333333; stroke: #d9534f; stroke-width: 2"/>
     <use xlink:href="#m6c8a34e07d" x="502.967909" y="471.686757" style="fill: #333333; stroke: #d9534f; stroke-width: 2"/>
     <use xlink:href="#m6c8a34e07d" x="508.274456" y="479.153072" style="fill: #333333; stroke: #d9534f; stroke-width: 2"/>
     <use xlink:href="#m6c8a34e07d" x="510.043305" y="458.226261" style="fill: #333333; stroke: #d9534f; stroke-width: 2"/>
     <use xlink:href="#m6c8a34e07d" x="511.812154" y="482.273485" style="fill: #333333; stroke: #d9534f; stroke-width: 2"/>
     <use xlink:href="#m6c8a34e07d" x="513.581003" y="454.479393" style="fill: #333333; stroke: #d9534f; stroke-width: 2"/>
     <use xlink:href="#m6c8a34e07d" x="515.349852" y="444.014054" style="fill: #333333; stroke: #d9534f; stroke-width: 2"/>
     <use xlink:href="#m6c8a34e07d" x="520.656399" y="441.452178" style="fill: #333333; stroke: #d9534f; stroke-width: 2"/>
     <use xlink:href="#m6c8a34e07d" x="522.425248" y="447.648669" style="fill: #333333; stroke: #d9534f; stroke-width: 2"/>
     <use xlink:href="#m6c8a34e07d" x="524.194097" y="447.976228" style="fill: #333333; stroke: #d9534f; stroke-width: 2"/>
     <use xlink:href="#m6c8a34e07d" x="525.962946" y="464.751623" style="fill: #333333; stroke: #d9534f; stroke-width: 2"/>
     <use xlink:href="#m6c8a34e07d" x="527.731795" y="449.625837" style="fill: #333333; stroke: #d9534f; stroke-width: 2"/>
     <use xlink:href="#m6c8a34e07d" x="533.038342" y="429.093159" style="fill: #333333; stroke: #d9534f; stroke-width: 2"/>
     <use xlink:href="#m6c8a34e07d" x="534.807191" y="419.25163" style="fill: #333333; stroke: #d9534f; stroke-width: 2"/>
     <use xlink:href="#m6c8a34e07d" x="536.57604" y="424.04776" style="fill: #333333; stroke: #d9534f; stroke-width: 2"/>
     <use xlink:href="#m6c8a34e07d" x="538.344889" y="431.461873" style="fill: #333333; stroke: #d9534f; stroke-width: 2"/>
     <use xlink:href="#m6c8a34e07d" x="540.113738" y="427.085969" style="fill: #333333; stroke: #d9534f; stroke-width: 2"/>
     <use xlink:href="#m6c8a34e07d" x="545.420285" y="407.830957" style="fill: #333333; stroke: #d9534f; stroke-width: 2"/>
     <use xlink:href="#m6c8a34e07d" x="547.189134" y="423.704535" style="fill: #333333; stroke: #d9534f; stroke-width: 2"/>
     <use xlink:href="#m6c8a34e07d" x="548.957983" y="419.566167" style="fill: #333333; stroke: #d9534f; stroke-width: 2"/>
     <use xlink:href="#m6c8a34e07d" x="550.726832" y="416.503146" style="fill: #333333; stroke: #d9534f; stroke-width: 2"/>
     <use xlink:href="#m6c8a34e07d" x="552.495681" y="438.336978" style="fill: #333333; stroke: #d9534f; stroke-width: 2"/>
     <use xlink:href="#m6c8a34e07d" x="557.802228" y="454.752159" style="fill: #333333; stroke: #d9534f; stroke-width: 2"/>
     <use xlink:href="#m6c8a34e07d" x="559.571077" y="452.384756" style="fill: #333333; stroke: #d9534f; stroke-width: 2"/>
     <use xlink:href="#m6c8a34e07d" x="561.339926" y="478.204286" style="fill: #333333; stroke: #d9534f; stroke-width: 2"/>
     <use xlink:href="#m6c8a34e07d" x="563.108775" y="464.570194" style="fill: #333333; stroke: #d9534f; stroke-width: 2"/>
     <use xlink:href="#m6c8a34e07d" x="564.877624" y="456.52705" style="fill: #333333; stroke: #d9534f; stroke-width: 2"/>
     <use xlink:href="#m6c8a34e07d" x="570.184171" y="431.45795" style="fill: #333333; stroke: #d9534f; stroke-width: 2"/>
     <use xlink:href="#m6c8a34e07d" x="571.95302" y="438.231272" style="fill: #333333; stroke: #d9534f; stroke-width: 2"/>
     <use xlink:href="#m6c8a34e07d" x="573.721869" y="448.89631" style="fill: #333333; stroke: #d9534f; stroke-width: 2"/>
     <use xlink:href="#m6c8a34e07d" x="582.566114" y="462.211941" style="fill: #333333; stroke: #d9534f; stroke-width: 2"/>
     <use xlink:href="#m6c8a34e07d" x="584.334963" y="457.695093" style="fill: #333333; stroke: #d9534f; stroke-width: 2"/>
     <use xlink:href="#m6c8a34e07d" x="586.103812" y="464.86516" style="fill: #333333; stroke: #d9534f; stroke-width: 2"/>
     <use xlink:href="#m6c8a34e07d" x="587.872661" y="464.537592" style="fill: #333333; stroke: #d9534f; stroke-width: 2"/>
     <use xlink:href="#m6c8a34e07d" x="589.64151" y="471.026397" style="fill: #333333; stroke: #d9534f; stroke-width: 2"/>
     <use xlink:href="#m6c8a34e07d" x="594.948057" y="460.062498" style="fill: #333333; stroke: #d9534f; stroke-width: 2"/>
     <use xlink:href="#m6c8a34e07d" x="596.716906" y="481.037591" style="fill: #333333; stroke: #d9534f; stroke-width: 2"/>
     <use xlink:href="#m6c8a34e07d" x="598.485755" y="473.768341" style="fill: #333333; stroke: #d9534f; stroke-width: 2"/>
     <use xlink:href="#m6c8a34e07d" x="600.254604" y="471.644992" style="fill: #333333; stroke: #d9534f; stroke-width: 2"/>
     <use xlink:href="#m6c8a34e07d" x="602.023453" y="479.60332" style="fill: #333333; stroke: #d9534f; stroke-width: 2"/>
     <use xlink:href="#m6c8a34e07d" x="607.33" y="481.780175" style="fill: #333333; stroke: #d9534f; stroke-width: 2"/>
     <use xlink:href="#m6c8a34e07d" x="609.098849" y="483.741698" style="fill: #333333; stroke: #d9534f; stroke-width: 2"/>
     <use xlink:href="#m6c8a34e07d" x="610.867698" y="473.853179" style="fill: #333333; stroke: #d9534f; stroke-width: 2"/>
     <use xlink:href="#m6c8a34e07d" x="612.636547" y="474.232955" style="fill: #333333; stroke: #d9534f; stroke-width: 2"/>
     <use xlink:href="#m6c8a34e07d" x="614.405396" y="458.227565" style="fill: #333333; stroke: #d9534f; stroke-width: 2"/>
     <use xlink:href="#m6c8a34e07d" x="619.711943" y="439.827389" style="fill: #333333; stroke: #d9534f; stroke-width: 2"/>
     <use xlink:href="#m6c8a34e07d" x="621.480792" y="450.091782" style="fill: #333333; stroke: #d9534f; stroke-width: 2"/>
     <use xlink:href="#m6c8a34e07d" x="632.093886" y="417.526341" style="fill: #333333; stroke: #d9534f; stroke-width: 2"/>
     <use xlink:href="#m6c8a34e07d" x="633.862735" y="419.786721" style="fill: #333333; stroke: #d9534f; stroke-width: 2"/>
     <use xlink:href="#m6c8a34e07d" x="635.631584" y="437.414312" style="fill: #333333; stroke: #d9534f; stroke-width: 2"/>
     <use xlink:href="#m6c8a34e07d" x="637.400433" y="416.912961" style="fill: #333333; stroke: #d9534f; stroke-width: 2"/>
     <use xlink:href="#m6c8a34e07d" x="639.169282" y="415.118485" style="fill: #333333; stroke: #d9534f; stroke-width: 2"/>
     <use xlink:href="#m6c8a34e07d" x="644.475829" y="417.217037" style="fill: #333333; stroke: #d9534f; stroke-width: 2"/>
     <use xlink:href="#m6c8a34e07d" x="646.244678" y="415.504771" style="fill: #333333; stroke: #d9534f; stroke-width: 2"/>
     <use xlink:href="#m6c8a34e07d" x="648.013527" y="427.384834" style="fill: #333333; stroke: #d9534f; stroke-width: 2"/>
     <use xlink:href="#m6c8a34e07d" x="649.782376" y="418.715262" style="fill: #333333; stroke: #d9534f; stroke-width: 2"/>
     <use xlink:href="#m6c8a34e07d" x="651.551225" y="402.563701" style="fill: #333333; stroke: #d9534f; stroke-width: 2"/>
     <use xlink:href="#m6c8a34e07d" x="656.857772" y="394.134258" style="fill: #333333; stroke: #d9534f; stroke-width: 2"/>
     <use xlink:href="#m6c8a34e07d" x="658.626621" y="409.955621" style="fill: #333333; stroke: #d9534f; stroke-width: 2"/>
     <use xlink:href="#m6c8a34e07d" x="660.39547" y="405.928184" style="fill: #333333; stroke: #d9534f; stroke-width: 2"/>
     <use xlink:href="#m6c8a34e07d" x="662.164319" y="427.036397" style="fill: #333333; stroke: #d9534f; stroke-width: 2"/>
     <use xlink:href="#m6c8a34e07d" x="663.933168" y="449.255214" style="fill: #333333; stroke: #d9534f; stroke-width: 2"/>
     <use xlink:href="#m6c8a34e07d" x="669.239715" y="433.01883" style="fill: #333333; stroke: #d9534f; stroke-width: 2"/>
     <use xlink:href="#m6c8a34e07d" x="671.008564" y="441.179442" style="fill: #333333; stroke: #d9534f; stroke-width: 2"/>
     <use xlink:href="#m6c8a34e07d" x="672.777413" y="443.865273" style="fill: #333333; stroke: #d9534f; stroke-width: 2"/>
     <use xlink:href="#m6c8a34e07d" x="674.546262" y="452.388676" style="fill: #333333; stroke: #d9534f; stroke-width: 2"/>
     <use xlink:href="#m6c8a34e07d" x="676.315111" y="453.867329" style="fill: #333333; stroke: #d9534f; stroke-width: 2"/>
     <use xlink:href="#m6c8a34e07d" x="681.621658" y="451.154096" style="fill: #333333; stroke: #d9534f; stroke-width: 2"/>
     <use xlink:href="#m6c8a34e07d" x="683.390507" y="442.981749" style="fill: #333333; stroke: #d9534f; stroke-width: 2"/>
     <use xlink:href="#m6c8a34e07d" x="685.159356" y="447.130569" style="fill: #333333; stroke: #d9534f; stroke-width: 2"/>
     <use xlink:href="#m6c8a34e07d" x="686.928205" y="446.483247" style="fill: #333333; stroke: #d9534f; stroke-width: 2"/>
     <use xlink:href="#m6c8a34e07d" x="688.697054" y="452.9055" style="fill: #333333; stroke: #d9534f; stroke-width: 2"/>
     <use xlink:href="#m6c8a34e07d" x="695.77245" y="455.492139" style="fill: #333333; stroke: #d9534f; stroke-width: 2"/>
     <use xlink:href="#m6c8a34e07d" x="697.541299" y="454.664748" style="fill: #333333; stroke: #d9534f; stroke-width: 2"/>
     <use xlink:href="#m6c8a34e07d" x="699.310148" y="453.012517" style="fill: #333333; stroke: #d9534f; stroke-width: 2"/>
     <use xlink:href="#m6c8a34e07d" x="701.078997" y="452.241222" style="fill: #333333; stroke: #d9534f; stroke-width: 2"/>
     <use xlink:href="#m6c8a34e07d" x="706.385544" y="451.113643" style="fill: #333333; stroke: #d9534f; stroke-width: 2"/>
     <use xlink:href="#m6c8a34e07d" x="708.154393" y="447.683917" style="fill: #333333; stroke: #d9534f; stroke-width: 2"/>
     <use xlink:href="#m6c8a34e07d" x="709.923242" y="445.375241" style="fill: #333333; stroke: #d9534f; stroke-width: 2"/>
     <use xlink:href="#m6c8a34e07d" x="711.692091" y="447.97755" style="fill: #333333; stroke: #d9534f; stroke-width: 2"/>
     <use xlink:href="#m6c8a34e07d" x="713.46094" y="452.388688" style="fill: #333333; stroke: #d9534f; stroke-width: 2"/>
     <use xlink:href="#m6c8a34e07d" x="718.767487" y="465.297134" style="fill: #333333; stroke: #d9534f; stroke-width: 2"/>
     <use xlink:href="#m6c8a34e07d" x="720.536336" y="470.152002" style="fill: #333333; stroke: #d9534f; stroke-width: 2"/>
     <use xlink:href="#m6c8a34e07d" x="722.305185" y="463.325177" style="fill: #333333; stroke: #d9534f; stroke-width: 2"/>
     <use xlink:href="#m6c8a34e07d" x="724.074034" y="469.948413" style="fill: #333333; stroke: #d9534f; stroke-width: 2"/>
     <use xlink:href="#m6c8a34e07d" x="725.842883" y="466.322927" style="fill: #333333; stroke: #d9534f; stroke-width: 2"/>
     <use xlink:href="#m6c8a34e07d" x="731.14943" y="464.032523" style="fill: #333333; stroke: #d9534f; stroke-width: 2"/>
     <use xlink:href="#m6c8a34e07d" x="732.918279" y="466.385569" style="fill: #333333; stroke: #d9534f; stroke-width: 2"/>
     <use xlink:href="#m6c8a34e07d" x="734.687128" y="461.933973" style="fill: #333333; stroke: #d9534f; stroke-width: 2"/>
     <use xlink:href="#m6c8a34e07d" x="736.455977" y="461.156154" style="fill: #333333; stroke: #d9534f; stroke-width: 2"/>
     <use xlink:href="#m6c8a34e07d" x="738.224826" y="463.441332" style="fill: #333333; stroke: #d9534f; stroke-width: 2"/>
     <use xlink:href="#m6c8a34e07d" x="743.531373" y="465.233196" style="fill: #333333; stroke: #d9534f; stroke-width: 2"/>
     <use xlink:href="#m6c8a34e07d" x="745.300222" y="460.05337" style="fill: #333333; stroke: #d9534f; stroke-width: 2"/>
     <use xlink:href="#m6c8a34e07d" x="747.069071" y="462.694835" style="fill: #333333; stroke: #d9534f; stroke-width: 2"/>
     <use xlink:href="#m6c8a34e07d" x="748.83792" y="455.347286" style="fill: #333333; stroke: #d9534f; stroke-width: 2"/>
     <use xlink:href="#m6c8a34e07d" x="750.606769" y="454.656902" style="fill: #333333; stroke: #d9534f; stroke-width: 2"/>
     <use xlink:href="#m6c8a34e07d" x="755.913316" y="456.204728" style="fill: #333333; stroke: #d9534f; stroke-width: 2"/>
     <use xlink:href="#m6c8a34e07d" x="757.682165" y="451.520827" style="fill: #333333; stroke: #d9534f; stroke-width: 2"/>
     <use xlink:href="#m6c8a34e07d" x="759.451014" y="453.109098" style="fill: #333333; stroke: #d9534f; stroke-width: 2"/>
     <use xlink:href="#m6c8a34e07d" x="761.219863" y="451.897977" style="fill: #333333; stroke: #d9534f; stroke-width: 2"/>
     <use xlink:href="#m6c8a34e07d" x="762.988712" y="456.550557" style="fill: #333333; stroke: #d9534f; stroke-width: 2"/>
     <use xlink:href="#m6c8a34e07d" x="768.295259" y="457.424953" style="fill: #333333; stroke: #d9534f; stroke-width: 2"/>
     <use xlink:href="#m6c8a34e07d" x="770.064108" y="482.426194" style="fill: #333333; stroke: #d9534f; stroke-width: 2"/>
     <use xlink:href="#m6c8a34e07d" x="771.832957" y="493.465784" style="fill: #333333; stroke: #d9534f; stroke-width: 2"/>
     <use xlink:href="#m6c8a34e07d" x="773.601806" y="501.490664" style="fill: #333333; stroke: #d9534f; stroke-width: 2"/>
     <use xlink:href="#m6c8a34e07d" x="775.370655" y="498.808744" style="fill: #333333; stroke: #d9534f; stroke-width: 2"/>
     <use xlink:href="#m6c8a34e07d" x="780.677202" y="496.900729" style="fill: #333333; stroke: #d9534f; stroke-width: 2"/>
     <use xlink:href="#m6c8a34e07d" x="782.446051" y="498.727829" style="fill: #333333; stroke: #d9534f; stroke-width: 2"/>
     <use xlink:href="#m6c8a34e07d" x="784.2149" y="491.552551" style="fill: #333333; stroke: #d9534f; stroke-width: 2"/>
     <use xlink:href="#m6c8a34e07d" x="785.983749" y="490.409306" style="fill: #333333; stroke: #d9534f; stroke-width: 2"/>
     <use xlink:href="#m6c8a34e07d" x="787.752598" y="502.744839" style="fill: #333333; stroke: #d9534f; stroke-width: 2"/>
     <use xlink:href="#m6c8a34e07d" x="793.059145" y="519.991348" style="fill: #333333; stroke: #d9534f; stroke-width: 2"/>
     <use xlink:href="#m6c8a34e07d" x="794.827994" y="516.816111" style="fill: #333333; stroke: #d9534f; stroke-width: 2"/>
     <use xlink:href="#m6c8a34e07d" x="796.596843" y="517.567833" style="fill: #333333; stroke: #d9534f; stroke-width: 2"/>
     <use xlink:href="#m6c8a34e07d" x="798.365692" y="518.440925" style="fill: #333333; stroke: #d9534f; stroke-width: 2"/>
     <use xlink:href="#m6c8a34e07d" x="800.134541" y="519.85562" style="fill: #333333; stroke: #d9534f; stroke-width: 2"/>
     <use xlink:href="#m6c8a34e07d" x="805.441088" y="521.500009" style="fill: #333333; stroke: #d9534f; stroke-width: 2"/>
     <use xlink:href="#m6c8a34e07d" x="807.209937" y="520.213209" style="fill: #333333; stroke: #d9534f; stroke-width: 2"/>
     <use xlink:href="#m6c8a34e07d" x="808.978786" y="523.747339" style="fill: #333333; stroke: #d9534f; stroke-width: 2"/>
     <use xlink:href="#m6c8a34e07d" x="810.747635" y="522.482726" style="fill: #333333; stroke: #d9534f; stroke-width: 2"/>
     <use xlink:href="#m6c8a34e07d" x="812.516484" y="518.549242" style="fill: #333333; stroke: #d9534f; stroke-width: 2"/>
     <use xlink:href="#m6c8a34e07d" x="817.823031" y="519.434079" style="fill: #333333; stroke: #d9534f; stroke-width: 2"/>
     <use xlink:href="#m6c8a34e07d" x="819.59188" y="519.811245" style="fill: #333333; stroke: #d9534f; stroke-width: 2"/>
     <use xlink:href="#m6c8a34e07d" x="821.360729" y="520.780915" style="fill: #333333; stroke: #d9534f; stroke-width: 2"/>
     <use xlink:href="#m6c8a34e07d" x="823.129578" y="520.923166" style="fill: #333333; stroke: #d9534f; stroke-width: 2"/>
     <use xlink:href="#m6c8a34e07d" x="824.898427" y="521.755801" style="fill: #333333; stroke: #d9534f; stroke-width: 2"/>
     <use xlink:href="#m6c8a34e07d" x="830.204974" y="520.683031" style="fill: #333333; stroke: #d9534f; stroke-width: 2"/>
     <use xlink:href="#m6c8a34e07d" x="831.973823" y="522.452708" style="fill: #333333; stroke: #d9534f; stroke-width: 2"/>
     <use xlink:href="#m6c8a34e07d" x="833.742672" y="523.165278" style="fill: #333333; stroke: #d9534f; stroke-width: 2"/>
     <use xlink:href="#m6c8a34e07d" x="835.511521" y="526.891259" style="fill: #333333; stroke: #d9534f; stroke-width: 2"/>
     <use xlink:href="#m6c8a34e07d" x="837.28037" y="524.703955" style="fill: #333333; stroke: #d9534f; stroke-width: 2"/>
     <use xlink:href="#m6c8a34e07d" x="842.586917" y="530.640722" style="fill: #333333; stroke: #d9534f; stroke-width: 2"/>
     <use xlink:href="#m6c8a34e07d" x="844.355766" y="528.838418" style="fill: #333333; stroke: #d9534f; stroke-width: 2"/>
     <use xlink:href="#m6c8a34e07d" x="846.124615" y="535.648277" style="fill: #333333; stroke: #d9534f; stroke-width: 2"/>
     <use xlink:href="#m6c8a34e07d" x="847.893464" y="533.292625" style="fill: #333333; stroke: #d9534f; stroke-width: 2"/>
     <use xlink:href="#m6c8a34e07d" x="849.662313" y="534.460665" style="fill: #333333; stroke: #d9534f; stroke-width: 2"/>
     <use xlink:href="#m6c8a34e07d" x="854.96886" y="536.4" style="fill: #333333; stroke: #d9534f; stroke-width: 2"/>
     <use xlink:href="#m6c8a34e07d" x="856.737709" y="536.307338" style="fill: #333333; stroke: #d9534f; stroke-width: 2"/>
     <use xlink:href="#m6c8a34e07d" x="858.506558" y="535.298519" style="fill: #333333; stroke: #d9534f; stroke-width: 2"/>
     <use xlink:href="#m6c8a34e07d" x="860.275407" y="535.934086" style="fill: #333333; stroke: #d9534f; stroke-width: 2"/>
     <use xlink:href="#m6c8a34e07d" x="862.044256" y="535.058382" style="fill: #333333; stroke: #d9534f; stroke-width: 2"/>
     <use xlink:href="#m6c8a34e07d" x="870.888501" y="534.73864" style="fill: #333333; stroke: #d9534f; stroke-width: 2"/>
     <use xlink:href="#m6c8a34e07d" x="872.65735" y="531.928824" style="fill: #333333; stroke: #d9534f; stroke-width: 2"/>
     <use xlink:href="#m6c8a34e07d" x="874.426199" y="530.874329" style="fill: #333333; stroke: #d9534f; stroke-width: 2"/>
     <use xlink:href="#m6c8a34e07d" x="879.732746" y="529.611019" style="fill: #333333; stroke: #d9534f; stroke-width: 2"/>
     <use xlink:href="#m6c8a34e07d" x="881.501595" y="514.142021" style="fill: #333333; stroke: #d9534f; stroke-width: 2"/>
     <use xlink:href="#m6c8a34e07d" x="883.270444" y="501.477619" style="fill: #333333; stroke: #d9534f; stroke-width: 2"/>
     <use xlink:href="#m6c8a34e07d" x="885.039293" y="438.65281" style="fill: #333333; stroke: #d9534f; stroke-width: 2"/>
     <use xlink:href="#m6c8a34e07d" x="886.808142" y="343.172548" style="fill: #333333; stroke: #d9534f; stroke-width: 2"/>
     <use xlink:href="#m6c8a34e07d" x="892.114689" y="171.194269" style="fill: #333333; stroke: #d9534f; stroke-width: 2"/>
     <use xlink:href="#m6c8a34e07d" x="906.265481" y="32.4" style="fill: #333333; stroke: #d9534f; stroke-width: 2"/>
     <use xlink:href="#m6c8a34e07d" x="908.03433" y="174.608317" style="fill: #333333; stroke: #d9534f; stroke-width: 2"/>
     <use xlink:href="#m6c8a34e07d" x="909.803179" y="180.6038" style="fill: #333333; stroke: #d9534f; stroke-width: 2"/>
     <use xlink:href="#m6c8a34e07d" x="911.572028" y="244.325192" style="fill: #333333; stroke: #d9534f; stroke-width: 2"/>
     <use xlink:href="#m6c8a34e07d" x="916.878575" y="205.74992" style="fill: #333333; stroke: #d9534f; stroke-width: 2"/>
     <use xlink:href="#m6c8a34e07d" x="918.647424" y="254.978482" style="fill: #333333; stroke: #d9534f; stroke-width: 2"/>
     <use xlink:href="#m6c8a34e07d" x="920.416273" y="264.944001" style="fill: #333333; stroke: #d9534f; stroke-width: 2"/>
     <use xlink:href="#m6c8a34e07d" x="922.185122" y="274.704626" style="fill: #333333; stroke: #d9534f; stroke-width: 2"/>
     <use xlink:href="#m6c8a34e07d" x="923.953971" y="186.680237" style="fill: #333333; stroke: #d9534f; stroke-width: 2"/>
     <use xlink:href="#m6c8a34e07d" x="929.260518" y="179.598908" style="fill: #333333; stroke: #d9534f; stroke-width: 2"/>
     <use xlink:href="#m6c8a34e07d" x="931.029367" y="175.86771" style="fill: #333333; stroke: #d9534f; stroke-width: 2"/>
     <use xlink:href="#m6c8a34e07d" x="932.798216" y="170.425568" style="fill: #333333; stroke: #d9534f; stroke-width: 2"/>
     <use xlink:href="#m6c8a34e07d" x="934.567065" y="192.044054" style="fill: #333333; stroke: #d9534f; stroke-width: 2"/>
     <use xlink:href="#m6c8a34e07d" x="936.335914" y="168.775947" style="fill: #333333; stroke: #d9534f; stroke-width: 2"/>
     <use xlink:href="#m6c8a34e07d" x="941.642461" y="159.630009" style="fill: #333333; stroke: #d9534f; stroke-width: 2"/>
     <use xlink:href="#m6c8a34e07d" x="943.41131" y="177.318935" style="fill: #333333; stroke: #d9534f; stroke-width: 2"/>
     <use xlink:href="#m6c8a34e07d" x="945.180159" y="192.041452" style="fill: #333333; stroke: #d9534f; stroke-width: 2"/>
     <use xlink:href="#m6c8a34e07d" x="946.949008" y="184.739582" style="fill: #333333; stroke: #d9534f; stroke-width: 2"/>
     <use xlink:href="#m6c8a34e07d" x="948.717857" y="204.581858" style="fill: #333333; stroke: #d9534f; stroke-width: 2"/>
     <use xlink:href="#m6c8a34e07d" x="954.024404" y="175.234748" style="fill: #333333; stroke: #d9534f; stroke-width: 2"/>
     <use xlink:href="#m6c8a34e07d" x="955.793253" y="115.65698" style="fill: #333333; stroke: #d9534f; stroke-width: 2"/>
     <use xlink:href="#m6c8a34e07d" x="957.562102" y="117.224365" style="fill: #333333; stroke: #d9534f; stroke-width: 2"/>
     <use xlink:href="#m6c8a34e07d" x="959.330951" y="58.16731" style="fill: #333333; stroke: #d9534f; stroke-width: 2"/>
     <use xlink:href="#m6c8a34e07d" x="961.0998" y="71.922757" style="fill: #333333; stroke: #d9534f; stroke-width: 2"/>
     <use xlink:href="#m6c8a34e07d" x="966.406347" y="43.02065" style="fill: #333333; stroke: #d9534f; stroke-width: 2"/>
     <use xlink:href="#m6c8a34e07d" x="968.175196" y="73.23694" style="fill: #333333; stroke: #d9534f; stroke-width: 2"/>
     <use xlink:href="#m6c8a34e07d" x="969.944045" y="67.90181" style="fill: #333333; stroke: #d9534f; stroke-width: 2"/>
     <use xlink:href="#m6c8a34e07d" x="971.712894" y="115.991082" style="fill: #333333; stroke: #d9534f; stroke-width: 2"/>
     <use xlink:href="#m6c8a34e07d" x="973.481743" y="157.861646" style="fill: #333333; stroke: #d9534f; stroke-width: 2"/>
     <use xlink:href="#m6c8a34e07d" x="978.78829" y="178.182913" style="fill: #333333; stroke: #d9534f; stroke-width: 2"/>
     <use xlink:href="#m6c8a34e07d" x="980.557139" y="149.804147" style="fill: #333333; stroke: #d9534f; stroke-width: 2"/>
     <use xlink:href="#m6c8a34e07d" x="982.325988" y="137.218055" style="fill: #333333; stroke: #d9534f; stroke-width: 2"/>
     <use xlink:href="#m6c8a34e07d" x="984.094837" y="136.068283" style="fill: #333333; stroke: #d9534f; stroke-width: 2"/>
     <use xlink:href="#m6c8a34e07d" x="985.863686" y="197.324375" style="fill: #333333; stroke: #d9534f; stroke-width: 2"/>
     <use xlink:href="#m6c8a34e07d" x="991.170233" y="204.686289" style="fill: #333333; stroke: #d9534f; stroke-width: 2"/>
     <use xlink:href="#m6c8a34e07d" x="992.939082" y="213.422426" style="fill: #333333; stroke: #d9534f; stroke-width: 2"/>
     <use xlink:href="#m6c8a34e07d" x="994.707931" y="171.831129" style="fill: #333333; stroke: #d9534f; stroke-width: 2"/>
     <use xlink:href="#m6c8a34e07d" x="996.47678" y="188.504696" style="fill: #333333; stroke: #d9534f; stroke-width: 2"/>
     <use xlink:href="#m6c8a34e07d" x="998.245629" y="162.460711" style="fill: #333333; stroke: #d9534f; stroke-width: 2"/>
     <use xlink:href="#m6c8a34e07d" x="1003.552176" y="141.978951" style="fill: #333333; stroke: #d9534f; stroke-width: 2"/>
     <use xlink:href="#m6c8a34e07d" x="1005.321025" y="140.334556" style="fill: #333333; stroke: #d9534f; stroke-width: 2"/>
     <use xlink:href="#m6c8a34e07d" x="1007.089874" y="152.337286" style="fill: #333333; stroke: #d9534f; stroke-width: 2"/>
     <use xlink:href="#m6c8a34e07d" x="1008.858723" y="149.841999" style="fill: #333333; stroke: #d9534f; stroke-width: 2"/>
     <use xlink:href="#m6c8a34e07d" x="1010.627572" y="125.691662" style="fill: #333333; stroke: #d9534f; stroke-width: 2"/>
     <use xlink:href="#m6c8a34e07d" x="1015.934119" y="132.04735" style="fill: #333333; stroke: #d9534f; stroke-width: 2"/>
     <use xlink:href="#m6c8a34e07d" x="1017.702968" y="112.574399" style="fill: #333333; stroke: #d9534f; stroke-width: 2"/>
     <use xlink:href="#m6c8a34e07d" x="1019.471817" y="113.200816" style="fill: #333333; stroke: #d9534f; stroke-width: 2"/>
     <use xlink:href="#m6c8a34e07d" x="1021.240666" y="90.764067" style="fill: #333333; stroke: #d9534f; stroke-width: 2"/>
     <use xlink:href="#m6c8a34e07d" x="1023.009515" y="131.123359" style="fill: #333333; stroke: #d9534f; stroke-width: 2"/>
     <use xlink:href="#m6c8a34e07d" x="1028.316062" y="151.661245" style="fill: #333333; stroke: #d9534f; stroke-width: 2"/>
     <use xlink:href="#m6c8a34e07d" x="1030.084911" y="156.114156" style="fill: #333333; stroke: #d9534f; stroke-width: 2"/>
     <use xlink:href="#m6c8a34e07d" x="1031.85376" y="144.05399" style="fill: #333333; stroke: #d9534f; stroke-width: 2"/>
     <use xlink:href="#m6c8a34e07d" x="1033.622609" y="144.469023" style="fill: #333333; stroke: #d9534f; stroke-width: 2"/>
     <use xlink:href="#m6c8a34e07d" x="1035.391458" y="141.006667" style="fill: #333333; stroke: #d9534f; stroke-width: 2"/>
     <use xlink:href="#m6c8a34e07d" x="1040.698005" y="151.393707" style="fill: #333333; stroke: #d9534f; stroke-width: 2"/>
     <use xlink:href="#m6c8a34e07d" x="1042.466854" y="129.908354" style="fill: #333333; stroke: #d9534f; stroke-width: 2"/>
     <use xlink:href="#m6c8a34e07d" x="1044.235703" y="131.980812" style="fill: #333333; stroke: #d9534f; stroke-width: 2"/>
     <use xlink:href="#m6c8a34e07d" x="1046.004552" y="123.888038" style="fill: #333333; stroke: #d9534f; stroke-width: 2"/>
     <use xlink:href="#m6c8a34e07d" x="1047.773401" y="126.423814" style="fill: #333333; stroke: #d9534f; stroke-width: 2"/>
     <use xlink:href="#m6c8a34e07d" x="1053.079948" y="126.825767" style="fill: #333333; stroke: #d9534f; stroke-width: 2"/>
     <use xlink:href="#m6c8a34e07d" x="1054.848797" y="165.036934" style="fill: #333333; stroke: #d9534f; stroke-width: 2"/>
     <use xlink:href="#m6c8a34e07d" x="1058.386495" y="208.367871" style="fill: #333333; stroke: #d9534f; stroke-width: 2"/>
     <use xlink:href="#m6c8a34e07d" x="1060.155344" y="226.048982" style="fill: #333333; stroke: #d9534f; stroke-width: 2"/>
     <use xlink:href="#m6c8a34e07d" x="1065.461891" y="224.758264" style="fill: #333333; stroke: #d9534f; stroke-width: 2"/>
     <use xlink:href="#m6c8a34e07d" x="1067.23074" y="219.745486" style="fill: #333333; stroke: #d9534f; stroke-width: 2"/>
     <use xlink:href="#m6c8a34e07d" x="1068.999589" y="222.240779" style="fill: #333333; stroke: #d9534f; stroke-width: 2"/>
     <use xlink:href="#m6c8a34e07d" x="1070.768438" y="224.553364" style="fill: #333333; stroke: #d9534f; stroke-width: 2"/>
     <use xlink:href="#m6c8a34e07d" x="1072.537287" y="232.310699" style="fill: #333333; stroke: #d9534f; stroke-width: 2"/>
     <use xlink:href="#m6c8a34e07d" x="1077.843834" y="237.818105" style="fill: #333333; stroke: #d9534f; stroke-width: 2"/>
     <use xlink:href="#m6c8a34e07d" x="1079.612683" y="224.398074" style="fill: #333333; stroke: #d9534f; stroke-width: 2"/>
     <use xlink:href="#m6c8a34e07d" x="1081.381532" y="226.941653" style="fill: #333333; stroke: #d9534f; stroke-width: 2"/>
     <use xlink:href="#m6c8a34e07d" x="1083.150381" y="226.217344" style="fill: #333333; stroke: #d9534f; stroke-width: 2"/>
     <use xlink:href="#m6c8a34e07d" x="1084.91923" y="222.409142" style="fill: #333333; stroke: #d9534f; stroke-width: 2"/>
     <use xlink:href="#m6c8a34e07d" x="1090.225777" y="217.573865" style="fill: #333333; stroke: #d9534f; stroke-width: 2"/>
     <use xlink:href="#m6c8a34e07d" x="1091.994626" y="212.418829" style="fill: #333333; stroke: #d9534f; stroke-width: 2"/>
     <use xlink:href="#m6c8a34e07d" x="1093.763475" y="219.133424" style="fill: #333333; stroke: #d9534f; stroke-width: 2"/>
     <use xlink:href="#m6c8a34e07d" x="1095.532324" y="224.036571" style="fill: #333333; stroke: #d9534f; stroke-width: 2"/>
     <use xlink:href="#m6c8a34e07d" x="1097.301173" y="210.125825" style="fill: #333333; stroke: #d9534f; stroke-width: 2"/>
     <use xlink:href="#m6c8a34e07d" x="1102.60772" y="221.847955" style="fill: #333333; stroke: #d9534f; stroke-width: 2"/>
     <use xlink:href="#m6c8a34e07d" x="1118.527361" y="208.922542" style="fill: #333333; stroke: #d9534f; stroke-width: 2"/>
     <use xlink:href="#m6c8a34e07d" x="1120.29621" y="182.2978" style="fill: #333333; stroke: #d9534f; stroke-width: 2"/>
     <use xlink:href="#m6c8a34e07d" x="1122.065059" y="164.372666" style="fill: #333333; stroke: #d9534f; stroke-width: 2"/>
     <use xlink:href="#m6c8a34e07d" x="1127.371606" y="150.379701" style="fill: #333333; stroke: #d9534f; stroke-width: 2"/>
     <use xlink:href="#m6c8a34e07d" x="1129.140455" y="161.780796" style="fill: #333333; stroke: #d9534f; stroke-width: 2"/>
     <use xlink:href="#m6c8a34e07d" x="1130.909304" y="141.946337" style="fill: #333333; stroke: #d9534f; stroke-width: 2"/>
     <use xlink:href="#m6c8a34e07d" x="1132.678153" y="148.544774" style="fill: #333333; stroke: #d9534f; stroke-width: 2"/>
     <use xlink:href="#m6c8a34e07d" x="1134.447002" y="130.895" style="fill: #333333; stroke: #d9534f; stroke-width: 2"/>
     <use xlink:href="#m6c8a34e07d" x="1139.753549" y="122.569949" style="fill: #333333; stroke: #d9534f; stroke-width: 2"/>
     <use xlink:href="#m6c8a34e07d" x="1141.522398" y="136.966187" style="fill: #333333; stroke: #d9534f; stroke-width: 2"/>
     <use xlink:href="#m6c8a34e07d" x="1143.291247" y="114.161373" style="fill: #333333; stroke: #d9534f; stroke-width: 2"/>
     <use xlink:href="#m6c8a34e07d" x="1145.060096" y="121.574174" style="fill: #333333; stroke: #d9534f; stroke-width: 2"/>
     <use xlink:href="#m6c8a34e07d" x="1146.828945" y="80.623667" style="fill: #333333; stroke: #d9534f; stroke-width: 2"/>
     <use xlink:href="#m6c8a34e07d" x="1152.135492" y="84.828621" style="fill: #333333; stroke: #d9534f; stroke-width: 2"/>
     <use xlink:href="#m6c8a34e07d" x="1153.904341" y="106.086912" style="fill: #333333; stroke: #d9534f; stroke-width: 2"/>
     <use xlink:href="#m6c8a34e07d" x="1155.67319" y="76.40308" style="fill: #333333; stroke: #d9534f; stroke-width: 2"/>
     <use xlink:href="#m6c8a34e07d" x="1157.442039" y="80.679801" style="fill: #333333; stroke: #d9534f; stroke-width: 2"/>
     <use xlink:href="#m6c8a34e07d" x="1159.210888" y="138.986428" style="fill: #333333; stroke: #d9534f; stroke-width: 2"/>
     <use xlink:href="#m6c8a34e07d" x="1164.517435" y="140.774379" style="fill: #333333; stroke: #d9534f; stroke-width: 2"/>
     <use xlink:href="#m6c8a34e07d" x="1166.286284" y="132.389303" style="fill: #333333; stroke: #d9534f; stroke-width: 2"/>
     <use xlink:href="#m6c8a34e07d" x="1168.055133" y="120.830285" style="fill: #333333; stroke: #d9534f; stroke-width: 2"/>
     <use xlink:href="#m6c8a34e07d" x="1169.823982" y="88.309235" style="fill: #333333; stroke: #d9534f; stroke-width: 2"/>
     <use xlink:href="#m6c8a34e07d" x="1171.592831" y="96.917474" style="fill: #333333; stroke: #d9534f; stroke-width: 2"/>
     <use xlink:href="#m6c8a34e07d" x="1176.899378" y="104.642191" style="fill: #333333; stroke: #d9534f; stroke-width: 2"/>
     <use xlink:href="#m6c8a34e07d" x="1178.668227" y="103.966176" style="fill: #333333; stroke: #d9534f; stroke-width: 2"/>
     <use xlink:href="#m6c8a34e07d" x="1180.437076" y="109.114675" style="fill: #333333; stroke: #d9534f; stroke-width: 2"/>
     <use xlink:href="#m6c8a34e07d" x="1182.205925" y="124.386612" style="fill: #333333; stroke: #d9534f; stroke-width: 2"/>
     <use xlink:href="#m6c8a34e07d" x="1183.974774" y="90.437807" style="fill: #333333; stroke: #d9534f; stroke-width: 2"/>
    </g>
   </g>
   <g id="legend_1">
    <g id="line2d_24">
     <path d="M 386.738411 28.1575 
L 402.738411 28.1575 
L 418.738411 28.1575 
" style="fill: none; stroke: #d9534f; stroke-width: 2; stroke-linecap: square"/>
     <g>
      <use xlink:href="#m6c8a34e07d" x="402.738411" y="28.1575" style="fill: #333333; stroke: #d9534f; stroke-width: 2"/>
     </g>
    </g>
    <g id="text_28">
     <!-- Cumulative Return -->
     <g style="fill: #333333" transform="translate(431.538411 33.7575) scale(0.16 -0.16)">
      <use xlink:href="#DejaVuSans-43"/>
      <use xlink:href="#DejaVuSans-75" x="69.824219"/>
      <use xlink:href="#DejaVuSans-6d" x="133.203125"/>
      <use xlink:href="#DejaVuSans-75" x="230.615234"/>
      <use xlink:href="#DejaVuSans-6c" x="293.994141"/>
      <use xlink:href="#DejaVuSans-61" x="321.777344"/>
      <use xlink:href="#DejaVuSans-74" x="383.056641"/>
      <use xlink:href="#DejaVuSans-69" x="422.265625"/>
      <use xlink:href="#DejaVuSans-76" x="450.048828"/>
      <use xlink:href="#DejaVuSans-65" x="509.228516"/>
      <use xlink:href="#DejaVuSans-20" x="570.751953"/>
      <use xlink:href="#DejaVuSans-52" x="602.539062"/>
      <use xlink:href="#DejaVuSans-65" x="667.521484"/>
      <use xlink:href="#DejaVuSans-74" x="729.044922"/>
      <use xlink:href="#DejaVuSans-75" x="768.253906"/>
      <use xlink:href="#DejaVuSans-72" x="831.632812"/>
      <use xlink:href="#DejaVuSans-6e" x="870.996094"/>
     </g>
    </g>
    <g id="line2d_25">
     <path d="M 386.738411 51.6425 
L 402.738411 51.6425 
L 418.738411 51.6425 
" style="fill: none; stroke: #228b22; stroke-width: 2; stroke-linecap: square"/>
    </g>
    <g id="text_29">
     <!-- Drawdown -->
     <g style="fill: #333333" transform="translate(431.538411 57.2425) scale(0.16 -0.16)">
      <defs>
       <path id="DejaVuSans-77" d="M 269 3500 
L 844 3500 
L 1563 769 
L 2278 3500 
L 2956 3500 
L 3675 769 
L 4391 3500 
L 4966 3500 
L 4050 0 
L 3372 0 
L 2619 2869 
L 1863 0 
L 1184 0 
L 269 3500 
z
" transform="scale(0.015625)"/>
       <path id="DejaVuSans-64" d="M 2906 2969 
L 2906 4863 
L 3481 4863 
L 3481 0 
L 2906 0 
L 2906 525 
Q 2725 213 2448 61 
Q 2172 -91 1784 -91 
Q 1150 -91 751 415 
Q 353 922 353 1747 
Q 353 2572 751 3078 
Q 1150 3584 1784 3584 
Q 2172 3584 2448 3432 
Q 2725 3281 2906 2969 
z
M 947 1747 
Q 947 1113 1208 752 
Q 1469 391 1925 391 
Q 2381 391 2643 752 
Q 2906 1113 2906 1747 
Q 2906 2381 2643 2742 
Q 2381 3103 1925 3103 
Q 1469 3103 1208 2742 
Q 947 2381 947 1747 
z
" transform="scale(0.015625)"/>
       <path id="DejaVuSans-6f" d="M 1959 3097 
Q 1497 3097 1228 2736 
Q 959 2375 959 1747 
Q 959 1119 1226 758 
Q 1494 397 1959 397 
Q 2419 397 2687 759 
Q 2956 1122 2956 1747 
Q 2956 2369 2687 2733 
Q 2419 3097 1959 3097 
z
M 1959 3584 
Q 2709 3584 3137 3096 
Q 3566 2609 3566 1747 
Q 3566 888 3137 398 
Q 2709 -91 1959 -91 
Q 1206 -91 779 398 
Q 353 888 353 1747 
Q 353 2609 779 3096 
Q 1206 3584 1959 3584 
z
" transform="scale(0.015625)"/>
      </defs>
      <use xlink:href="#DejaVuSans-44"/>
      <use xlink:href="#DejaVuSans-72" x="77.001953"/>
      <use xlink:href="#DejaVuSans-61" x="118.115234"/>
      <use xlink:href="#DejaVuSans-77" x="179.394531"/>
      <use xlink:href="#DejaVuSans-64" x="261.181641"/>
      <use xlink:href="#DejaVuSans-6f" x="324.658203"/>
      <use xlink:href="#DejaVuSans-77" x="385.839844"/>
      <use xlink:href="#DejaVuSans-6e" x="467.626953"/>
     </g>
    </g>
   </g>
  </g>
  <g id="axes_3">
   <g id="matplotlib.axis_3">
    <g id="ytick_8">
     <g id="line2d_26">
      <defs>
       <path id="mfefdddf0d3" d="M 0 0 
L 3.5 0 
" style="stroke: #228b22; stroke-width: 0.8"/>
      </defs>
      <g>
       <use xlink:href="#mfefdddf0d3" x="1222.624125" y="522.721594" style="fill: #228b22; stroke: #228b22; stroke-width: 0.8"/>
      </g>
     </g>
     <g id="text_30">
      <!-- -0.07 -->
      <g style="fill: #228b22" transform="translate(1229.624125 528.800344) scale(0.16 -0.16)">
       <use xlink:href="#DejaVuSans-2d"/>
       <use xlink:href="#DejaVuSans-30" x="36.083984"/>
       <use xlink:href="#DejaVuSans-2e" x="99.707031"/>
       <use xlink:href="#DejaVuSans-30" x="131.494141"/>
       <use xlink:href="#DejaVuSans-37" x="195.117188"/>
      </g>
     </g>
    </g>
    <g id="ytick_9">
     <g id="line2d_27">
      <g>
       <use xlink:href="#mfefdddf0d3" x="1222.624125" y="452.675652" style="fill: #228b22; stroke: #228b22; stroke-width: 0.8"/>
      </g>
     </g>
     <g id="text_31">
      <!-- -0.06 -->
      <g style="fill: #228b22" transform="translate(1229.624125 458.754402) scale(0.16 -0.16)">
       <use xlink:href="#DejaVuSans-2d"/>
       <use xlink:href="#DejaVuSans-30" x="36.083984"/>
       <use xlink:href="#DejaVuSans-2e" x="99.707031"/>
       <use xlink:href="#DejaVuSans-30" x="131.494141"/>
       <use xlink:href="#DejaVuSans-36" x="195.117188"/>
      </g>
     </g>
    </g>
    <g id="ytick_10">
     <g id="line2d_28">
      <g>
       <use xlink:href="#mfefdddf0d3" x="1222.624125" y="382.62971" style="fill: #228b22; stroke: #228b22; stroke-width: 0.8"/>
      </g>
     </g>
     <g id="text_32">
      <!-- -0.05 -->
      <g style="fill: #228b22" transform="translate(1229.624125 388.70846) scale(0.16 -0.16)">
       <use xlink:href="#DejaVuSans-2d"/>
       <use xlink:href="#DejaVuSans-30" x="36.083984"/>
       <use xlink:href="#DejaVuSans-2e" x="99.707031"/>
       <use xlink:href="#DejaVuSans-30" x="131.494141"/>
       <use xlink:href="#DejaVuSans-35" x="195.117188"/>
      </g>
     </g>
    </g>
    <g id="ytick_11">
     <g id="line2d_29">
      <g>
       <use xlink:href="#mfefdddf0d3" x="1222.624125" y="312.583768" style="fill: #228b22; stroke: #228b22; stroke-width: 0.8"/>
      </g>
     </g>
     <g id="text_33">
      <!-- -0.04 -->
      <g style="fill: #228b22" transform="translate(1229.624125 318.662518) scale(0.16 -0.16)">
       <use xlink:href="#DejaVuSans-2d"/>
       <use xlink:href="#DejaVuSans-30" x="36.083984"/>
       <use xlink:href="#DejaVuSans-2e" x="99.707031"/>
       <use xlink:href="#DejaVuSans-30" x="131.494141"/>
       <use xlink:href="#DejaVuSans-34" x="195.117188"/>
      </g>
     </g>
    </g>
    <g id="ytick_12">
     <g id="line2d_30">
      <g>
       <use xlink:href="#mfefdddf0d3" x="1222.624125" y="242.537826" style="fill: #228b22; stroke: #228b22; stroke-width: 0.8"/>
      </g>
     </g>
     <g id="text_34">
      <!-- -0.03 -->
      <g style="fill: #228b22" transform="translate(1229.624125 248.616576) scale(0.16 -0.16)">
       <use xlink:href="#DejaVuSans-2d"/>
       <use xlink:href="#DejaVuSans-30" x="36.083984"/>
       <use xlink:href="#DejaVuSans-2e" x="99.707031"/>
       <use xlink:href="#DejaVuSans-30" x="131.494141"/>
       <use xlink:href="#DejaVuSans-33" x="195.117188"/>
      </g>
     </g>
    </g>
    <g id="ytick_13">
     <g id="line2d_31">
      <g>
       <use xlink:href="#mfefdddf0d3" x="1222.624125" y="172.491884" style="fill: #228b22; stroke: #228b22; stroke-width: 0.8"/>
      </g>
     </g>
     <g id="text_35">
      <!-- -0.02 -->
      <g style="fill: #228b22" transform="translate(1229.624125 178.570634) scale(0.16 -0.16)">
       <use xlink:href="#DejaVuSans-2d"/>
       <use xlink:href="#DejaVuSans-30" x="36.083984"/>
       <use xlink:href="#DejaVuSans-2e" x="99.707031"/>
       <use xlink:href="#DejaVuSans-30" x="131.494141"/>
       <use xlink:href="#DejaVuSans-32" x="195.117188"/>
      </g>
     </g>
    </g>
    <g id="ytick_14">
     <g id="line2d_32">
      <g>
       <use xlink:href="#mfefdddf0d3" x="1222.624125" y="102.445942" style="fill: #228b22; stroke: #228b22; stroke-width: 0.8"/>
      </g>
     </g>
     <g id="text_36">
      <!-- -0.01 -->
      <g style="fill: #228b22" transform="translate(1229.624125 108.524692) scale(0.16 -0.16)">
       <use xlink:href="#DejaVuSans-2d"/>
       <use xlink:href="#DejaVuSans-30" x="36.083984"/>
       <use xlink:href="#DejaVuSans-2e" x="99.707031"/>
       <use xlink:href="#DejaVuSans-30" x="131.494141"/>
       <use xlink:href="#DejaVuSans-31" x="195.117188"/>
      </g>
     </g>
    </g>
    <g id="ytick_15">
     <g id="line2d_33">
      <g>
       <use xlink:href="#mfefdddf0d3" x="1222.624125" y="32.4" style="fill: #228b22; stroke: #228b22; stroke-width: 0.8"/>
      </g>
     </g>
     <g id="text_37">
      <!-- 0.00 -->
      <g style="fill: #228b22" transform="translate(1229.624125 38.47875) scale(0.16 -0.16)">
       <use xlink:href="#DejaVuSans-30"/>
       <use xlink:href="#DejaVuSans-2e" x="63.623047"/>
       <use xlink:href="#DejaVuSans-30" x="95.410156"/>
       <use xlink:href="#DejaVuSans-30" x="159.033203"/>
      </g>
     </g>
    </g>
    <g id="text_38">
     <!-- Drawdown -->
     <g style="fill: #228b22" transform="translate(1287.179125 326.88) rotate(-90) scale(0.16 -0.16)">
      <use xlink:href="#DejaVuSans-44"/>
      <use xlink:href="#DejaVuSans-72" x="77.001953"/>
      <use xlink:href="#DejaVuSans-61" x="118.115234"/>
      <use xlink:href="#DejaVuSans-77" x="179.394531"/>
      <use xlink:href="#DejaVuSans-64" x="261.181641"/>
      <use xlink:href="#DejaVuSans-6f" x="324.658203"/>
      <use xlink:href="#DejaVuSans-77" x="385.839844"/>
      <use xlink:href="#DejaVuSans-6e" x="467.626953"/>
     </g>
    </g>
   </g>
   <g id="line2d_34">
    <path d="M 410.987761 32.4 
L 495.892513 32.4 
L 497.661362 33.49553 
L 499.430211 32.4 
L 502.967909 32.4 
L 508.274456 50.259901 
L 510.043305 32.4 
L 511.812154 89.659286 
L 513.581003 32.4 
L 520.656399 32.4 
L 522.425248 47.070923 
L 524.194097 47.846457 
L 525.962946 87.564183 
L 527.731795 51.7521 
L 533.038342 32.4 
L 534.807191 32.4 
L 536.57604 43.670828 
L 538.344889 61.093872 
L 540.113738 50.81057 
L 545.420285 32.4 
L 547.189134 69.560266 
L 548.957983 59.872291 
L 550.726832 52.701716 
L 552.495681 103.815021 
L 557.802228 142.243189 
L 559.571077 136.701066 
L 561.339926 197.144946 
L 563.108775 165.227345 
L 564.877624 146.398232 
L 570.184171 87.711121 
L 571.95302 103.567561 
L 573.721869 128.534565 
L 582.566114 159.706641 
L 584.334963 149.132637 
L 586.103812 165.917865 
L 587.872661 165.151023 
L 589.64151 180.341407 
L 594.948057 154.674766 
L 596.716906 203.777751 
L 598.485755 186.760337 
L 600.254604 181.789545 
L 602.023453 200.420102 
L 607.33 205.51615 
L 609.098849 210.108103 
L 610.867698 186.958942 
L 612.636547 187.848004 
L 614.405396 150.379162 
L 619.711943 107.304094 
L 621.480792 131.33318 
L 632.093886 55.097028 
L 633.862735 60.38861 
L 635.631584 101.655047 
L 637.400433 53.661098 
L 639.169282 49.460205 
L 644.475829 54.372943 
L 646.244678 50.364506 
L 648.013527 78.175899 
L 649.782376 57.880309 
L 651.551225 32.4 
L 656.857772 32.4 
L 658.626621 69.26926 
L 660.39547 59.883937 
L 663.933168 160.850932 
L 669.239715 123.01453 
L 671.008564 142.031586 
L 672.777413 148.290502 
L 674.546262 168.152985 
L 676.315111 171.598759 
L 681.621658 165.275986 
L 683.390507 146.231584 
L 685.159356 155.899773 
L 686.928205 154.391288 
L 688.697054 169.357363 
L 695.77245 175.385128 
L 697.541299 173.457022 
L 699.310148 169.60675 
L 701.078997 167.809365 
L 706.385544 165.181716 
L 708.154393 157.189266 
L 709.923242 151.809251 
L 711.692091 157.873532 
L 713.46094 168.153012 
L 718.767487 198.234167 
L 720.536336 209.547691 
L 722.305185 193.638823 
L 724.074034 209.073259 
L 725.842883 200.62462 
L 731.14943 195.287184 
L 732.918279 200.770597 
L 734.687128 190.396835 
L 736.455977 188.584246 
L 738.224826 193.909503 
L 743.531373 198.085168 
L 745.300222 186.014378 
L 747.069071 192.169906 
L 748.83792 175.047572 
L 750.606769 173.438737 
L 755.913316 177.045708 
L 757.682165 166.130595 
L 759.451014 169.831818 
L 761.219863 167.009487 
L 762.988712 177.85161 
L 768.295259 179.889256 
L 770.064108 238.150812 
L 771.832957 263.876884 
L 773.601806 282.577635 
L 775.370655 276.327833 
L 780.677202 271.881496 
L 782.446051 276.139272 
L 784.2149 259.418388 
L 785.983749 256.754231 
L 787.752598 285.500298 
L 793.059145 325.690641 
L 794.827994 318.291239 
L 796.596843 320.043012 
L 798.365692 322.077617 
L 800.134541 325.374348 
L 805.441088 329.206344 
L 807.209937 326.207653 
L 808.978786 334.443402 
L 810.747635 331.496414 
L 812.516484 322.330034 
L 817.823031 324.392012 
L 819.59188 325.270938 
L 821.360729 327.530606 
L 823.129578 327.862101 
L 824.898427 329.802428 
L 830.204974 327.302503 
L 831.973823 331.426464 
L 833.742672 333.086999 
L 835.511521 341.769824 
L 837.28037 336.672649 
L 842.586917 350.507373 
L 844.355766 346.30738 
L 846.124615 362.176712 
L 847.893464 356.687225 
L 849.662313 359.409165 
L 854.96886 363.928487 
L 856.737709 363.712552 
L 858.506558 361.361656 
L 860.275407 362.842746 
L 862.044256 360.802052 
L 870.888501 360.056943 
L 872.65735 353.509097 
L 874.426199 351.051758 
L 879.732746 348.107808 
L 881.501595 312.059682 
L 883.270444 282.547236 
L 885.039293 136.143657 
L 886.808142 32.4 
L 906.265481 32.4 
L 908.03433 328.197042 
L 909.803179 340.667806 
L 911.572028 473.209977 
L 916.878575 392.972396 
L 918.647424 495.369102 
L 922.185122 536.4 
L 923.953971 353.306953 
L 929.260518 338.577603 
L 931.029367 330.816612 
L 932.798216 319.496814 
L 934.567065 364.463834 
L 936.335914 316.065559 
L 941.642461 297.041767 
L 943.41131 333.835199 
L 945.180159 364.458422 
L 946.949008 349.270341 
L 948.717857 390.542797 
L 954.024404 329.500036 
L 955.793253 205.57671 
L 957.562102 208.836913 
L 959.330951 85.996684 
L 961.0998 114.608375 
L 966.406347 54.491231 
L 968.175196 117.341909 
L 969.944045 106.244699 
L 971.712894 206.271652 
L 973.481743 293.363527 
L 978.78829 335.632297 
L 980.557139 276.603717 
L 982.325988 250.424313 
L 984.094837 248.032757 
L 985.863686 375.447041 
L 991.170233 390.760015 
L 992.939082 408.931411 
L 994.707931 322.420418 
L 996.47678 357.101878 
L 998.245629 302.929703 
L 1003.552176 260.327102 
L 1005.321025 256.906718 
L 1007.089874 281.872713 
L 1008.858723 276.68245 
L 1010.627572 226.449113 
L 1015.934119 239.66911 
L 1017.702968 199.16486 
L 1019.471817 200.467825 
L 1021.240666 153.798796 
L 1023.009515 237.747185 
L 1028.316062 280.466529 
L 1030.084911 289.7287 
L 1031.85376 264.643238 
L 1033.622609 265.506518 
L 1035.391458 258.304726 
L 1040.698005 279.910043 
L 1042.466854 235.219944 
L 1044.235703 239.53071 
L 1046.004552 222.697528 
L 1047.773401 227.972008 
L 1053.079948 228.808081 
L 1054.848797 308.288314 
L 1058.386495 398.417803 
L 1060.155344 435.19498 
L 1065.461891 432.510252 
L 1067.23074 422.083542 
L 1068.999589 427.273816 
L 1070.768438 432.084054 
L 1072.537287 448.219517 
L 1077.843834 459.675065 
L 1079.612683 431.761048 
L 1081.381532 437.05176 
L 1083.150381 435.545176 
L 1084.91923 427.624017 
L 1090.225777 417.566513 
L 1091.994626 406.843904 
L 1093.763475 420.810436 
L 1095.532324 431.009112 
L 1097.301173 402.074394 
L 1102.60772 426.456734 
L 1118.527361 399.571533 
L 1120.29621 344.191369 
L 1122.065059 306.90662 
L 1127.371606 277.800885 
L 1129.140455 301.515461 
L 1130.909304 260.259265 
L 1132.678153 273.984187 
L 1134.447002 237.272193 
L 1139.753549 219.955868 
L 1141.522398 249.900421 
L 1143.291247 202.465807 
L 1145.060096 217.884629 
L 1146.828945 132.706497 
L 1152.135492 141.452912 
L 1153.904341 185.670716 
L 1155.67319 123.927564 
L 1157.442039 132.823256 
L 1159.210888 254.102575 
L 1164.517435 257.821562 
L 1166.286284 240.380382 
L 1168.055133 216.337321 
L 1169.823982 148.69268 
L 1171.592831 166.598043 
L 1176.899378 182.66566 
L 1178.668227 181.25953 
L 1180.437076 191.968544 
L 1182.205925 223.734573 
L 1183.974774 153.120167 
L 1183.974774 153.120167 
" clip-path="url(#p3570f64d15)" style="fill: none; stroke: #228b22; stroke-width: 2; stroke-linecap: square"/>
   </g>
  </g>
 </g>
 <defs>
  <clipPath id="p3570f64d15">
   <rect x="372.338411" y="7.2" width="850.285714" height="554.4"/>
  </clipPath>
 </defs>
</svg>
