<svg class="main-svg" xmlns="http://www.w3.org/2000/svg" xmlns:xlink="http://www.w3.org/1999/xlink" width="1440" height="900" style="" viewBox="0 0 1440 900"><rect x="0" y="0" width="1440" height="900" style="fill: rgb(0, 0, 0); fill-opacity: 0;"/><defs id="defs-d97477"><g class="clips"><clipPath id="clipd97477xyplot" class="plotclip"><rect width="1376" height="900"/></clipPath><clipPath class="axesclip" id="clipd97477x"><rect x="64" y="0" width="1376" height="900"/></clipPath><clipPath class="axesclip" id="clipd97477y"><rect x="0" y="0" width="1440" height="900"/></clipPath><clipPath class="axesclip" id="clipd97477xy"><rect x="64" y="0" width="1376" height="900"/></clipPath></g><g class="gradients"/><g class="patterns"/></defs><g class="bglayer"><rect class="bg" x="64" y="0" width="1376" height="900" style="fill: rgb(0, 0, 0); fill-opacity: 0; stroke-width: 0;"/></g><g class="layer-below"><g class="imagelayer"/><g class="shapelayer"/></g><g class="cartesianlayer"><g class="subplot xy"><g class="layer-subplot"><g class="shapelayer"/><g class="imagelayer"/></g><g class="minor-gridlayer"><g class="x"/><g class="y"/></g><g class="gridlayer"><g class="x"><path class="xgrid crisp" transform="translate(241.8,0)" d="M0,0v900" style="stroke: rgb(255, 255, 255); stroke-opacity: 0.2; stroke-width: 1px;"/><path class="xgrid crisp" transform="translate(481.44,0)" d="M0,0v900" style="stroke: rgb(255, 255, 255); stroke-opacity: 0.2; stroke-width: 1px;"/><path class="xgrid crisp" transform="translate(713.35,0)" d="M0,0v900" style="stroke: rgb(255, 255, 255); stroke-opacity: 0.2; stroke-width: 1px;"/><path class="xgrid crisp" transform="translate(952.99,0)" d="M0,0v900" style="stroke: rgb(255, 255, 255); stroke-opacity: 0.2; stroke-width: 1px;"/><path class="xgrid crisp" transform="translate(1192.63,0)" d="M0,0v900" style="stroke: rgb(255, 255, 255); stroke-opacity: 0.2; stroke-width: 1px;"/><path class="xgrid crisp" transform="translate(1409.08,0)" d="M0,0v900" style="stroke: rgb(255, 255, 255); stroke-opacity: 0.2; stroke-width: 1px;"/></g><g class="y"><path class="ygrid crisp" transform="translate(0,692.04)" d="M64,0h1376" style="stroke: rgb(255, 255, 255); stroke-opacity: 0.2; stroke-width: 1px;"/><path class="ygrid crisp" transform="translate(0,544.39)" d="M64,0h1376" style="stroke: rgb(255, 255, 255); stroke-opacity: 0.2; stroke-width: 1px;"/><path class="ygrid crisp" transform="translate(0,396.73)" d="M64,0h1376" style="stroke: rgb(255, 255, 255); stroke-opacity: 0.2; stroke-width: 1px;"/><path class="ygrid crisp" transform="translate(0,249.08)" d="M64,0h1376" style="stroke: rgb(255, 255, 255); stroke-opacity: 0.2; stroke-width: 1px;"/><path class="ygrid crisp" transform="translate(0,101.43)" d="M64,0h1376" style="stroke: rgb(255, 255, 255); stroke-opacity: 0.2; stroke-width: 1px;"/></g></g><g class="zerolinelayer"><path class="yzl zl crisp" transform="translate(0,839.69)" d="M64,0h1376" style="stroke: rgb(255, 255, 255); stroke-opacity: 1; stroke-width: 2px;"/></g><g class="layer-between"><g class="shapelayer"/><g class="imagelayer"/></g><path class="xlines-below"/><path class="ylines-below"/><g class="overlines-below"/><g class="xaxislayer-below"/><g class="yaxislayer-below"/><g class="overaxes-below"/><g class="overplot"><g class="xy" transform="translate(64,0)" clip-path="url(#clipd97477xyplot)"><g class="scatterlayer mlayer"><g class="trace scatter trace7bf0b6" style="stroke-miterlimit: 2; opacity: 1;"><g class="fills"/><g class="errorbars"/><g class="lines"><path class="js-line" d="M1376,45L1368.27,67.57L1360.54,155.71L1352.81,130.75L1329.62,174.64L1321.89,189.05L1314.16,198.27L1306.43,188.95L1298.7,225.27L1275.51,265.72L1267.78,271.44L1260.04,264L1252.31,272.23L1221.39,306.88L1213.66,287.64L1205.93,321.14L1198.2,293.32L1190.47,281.95L1167.28,283.35L1159.55,319.86L1151.82,350.43L1144.09,372.45L1136.36,368.97L1113.17,245.65L1105.44,251.78L1097.71,272.59L1089.98,244.69L1082.25,288.9L1059.06,267.52L1051.33,242.75L1043.6,271.49L1035.87,289.55L1004.94,306.42L997.21,307.92L989.48,363.54L981.75,418.07L974.02,505.15L950.83,477.92L943.1,533.4L935.37,566.5L927.64,657.01L919.91,668.77L896.72,655.16L881.26,650.85L873.53,643.45L865.8,644.34L842.61,635.62L827.15,629.62L819.42,634.67L811.69,612.56L788.49,632.52L780.76,634.87L773.03,622.32L765.3,626.07L757.57,642.25L734.38,629.37L726.65,653.35L718.92,666.18L711.19,661.53L703.46,652.07L680.27,653.56L672.54,653.51L664.81,657.06L657.08,693.84L649.35,682.45L626.16,662.3L610.7,663.56L602.97,666.79L595.24,685.62L572.04,693.99L564.31,705.44L556.58,704.04L548.85,696.06L541.12,692.84L517.93,714.47L510.2,734.9L502.47,706.04L494.74,722L487.01,716.49L463.82,724.85L456.09,724.88L448.36,675.11L440.63,669.61L409.71,657.99L401.98,659.56L394.25,679.19L386.52,676.32L378.79,675.8L355.6,684.24L347.87,701.11L340.13,697.65L332.4,688.71L324.67,683.03L301.48,692.82L293.75,684.65L286.02,689.85L278.29,704.71L270.56,708.05L247.37,709.3L239.64,704.61L231.91,607.89L224.18,602.51L216.45,616.19L193.26,605.67L185.53,620.52L177.8,601.89L170.07,609.56L162.34,614.94L139.15,637.01L131.42,670.64L123.69,655.18L115.96,662.67L108.22,659.98L85.03,660.39L77.3,641.91L69.57,657.76L61.84,678.16L54.11,694.24L30.92,695.4L23.19,681.62L15.46,695L7.73,709.78L0,749.39" style="vector-effect: none; fill: none; stroke: rgb(214, 10, 34); stroke-opacity: 1; stroke-width: 3px; opacity: 1;"/></g><g class="points"/><g class="text"/></g><g class="trace scatter trace831d02" style="stroke-miterlimit: 2; opacity: 1;"><g class="fills"/><g class="errorbars"/><g class="lines"><path class="js-line" d="M1376,725.03L1368.27,745.49L1360.54,745.53L1352.81,747.87L1329.62,765.05L1321.89,798.66L1314.16,798.62L1306.43,793.36L1298.7,789.76L1275.51,773.98L1267.78,777.48L1260.04,785.93L1252.31,807.8L1221.39,801.29L1213.66,814.74L1205.93,794.34L1198.2,810.76L1190.47,807.76L1167.28,808.64L1159.55,828.7L1151.82,817.93L1144.09,832.31L1136.36,838.01L1113.17,818.79L1105.44,829L1097.71,831.64L1089.98,832.24L1082.25,831L1059.06,837.53L1051.33,838.04L1043.6,832.89L1035.87,839.81L1004.94,837.31L997.21,835.97L989.48,832.01L981.75,837.66L974.02,842.31L935.37,839.69L927.64,839.69L773.03,839.69L765.3,849.91L757.57,835.41L734.38,827.91L726.65,822.43L718.92,810.62L703.46,816.88L680.27,809.95L672.54,811.98L664.81,811.62L657.08,832.91L649.35,828.24L626.16,832.33L610.7,842.09L602.97,841.9L595.24,839.98L572.04,845.35L564.31,849.49L556.58,832.89L548.85,829.04L541.12,837.29L517.93,831.61L510.2,832.3L502.47,836.61L494.74,829.08L487.01,836.54L463.82,837.43L456.09,841.96L440.63,840.63L432.9,852.46L409.71,851.5L401.98,853L386.52,851.02L378.79,847.36L355.6,844.43L347.87,839.69L270.56,839.69L247.37,833.65L239.64,812.22L231.91,802.97L224.18,800.66L216.45,800.33L193.26,807.18L185.53,811.14L177.8,795.89L170.07,807.95L162.34,807.56L139.15,802.51L131.42,805.29L123.69,805.31L108.22,817.21L85.03,831.55L77.3,818.49L69.57,814.62L61.84,809.62L54.11,831.8L23.19,823.68L15.46,820.77L7.73,842.04L0,834.71" style="vector-effect: none; fill: none; stroke: rgb(234, 112, 52); stroke-opacity: 1; stroke-width: 3px; opacity: 1;"/></g><g class="points"/><g class="text"/></g><g class="trace scatter trace585aa7" style="stroke-miterlimit: 2; opacity: 1;"><g class="fills"/><g class="errorbars"/><g class="lines"><path class="js-line" d="M1376,745.23L1368.27,781.79L1360.54,802.83L1352.81,834.66L1329.62,838.98L1314.16,839.69L1306.43,839.69L1221.39,839.69L1213.66,847.8L1205.93,840.86L1198.2,837.44L1190.47,840.34L1167.28,839.69L1105.44,839.69L1097.71,834.98L1059.06,817.97L1051.33,819.34L1043.6,818.57L1035.87,820.91L1004.94,815.6L997.21,807.65L989.48,801.14L981.75,790.09L974.02,771.08L950.83,761.32L935.37,727.77L927.64,736.53L919.91,755.64L896.72,783.47L881.26,744.84L873.53,735.23L865.8,725.63L842.61,722.19L827.15,721.78L819.42,743.14L811.69,731.9L788.49,756.26L780.76,762.33L773.03,775.23L765.3,781.41L757.57,772.05L734.38,745.18L726.65,738.21L718.92,744.3L711.19,743.54L703.46,743.07L680.27,750.89L672.54,754.92L664.81,796.55L657.08,814.76L649.35,819.55L626.16,815.43L610.7,818.55L602.97,820.38L595.24,830.24L572.04,826.61L564.31,836.14L556.58,830.76L548.85,827.85L541.12,843.56L517.93,815.59L510.2,819.22L502.47,796.19L494.74,797.27L487.01,800.71L463.82,802.35L456.09,820.05L448.36,817.38L440.63,787.64L432.9,761.03L409.71,762.33L401.98,777.7L394.25,761.47L378.79,724.74L355.6,743.17L340.13,782.87L332.4,759.74L324.67,771.87L301.48,784.74L293.75,783.98L286.02,751.36L278.29,751.44L270.56,743.65L247.37,748.94L239.64,724.3L231.91,763.9L224.18,779.62L216.45,784.49L193.26,808.29L185.53,813.95L177.8,815.03L170.07,802.24L162.34,813.16L139.15,811.16L131.42,806.22L123.69,782.17L115.96,783.83L108.22,756.41L85.03,775.06L77.3,783.94L69.57,804.2L61.84,821.61L54.11,828.02L30.92,824.85L23.19,814.4L15.46,833.2L7.73,818.2L0,830.66" style="vector-effect: none; fill: none; stroke: rgb(255, 215, 71); stroke-opacity: 1; stroke-width: 3px; opacity: 1;"/></g><g class="points"/><g class="text"/></g><g class="trace scatter traced48bea" style="stroke-miterlimit: 2; opacity: 1;"><g class="fills"/><g class="errorbars"/><g class="lines"><path class="js-line" d="M1376,790.31L1368.27,792.76L1360.54,814.48L1352.81,814.08L1329.62,826.87L1314.16,842.39L1306.43,833.02L1298.7,833.26L1275.51,821.76L1267.78,824.61L1260.04,821.66L1252.31,799.92L1221.39,798.53L1213.66,807.37L1205.93,799.46L1198.2,803.34L1190.47,801.73L1167.28,796.71L1159.55,812.05L1151.82,813.32L1144.09,823.71L1136.36,831.97L1113.17,831.58L1089.98,837.66L1082.25,839.45L1059.06,837.54L1051.33,845.65L1043.6,838.09L1035.87,846.62L1004.94,845.11L997.21,834.66L989.48,833.51L981.75,840.95L974.02,842.31L950.83,839L943.1,835.72L935.37,842.94L927.64,843L919.91,839.69L718.92,839.69L711.19,829.4L703.46,829.26L680.27,827.17L672.54,825.78L664.81,823.62L657.08,818.38L649.35,814.35L610.7,823.32L602.97,822.41L595.24,823.84L572.04,825.12L564.31,836.77L556.58,825.43L548.85,811.78L541.12,819.66L517.93,820.79L510.2,836.39L502.47,835.68L494.74,822.84L487.01,824.79L463.82,834.4L456.09,838.87L448.36,852.02L440.63,840.14L432.9,837.84L409.71,847.24L401.98,842.42L394.25,837.24L386.52,842.04L378.79,837.57L355.6,841.01L347.87,839.69L340.13,839.69L231.91,839.69L224.18,820.91L216.45,820.36L193.26,821.83L185.53,821.35L177.8,806.22L170.07,802.74L162.34,800.58L139.15,791.7L131.42,786.2L123.69,791.16L115.96,792.76L108.22,803.45L85.03,804.26L77.3,799.31L69.57,802.51L61.84,801.52L54.11,814.39L30.92,818.72L23.19,812.51L15.46,816.44L7.73,798.84L0,815.57" style="vector-effect: none; fill: none; stroke: rgb(129, 169, 73); stroke-opacity: 1; stroke-width: 3px; opacity: 1;"/></g><g class="points"/><g class="text"/></g><g class="trace scatter trace91b8b7" style="stroke-miterlimit: 2; opacity: 1;"><g class="fills"/><g class="errorbars"/><g class="lines"><path class="js-line" d="M1376,813.68L1368.27,833.93L1360.54,838.4L1352.81,839.69L1329.62,839.69L1043.6,839.69L1035.87,831.89L1004.94,824.62L997.21,819.48L989.48,821.45L981.75,816.28L974.02,821.02L950.83,818.33L943.1,815.53L935.37,817.85L927.64,816.71L919.91,823.3L896.72,825.84L881.26,825.63L865.8,823.66L842.61,823.25L827.15,823.8L819.42,822.87L811.69,822.28L788.49,822.3L773.03,825.91L765.3,824.67L757.57,825.55L734.38,830.74L726.65,826.84L718.92,830.82L711.19,838L703.46,836.24L680.27,836.79L672.54,839.62L664.81,837.35L657.08,836.63L649.35,839.3L626.16,841.13L602.97,839.75L595.24,844.8L572.04,845.73L564.31,852.87L556.58,849.95L548.85,849.93L541.12,847.6L517.93,836.1L510.2,834.59L502.47,831.05L494.74,835.72L487.01,834.2L463.82,839.69L456.09,839.69L440.63,839.69L432.9,846.53L401.98,843.38L394.25,843.84L386.52,840.24L378.79,842.06L355.6,844.43L347.87,846.51L340.13,839.53L332.4,839.69L239.64,839.69L231.91,801.72L224.18,798.45L216.45,791.77L185.53,797.12L177.8,796.89L170.07,800.55L162.34,794.66L139.15,792.61L131.42,799.3L108.22,792.05L85.03,792.99L77.3,793.43L69.57,790.59L61.84,790.77L54.11,787.93L30.92,793.2L23.19,793.92L15.46,799.04L7.73,797.11L0,797.55" style="vector-effect: none; fill: none; stroke: rgb(3, 123, 102); stroke-opacity: 1; stroke-width: 3px; opacity: 1;"/></g><g class="points"/><g class="text"/></g></g></g></g><g class="zerolinelayer-above"/><path class="xlines-above crisp" d="" style="fill: none; stroke-width: 1px; stroke: rgb(0, 0, 0); stroke-opacity: 0;"/><path class="ylines-above crisp" d="" style="fill: none; stroke-width: 1px; stroke: rgb(0, 0, 0); stroke-opacity: 0;"/><g class="overlines-above"/><g class="xaxislayer-above"><path class="xtick ticks crisp" d="M0,900v-5" transform="translate(241.8,0)" style="stroke: rgb(68, 68, 68); stroke-opacity: 1; stroke-width: 1px;"/><path class="xtick ticks crisp" d="M0,900v-5" transform="translate(481.44,0)" style="stroke: rgb(68, 68, 68); stroke-opacity: 1; stroke-width: 1px;"/><path class="xtick ticks crisp" d="M0,900v-5" transform="translate(713.35,0)" style="stroke: rgb(68, 68, 68); stroke-opacity: 1; stroke-width: 1px;"/><path class="xtick ticks crisp" d="M0,900v-5" transform="translate(952.99,0)" style="stroke: rgb(68, 68, 68); stroke-opacity: 1; stroke-width: 1px;"/><path class="xtick ticks crisp" d="M0,900v-5" transform="translate(1192.63,0)" style="stroke: rgb(68, 68, 68); stroke-opacity: 1; stroke-width: 1px;"/><path class="xtick ticks crisp" d="M0,900v-5" transform="translate(1409.08,0)" style="stroke: rgb(68, 68, 68); stroke-opacity: 1; stroke-width: 1px;"/><g class="xtick"><text text-anchor="middle" x="0" y="895" transform="translate(241.8,-3)" style="font-family: Arial; font-size: 32px; fill: rgb(255, 255, 255); fill-opacity: 0.8; white-space: pre;">Oct 2025</text></g><g class="xtick"><text text-anchor="middle" x="0" y="895" style="font-family: Arial; font-size: 32px; fill: rgb(255, 255, 255); fill-opacity: 0.8; white-space: pre;" transform="translate(481.44,-3)">Nov 2025</text></g><g class="xtick"><text text-anchor="middle" x="0" y="895" style="font-family: Arial; font-size: 32px; fill: rgb(255, 255, 255); fill-opacity: 0.8; white-space: pre;" transform="translate(713.35,-3)">Dec 2025</text></g><g class="xtick"><text text-anchor="middle" x="0" y="895" style="font-family: Arial; font-size: 32px; fill: rgb(255, 255, 255); fill-opacity: 0.8; white-space: pre;" transform="translate(952.99,-3)">Jan 2026</text></g><g class="xtick"><text text-anchor="middle" x="0" y="895" style="font-family: Arial; font-size: 32px; fill: rgb(255, 255, 255); fill-opacity: 0.8; white-space: pre;" transform="translate(1192.63,-3)">Feb 2026</text></g><g class="xtick"/></g><g class="yaxislayer-above"><path class="ytick ticks crisp" d="M63,0h-5" transform="translate(0,839.69)" style="stroke: rgb(68, 68, 68); stroke-opacity: 1; stroke-width: 1px;"/><path class="ytick ticks crisp" d="M63,0h-5" transform="translate(0,692.04)" style="stroke: rgb(68, 68, 68); stroke-opacity: 1; stroke-width: 1px;"/><path class="ytick ticks crisp" d="M63,0h-5" transform="translate(0,544.39)" style="stroke: rgb(68, 68, 68); stroke-opacity: 1; stroke-width: 1px;"/><path class="ytick ticks crisp" d="M63,0h-5" transform="translate(0,396.73)" style="stroke: rgb(68, 68, 68); stroke-opacity: 1; stroke-width: 1px;"/><path class="ytick ticks crisp" d="M63,0h-5" transform="translate(0,249.08)" style="stroke: rgb(68, 68, 68); stroke-opacity: 1; stroke-width: 1px;"/><path class="ytick ticks crisp" d="M63,0h-5" transform="translate(0,101.43)" style="stroke: rgb(68, 68, 68); stroke-opacity: 1; stroke-width: 1px;"/><g class="ytick"><text text-anchor="end" x="51.6" y="11.2" transform="translate(0,839.69)" style="font-family: 'Open Sans', verdana, arial, sans-serif; font-size: 32px; fill: rgb(255, 255, 255); fill-opacity: 0.8; white-space: pre;">0</text></g><g class="ytick"><text text-anchor="end" x="51.6" y="11.2" style="font-family: 'Open Sans', verdana, arial, sans-serif; font-size: 32px; fill: rgb(255, 255, 255); fill-opacity: 0.8; white-space: pre;" transform="translate(0,692.04)">10k</text></g><g class="ytick"><text text-anchor="end" x="51.6" y="11.2" style="font-family: 'Open Sans', verdana, arial, sans-serif; font-size: 32px; fill: rgb(255, 255, 255); fill-opacity: 0.8; white-space: pre;" transform="translate(0,544.39)">20k</text></g><g class="ytick"><text text-anchor="end" x="51.6" y="11.2" style="font-family: 'Open Sans', verdana, arial, sans-serif; font-size: 32px; fill: rgb(255, 255, 255); fill-opacity: 0.8; white-space: pre;" transform="translate(0,396.73)">30k</text></g><g class="ytick"><text text-anchor="end" x="51.6" y="11.2" style="font-family: 'Open Sans', verdana, arial, sans-serif; font-size: 32px; fill: rgb(255, 255, 255); fill-opacity: 0.8; white-space: pre;" transform="translate(0,249.08)">40k</text></g><g class="ytick"><text text-anchor="end" x="51.6" y="11.2" style="font-family: 'Open Sans', verdana, arial, sans-serif; font-size: 32px; fill: rgb(255, 255, 255); fill-opacity: 0.8; white-space: pre;" transform="translate(0,101.43)">50k</text></g></g><g class="overaxes-above"/></g></g><g class="polarlayer"/><g class="smithlayer"/><g class="ternarylayer"/><g class="geolayer"/><g class="funnelarealayer"/><g class="pielayer"/><g class="iciclelayer"/><g class="treemaplayer"/><g class="sunburstlayer"/><g class="glimages"/><defs id="topdefs-d97477"><g class="clips"/><clipPath id="legendd97477"><rect width="333" height="233" x="0" y="0"/></clipPath></defs><g class="layer-above"><g class="imagelayer"/><g class="shapelayer"/></g><g class="infolayer"><g class="legend" pointer-events="all" transform="translate(64,0)"><rect class="bg" shape-rendering="crispEdges" style="stroke: rgb(0, 0, 0); stroke-opacity: 0; fill: rgb(23, 27, 38); fill-opacity: 0.8; stroke-width: 0px;" width="333" height="233" x="0" y="0"/><g class="scrollbox" transform="" clip-path="url(#legendd97477)"><g class="groups" transform=""><g class="traces" transform="translate(0,27.3)" style="opacity: 1;"><text class="legendtext" text-anchor="start" x="40" y="12.48" style="font-family: Arial; font-size: 32px; fill: rgb(255, 255, 255); fill-opacity: 0.8; white-space: pre;">生物技术</text><g class="layers" style="opacity: 1;"><g class="legendfill"/><g class="legendlines"><path class="js-line" d="M5,0h30" style="fill: none; stroke: rgb(214, 10, 34); stroke-opacity: 1; stroke-width: 3px;"/></g><g class="legendsymbols"><g class="legendpoints"/></g></g><rect class="legendtoggle" x="0" y="-22.3" width="328" height="44.6" style="fill: rgb(0, 0, 0); fill-opacity: 0;"/></g></g><g class="groups" transform=""><g class="traces" transform="translate(0,71.9)" style="opacity: 1;"><text class="legendtext" text-anchor="start" x="40" y="12.48" style="font-family: Arial; font-size: 32px; fill: rgb(255, 255, 255); fill-opacity: 0.8; white-space: pre;">石油天然气勘探生产</text><g class="layers" style="opacity: 1;"><g class="legendfill"/><g class="legendlines"><path class="js-line" d="M5,0h30" style="fill: none; stroke: rgb(234, 112, 52); stroke-opacity: 1; stroke-width: 3px;"/></g><g class="legendsymbols"><g class="legendpoints"/></g></g><rect class="legendtoggle" x="0" y="-22.3" width="328" height="44.6" style="fill: rgb(0, 0, 0); fill-opacity: 0;"/></g></g><g class="groups" transform=""><g class="traces" transform="translate(0,116.5)" style="opacity: 1;"><text class="legendtext" text-anchor="start" x="40" y="12.48" style="font-family: Arial; font-size: 32px; fill: rgb(255, 255, 255); fill-opacity: 0.8; white-space: pre;">软件</text><g class="layers" style="opacity: 1;"><g class="legendfill"/><g class="legendlines"><path class="js-line" d="M5,0h30" style="fill: none; stroke: rgb(255, 215, 71); stroke-opacity: 1; stroke-width: 3px;"/></g><g class="legendsymbols"><g class="legendpoints"/></g></g><rect class="legendtoggle" x="0" y="-22.3" width="328" height="44.6" style="fill: rgb(0, 0, 0); fill-opacity: 0;"/></g></g><g class="groups" transform=""><g class="traces" transform="translate(0,161.10000000000002)" style="opacity: 1;"><text class="legendtext" text-anchor="start" x="40" y="12.48" style="font-family: Arial; font-size: 32px; fill: rgb(255, 255, 255); fill-opacity: 0.8; white-space: pre;">石油天然气炼制销售</text><g class="layers" style="opacity: 1;"><g class="legendfill"/><g class="legendlines"><path class="js-line" d="M5,0h30" style="fill: none; stroke: rgb(129, 169, 73); stroke-opacity: 1; stroke-width: 3px;"/></g><g class="legendsymbols"><g class="legendpoints"/></g></g><rect class="legendtoggle" x="0" y="-22.3" width="328" height="44.6" style="fill: rgb(0, 0, 0); fill-opacity: 0;"/></g></g><g class="groups" transform=""><g class="traces" transform="translate(0,205.70000000000002)" style="opacity: 1;"><text class="legendtext" text-anchor="start" x="40" y="12.48" style="font-family: Arial; font-size: 32px; fill: rgb(255, 255, 255); fill-opacity: 0.8; white-space: pre;">旅行服务</text><g class="layers" style="opacity: 1;"><g class="legendfill"/><g class="legendlines"><path class="js-line" d="M5,0h30" style="fill: none; stroke: rgb(3, 123, 102); stroke-opacity: 1; stroke-width: 3px;"/></g><g class="legendsymbols"><g class="legendpoints"/></g></g><rect class="legendtoggle" x="0" y="-22.3" width="328" height="44.6" style="fill: rgb(0, 0, 0); fill-opacity: 0;"/></g></g></g><rect class="scrollbar" rx="20" ry="3" width="0" height="0" style="fill: rgb(128, 139, 164); fill-opacity: 1;" x="0" y="0"/></g><g class="g-gtitle"><text class="gtitle" x="720" y="90" text-anchor="middle" dy="0.7em" style="opacity: 0.8; font-family: Arial; font-size: 35px; fill: rgb(255, 255, 255); fill-opacity: 1; white-space: pre;">Last 180 days top5 pnl</text></g><g class="g-xtitle"/><g class="g-ytitle"/></g></svg>