<svg class="main-svg" xmlns="http://www.w3.org/2000/svg" xmlns:xlink="http://www.w3.org/1999/xlink" width="1440" height="900" style="" viewBox="0 0 1440 900"><rect x="0" y="0" width="1440" height="900" style="fill: rgb(0, 0, 0); fill-opacity: 0;"/><defs id="defs-291c18"><g class="clips"><clipPath id="clip291c18xyplot" class="plotclip"><rect width="1410" height="900"/></clipPath><clipPath class="axesclip" id="clip291c18x"><rect x="30" y="0" width="1410" height="900"/></clipPath><clipPath class="axesclip" id="clip291c18y"><rect x="0" y="0" width="1440" height="900"/></clipPath><clipPath class="axesclip" id="clip291c18xy"><rect x="30" y="0" width="1410" height="900"/></clipPath></g><g class="gradients"/><g class="patterns"/></defs><g class="bglayer"><rect class="bg" x="30" y="0" width="1410" height="900" style="fill: rgb(0, 0, 0); fill-opacity: 0; stroke-width: 0;"/></g><g class="layer-below"><g class="imagelayer"/><g class="shapelayer"/></g><g class="cartesianlayer"><g class="subplot xy"><g class="layer-subplot"><g class="shapelayer"/><g class="imagelayer"/></g><g class="minor-gridlayer"><g class="x"/><g class="y"/></g><g class="gridlayer"><g class="x"><path class="xgrid crisp" transform="translate(212.19,0)" d="M0,0v900" style="stroke: rgb(255, 255, 255); stroke-opacity: 0.2; stroke-width: 1px;"/><path class="xgrid crisp" transform="translate(457.75,0)" d="M0,0v900" style="stroke: rgb(255, 255, 255); stroke-opacity: 0.2; stroke-width: 1px;"/><path class="xgrid crisp" transform="translate(695.39,0)" d="M0,0v900" style="stroke: rgb(255, 255, 255); stroke-opacity: 0.2; stroke-width: 1px;"/><path class="xgrid crisp" transform="translate(940.96,0)" d="M0,0v900" style="stroke: rgb(255, 255, 255); stroke-opacity: 0.2; stroke-width: 1px;"/><path class="xgrid crisp" transform="translate(1186.52,0)" d="M0,0v900" style="stroke: rgb(255, 255, 255); stroke-opacity: 0.2; stroke-width: 1px;"/><path class="xgrid crisp" transform="translate(1408.31,0)" d="M0,0v900" style="stroke: rgb(255, 255, 255); stroke-opacity: 0.2; stroke-width: 1px;"/></g><g class="y"><path class="ygrid crisp" transform="translate(0,737.57)" d="M30,0h1410" style="stroke: rgb(255, 255, 255); stroke-opacity: 0.2; stroke-width: 1px;"/><path class="ygrid crisp" transform="translate(0,622.14)" d="M30,0h1410" style="stroke: rgb(255, 255, 255); stroke-opacity: 0.2; stroke-width: 1px;"/><path class="ygrid crisp" transform="translate(0,506.71)" d="M30,0h1410" style="stroke: rgb(255, 255, 255); stroke-opacity: 0.2; stroke-width: 1px;"/><path class="ygrid crisp" transform="translate(0,391.29)" d="M30,0h1410" style="stroke: rgb(255, 255, 255); stroke-opacity: 0.2; stroke-width: 1px;"/><path class="ygrid crisp" transform="translate(0,275.86)" d="M30,0h1410" style="stroke: rgb(255, 255, 255); stroke-opacity: 0.2; stroke-width: 1px;"/><path class="ygrid crisp" transform="translate(0,160.43)" d="M30,0h1410" style="stroke: rgb(255, 255, 255); stroke-opacity: 0.2; stroke-width: 1px;"/><path class="ygrid crisp" transform="translate(0,45)" d="M30,0h1410" style="stroke: rgb(255, 255, 255); stroke-opacity: 0.2; stroke-width: 1px;"/></g></g><g class="zerolinelayer"><path class="yzl zl crisp" transform="translate(0,853)" d="M30,0h1410" style="stroke: rgb(255, 255, 255); stroke-opacity: 1; stroke-width: 2px;"/></g><g class="layer-between"><g class="shapelayer"/><g class="imagelayer"/></g><path class="xlines-below"/><path class="ylines-below"/><g class="overlines-below"/><g class="xaxislayer-below"/><g class="yaxislayer-below"/><g class="overaxes-below"/><g class="overplot"><g class="xy" transform="translate(30,0)" clip-path="url(#clip291c18xyplot)"><g class="scatterlayer mlayer"><g class="trace scatter trace0ad807" style="stroke-miterlimit: 2; opacity: 1;"><g class="fills"/><g class="errorbars"/><g class="lines"><path class="js-line" d="M1410,45L1402.08,160.43L1394.16,391.29L1386.24,737.57L1362.47,737.57L1354.55,853L1346.63,853L1251.57,853L1243.65,737.57L1219.89,737.57L1196.12,853L1132.75,853L1124.83,737.57L1108.99,737.57L1085.22,622.14L1021.85,622.14L1013.93,506.71L998.09,275.86L974.33,275.86L966.4,160.43L958.48,160.43L942.64,160.43L918.88,45L807.98,45L800.06,160.43L792.13,275.86L784.21,275.86L776.29,160.43L752.53,160.43L697.08,160.43L689.16,275.86L681.24,275.86L673.31,506.71L665.39,622.14L641.63,622.14L562.42,622.14L554.49,506.71L530.73,622.14L522.81,506.71L506.97,506.71L499.04,622.14L459.44,622.14L451.52,391.29L443.6,275.86L419.83,275.86L396.07,275.86L388.15,391.29L348.54,391.29L340.62,622.14L308.93,622.14L301.01,506.71L293.09,506.71L285.17,622.14L198.03,622.14L190.11,506.71L182.19,391.29L174.27,391.29L166.35,160.43L142.58,160.43L126.74,160.43L118.82,45L0,45" style="vector-effect: none; fill: none; stroke: rgb(214, 10, 34); stroke-opacity: 1; stroke-width: 3px; opacity: 1;"/></g><g class="points"/><g class="text"/></g><g class="trace scatter trace2cf7e2" style="stroke-miterlimit: 2; opacity: 1;"><g class="fills"/><g class="errorbars"/><g class="lines"><path class="js-line" d="M1410,506.71L1085.22,506.71L1077.3,622.14L1069.38,737.57L1061.46,737.57L974.33,737.57L966.4,853L792.13,853L784.21,622.14L776.29,622.14L752.53,506.71L641.63,506.71L625.79,737.57L617.87,622.14L609.94,622.14L586.18,737.57L578.26,506.71L570.34,622.14L562.42,622.14L506.97,622.14L499.04,737.57L364.38,737.57L356.46,853L277.25,853L253.48,622.14L110.9,622.14L87.13,506.71L71.29,506.71L63.37,622.14L55.45,506.71L31.69,506.71L0,506.71" style="vector-effect: none; fill: none; stroke: rgb(234, 112, 52); stroke-opacity: 1; stroke-width: 3px; opacity: 1;"/></g><g class="points"/><g class="text"/></g><g class="trace scatter tracef6c242" style="stroke-miterlimit: 2; opacity: 1;"><g class="fills"/><g class="errorbars"/><g class="lines"><path class="js-line" d="M1410,506.71L1219.89,506.71L1196.12,622.14L1164.44,622.14L1140.67,506.71L1013.93,506.71L1006.01,622.14L903.03,622.14L895.11,506.71L522.81,506.71L514.89,622.14L475.28,622.14L467.36,737.57L459.44,622.14L451.52,622.14L245.56,622.14L237.64,506.71L0,506.71" style="vector-effect: none; fill: none; stroke: rgb(255, 215, 71); stroke-opacity: 1; stroke-width: 3px; opacity: 1;"/></g><g class="points"/><g class="text"/></g><g class="trace scatter trace278b3b" style="stroke-miterlimit: 2; opacity: 1;"><g class="fills"/><g class="errorbars"/><g class="lines"><path class="js-line" d="M1410,622.14L1188.2,622.14L1180.28,737.57L1140.67,737.57L1132.75,622.14L792.13,622.14L784.21,737.57L720.84,737.57L697.08,853L586.18,853L578.26,737.57L142.58,737.57L134.66,622.14L0,622.14" style="vector-effect: none; fill: none; stroke: rgb(129, 169, 73); stroke-opacity: 1; stroke-width: 3px; opacity: 1;"/></g><g class="points"/><g class="text"/></g><g class="trace scatter traced5b053" style="stroke-miterlimit: 2; opacity: 1;"><g class="fills"/><g class="errorbars"/><g class="lines"><path class="js-line" d="M1410,622.14L1394.16,622.14L1386.24,737.57L1338.71,737.57L1330.79,622.14L1180.28,622.14L1172.36,737.57L1085.22,737.57L1077.3,622.14L974.33,622.14L966.4,737.57L950.56,737.57L942.64,853L736.69,853L728.76,737.57L586.18,737.57L578.26,622.14L411.91,622.14L403.99,737.57L364.38,737.57L356.46,853L237.64,853L229.72,737.57L190.11,737.57L182.19,622.14L0,622.14" style="vector-effect: none; fill: none; stroke: rgb(3, 123, 102); stroke-opacity: 1; stroke-width: 3px; opacity: 1;"/></g><g class="points"/><g class="text"/></g></g></g></g><g class="zerolinelayer-above"/><path class="xlines-above crisp" d="" style="fill: none; stroke-width: 1px; stroke: rgb(0, 0, 0); stroke-opacity: 0;"/><path class="ylines-above crisp" d="" style="fill: none; stroke-width: 1px; stroke: rgb(0, 0, 0); stroke-opacity: 0;"/><g class="overlines-above"/><g class="xaxislayer-above"><path class="xtick ticks crisp" d="M0,900v-5" transform="translate(212.19,0)" style="stroke: rgb(68, 68, 68); stroke-opacity: 1; stroke-width: 1px;"/><path class="xtick ticks crisp" d="M0,900v-5" transform="translate(457.75,0)" style="stroke: rgb(68, 68, 68); stroke-opacity: 1; stroke-width: 1px;"/><path class="xtick ticks crisp" d="M0,900v-5" transform="translate(695.39,0)" style="stroke: rgb(68, 68, 68); stroke-opacity: 1; stroke-width: 1px;"/><path class="xtick ticks crisp" d="M0,900v-5" transform="translate(940.96,0)" style="stroke: rgb(68, 68, 68); stroke-opacity: 1; stroke-width: 1px;"/><path class="xtick ticks crisp" d="M0,900v-5" transform="translate(1186.52,0)" style="stroke: rgb(68, 68, 68); stroke-opacity: 1; stroke-width: 1px;"/><path class="xtick ticks crisp" d="M0,900v-5" transform="translate(1408.31,0)" style="stroke: rgb(68, 68, 68); stroke-opacity: 1; stroke-width: 1px;"/><g class="xtick"><text text-anchor="middle" x="0" y="895" transform="translate(212.19,-3)" style="font-family: Arial; font-size: 32px; fill: rgb(255, 255, 255); fill-opacity: 0.8; white-space: pre;">Oct 2025</text></g><g class="xtick"><text text-anchor="middle" x="0" y="895" style="font-family: Arial; font-size: 32px; fill: rgb(255, 255, 255); fill-opacity: 0.8; white-space: pre;" transform="translate(457.75,-3)">Nov 2025</text></g><g class="xtick"><text text-anchor="middle" x="0" y="895" style="font-family: Arial; font-size: 32px; fill: rgb(255, 255, 255); fill-opacity: 0.8; white-space: pre;" transform="translate(695.39,-3)">Dec 2025</text></g><g class="xtick"><text text-anchor="middle" x="0" y="895" style="font-family: Arial; font-size: 32px; fill: rgb(255, 255, 255); fill-opacity: 0.8; white-space: pre;" transform="translate(940.96,-3)">Jan 2026</text></g><g class="xtick"><text text-anchor="middle" x="0" y="895" style="font-family: Arial; font-size: 32px; fill: rgb(255, 255, 255); fill-opacity: 0.8; white-space: pre;" transform="translate(1186.52,-3)">Feb 2026</text></g><g class="xtick"/></g><g class="yaxislayer-above"><path class="ytick ticks crisp" d="M29,0h-5" transform="translate(0,853)" style="stroke: rgb(68, 68, 68); stroke-opacity: 1; stroke-width: 1px;"/><path class="ytick ticks crisp" d="M29,0h-5" transform="translate(0,737.57)" style="stroke: rgb(68, 68, 68); stroke-opacity: 1; stroke-width: 1px;"/><path class="ytick ticks crisp" d="M29,0h-5" transform="translate(0,622.14)" style="stroke: rgb(68, 68, 68); stroke-opacity: 1; stroke-width: 1px;"/><path class="ytick ticks crisp" d="M29,0h-5" transform="translate(0,506.71)" style="stroke: rgb(68, 68, 68); stroke-opacity: 1; stroke-width: 1px;"/><path class="ytick ticks crisp" d="M29,0h-5" transform="translate(0,391.29)" style="stroke: rgb(68, 68, 68); stroke-opacity: 1; stroke-width: 1px;"/><path class="ytick ticks crisp" d="M29,0h-5" transform="translate(0,275.86)" style="stroke: rgb(68, 68, 68); stroke-opacity: 1; stroke-width: 1px;"/><path class="ytick ticks crisp" d="M29,0h-5" transform="translate(0,160.43)" style="stroke: rgb(68, 68, 68); stroke-opacity: 1; stroke-width: 1px;"/><path class="ytick ticks crisp" d="M29,0h-5" transform="translate(0,45)" style="stroke: rgb(68, 68, 68); stroke-opacity: 1; stroke-width: 1px;"/><g class="ytick"><text text-anchor="end" x="17.6" y="11.2" transform="translate(0,853)" style="font-family: Arial; font-size: 32px; fill: rgb(255, 255, 255); fill-opacity: 0.8; white-space: pre;">0</text></g><g class="ytick"><text text-anchor="end" x="17.6" y="11.2" style="font-family: Arial; font-size: 32px; fill: rgb(255, 255, 255); fill-opacity: 0.8; white-space: pre;" transform="translate(0,737.57)">1</text></g><g class="ytick"><text text-anchor="end" x="17.6" y="11.2" style="font-family: Arial; font-size: 32px; fill: rgb(255, 255, 255); fill-opacity: 0.8; white-space: pre;" transform="translate(0,622.14)">2</text></g><g class="ytick"><text text-anchor="end" x="17.6" y="11.2" style="font-family: Arial; font-size: 32px; fill: rgb(255, 255, 255); fill-opacity: 0.8; white-space: pre;" transform="translate(0,506.71)">3</text></g><g class="ytick"><text text-anchor="end" x="17.6" y="11.2" style="font-family: Arial; font-size: 32px; fill: rgb(255, 255, 255); fill-opacity: 0.8; white-space: pre;" transform="translate(0,391.29)">4</text></g><g class="ytick"><text text-anchor="end" x="17.6" y="11.2" style="font-family: Arial; font-size: 32px; fill: rgb(255, 255, 255); fill-opacity: 0.8; white-space: pre;" transform="translate(0,275.86)">5</text></g><g class="ytick"><text text-anchor="end" x="17.6" y="11.2" style="font-family: Arial; font-size: 32px; fill: rgb(255, 255, 255); fill-opacity: 0.8; white-space: pre;" transform="translate(0,160.43)">6</text></g><g class="ytick"><text text-anchor="end" x="17.6" y="11.2" style="font-family: Arial; font-size: 32px; fill: rgb(255, 255, 255); fill-opacity: 0.8; white-space: pre;" transform="translate(0,45)">7</text></g></g><g class="overaxes-above"/></g></g><g class="polarlayer"/><g class="smithlayer"/><g class="ternarylayer"/><g class="geolayer"/><g class="funnelarealayer"/><g class="pielayer"/><g class="iciclelayer"/><g class="treemaplayer"/><g class="sunburstlayer"/><g class="glimages"/><defs id="topdefs-291c18"><g class="clips"/><clipPath id="legend291c18"><rect width="333" height="233" x="0" y="0"/></clipPath></defs><g class="layer-above"><g class="imagelayer"/><g class="shapelayer"/></g><g class="infolayer"><g class="legend" pointer-events="all" transform="translate(30,0)"><rect class="bg" shape-rendering="crispEdges" style="stroke: rgb(0, 0, 0); stroke-opacity: 0; fill: rgb(23, 27, 38); fill-opacity: 0.8; stroke-width: 0px;" width="333" height="233" x="0" y="0"/><g class="scrollbox" transform="" clip-path="url(#legend291c18)"><g class="groups" transform=""><g class="traces" transform="translate(0,27.3)" style="opacity: 1;"><text class="legendtext" text-anchor="start" x="40" y="12.48" style="font-family: Arial; font-size: 32px; fill: rgb(255, 255, 255); fill-opacity: 0.8; white-space: pre;">软件</text><g class="layers" style="opacity: 1;"><g class="legendfill"/><g class="legendlines"><path class="js-line" d="M5,0h30" style="fill: none; stroke: rgb(214, 10, 34); stroke-opacity: 1; stroke-width: 3px;"/></g><g class="legendsymbols"><g class="legendpoints"/></g></g><rect class="legendtoggle" x="0" y="-22.3" width="328" height="44.6" style="fill: rgb(0, 0, 0); fill-opacity: 0;"/></g></g><g class="groups" transform=""><g class="traces" transform="translate(0,71.9)" style="opacity: 1;"><text class="legendtext" text-anchor="start" x="40" y="12.48" style="font-family: Arial; font-size: 32px; fill: rgb(255, 255, 255); fill-opacity: 0.8; white-space: pre;">石油天然气勘探生产</text><g class="layers" style="opacity: 1;"><g class="legendfill"/><g class="legendlines"><path class="js-line" d="M5,0h30" style="fill: none; stroke: rgb(234, 112, 52); stroke-opacity: 1; stroke-width: 3px;"/></g><g class="legendsymbols"><g class="legendpoints"/></g></g><rect class="legendtoggle" x="0" y="-22.3" width="328" height="44.6" style="fill: rgb(0, 0, 0); fill-opacity: 0;"/></g></g><g class="groups" transform=""><g class="traces" transform="translate(0,116.5)" style="opacity: 1;"><text class="legendtext" text-anchor="start" x="40" y="12.48" style="font-family: Arial; font-size: 32px; fill: rgb(255, 255, 255); fill-opacity: 0.8; white-space: pre;">生物技术</text><g class="layers" style="opacity: 1;"><g class="legendfill"/><g class="legendlines"><path class="js-line" d="M5,0h30" style="fill: none; stroke: rgb(255, 215, 71); stroke-opacity: 1; stroke-width: 3px;"/></g><g class="legendsymbols"><g class="legendpoints"/></g></g><rect class="legendtoggle" x="0" y="-22.3" width="328" height="44.6" style="fill: rgb(0, 0, 0); fill-opacity: 0;"/></g></g><g class="groups" transform=""><g class="traces" transform="translate(0,161.10000000000002)" style="opacity: 1;"><text class="legendtext" text-anchor="start" x="40" y="12.48" style="font-family: Arial; font-size: 32px; fill: rgb(255, 255, 255); fill-opacity: 0.8; white-space: pre;">通信设备</text><g class="layers" style="opacity: 1;"><g class="legendfill"/><g class="legendlines"><path class="js-line" d="M5,0h30" style="fill: none; stroke: rgb(129, 169, 73); stroke-opacity: 1; stroke-width: 3px;"/></g><g class="legendsymbols"><g class="legendpoints"/></g></g><rect class="legendtoggle" x="0" y="-22.3" width="328" height="44.6" style="fill: rgb(0, 0, 0); fill-opacity: 0;"/></g></g><g class="groups" transform=""><g class="traces" transform="translate(0,205.70000000000002)" style="opacity: 1;"><text class="legendtext" text-anchor="start" x="40" y="12.48" style="font-family: Arial; font-size: 32px; fill: rgb(255, 255, 255); fill-opacity: 0.8; white-space: pre;">石油天然气炼制销售</text><g class="layers" style="opacity: 1;"><g class="legendfill"/><g class="legendlines"><path class="js-line" d="M5,0h30" style="fill: none; stroke: rgb(3, 123, 102); stroke-opacity: 1; stroke-width: 3px;"/></g><g class="legendsymbols"><g class="legendpoints"/></g></g><rect class="legendtoggle" x="0" y="-22.3" width="328" height="44.6" style="fill: rgb(0, 0, 0); fill-opacity: 0;"/></g></g></g><rect class="scrollbar" rx="20" ry="3" width="0" height="0" style="fill: rgb(128, 139, 164); fill-opacity: 1;" x="0" y="0"/></g><g class="g-gtitle"><text class="gtitle" x="720" y="90" text-anchor="middle" dy="0.7em" style="opacity: 0.8; font-family: Arial; font-size: 35px; fill: rgb(255, 255, 255); fill-opacity: 1; white-space: pre;">Last 180 days top5 Positions</text></g><g class="g-xtitle"/><g class="g-ytitle"/></g></svg>