<svg class="main-svg" xmlns="http://www.w3.org/2000/svg" xmlns:xlink="http://www.w3.org/1999/xlink" width="1728" height="1080" style="" viewBox="0 0 1440 900"><rect x="0" y="0" width="1440" height="900" style="fill: rgb(0, 0, 0); fill-opacity: 0;"/><defs id="defs-e8924c"><g class="clips"/><g class="gradients"/><g class="patterns"/></defs><g class="bglayer"/><g class="layer-below"><g class="imagelayer"/><g class="shapelayer"/></g><g class="cartesianlayer"/><g class="polarlayer"/><g class="smithlayer"/><g class="ternarylayer"/><g class="geolayer"/><g class="funnelarealayer"/><g class="pielayer"><g class="trace" stroke-linejoin="round" style="opacity: 0.8;"><g class="slice"><path class="surface" d="M840.5999935370894,384.93018519275176a115.90909090909089,115.90909090909089 0 0 0 -101.07845412575949,-59.181113094624166l0,-270.4545454545454a386.3636363636363,386.3636363636363 0 0 1 336.9281804191983,197.27037698208056Z" style="pointer-events: none; fill: rgb(235, 74, 64); fill-opacity: 1; stroke-width: 2; stroke: rgb(255, 255, 255); stroke-opacity: 1;"/><g class="slicetext"><text data-notex="1" class="slicetext" transform="translate(869.2100694154497,193.25023037243636)" text-anchor="middle" x="0" y="0" style="font-family: Arial; font-size: 28px; fill: rgb(0, 0, 0); fill-opacity: 1; white-space: pre;"><tspan class="line" dy="0em" x="0" y="0">公用事业</tspan><tspan class="line" dy="1.3em" x="0" y="0">29</tspan><tspan class="line" dy="2.6em" x="0" y="0">16.9%</tspan></text></g></g><g class="slice"><path class="surface" d="M705.5411048493629,323.26202484838484a115.90909090909089,115.90909090909089 0 0 0 -80.44950899148255,32.46573372350502l-187.71552098012592,-194.70116676636704a386.3636363636363,386.3636363636363 0 0 1 268.1650299716085,-108.2191124116834Z" style="pointer-events: none; fill: rgb(238, 95, 72); fill-opacity: 1; stroke-width: 2; stroke: rgb(255, 255, 255); stroke-opacity: 1;"/><g class="slicetext"><text data-notex="1" class="slicetext" transform="translate(600.3266010344122,151.5452022875868)" text-anchor="middle" x="0" y="0" style="font-family: Arial; font-size: 28px; fill: rgb(0, 0, 0); fill-opacity: 1; white-space: pre;"><tspan class="line" dy="0em" x="0" y="0">石油和天然气</tspan><tspan class="line" dy="1.3em" x="0" y="0">21</tspan><tspan class="line" dy="2.6em" x="0" y="0">12.2%</tspan></text></g></g><g class="slice"><path class="surface" d="M604.273578166588,375.7988506028057a115.90909090909089,115.90909090909089 0 0 0 -35.38225297870427,79.21012269481177l-270.2741112637692,-9.87754714513955a386.3636363636363,386.3636363636363 0 0 1 117.94084326234758,-264.03374231603925Z" style="pointer-events: none; fill: rgb(240, 115, 82); fill-opacity: 1; stroke-width: 2; stroke: rgb(255, 255, 255); stroke-opacity: 1;"/><g class="slicetext"><text data-notex="1" class="slicetext" transform="translate(428.0200097709059,317.6696384403031)" text-anchor="middle" x="0" y="0" style="font-family: Arial; font-size: 28px; fill: rgb(0, 0, 0); fill-opacity: 1; white-space: pre;"><tspan class="line" dy="0em" x="0" y="0">保险</tspan><tspan class="line" dy="1.3em" x="0" y="0">21</tspan><tspan class="line" dy="2.6em" x="0" y="0">12.2%</tspan></text></g></g><g class="slice"><path class="surface" d="M567.3795034859296,482.57174774983037a115.90909090909089,115.90909090909089 0 0 0 24.090123538614186,75.07382407938843l-214.06382300700278,165.29470904010012a386.3636363636363,386.3636363636363 0 0 1 -80.30041179538063,-250.2460802646281Z" style="pointer-events: none; fill: rgb(242, 133, 93); fill-opacity: 1; stroke-width: 2; stroke: rgb(255, 255, 255); stroke-opacity: 1;"/><g class="slicetext"><text data-notex="1" class="slicetext" transform="translate(408.69149286097803,547.9882270372977)" text-anchor="middle" x="0" y="0" style="font-family: Arial; font-size: 28px; fill: rgb(0, 0, 0); fill-opacity: 1; white-space: pre;"><tspan class="line" dy="0em" x="0" y="0">银行</tspan><tspan class="line" dy="1.3em" x="0" y="0">19</tspan><tspan class="line" dy="2.6em" x="0" y="0">11%</tspan></text></g></g><g class="slice"><path class="surface" d="M606.9400624932056,578.0632325525414a115.90909090909089,115.90909090909089 0 0 0 62.42436001799145,41.29956620667811l-68.40698296502275,261.66036352234903a386.3636363636363,386.3636363636363 0 0 1 -208.0812000599715,-137.66522068892704Z" style="pointer-events: none; fill: rgb(244, 150, 107); fill-opacity: 1; stroke-width: 2; stroke: rgb(255, 255, 255); stroke-opacity: 1;"/><g class="slicetext"><text data-notex="1" class="slicetext" transform="translate(537.5310859611758,723.8958038290702)" text-anchor="middle" x="0" y="0" style="font-family: Arial; font-size: 28px; fill: rgb(0, 0, 0); fill-opacity: 1; white-space: pre;"><tspan class="line" dy="0em" x="0" y="0">房地产信托</tspan><tspan class="line" dy="1.3em" x="0" y="0">18</tspan><tspan class="line" dy="2.6em" x="0" y="0">10.5%</tspan></text></g></g><g class="slice"><path class="surface" d="M690.6827215864188,587.1401557952925a115.90909090909089,115.90909090909089 0 0 0 66.74205260299881,-2.4391820883877413l87.32447310864114,255.96893864944428a386.3636363636363,386.3636363636363 0 0 1 -222.47350867666273,8.130606961292472Z" style="pointer-events: none; fill: rgb(246, 166, 122); fill-opacity: 1; stroke-width: 2; stroke: rgb(255, 255, 255); stroke-opacity: 1;"/><g class="slicetext"><text data-notex="1" class="slicetext" transform="translate(730.9547329416404,747.842327903847)" text-anchor="middle" x="0" y="0" style="font-family: Arial; font-size: 28px; fill: rgb(0, 0, 0); fill-opacity: 1; white-space: pre;"><tspan class="line" dy="0em" x="0" y="0">药品制造</tspan><tspan class="line" dy="1.3em" x="0" y="0">16</tspan><tspan class="line" dy="2.6em" x="0" y="0">9.3%</tspan></text></g></g><g class="slice"><path class="surface" d="M757.4247741894176,584.7009737069047a115.90909090909089,115.90909090909089 0 0 0 48.90109244679342,-32.35265695159968l201.42702215115912,180.47940576237838a386.3636363636363,386.3636363636363 0 0 1 -163.0036414893114,107.8421898386656Z" style="pointer-events: none; fill: rgb(248, 181, 139); fill-opacity: 1; stroke-width: 2; stroke: rgb(255, 255, 255); stroke-opacity: 1;"/><g class="slicetext"><text data-notex="1" class="slicetext" transform="translate(890.14710737875,705.2713734616593)" text-anchor="middle" x="0" y="0" style="font-family: Arial; font-size: 28px; fill: rgb(0, 0, 0); fill-opacity: 1; white-space: pre;"><tspan class="line" dy="0em" x="0" y="0">黄金</tspan><tspan class="line" dy="1.3em" x="0" y="0">14</tspan><tspan class="line" dy="2.6em" x="0" y="0">8.14%</tspan></text></g></g><g class="slice"><path class="surface" d="M806.325866636211,552.3483167553051a115.90909090909089,115.90909090909089 0 0 0 24.66874835317235,-43.955012056152505l258.9874349752279,77.91771096468919a386.3636363636363,386.3636363636363 0 0 1 -82.22916117724117,146.5167068538417Z" style="pointer-events: none; fill: rgb(249, 196, 157); fill-opacity: 1; stroke-width: 2; stroke: rgb(255, 255, 255); stroke-opacity: 1;"/><g class="slicetext"><text data-notex="1" class="slicetext" transform="translate(1012.9490660336672,608.5569410732958)rotate(29.302325581395337)" text-anchor="middle" x="0" y="0" style="font-family: Arial; font-size: 28px; fill: rgb(0, 0, 0); fill-opacity: 1; white-space: pre;"><tspan class="line" dy="0em" x="0" y="0">航空航天</tspan><tspan class="line" dy="1.3em" x="0" y="0">12</tspan><tspan class="line" dy="2.6em" x="0" y="0">6.98%</tspan></text></g></g><g class="slice"><path class="surface" d="M830.9946149893834,508.3933046991525a115.90909090909089,115.90909090909089 0 0 0 4.219134413428492,-46.070422033860666l268.8320819398944,-29.579940447652355a386.3636363636363,386.3636363636363 0 0 1 -14.063781378094973,153.56807344620222Z" style="pointer-events: none; fill: rgb(251, 210, 176); fill-opacity: 1; stroke-width: 2; stroke: rgb(255, 255, 255); stroke-opacity: 1;"/><g class="slicetext"><text data-notex="1" class="slicetext" transform="translate(1040.743752419219,477.46749879547446)" text-anchor="middle" x="0" y="0" style="font-family: Arial; font-size: 28px; fill: rgb(0, 0, 0); fill-opacity: 1; white-space: pre;"><tspan class="line" dy="0em" x="0" y="0">软件</tspan><tspan class="line" dy="1.3em" x="0" y="0">11</tspan><tspan class="line" dy="2.6em" x="0" y="0">6.4%</tspan></text></g></g><g class="slice"><path class="surface" d="M835.2137494028119,462.32288266529184a115.90909090909089,115.90909090909089 0 0 0 -14.135295277052364,-44.05086047975853l235.8497262934389,-132.3652815670889a386.3636363636363,386.3636363636363 0 0 1 47.11765092350788,146.8362015991951Z" style="pointer-events: none; fill: rgb(253, 224, 197); fill-opacity: 1; stroke-width: 2; stroke: rgb(255, 255, 255); stroke-opacity: 1;"/><g class="slicetext"><text data-notex="1" class="slicetext" transform="translate(1021.1561380822268,350.10571978713244)rotate(-17.790697674418595)" text-anchor="middle" x="0" y="0" style="font-family: Arial; font-size: 28px; fill: rgb(0, 0, 0); fill-opacity: 1; white-space: pre;"><tspan class="line" dy="0em" x="0" y="0">生物技术</tspan><tspan class="line" dy="1.3em" x="0" y="0">11</tspan><tspan class="line" dy="2.6em" x="0" y="0">6.4%</tspan></text></g></g></g></g><g class="iciclelayer"/><g class="treemaplayer"/><g class="sunburstlayer"/><g class="glimages"/><defs id="topdefs-e8924c"><g class="clips"/></defs><g class="layer-above"><g class="imagelayer"/><g class="shapelayer"/></g><g class="infolayer"><g class="g-gtitle"><text class="gtitle" x="72" y="25" text-anchor="start" dy="0em" style="opacity: 1; font-family: Arial; font-size: 32px; fill: rgb(0, 0, 0); fill-opacity: 1; white-space: pre;">Top10 Position</text></g></g></svg>