<svg class="main-svg" xmlns="http://www.w3.org/2000/svg" xmlns:xlink="http://www.w3.org/1999/xlink" width="1728" height="1080" style="" viewBox="0 0 1440 900"><rect x="0" y="0" width="1440" height="900" style="fill: rgb(0, 0, 0); fill-opacity: 0;"/><defs id="defs-ae189e"><g class="clips"/><g class="gradients"/><g class="patterns"/></defs><g class="bglayer"/><g class="layer-below"><g class="imagelayer"/><g class="shapelayer"/></g><g class="cartesianlayer"/><g class="polarlayer"/><g class="smithlayer"/><g class="ternarylayer"/><g class="geolayer"/><g class="funnelarealayer"/><g class="pielayer"><g class="trace" stroke-linejoin="round" style="opacity: 0.8;"><g class="slice"><path class="surface" d="M863.4015078638896,449.4206280983942a115.90909090909089,115.90909090909089 0 0 0 -115.89863831735805,-117.46568705264228l0,-270.4545454545454a386.3636363636363,386.3636363636363 0 0 1 386.3287943911935,391.5522901754743Z" style="pointer-events: none; fill: rgb(235, 74, 64); fill-opacity: 1; stroke-width: 2; stroke: rgb(255, 255, 255); stroke-opacity: 1;"/><g class="slicetext"><text data-notex="1" class="slicetext" transform="translate(926.2715215989863,244.5739896613211)" text-anchor="middle" x="0" y="0" style="font-family: Arial; font-size: 28px; fill: rgb(255, 255, 255); fill-opacity: 1; white-space: pre;"><tspan class="line" dy="0em" x="0" y="0">计算机硬件</tspan><tspan class="line" dy="1.3em" x="0" y="0">85,857.87</tspan><tspan class="line" dy="2.6em" x="0" y="0">25.2%</tspan></text></g></g><g class="slice"><path class="surface" d="M703.1590378331904,324.31806640674813a115.90909090909089,115.90909090909089 0 0 0 -90.9414975365671,44.044208099901965l-212.1968275853232,-167.68472655477416a386.3636363636363,386.3636363636363 0 0 1 303.1383251218903,-146.81402699967322Z" style="pointer-events: none; fill: rgb(238, 95, 72); fill-opacity: 1; stroke-width: 2; stroke: rgb(255, 255, 255); stroke-opacity: 1;"/><g class="slicetext"><text data-notex="1" class="slicetext" transform="translate(585.8726458085262,171.15058364489113)" text-anchor="middle" x="0" y="0" style="font-family: Arial; font-size: 28px; fill: rgb(255, 255, 255); fill-opacity: 1; white-space: pre;"><tspan class="line" dy="0em" x="0" y="0">银行</tspan><tspan class="line" dy="1.3em" x="0" y="0">48,886.47</tspan><tspan class="line" dy="2.6em" x="0" y="0">14.4%</tspan></text></g></g><g class="slice"><path class="surface" d="M592.9266762425699,389.45082952258804a115.90909090909089,115.90909090909089 0 0 0 -24.790273122499514,65.45593472942518l-270.04079820448874,-14.95421218611542a386.3636363636363,386.3636363636363 0 0 1 82.63424374166505,-218.18644909808393Z" style="pointer-events: none; fill: rgb(240, 115, 82); fill-opacity: 1; stroke-width: 2; stroke: rgb(255, 255, 255); stroke-opacity: 1;"/><g class="slicetext"><text data-notex="1" class="slicetext" transform="translate(406.3433039990836,329.3018452979189)" text-anchor="middle" x="0" y="0" style="font-family: Arial; font-size: 28px; fill: rgb(255, 255, 255); fill-opacity: 1; white-space: pre;"><tspan class="line" dy="0em" x="0" y="0">公用事业</tspan><tspan class="line" dy="1.3em" x="0" y="0">33,245.41</tspan><tspan class="line" dy="2.6em" x="0" y="0">9.76%</tspan></text></g></g><g class="slice"><path class="surface" d="M566.8263560636884,478.1238752445222a115.90909090909089,115.90909090909089 0 0 0 17.155528927185433,67.38141663229675l-230.01123070772272,142.26909328924364a386.3636363636363,386.3636363636363 0 0 1 -57.18509642395145,-224.60472210765582Z" style="pointer-events: none; fill: rgb(242, 133, 93); fill-opacity: 1; stroke-width: 2; stroke: rgb(255, 255, 255); stroke-opacity: 1;"/><g class="slicetext"><text data-notex="1" class="slicetext" transform="translate(391.83857159324907,530.7863449910606)rotate(-14.2842066341276)" text-anchor="middle" x="0" y="0" style="font-family: Arial; font-size: 28px; fill: rgb(255, 255, 255); fill-opacity: 1; white-space: pre;"><tspan class="line" dy="0em" x="0" y="0">汽车零部件</tspan><tspan class="line" dy="1.3em" x="0" y="0">33,018.86</tspan><tspan class="line" dy="2.6em" x="0" y="0">9.7%</tspan></text></g></g><g class="slice"><path class="surface" d="M594.3515243963269,563.5380766218706a115.90909090909089,115.90909090909089 0 0 0 39.393837521738206,38.688759551876544l-138.09227649033357,232.54286557695556a386.3636363636363,386.3636363636363 0 0 1 -131.31279173912736,-128.96253183958848Z" style="pointer-events: none; fill: rgb(244, 150, 107); fill-opacity: 1; stroke-width: 2; stroke: rgb(255, 255, 255); stroke-opacity: 1;"/><g class="slicetext"><text data-notex="1" class="slicetext" transform="translate(459.48103319536375,701.8672804601449)rotate(-45.51736104411793)" text-anchor="middle" x="0" y="0" style="font-family: Arial; font-size: 28px; fill: rgb(255, 255, 255); fill-opacity: 1; white-space: pre;"><tspan class="line" dy="0em" x="0" y="0">药品制造</tspan><tspan class="line" dy="1.3em" x="0" y="0">26,067.35</tspan><tspan class="line" dy="2.6em" x="0" y="0">7.66%</tspan></text></g></g><g class="slice"><path class="surface" d="M660.817595789857,574.6612281044095a115.90909090909089,115.90909090909089 0 0 0 52.215043000264274,16.03826728404483l-16.25717615638361,269.9654892397268a386.3636363636363,386.3636363636363 0 0 1 -174.05014333421425,-53.46089094681611Z" style="pointer-events: none; fill: rgb(246, 166, 122); fill-opacity: 1; stroke-width: 2; stroke: rgb(255, 255, 255); stroke-opacity: 1;"/><g class="slicetext"><text data-notex="1" class="slicetext" transform="translate(604.333534489686,759.9334041733451)rotate(-72.92524204075687)" text-anchor="middle" x="0" y="0" style="font-family: Arial; font-size: 28px; fill: rgb(0, 0, 0); fill-opacity: 1; white-space: pre;"><tspan class="line" dy="0em" x="0" y="0">餐厅</tspan><tspan class="line" dy="1.3em" x="0" y="0">25,782.29</tspan><tspan class="line" dy="2.6em" x="0" y="0">7.57%</tspan></text></g></g><g class="slice"><path class="surface" d="M713.0326387901213,590.6994953884544a115.90909090909089,115.90909090909089 0 0 0 53.33525001795529,-9.468914843802617l108.19174055217873,247.87135460418742a386.3636363636363,386.3636363636363 0 0 1 -177.78416672651764,31.563049479342055Z" style="pointer-events: none; fill: rgb(248, 181, 139); fill-opacity: 1; stroke-width: 2; stroke: rgb(255, 255, 255); stroke-opacity: 1;"/><g class="slicetext"><text data-notex="1" class="slicetext" transform="translate(801.1079768738003,777.9304300271286)rotate(79.93284361779138)" text-anchor="middle" x="0" y="0" style="font-family: Arial; font-size: 28px; fill: rgb(0, 0, 0); fill-opacity: 1; white-space: pre;"><tspan class="line" dy="0em" x="0" y="0">黄金</tspan><tspan class="line" dy="1.3em" x="0" y="0">25,564.2</tspan><tspan class="line" dy="2.6em" x="0" y="0">7.51%</tspan></text></g></g><g class="slice"><path class="surface" d="M766.3678888080766,581.2305805446517a115.90909090909089,115.90909090909089 0 0 0 36.518539301801006,-25.207390095509425l193.4016655897144,189.05411104799876a386.3636363636363,386.3636363636363 0 0 1 -121.72846433933668,84.02463365169808Z" style="pointer-events: none; fill: rgb(249, 196, 157); fill-opacity: 1; stroke-width: 2; stroke: rgb(255, 255, 255); stroke-opacity: 1;"/><g class="slicetext"><text data-notex="1" class="slicetext" transform="translate(920.102240154443,721.8578503933987)scale(0.9085976533212621)rotate(55.38412398703127)" text-anchor="middle" x="0" y="0" style="font-family: Arial; font-size: 28px; fill: rgb(0, 0, 0); fill-opacity: 1; white-space: pre;"><tspan class="line" dy="0em" x="0" y="0">航空航天</tspan><tspan class="line" dy="1.3em" x="0" y="0">20,876.54</tspan><tspan class="line" dy="2.6em" x="0" y="0">6.13%</tspan></text></g></g><g class="slice"><path class="surface" d="M802.8864281098776,556.0231904491424a115.90909090909089,115.90909090909089 0 0 0 24.36027463221395,-37.05658827975302l250.24230639821363,102.5887383952417a386.3636363636363,386.3636363636363 0 0 1 -81.20091544071317,123.52196093251007Z" style="pointer-events: none; fill: rgb(251, 210, 176); fill-opacity: 1; stroke-width: 2; stroke: rgb(255, 255, 255); stroke-opacity: 1;"/><g class="slicetext"><text data-notex="1" class="slicetext" transform="translate(998.1971181628825,628.636983454986)scale(0.9082275450646358)rotate(33.32013499466245)" text-anchor="middle" x="0" y="0" style="font-family: Arial; font-size: 28px; fill: rgb(0, 0, 0); fill-opacity: 1; white-space: pre;"><tspan class="line" dy="0em" x="0" y="0">软件</tspan><tspan class="line" dy="1.3em" x="0" y="0">20,863.64</tspan><tspan class="line" dy="2.6em" x="0" y="0">6.13%</tspan></text></g></g><g class="slice"><path class="surface" d="M827.2467027420915,518.9666021693893a115.90909090909089,115.90909090909089 0 0 0 8.651935575266497,-42.41000602583789l270.43015607383546,3.632057668286647a386.3636363636363,386.3636363636363 0 0 1 -28.839785250888326,141.36668675279296Z" style="pointer-events: none; fill: rgb(253, 224, 197); fill-opacity: 1; stroke-width: 2; stroke: rgb(255, 255, 255); stroke-opacity: 1;"/><g class="slicetext"><text data-notex="1" class="slicetext" transform="translate(1029.9025340745309,515.0359556553403)scale(0.8443530841339333)rotate(11.53051216091103)" text-anchor="middle" x="0" y="0" style="font-family: Arial; font-size: 28px; fill: rgb(0, 0, 0); fill-opacity: 1; white-space: pre;"><tspan class="line" dy="0em" x="0" y="0">信息技术服务</tspan><tspan class="line" dy="1.3em" x="0" y="0">20,357.5</tspan><tspan class="line" dy="2.6em" x="0" y="0">5.98%</tspan></text></g></g></g></g><g class="iciclelayer"/><g class="treemaplayer"/><g class="sunburstlayer"/><g class="glimages"/><defs id="topdefs-ae189e"><g class="clips"/></defs><g class="layer-above"><g class="imagelayer"/><g class="shapelayer"/></g><g class="infolayer"><g class="g-gtitle"><text class="gtitle" x="72" y="25" text-anchor="start" dy="0em" style="opacity: 1; font-family: 'Open Sans', verdana, arial, sans-serif; font-size: 17px; fill: rgb(255, 255, 255); fill-opacity: 1; white-space: pre;">Top10 Profit</text></g></g></svg>