<svg class="main-svg" xmlns="http://www.w3.org/2000/svg" xmlns:xlink="http://www.w3.org/1999/xlink" width="1440" height="900" style="" viewBox="0 0 1440 900"><rect x="0" y="0" width="1440" height="900" style="fill: rgb(0, 0, 0); fill-opacity: 0;"/><defs id="defs-760f21"><g class="clips"><clipPath id="clip760f21xyplot" class="plotclip"><rect width="1376" height="900"/></clipPath><clipPath class="axesclip" id="clip760f21x"><rect x="64" y="0" width="1376" height="900"/></clipPath><clipPath class="axesclip" id="clip760f21y"><rect x="0" y="0" width="1440" height="900"/></clipPath><clipPath class="axesclip" id="clip760f21xy"><rect x="64" y="0" width="1376" height="900"/></clipPath></g><g class="gradients"/><g class="patterns"/></defs><g class="bglayer"><rect class="bg" x="64" y="0" width="1376" height="900" style="fill: rgb(0, 0, 0); fill-opacity: 0; stroke-width: 0;"/></g><g class="layer-below"><g class="imagelayer"/><g class="shapelayer"/></g><g class="cartesianlayer"><g class="subplot xy"><g class="layer-subplot"><g class="shapelayer"/><g class="imagelayer"/></g><g class="minor-gridlayer"><g class="x"/><g class="y"/></g><g class="gridlayer"><g class="x"><path class="xgrid crisp" transform="translate(241.8,0)" d="M0,0v900" style="stroke: rgb(255, 255, 255); stroke-opacity: 0.2; stroke-width: 1px;"/><path class="xgrid crisp" transform="translate(481.44,0)" d="M0,0v900" style="stroke: rgb(255, 255, 255); stroke-opacity: 0.2; stroke-width: 1px;"/><path class="xgrid crisp" transform="translate(713.35,0)" d="M0,0v900" style="stroke: rgb(255, 255, 255); stroke-opacity: 0.2; stroke-width: 1px;"/><path class="xgrid crisp" transform="translate(952.99,0)" d="M0,0v900" style="stroke: rgb(255, 255, 255); stroke-opacity: 0.2; stroke-width: 1px;"/><path class="xgrid crisp" transform="translate(1192.63,0)" d="M0,0v900" style="stroke: rgb(255, 255, 255); stroke-opacity: 0.2; stroke-width: 1px;"/><path class="xgrid crisp" transform="translate(1409.08,0)" d="M0,0v900" style="stroke: rgb(255, 255, 255); stroke-opacity: 0.2; stroke-width: 1px;"/></g><g class="y"><path class="ygrid crisp" transform="translate(0,524.25)" d="M64,0h1376" style="stroke: rgb(255, 255, 255); stroke-opacity: 0.2; stroke-width: 1px;"/><path class="ygrid crisp" transform="translate(0,316.91)" d="M64,0h1376" style="stroke: rgb(255, 255, 255); stroke-opacity: 0.2; stroke-width: 1px;"/><path class="ygrid crisp" transform="translate(0,109.58)" d="M64,0h1376" style="stroke: rgb(255, 255, 255); stroke-opacity: 0.2; stroke-width: 1px;"/></g></g><g class="zerolinelayer"><path class="yzl zl crisp" transform="translate(0,731.59)" d="M64,0h1376" style="stroke: rgb(255, 255, 255); stroke-opacity: 1; stroke-width: 2px;"/></g><g class="layer-between"><g class="shapelayer"/><g class="imagelayer"/></g><path class="xlines-below"/><path class="ylines-below"/><g class="overlines-below"/><g class="xaxislayer-below"/><g class="yaxislayer-below"/><g class="overaxes-below"/><g class="overplot"><g class="xy" transform="translate(64,0)" clip-path="url(#clip760f21xyplot)"><g class="scatterlayer mlayer"><g class="trace scatter trace781b1a" style="stroke-miterlimit: 2; opacity: 1;"><g class="fills"/><g class="errorbars"/><g class="lines"><path class="js-line" d="M1376,216.49L1368.27,371.77L1360.54,481.67L1352.81,490.16L1329.62,478.16L1321.89,487.54L1314.16,559.68L1306.43,550.74L1298.7,561.6L1275.51,543.19L1267.78,545.51L1260.04,591.1L1252.31,599.55L1221.39,560.51L1213.66,577.46L1205.93,471.68L1198.2,522.39L1190.47,575.67L1167.28,596.24L1159.55,638.01L1151.82,584.57L1144.09,612.11L1136.36,644.02L1113.17,626.19L1105.44,591.94L1097.71,591.86L1089.98,574.45L1082.25,587.75L1059.06,587.42L1051.33,634.5L1043.6,630.38L1035.87,698.34L1004.94,674.02L997.21,629.44L989.48,639.79L981.75,665.08L974.02,678.65L950.83,692.22L943.1,715.79L935.37,738.16L927.64,718.85L919.91,741.49L896.72,733L873.53,727.34L865.8,731.59L819.42,731.59L811.69,761.36L788.49,754.6L780.76,750.09L773.03,753.24L765.3,750.54L757.57,709.31L734.38,700.53L726.65,687.01L718.92,702.11L711.19,695.36L703.46,709.55L680.27,702.11L672.54,681.59L664.81,643.27L657.08,672.78L649.35,698.48L626.16,690.6L610.7,690.6L602.97,692.17L595.24,674.83L572.04,679.56L564.31,685.87L556.58,711.27L548.85,683.13L541.12,692.47L517.93,670.01L510.2,717.11L502.47,670.19L494.74,671.68L487.01,752.08L463.82,755.24L456.09,766.27L448.36,750.51L440.63,804.55L432.9,785.33L409.71,776.33L401.98,781.67L394.25,727.1L386.52,720.33L378.79,701.26L355.6,701.5L347.87,714.53L340.13,742.65L332.4,756.49L324.67,752.8L301.48,763.87L293.75,758.79L286.02,743.58L278.29,747.73L270.56,738.5L247.37,754.64L239.64,734.82L231.91,738.97L224.18,727.44L216.45,728.36L193.26,731.59L185.53,731.59L177.8,731.59L170.07,744.34L162.34,734.14L139.15,730.06L131.42,734.65L123.69,728.53L115.96,752.56L108.22,740.71L85.03,729.89L77.3,711.01L69.57,705L61.84,709.76L54.11,701.04L30.92,718.15L23.19,710.67L15.46,717.25L7.73,703.96L0,657.48" style="vector-effect: none; fill: none; stroke: rgb(214, 10, 34); stroke-opacity: 1; stroke-width: 3px; opacity: 1;"/></g><g class="points"/><g class="text"/></g><g class="trace scatter tracebac079" style="stroke-miterlimit: 2; opacity: 1;"><g class="fills"/><g class="errorbars"/><g class="lines"><path class="js-line" d="M1376,252.99L1368.27,282.82L1360.54,492.79L1352.81,500.94L1329.62,600.06L1321.89,555.81L1314.16,592.9L1306.43,758.03L1298.7,768.08L1275.51,732.44L1267.78,739.65L1260.04,731.59L1252.31,731.59L1004.94,731.59L997.21,801.14L989.48,728.35L981.75,733.22L974.02,745.18L950.83,752.74L943.1,757.95L935.37,752.65L927.64,736.76L919.91,731.59L780.76,731.59L773.03,759.9L765.3,722.85L757.57,763.15L734.38,694.4L726.65,593.7L718.92,682.22L711.19,676.82L703.46,707.37L680.27,705.38L672.54,665.13L664.81,682.18L657.08,752.6L649.35,769.03L626.16,731.59L610.7,731.59L463.82,731.59L456.09,697.05L448.36,642.76L440.63,662.79L432.9,626.55L409.71,627.61L401.98,714.45L394.25,664.51L378.79,627.25L355.6,652.25L347.87,671.49L340.13,696.55L332.4,680.27L324.67,666.31L301.48,687.07L293.75,681.68L286.02,672.13L278.29,669.31L270.56,682.64L247.37,701.1L239.64,605.51L231.91,611.17L224.18,636.62L216.45,639.8L193.26,631.73L185.53,631.41L177.8,654.54L170.07,640.3L162.34,663.07L139.15,715.73L131.42,712.66L123.69,698.03L115.96,708.52L108.22,692.67L85.03,673.12L77.3,698.17L69.57,734.96L61.84,727.83L54.11,739.15L30.92,765.23L23.19,729.93L15.46,730.95L7.73,727.29L0,731.59" style="vector-effect: none; fill: none; stroke: rgb(234, 112, 52); stroke-opacity: 1; stroke-width: 3px; opacity: 1;"/></g><g class="points"/><g class="text"/></g><g class="trace scatter tracecdd8e9" style="stroke-miterlimit: 2; opacity: 1;"><g class="fills"/><g class="errorbars"/><g class="lines"><path class="js-line" d="M1376,357.67L1368.27,474.26L1360.54,541.37L1352.81,632.85L1329.62,671.56L1321.89,562.86L1314.16,631.39L1306.43,701.25L1298.7,759.99L1275.51,688.49L1267.78,689.82L1252.31,750.49L1221.39,743.92L1213.66,815.99L1205.93,765.49L1198.2,722.74L1190.47,732.85L1167.28,745.65L1159.55,759.1L1151.82,751.56L1144.09,802.77L1136.36,754.58L1113.17,749.5L1105.44,853L1097.71,758.89L1089.98,759.44L1082.25,719.87L1059.06,731.17L1051.33,731.1L1043.6,744.84L1035.87,779.85L1004.94,803.66L997.21,774.37L989.48,784.91L981.75,738.44L974.02,690.77L950.83,716.06L943.1,735.37L935.37,723.86L927.64,719.49L919.91,724.82L896.72,739.45L881.26,630.9L873.53,578.52L865.8,552.04L842.61,516.82L827.15,539.44L819.42,567.13L811.69,451.78L788.49,459.63L780.76,507.43L773.03,510.35L765.3,518.74L757.57,635.92L734.38,438.85L726.65,428.73L718.92,401.24L711.19,378.15L703.46,447.8L680.27,471.16L672.54,524.86L664.81,551.22L657.08,662.28L649.35,691.48L626.16,681.75L610.7,686.25L602.97,673.68L595.24,711.16L572.04,709.42L564.31,766.54L556.58,757.19L548.85,776.47L541.12,792.36L517.93,761.29L510.2,747.63L502.47,726.34L494.74,723.32L487.01,705.93L463.82,722.4L456.09,766.93L448.36,738.41L440.63,776.97L432.9,722.58L409.71,707.23L401.98,738.26L394.25,752.6L386.52,644.36L378.79,648.22L355.6,649.97L347.87,696.23L340.13,731.02L332.4,692.63L324.67,644.96L301.48,655.49L293.75,619.89L286.02,536.4L278.29,586.25L270.56,533.42L247.37,669.66L239.64,471.67L231.91,430.09L216.45,396.38L193.26,471.16L185.53,502.75L177.8,514.78L162.34,395.12L139.15,281.81L131.42,296.36L123.69,218.7L115.96,170.02L108.22,45L85.03,147.04L77.3,160.12L69.57,215.37L61.84,212.35L54.11,236.18L30.92,333.44L23.19,294.26L15.46,319.05L7.73,382.08L0,406.26" style="vector-effect: none; fill: none; stroke: rgb(255, 215, 71); stroke-opacity: 1; stroke-width: 3px; opacity: 1;"/></g><g class="points"/><g class="text"/></g><g class="trace scatter tracea040cb" style="stroke-miterlimit: 2; opacity: 1;"><g class="fills"/><g class="errorbars"/><g class="lines"><path class="js-line" d="M1376,577.07L1368.27,731.59L1360.54,731.59L1329.62,731.59L1321.89,765.74L1314.16,707.06L1306.43,696.47L1298.7,717.64L1275.51,715.71L1267.78,716.68L1260.04,731.59L1144.09,731.59L1136.36,366.38L1113.17,308.4L1105.44,280.7L1097.71,267.72L1089.98,291.95L1082.25,259.07L1059.06,243.49L1051.33,73L1043.6,143.96L1035.87,192.43L1004.94,140.5L997.21,143.96L989.48,170.79L981.75,272.91L974.02,222.72L950.83,296.28L943.1,338.69L935.37,401L927.64,271.18L919.91,230.51L896.72,130.98L881.26,365.51L873.53,388.88L865.8,390.61L842.61,407.92L827.15,292.82L819.42,249.55L811.69,488.4L788.49,472.83L780.76,432.15L773.03,689.18L765.3,676.2L757.57,661.49L734.38,613.02L726.65,658.03L718.92,684.85L711.19,651.1L703.46,660.62L680.27,658.03L672.54,704.76L664.81,694.37L657.08,755.82L649.35,731.59L626.16,731.59L610.7,788.08L595.24,731.59L572.04,731.59L293.75,731.59L286.02,831.35L278.29,752.07L270.56,731.59L131.42,731.59L123.69,777.78L115.96,731.59L108.22,746.98L85.03,747.32L77.3,738.86L69.57,731.59L61.84,731.59L0,731.59" style="vector-effect: none; fill: none; stroke: rgb(129, 169, 73); stroke-opacity: 1; stroke-width: 3px; opacity: 1;"/></g><g class="points"/><g class="text"/></g><g class="trace scatter trace8434c8" style="stroke-miterlimit: 2; opacity: 1;"><g class="fills"/><g class="errorbars"/><g class="lines"><path class="js-line" d="M1376,610.29L1368.27,694.51L1360.54,727.63L1352.81,729.07L1329.62,760.02L1321.89,731.59L1314.16,731.59L1221.39,731.59L1213.66,688.96L1205.93,647.69L1198.2,627.94L1190.47,585.77L1167.28,596.98L1159.55,671.47L1151.82,589.81L1144.09,487.51L1136.36,556.16L1113.17,588.01L1105.44,536.86L1097.71,608.65L1089.98,626.6L1082.25,657.11L1059.06,644.99L1051.33,610L1043.6,640.51L1035.87,644.99L1004.94,652.62L997.21,690.76L989.48,681.34L981.75,712.29L974.02,697.04L950.83,720.82L943.1,731.59L757.57,731.59L734.38,776.02L726.65,758.05L718.92,771.61L711.19,749.23L703.46,745.83L680.27,732.94L672.54,731.59L463.82,731.59L456.09,549.28L448.36,454.95L440.63,504.77L432.9,427.39L409.71,399.31L401.98,494.7L394.25,483.57L386.52,515.37L378.79,476.68L355.6,462.9L347.87,528.09L340.13,542.39L332.4,498.94L324.67,428.98L301.48,518.55L293.75,468.73L286.02,371.75L278.29,443.82L270.56,462.37L247.37,513.78L239.64,467.14L231.91,487.81L224.18,474.56L216.45,433.75L193.26,470.85L185.53,484.1L177.8,507.95L170.07,588.5L162.34,580.55L139.15,566.77L131.42,559.35L123.69,558.29L115.96,526.5L108.22,506.89L85.03,522.26L77.3,538.15L69.57,595.39L61.84,661.63L54.11,702.44L30.92,715.16L23.19,714.63L15.46,755.44L7.73,731.59L0,731.59" style="vector-effect: none; fill: none; stroke: rgb(3, 123, 102); stroke-opacity: 1; stroke-width: 3px; opacity: 1;"/></g><g class="points"/><g class="text"/></g></g></g></g><g class="zerolinelayer-above"/><path class="xlines-above crisp" d="" style="fill: none; stroke-width: 1px; stroke: rgb(0, 0, 0); stroke-opacity: 0;"/><path class="ylines-above crisp" d="" style="fill: none; stroke-width: 1px; stroke: rgb(0, 0, 0); stroke-opacity: 0;"/><g class="overlines-above"/><g class="xaxislayer-above"><path class="xtick ticks crisp" d="M0,900v-5" transform="translate(241.8,0)" style="stroke: rgb(68, 68, 68); stroke-opacity: 1; stroke-width: 1px;"/><path class="xtick ticks crisp" d="M0,900v-5" transform="translate(481.44,0)" style="stroke: rgb(68, 68, 68); stroke-opacity: 1; stroke-width: 1px;"/><path class="xtick ticks crisp" d="M0,900v-5" transform="translate(713.35,0)" style="stroke: rgb(68, 68, 68); stroke-opacity: 1; stroke-width: 1px;"/><path class="xtick ticks crisp" d="M0,900v-5" transform="translate(952.99,0)" style="stroke: rgb(68, 68, 68); stroke-opacity: 1; stroke-width: 1px;"/><path class="xtick ticks crisp" d="M0,900v-5" transform="translate(1192.63,0)" style="stroke: rgb(68, 68, 68); stroke-opacity: 1; stroke-width: 1px;"/><path class="xtick ticks crisp" d="M0,900v-5" transform="translate(1409.08,0)" style="stroke: rgb(68, 68, 68); stroke-opacity: 1; stroke-width: 1px;"/><g class="xtick"><text text-anchor="middle" x="0" y="895" transform="translate(241.8,-3)" style="font-family: Arial; font-size: 32px; fill: rgb(255, 255, 255); fill-opacity: 0.8; white-space: pre;">Oct 2025</text></g><g class="xtick"><text text-anchor="middle" x="0" y="895" style="font-family: Arial; font-size: 32px; fill: rgb(255, 255, 255); fill-opacity: 0.8; white-space: pre;" transform="translate(481.44,-3)">Nov 2025</text></g><g class="xtick"><text text-anchor="middle" x="0" y="895" style="font-family: Arial; font-size: 32px; fill: rgb(255, 255, 255); fill-opacity: 0.8; white-space: pre;" transform="translate(713.35,-3)">Dec 2025</text></g><g class="xtick"><text text-anchor="middle" x="0" y="895" style="font-family: Arial; font-size: 32px; fill: rgb(255, 255, 255); fill-opacity: 0.8; white-space: pre;" transform="translate(952.99,-3)">Jan 2026</text></g><g class="xtick"><text text-anchor="middle" x="0" y="895" style="font-family: Arial; font-size: 32px; fill: rgb(255, 255, 255); fill-opacity: 0.8; white-space: pre;" transform="translate(1192.63,-3)">Feb 2026</text></g><g class="xtick"/></g><g class="yaxislayer-above"><path class="ytick ticks crisp" d="M63,0h-5" transform="translate(0,731.59)" style="stroke: rgb(68, 68, 68); stroke-opacity: 1; stroke-width: 1px;"/><path class="ytick ticks crisp" d="M63,0h-5" transform="translate(0,524.25)" style="stroke: rgb(68, 68, 68); stroke-opacity: 1; stroke-width: 1px;"/><path class="ytick ticks crisp" d="M63,0h-5" transform="translate(0,316.91)" style="stroke: rgb(68, 68, 68); stroke-opacity: 1; stroke-width: 1px;"/><path class="ytick ticks crisp" d="M63,0h-5" transform="translate(0,109.58)" style="stroke: rgb(68, 68, 68); stroke-opacity: 1; stroke-width: 1px;"/><g class="ytick"><text text-anchor="end" x="51.6" y="11.2" transform="translate(0,731.59)" style="font-family: 'Open Sans', verdana, arial, sans-serif; font-size: 32px; fill: rgb(255, 255, 255); fill-opacity: 0.8; white-space: pre;">0</text></g><g class="ytick"><text text-anchor="end" x="51.6" y="11.2" style="font-family: 'Open Sans', verdana, arial, sans-serif; font-size: 32px; fill: rgb(255, 255, 255); fill-opacity: 0.8; white-space: pre;" transform="translate(0,524.25)">5k</text></g><g class="ytick"><text text-anchor="end" x="51.6" y="11.2" style="font-family: 'Open Sans', verdana, arial, sans-serif; font-size: 32px; fill: rgb(255, 255, 255); fill-opacity: 0.8; white-space: pre;" transform="translate(0,316.91)">10k</text></g><g class="ytick"><text text-anchor="end" x="51.6" y="11.2" style="font-family: 'Open Sans', verdana, arial, sans-serif; font-size: 32px; fill: rgb(255, 255, 255); fill-opacity: 0.8; white-space: pre;" transform="translate(0,109.58)">15k</text></g></g><g class="overaxes-above"/></g></g><g class="polarlayer"/><g class="smithlayer"/><g class="ternarylayer"/><g class="geolayer"/><g class="funnelarealayer"/><g class="pielayer"/><g class="iciclelayer"/><g class="treemaplayer"/><g class="sunburstlayer"/><g class="glimages"/><defs id="topdefs-760f21"><g class="clips"/><clipPath id="legend760f21"><rect width="269" height="233" x="0" y="0"/></clipPath></defs><g class="layer-above"><g class="imagelayer"/><g class="shapelayer"/></g><g class="infolayer"><g class="legend" pointer-events="all" transform="translate(64,0)"><rect class="bg" shape-rendering="crispEdges" style="stroke: rgb(0, 0, 0); stroke-opacity: 0; fill: rgb(23, 27, 38); fill-opacity: 0.8; stroke-width: 0px;" width="269" height="233" x="0" y="0"/><g class="scrollbox" transform="" clip-path="url(#legend760f21)"><g class="groups" transform=""><g class="traces" transform="translate(0,27.3)" style="opacity: 1;"><text class="legendtext" text-anchor="start" x="40" y="12.48" style="font-family: Arial; font-size: 32px; fill: rgb(255, 255, 255); fill-opacity: 0.8; white-space: pre;">化学品</text><g class="layers" style="opacity: 1;"><g class="legendfill"/><g class="legendlines"><path class="js-line" d="M5,0h30" style="fill: none; stroke: rgb(214, 10, 34); stroke-opacity: 1; stroke-width: 3px;"/></g><g class="legendsymbols"><g class="legendpoints"/></g></g><rect class="legendtoggle" x="0" y="-22.3" width="264" height="44.6" style="fill: rgb(0, 0, 0); fill-opacity: 0;"/></g></g><g class="groups" transform=""><g class="traces" transform="translate(0,71.9)" style="opacity: 1;"><text class="legendtext" text-anchor="start" x="40" y="12.48" style="font-family: Arial; font-size: 32px; fill: rgb(255, 255, 255); fill-opacity: 0.8; white-space: pre;">资本市场</text><g class="layers" style="opacity: 1;"><g class="legendfill"/><g class="legendlines"><path class="js-line" d="M5,0h30" style="fill: none; stroke: rgb(234, 112, 52); stroke-opacity: 1; stroke-width: 3px;"/></g><g class="legendsymbols"><g class="legendpoints"/></g></g><rect class="legendtoggle" x="0" y="-22.3" width="264" height="44.6" style="fill: rgb(0, 0, 0); fill-opacity: 0;"/></g></g><g class="groups" transform=""><g class="traces" transform="translate(0,116.5)" style="opacity: 1;"><text class="legendtext" text-anchor="start" x="40" y="12.48" style="font-family: Arial; font-size: 32px; fill: rgb(255, 255, 255); fill-opacity: 0.8; white-space: pre;">软件</text><g class="layers" style="opacity: 1;"><g class="legendfill"/><g class="legendlines"><path class="js-line" d="M5,0h30" style="fill: none; stroke: rgb(255, 215, 71); stroke-opacity: 1; stroke-width: 3px;"/></g><g class="legendsymbols"><g class="legendpoints"/></g></g><rect class="legendtoggle" x="0" y="-22.3" width="264" height="44.6" style="fill: rgb(0, 0, 0); fill-opacity: 0;"/></g></g><g class="groups" transform=""><g class="traces" transform="translate(0,161.10000000000002)" style="opacity: 1;"><text class="legendtext" text-anchor="start" x="40" y="12.48" style="font-family: Arial; font-size: 32px; fill: rgb(255, 255, 255); fill-opacity: 0.8; white-space: pre;">石油天然气钻探</text><g class="layers" style="opacity: 1;"><g class="legendfill"/><g class="legendlines"><path class="js-line" d="M5,0h30" style="fill: none; stroke: rgb(129, 169, 73); stroke-opacity: 1; stroke-width: 3px;"/></g><g class="legendsymbols"><g class="legendpoints"/></g></g><rect class="legendtoggle" x="0" y="-22.3" width="264" height="44.6" style="fill: rgb(0, 0, 0); fill-opacity: 0;"/></g></g><g class="groups" transform=""><g class="traces" transform="translate(0,205.70000000000002)" style="opacity: 1;"><text class="legendtext" text-anchor="start" x="40" y="12.48" style="font-family: Arial; font-size: 32px; fill: rgb(255, 255, 255); fill-opacity: 0.8; white-space: pre;">电气设备零件</text><g class="layers" style="opacity: 1;"><g class="legendfill"/><g class="legendlines"><path class="js-line" d="M5,0h30" style="fill: none; stroke: rgb(3, 123, 102); stroke-opacity: 1; stroke-width: 3px;"/></g><g class="legendsymbols"><g class="legendpoints"/></g></g><rect class="legendtoggle" x="0" y="-22.3" width="264" height="44.6" style="fill: rgb(0, 0, 0); fill-opacity: 0;"/></g></g></g><rect class="scrollbar" rx="20" ry="3" width="0" height="0" style="fill: rgb(128, 139, 164); fill-opacity: 1;" x="0" y="0"/></g><g class="g-gtitle"><text class="gtitle" x="720" y="90" text-anchor="middle" dy="0.7em" style="opacity: 0.8; font-family: Arial; font-size: 35px; fill: rgb(255, 255, 255); fill-opacity: 1; white-space: pre;">Last 180 days top5 pnl</text></g><g class="g-xtitle"/><g class="g-ytitle"/></g></svg>