<svg class="main-svg" xmlns="http://www.w3.org/2000/svg" xmlns:xlink="http://www.w3.org/1999/xlink" width="1440" height="900" style="" viewBox="0 0 1440 900"><rect x="0" y="0" width="1440" height="900" style="fill: rgb(0, 0, 0); fill-opacity: 0;"/><defs id="defs-71fece"><g class="clips"><clipPath id="clip71fecexyplot" class="plotclip"><rect width="1392" height="900"/></clipPath><clipPath class="axesclip" id="clip71fecex"><rect x="48" y="0" width="1392" height="900"/></clipPath><clipPath class="axesclip" id="clip71fecey"><rect x="0" y="0" width="1440" height="900"/></clipPath><clipPath class="axesclip" id="clip71fecexy"><rect x="48" y="0" width="1392" height="900"/></clipPath></g><g class="gradients"/><g class="patterns"/></defs><g class="bglayer"><rect class="bg" x="48" y="0" width="1392" height="900" style="fill: rgb(0, 0, 0); fill-opacity: 0; stroke-width: 0;"/></g><g class="layer-below"><g class="imagelayer"/><g class="shapelayer"/></g><g class="cartesianlayer"><g class="subplot xy"><g class="layer-subplot"><g class="shapelayer"/><g class="imagelayer"/></g><g class="minor-gridlayer"><g class="x"/><g class="y"/></g><g class="gridlayer"><g class="x"><path class="xgrid crisp" transform="translate(227.87,0)" d="M0,0v900" style="stroke: rgb(255, 255, 255); stroke-opacity: 0.2; stroke-width: 1px;"/><path class="xgrid crisp" transform="translate(470.29,0)" d="M0,0v900" style="stroke: rgb(255, 255, 255); stroke-opacity: 0.2; stroke-width: 1px;"/><path class="xgrid crisp" transform="translate(704.9,0)" d="M0,0v900" style="stroke: rgb(255, 255, 255); stroke-opacity: 0.2; stroke-width: 1px;"/><path class="xgrid crisp" transform="translate(947.33,0)" d="M0,0v900" style="stroke: rgb(255, 255, 255); stroke-opacity: 0.2; stroke-width: 1px;"/><path class="xgrid crisp" transform="translate(1189.75,0)" d="M0,0v900" style="stroke: rgb(255, 255, 255); stroke-opacity: 0.2; stroke-width: 1px;"/><path class="xgrid crisp" transform="translate(1408.72,0)" d="M0,0v900" style="stroke: rgb(255, 255, 255); stroke-opacity: 0.2; stroke-width: 1px;"/></g><g class="y"><path class="ygrid crisp" transform="translate(0,728.69)" d="M48,0h1392" style="stroke: rgb(255, 255, 255); stroke-opacity: 0.2; stroke-width: 1px;"/><path class="ygrid crisp" transform="translate(0,604.38)" d="M48,0h1392" style="stroke: rgb(255, 255, 255); stroke-opacity: 0.2; stroke-width: 1px;"/><path class="ygrid crisp" transform="translate(0,480.08)" d="M48,0h1392" style="stroke: rgb(255, 255, 255); stroke-opacity: 0.2; stroke-width: 1px;"/><path class="ygrid crisp" transform="translate(0,355.77)" d="M48,0h1392" style="stroke: rgb(255, 255, 255); stroke-opacity: 0.2; stroke-width: 1px;"/><path class="ygrid crisp" transform="translate(0,231.46)" d="M48,0h1392" style="stroke: rgb(255, 255, 255); stroke-opacity: 0.2; stroke-width: 1px;"/><path class="ygrid crisp" transform="translate(0,107.15)" d="M48,0h1392" style="stroke: rgb(255, 255, 255); stroke-opacity: 0.2; stroke-width: 1px;"/></g></g><g class="zerolinelayer"><path class="yzl zl crisp" transform="translate(0,853)" d="M48,0h1392" style="stroke: rgb(255, 255, 255); stroke-opacity: 1; stroke-width: 2px;"/></g><g class="layer-between"><g class="shapelayer"/><g class="imagelayer"/></g><path class="xlines-below"/><path class="ylines-below"/><g class="overlines-below"/><g class="xaxislayer-below"/><g class="yaxislayer-below"/><g class="overaxes-below"/><g class="overplot"><g class="xy" transform="translate(48,0)" clip-path="url(#clip71fecexyplot)"><g class="scatterlayer mlayer"><g class="trace scatter traced8c40c" style="stroke-miterlimit: 2; opacity: 1;"><g class="fills"/><g class="errorbars"/><g class="lines"><path class="js-line" d="M1392,231.46L1384.18,231.46L1376.36,293.62L1368.54,480.08L1345.08,480.08L1337.26,604.38L1329.44,542.23L1321.62,604.38L1313.8,604.38L1290.34,728.69L1282.52,728.69L1266.88,728.69L1235.6,790.85L1227.78,728.69L1219.96,728.69L1204.31,728.69L1180.85,790.85L1165.21,790.85L1157.39,728.69L1126.11,728.69L1118.29,542.23L1110.47,604.38L1102.65,604.38L1094.83,728.69L1071.37,728.69L1063.55,790.85L1055.73,790.85L1047.91,728.69L1016.63,604.38L1008.81,604.38L1000.99,542.23L961.89,542.23L954.07,604.38L930.61,604.38L907.15,169.31L891.51,45L883.69,45L852.4,45L836.76,107.15L774.2,107.15L766.38,45L727.28,45L719.46,107.15L711.64,45L688.18,107.15L680.36,169.31L672.54,169.31L664.72,417.92L656.9,480.08L633.44,666.54L617.8,666.54L609.98,728.69L602.16,728.69L578.7,790.85L570.88,728.69L563.06,728.69L555.24,666.54L508.31,666.54L500.49,728.69L492.67,728.69L469.21,790.85L461.39,728.69L453.57,728.69L445.75,542.23L437.93,417.92L406.65,417.92L398.83,355.77L383.19,355.77L359.73,293.62L344.09,293.62L336.27,604.38L328.45,480.08L304.99,417.92L297.17,355.77L289.35,355.77L242.43,355.77L234.61,417.92L226.79,355.77L218.97,417.92L195.51,542.23L187.69,542.23L179.87,293.62L172.04,355.77L164.22,293.62L140.76,169.31L132.94,169.31L125.12,107.15L117.3,107.15L109.48,231.46L86.02,231.46L78.2,293.62L70.38,355.77L62.56,355.77L54.74,293.62L31.28,293.62L23.46,355.77L15.64,355.77L7.82,417.92L0,417.92" style="vector-effect: none; fill: none; stroke: rgb(214, 10, 34); stroke-opacity: 1; stroke-width: 3px; opacity: 1;"/></g><g class="points"/><g class="text"/></g><g class="trace scatter tracec02880" style="stroke-miterlimit: 2; opacity: 1;"><g class="fills"/><g class="errorbars"/><g class="lines"><path class="js-line" d="M1392,231.46L1384.18,293.62L1376.36,293.62L1368.54,293.62L1345.08,355.77L1337.26,293.62L1329.44,355.77L1321.62,417.92L1313.8,417.92L1290.34,417.92L1282.52,480.08L1227.78,480.08L1219.96,542.23L1180.85,542.23L1173.03,480.08L1165.21,417.92L1157.39,417.92L1118.29,417.92L1110.47,355.77L1102.65,417.92L1094.83,417.92L1071.37,417.92L1063.55,480.08L1055.73,480.08L1047.91,417.92L1016.63,417.92L1008.81,355.77L1000.99,480.08L993.17,417.92L954.07,417.92L946.25,542.23L938.43,542.23L930.61,355.77L875.87,355.77L852.4,293.62L828.94,293.62L821.12,355.77L789.84,355.77L782.02,480.08L727.28,480.08L719.46,417.92L711.64,480.08L688.18,480.08L680.36,542.23L672.54,542.23L664.72,480.08L656.9,480.08L633.44,542.23L617.8,542.23L609.98,604.38L602.16,604.38L570.88,604.38L563.06,542.23L555.24,542.23L547.42,604.38L523.96,666.54L516.13,666.54L492.67,666.54L469.21,542.23L461.39,542.23L453.57,480.08L445.75,480.08L437.93,355.77L406.65,355.77L398.83,293.62L391.01,231.46L383.19,231.46L336.27,231.46L328.45,355.77L304.99,355.77L297.17,293.62L289.35,355.77L281.53,355.77L273.71,355.77L250.25,293.62L218.97,293.62L195.51,355.77L172.04,355.77L164.22,417.92L132.94,417.92L125.12,480.08L117.3,417.92L109.48,417.92L86.02,355.77L78.2,293.62L0,293.62" style="vector-effect: none; fill: none; stroke: rgb(234, 112, 52); stroke-opacity: 1; stroke-width: 3px; opacity: 1;"/></g><g class="points"/><g class="text"/></g><g class="trace scatter tracee1f72c" style="stroke-miterlimit: 2; opacity: 1;"><g class="fills"/><g class="errorbars"/><g class="lines"><path class="js-line" d="M1392,666.54L1384.18,666.54L1376.36,728.69L1313.8,728.69L1290.34,790.85L1282.52,790.85L1274.7,853L1016.63,853L1008.81,728.69L961.89,728.69L954.07,790.85L938.43,790.85L930.61,853L789.84,853L782.02,790.85L774.2,790.85L766.38,728.69L742.92,666.54L735.1,666.54L688.18,666.54L680.36,728.69L656.9,728.69L633.44,853L469.21,853L461.39,790.85L414.47,790.85L406.65,728.69L383.19,728.69L359.73,790.85L281.53,790.85L273.71,728.69L195.51,728.69L187.69,790.85L125.12,790.85L117.3,728.69L31.28,728.69L23.46,790.85L7.82,790.85L0,853" style="vector-effect: none; fill: none; stroke: rgb(255, 215, 71); stroke-opacity: 1; stroke-width: 3px; opacity: 1;"/></g><g class="points"/><g class="text"/></g><g class="trace scatter trace9858b8" style="stroke-miterlimit: 2; opacity: 1;"><g class="fills"/><g class="errorbars"/><g class="lines"><path class="js-line" d="M1392,666.54L1384.18,666.54L1376.36,728.69L1337.26,728.69L1329.44,666.54L1321.62,728.69L1313.8,728.69L1173.03,728.69L1165.21,790.85L1071.37,790.85L1063.55,853L1047.91,853L1016.63,790.85L1000.99,790.85L993.17,604.38L985.35,542.23L961.89,604.38L946.25,604.38L938.43,666.54L930.61,666.54L907.15,604.38L742.92,604.38L735.1,542.23L617.8,542.23L609.98,604.38L500.49,604.38L492.67,666.54L469.21,728.69L461.39,604.38L453.57,542.23L445.75,604.38L437.93,604.38L414.47,542.23L383.19,542.23L359.73,604.38L344.09,604.38L336.27,666.54L328.45,728.69L304.99,790.85L297.17,728.69L289.35,790.85L250.25,790.85L242.43,728.69L218.97,728.69L195.51,790.85L179.87,790.85L172.04,728.69L140.76,728.69L132.94,604.38L117.3,604.38L109.48,666.54L23.46,666.54L15.64,604.38L0,604.38" style="vector-effect: none; fill: none; stroke: rgb(129, 169, 73); stroke-opacity: 1; stroke-width: 3px; opacity: 1;"/></g><g class="points"/><g class="text"/></g><g class="trace scatter trace0935de" style="stroke-miterlimit: 2; opacity: 1;"><g class="fills"/><g class="errorbars"/><g class="lines"><path class="js-line" d="M1392,666.54L1384.18,604.38L1376.36,604.38L1345.08,604.38L1337.26,666.54L1329.44,728.69L1321.62,728.69L1227.78,728.69L1219.96,790.85L1180.85,790.85L1173.03,666.54L1149.57,666.54L1126.11,604.38L938.43,604.38L930.61,666.54L883.69,666.54L875.87,604.38L852.4,604.38L836.76,728.69L789.84,728.69L782.02,666.54L774.2,666.54L766.38,604.38L688.18,604.38L680.36,728.69L547.42,728.69L523.96,790.85L445.75,790.85L437.93,666.54L351.91,666.54L344.09,604.38L132.94,604.38L125.12,666.54L15.64,666.54L7.82,604.38L0,604.38" style="vector-effect: none; fill: none; stroke: rgb(3, 123, 102); stroke-opacity: 1; stroke-width: 3px; opacity: 1;"/></g><g class="points"/><g class="text"/></g></g></g></g><g class="zerolinelayer-above"/><path class="xlines-above crisp" d="" style="fill: none; stroke-width: 1px; stroke: rgb(0, 0, 0); stroke-opacity: 0;"/><path class="ylines-above crisp" d="" style="fill: none; stroke-width: 1px; stroke: rgb(0, 0, 0); stroke-opacity: 0;"/><g class="overlines-above"/><g class="xaxislayer-above"><path class="xtick ticks crisp" d="M0,900v-5" transform="translate(227.87,0)" style="stroke: rgb(68, 68, 68); stroke-opacity: 1; stroke-width: 1px;"/><path class="xtick ticks crisp" d="M0,900v-5" transform="translate(470.29,0)" style="stroke: rgb(68, 68, 68); stroke-opacity: 1; stroke-width: 1px;"/><path class="xtick ticks crisp" d="M0,900v-5" transform="translate(704.9,0)" style="stroke: rgb(68, 68, 68); stroke-opacity: 1; stroke-width: 1px;"/><path class="xtick ticks crisp" d="M0,900v-5" transform="translate(947.33,0)" style="stroke: rgb(68, 68, 68); stroke-opacity: 1; stroke-width: 1px;"/><path class="xtick ticks crisp" d="M0,900v-5" transform="translate(1189.75,0)" style="stroke: rgb(68, 68, 68); stroke-opacity: 1; stroke-width: 1px;"/><path class="xtick ticks crisp" d="M0,900v-5" transform="translate(1408.72,0)" style="stroke: rgb(68, 68, 68); stroke-opacity: 1; stroke-width: 1px;"/><g class="xtick"><text text-anchor="middle" x="0" y="895" transform="translate(227.87,-3)" style="font-family: Arial; font-size: 32px; fill: rgb(255, 255, 255); fill-opacity: 0.8; white-space: pre;">Oct 2025</text></g><g class="xtick"><text text-anchor="middle" x="0" y="895" style="font-family: Arial; font-size: 32px; fill: rgb(255, 255, 255); fill-opacity: 0.8; white-space: pre;" transform="translate(470.29,-3)">Nov 2025</text></g><g class="xtick"><text text-anchor="middle" x="0" y="895" style="font-family: Arial; font-size: 32px; fill: rgb(255, 255, 255); fill-opacity: 0.8; white-space: pre;" transform="translate(704.9,-3)">Dec 2025</text></g><g class="xtick"><text text-anchor="middle" x="0" y="895" style="font-family: Arial; font-size: 32px; fill: rgb(255, 255, 255); fill-opacity: 0.8; white-space: pre;" transform="translate(947.33,-3)">Jan 2026</text></g><g class="xtick"><text text-anchor="middle" x="0" y="895" style="font-family: Arial; font-size: 32px; fill: rgb(255, 255, 255); fill-opacity: 0.8; white-space: pre;" transform="translate(1189.75,-3)">Feb 2026</text></g><g class="xtick"/></g><g class="yaxislayer-above"><path class="ytick ticks crisp" d="M47,0h-5" transform="translate(0,853)" style="stroke: rgb(68, 68, 68); stroke-opacity: 1; stroke-width: 1px;"/><path class="ytick ticks crisp" d="M47,0h-5" transform="translate(0,728.69)" style="stroke: rgb(68, 68, 68); stroke-opacity: 1; stroke-width: 1px;"/><path class="ytick ticks crisp" d="M47,0h-5" transform="translate(0,604.38)" style="stroke: rgb(68, 68, 68); stroke-opacity: 1; stroke-width: 1px;"/><path class="ytick ticks crisp" d="M47,0h-5" transform="translate(0,480.08)" style="stroke: rgb(68, 68, 68); stroke-opacity: 1; stroke-width: 1px;"/><path class="ytick ticks crisp" d="M47,0h-5" transform="translate(0,355.77)" style="stroke: rgb(68, 68, 68); stroke-opacity: 1; stroke-width: 1px;"/><path class="ytick ticks crisp" d="M47,0h-5" transform="translate(0,231.46)" style="stroke: rgb(68, 68, 68); stroke-opacity: 1; stroke-width: 1px;"/><path class="ytick ticks crisp" d="M47,0h-5" transform="translate(0,107.15)" style="stroke: rgb(68, 68, 68); stroke-opacity: 1; stroke-width: 1px;"/><g class="ytick"><text text-anchor="end" x="35.6" y="11.2" transform="translate(0,853)" style="font-family: Arial; font-size: 32px; fill: rgb(255, 255, 255); fill-opacity: 0.8; white-space: pre;">0</text></g><g class="ytick"><text text-anchor="end" x="35.6" y="11.2" style="font-family: Arial; font-size: 32px; fill: rgb(255, 255, 255); fill-opacity: 0.8; white-space: pre;" transform="translate(0,728.69)">2</text></g><g class="ytick"><text text-anchor="end" x="35.6" y="11.2" style="font-family: Arial; font-size: 32px; fill: rgb(255, 255, 255); fill-opacity: 0.8; white-space: pre;" transform="translate(0,604.38)">4</text></g><g class="ytick"><text text-anchor="end" x="35.6" y="11.2" style="font-family: Arial; font-size: 32px; fill: rgb(255, 255, 255); fill-opacity: 0.8; white-space: pre;" transform="translate(0,480.08)">6</text></g><g class="ytick"><text text-anchor="end" x="35.6" y="11.2" style="font-family: Arial; font-size: 32px; fill: rgb(255, 255, 255); fill-opacity: 0.8; white-space: pre;" transform="translate(0,355.77)">8</text></g><g class="ytick"><text text-anchor="end" x="35.6" y="11.2" style="font-family: Arial; font-size: 32px; fill: rgb(255, 255, 255); fill-opacity: 0.8; white-space: pre;" transform="translate(0,231.46)">10</text></g><g class="ytick"><text text-anchor="end" x="35.6" y="11.2" style="font-family: Arial; font-size: 32px; fill: rgb(255, 255, 255); fill-opacity: 0.8; white-space: pre;" transform="translate(0,107.15)">12</text></g></g><g class="overaxes-above"/></g></g><g class="polarlayer"/><g class="smithlayer"/><g class="ternarylayer"/><g class="geolayer"/><g class="funnelarealayer"/><g class="pielayer"/><g class="iciclelayer"/><g class="treemaplayer"/><g class="sunburstlayer"/><g class="glimages"/><defs id="topdefs-71fece"><g class="clips"/><clipPath id="legend71fece"><rect width="237" height="233" x="0" y="0"/></clipPath></defs><g class="layer-above"><g class="imagelayer"/><g class="shapelayer"/></g><g class="infolayer"><g class="legend" pointer-events="all" transform="translate(48,0)"><rect class="bg" shape-rendering="crispEdges" style="stroke: rgb(0, 0, 0); stroke-opacity: 0; fill: rgb(23, 27, 38); fill-opacity: 0.8; stroke-width: 0px;" width="237" height="233" x="0" y="0"/><g class="scrollbox" transform="" clip-path="url(#legend71fece)"><g class="groups" transform=""><g class="traces" transform="translate(0,27.3)" style="opacity: 1;"><text class="legendtext" text-anchor="start" x="40" y="12.48" style="font-family: Arial; font-size: 32px; fill: rgb(255, 255, 255); fill-opacity: 0.8; white-space: pre;">软件</text><g class="layers" style="opacity: 1;"><g class="legendfill"/><g class="legendlines"><path class="js-line" d="M5,0h30" style="fill: none; stroke: rgb(214, 10, 34); stroke-opacity: 1; stroke-width: 3px;"/></g><g class="legendsymbols"><g class="legendpoints"/></g></g><rect class="legendtoggle" x="0" y="-22.3" width="232" height="44.6" style="fill: rgb(0, 0, 0); fill-opacity: 0;"/></g></g><g class="groups" transform=""><g class="traces" transform="translate(0,71.9)" style="opacity: 1;"><text class="legendtext" text-anchor="start" x="40" y="12.48" style="font-family: Arial; font-size: 32px; fill: rgb(255, 255, 255); fill-opacity: 0.8; white-space: pre;">生物技术</text><g class="layers" style="opacity: 1;"><g class="legendfill"/><g class="legendlines"><path class="js-line" d="M5,0h30" style="fill: none; stroke: rgb(234, 112, 52); stroke-opacity: 1; stroke-width: 3px;"/></g><g class="legendsymbols"><g class="legendpoints"/></g></g><rect class="legendtoggle" x="0" y="-22.3" width="232" height="44.6" style="fill: rgb(0, 0, 0); fill-opacity: 0;"/></g></g><g class="groups" transform=""><g class="traces" transform="translate(0,116.5)" style="opacity: 1;"><text class="legendtext" text-anchor="start" x="40" y="12.48" style="font-family: Arial; font-size: 32px; fill: rgb(255, 255, 255); fill-opacity: 0.8; white-space: pre;">资本市场</text><g class="layers" style="opacity: 1;"><g class="legendfill"/><g class="legendlines"><path class="js-line" d="M5,0h30" style="fill: none; stroke: rgb(255, 215, 71); stroke-opacity: 1; stroke-width: 3px;"/></g><g class="legendsymbols"><g class="legendpoints"/></g></g><rect class="legendtoggle" x="0" y="-22.3" width="232" height="44.6" style="fill: rgb(0, 0, 0); fill-opacity: 0;"/></g></g><g class="groups" transform=""><g class="traces" transform="translate(0,161.10000000000002)" style="opacity: 1;"><text class="legendtext" text-anchor="start" x="40" y="12.48" style="font-family: Arial; font-size: 32px; fill: rgb(255, 255, 255); fill-opacity: 0.8; white-space: pre;">医疗设备</text><g class="layers" style="opacity: 1;"><g class="legendfill"/><g class="legendlines"><path class="js-line" d="M5,0h30" style="fill: none; stroke: rgb(129, 169, 73); stroke-opacity: 1; stroke-width: 3px;"/></g><g class="legendsymbols"><g class="legendpoints"/></g></g><rect class="legendtoggle" x="0" y="-22.3" width="232" height="44.6" style="fill: rgb(0, 0, 0); fill-opacity: 0;"/></g></g><g class="groups" transform=""><g class="traces" transform="translate(0,205.70000000000002)" style="opacity: 1;"><text class="legendtext" text-anchor="start" x="40" y="12.48" style="font-family: Arial; font-size: 32px; fill: rgb(255, 255, 255); fill-opacity: 0.8; white-space: pre;">工业金属采矿</text><g class="layers" style="opacity: 1;"><g class="legendfill"/><g class="legendlines"><path class="js-line" d="M5,0h30" style="fill: none; stroke: rgb(3, 123, 102); stroke-opacity: 1; stroke-width: 3px;"/></g><g class="legendsymbols"><g class="legendpoints"/></g></g><rect class="legendtoggle" x="0" y="-22.3" width="232" height="44.6" style="fill: rgb(0, 0, 0); fill-opacity: 0;"/></g></g></g><rect class="scrollbar" rx="20" ry="3" width="0" height="0" style="fill: rgb(128, 139, 164); fill-opacity: 1;" x="0" y="0"/></g><g class="g-gtitle"><text class="gtitle" x="720" y="90" text-anchor="middle" dy="0.7em" style="opacity: 0.8; font-family: Arial; font-size: 35px; fill: rgb(255, 255, 255); fill-opacity: 1; white-space: pre;">Last 180 days top5 Positions</text></g><g class="g-xtitle"/><g class="g-ytitle"/></g></svg>