<svg class="main-svg" xmlns="http://www.w3.org/2000/svg" xmlns:xlink="http://www.w3.org/1999/xlink" width="1440" height="900" style="" viewBox="0 0 1440 900"><rect x="0" y="0" width="1440" height="900" style="fill: rgb(0, 0, 0); fill-opacity: 0;"/><defs id="defs-ba5596"><g class="clips"><clipPath id="clipba5596xyplot" class="plotclip"><rect width="1392" height="900"/></clipPath><clipPath class="axesclip" id="clipba5596x"><rect x="48" y="0" width="1392" height="900"/></clipPath><clipPath class="axesclip" id="clipba5596y"><rect x="0" y="0" width="1440" height="900"/></clipPath><clipPath class="axesclip" id="clipba5596xy"><rect x="48" y="0" width="1392" height="900"/></clipPath></g><g class="gradients"/><g class="patterns"/></defs><g class="bglayer"><rect class="bg" x="48" y="0" width="1392" height="900" style="fill: rgb(0, 0, 0); fill-opacity: 0; stroke-width: 0;"/></g><g class="layer-below"><g class="imagelayer"/><g class="shapelayer"/></g><g class="cartesianlayer"><g class="subplot xy"><g class="layer-subplot"><g class="shapelayer"/><g class="imagelayer"/></g><g class="minor-gridlayer"><g class="x"/><g class="y"/></g><g class="gridlayer"><g class="x"><path class="xgrid crisp" transform="translate(227.87,0)" d="M0,0v900" style="stroke: rgb(255, 255, 255); stroke-opacity: 0.2; stroke-width: 1px;"/><path class="xgrid crisp" transform="translate(470.29,0)" d="M0,0v900" style="stroke: rgb(255, 255, 255); stroke-opacity: 0.2; stroke-width: 1px;"/><path class="xgrid crisp" transform="translate(704.9,0)" d="M0,0v900" style="stroke: rgb(255, 255, 255); stroke-opacity: 0.2; stroke-width: 1px;"/><path class="xgrid crisp" transform="translate(947.33,0)" d="M0,0v900" style="stroke: rgb(255, 255, 255); stroke-opacity: 0.2; stroke-width: 1px;"/><path class="xgrid crisp" transform="translate(1189.75,0)" d="M0,0v900" style="stroke: rgb(255, 255, 255); stroke-opacity: 0.2; stroke-width: 1px;"/><path class="xgrid crisp" transform="translate(1408.72,0)" d="M0,0v900" style="stroke: rgb(255, 255, 255); stroke-opacity: 0.2; stroke-width: 1px;"/></g><g class="y"><path class="ygrid crisp" transform="translate(0,718.33)" d="M48,0h1392" style="stroke: rgb(255, 255, 255); stroke-opacity: 0.2; stroke-width: 1px;"/><path class="ygrid crisp" transform="translate(0,583.67)" d="M48,0h1392" style="stroke: rgb(255, 255, 255); stroke-opacity: 0.2; stroke-width: 1px;"/><path class="ygrid crisp" transform="translate(0,449)" d="M48,0h1392" style="stroke: rgb(255, 255, 255); stroke-opacity: 0.2; stroke-width: 1px;"/><path class="ygrid crisp" transform="translate(0,314.33)" d="M48,0h1392" style="stroke: rgb(255, 255, 255); stroke-opacity: 0.2; stroke-width: 1px;"/><path class="ygrid crisp" transform="translate(0,179.67)" d="M48,0h1392" style="stroke: rgb(255, 255, 255); stroke-opacity: 0.2; stroke-width: 1px;"/><path class="ygrid crisp" transform="translate(0,45)" d="M48,0h1392" style="stroke: rgb(255, 255, 255); stroke-opacity: 0.2; stroke-width: 1px;"/></g></g><g class="zerolinelayer"><path class="yzl zl crisp" transform="translate(0,853)" d="M48,0h1392" style="stroke: rgb(255, 255, 255); stroke-opacity: 1; stroke-width: 2px;"/></g><g class="layer-between"><g class="shapelayer"/><g class="imagelayer"/></g><path class="xlines-below"/><path class="ylines-below"/><g class="overlines-below"/><g class="xaxislayer-below"/><g class="yaxislayer-below"/><g class="overaxes-below"/><g class="overplot"><g class="xy" transform="translate(48,0)" clip-path="url(#clipba5596xyplot)"><g class="scatterlayer mlayer"><g class="trace scatter tracefda05d" style="stroke-miterlimit: 2; opacity: 1;"><g class="fills"/><g class="errorbars"/><g class="lines"><path class="js-line" d="M1392,45L1384.18,98.87L1376.36,220.07L1368.54,368.2L1345.08,435.53L1337.26,637.53L1329.44,691.4L1321.62,704.87L1313.8,691.4L1290.34,745.27L1282.52,758.73L1266.88,758.73L1235.6,772.2L1227.78,772.2L1219.96,785.67L1212.13,812.6L1204.31,826.07L1180.85,853L1173.03,853L1165.21,839.53L1157.39,812.6L1149.57,826.07L1126.11,785.67L1118.29,677.93L1110.47,651L1102.65,651L1094.83,677.93L1071.37,691.4L1063.55,745.27L1055.73,731.8L1047.91,664.47L1016.63,624.07L1008.81,583.67L1000.99,543.27L993.17,489.4L985.35,489.4L961.89,529.8L954.07,462.47L946.25,543.27L938.43,583.67L930.61,597.13L907.15,354.73L891.51,273.93L883.69,260.47L875.87,260.47L852.4,273.93L836.76,287.4L828.94,273.93L821.12,300.87L797.66,314.33L789.84,314.33L782.02,327.8L774.2,314.33L766.38,220.07L742.92,220.07L735.1,220.07L727.28,193.13L719.46,193.13L711.64,179.67L688.18,287.4L680.36,341.27L672.54,449L664.72,502.87L656.9,556.73L633.44,610.6L617.8,637.53L609.98,731.8L578.7,731.8L570.88,718.33L555.24,691.4L547.42,583.67L523.96,570.2L516.13,543.27L500.49,597.13L492.67,610.6L469.21,610.6L461.39,529.8L453.57,502.87L445.75,395.13L437.93,354.73L414.47,368.2L406.65,368.2L398.83,314.33L391.01,341.27L383.19,408.6L359.73,462.47L351.91,475.93L344.09,462.47L336.27,597.13L328.45,597.13L304.99,610.6L297.17,583.67L289.35,543.27L281.53,570.2L273.71,556.73L250.25,489.4L242.43,475.93L234.61,462.47L226.79,462.47L218.97,475.93L195.51,435.53L187.69,449L179.87,381.67L172.04,368.2L164.22,327.8L140.76,300.87L132.94,273.93L125.12,273.93L117.3,260.47L109.48,247L86.02,247L78.2,287.4L70.38,314.33L62.56,260.47L54.74,247L31.28,247L23.46,273.93L15.64,220.07L7.82,260.47L0,287.4" style="vector-effect: none; fill: none; stroke: rgb(214, 10, 34); stroke-opacity: 1; stroke-width: 3px; opacity: 1;"/></g><g class="points"/><g class="text"/></g><g class="trace scatter tracef0fcb7" style="stroke-miterlimit: 2; opacity: 1;"><g class="fills"/><g class="errorbars"/><g class="lines"><path class="js-line" d="M1392,718.33L1345.08,718.33L1337.26,745.27L1321.62,799.13L1313.8,799.13L1290.34,826.07L1282.52,826.07L1274.7,839.53L1266.88,839.53L1173.03,839.53L1165.21,826.07L1157.39,799.13L1149.57,799.13L1126.11,785.67L1118.29,785.67L1110.47,785.67L1102.65,772.2L1094.83,772.2L1071.37,758.73L1055.73,758.73L1047.91,718.33L1008.81,718.33L1000.99,745.27L993.17,745.27L985.35,731.8L961.89,758.73L954.07,758.73L946.25,745.27L938.43,718.33L930.61,772.2L907.15,731.8L836.76,731.8L828.94,745.27L821.12,758.73L797.66,772.2L789.84,772.2L782.02,785.67L774.2,785.67L766.38,772.2L735.1,772.2L727.28,758.73L719.46,745.27L711.64,758.73L688.18,745.27L680.36,745.27L672.54,758.73L664.72,758.73L617.8,758.73L609.98,772.2L602.16,758.73L578.7,772.2L570.88,758.73L563.06,758.73L555.24,758.73L547.42,745.27L523.96,731.8L516.13,745.27L508.31,772.2L500.49,772.2L492.67,772.2L469.21,799.13L437.93,799.13L414.47,785.67L406.65,785.67L398.83,758.73L391.01,758.73L383.19,785.67L351.91,785.67L344.09,799.13L336.27,799.13L328.45,812.6L304.99,812.6L297.17,785.67L289.35,799.13L281.53,799.13L273.71,799.13L250.25,785.67L242.43,785.67L234.61,799.13L226.79,812.6L218.97,812.6L195.51,826.07L187.69,839.53L140.76,839.53L132.94,826.07L125.12,839.53L117.3,839.53L109.48,839.53L86.02,826.07L78.2,785.67L70.38,785.67L62.56,785.67L54.74,758.73L31.28,758.73L23.46,799.13L15.64,799.13L7.82,826.07L0,839.53" style="vector-effect: none; fill: none; stroke: rgb(234, 112, 52); stroke-opacity: 1; stroke-width: 3px; opacity: 1;"/></g><g class="points"/><g class="text"/></g><g class="trace scatter trace65f4a3" style="stroke-miterlimit: 2; opacity: 1;"><g class="fills"/><g class="errorbars"/><g class="lines"><path class="js-line" d="M1392,718.33L1313.8,718.33L1290.34,704.87L1274.7,731.8L1266.88,731.8L1204.31,731.8L1180.85,758.73L1173.03,731.8L1165.21,745.27L1071.37,745.27L1063.55,758.73L1016.63,758.73L1008.81,731.8L993.17,758.73L985.35,758.73L946.25,758.73L938.43,745.27L930.61,704.87L907.15,704.87L828.94,704.87L821.12,691.4L797.66,718.33L789.84,718.33L782.02,704.87L774.2,704.87L735.1,704.87L727.28,691.4L688.18,691.4L680.36,704.87L633.44,704.87L617.8,718.33L609.98,731.8L602.16,731.8L570.88,731.8L563.06,704.87L523.96,704.87L516.13,718.33L508.31,731.8L500.49,758.73L492.67,772.2L469.21,772.2L461.39,785.67L453.57,745.27L437.93,718.33L414.47,718.33L398.83,745.27L391.01,731.8L383.19,731.8L359.73,718.33L351.91,718.33L344.09,704.87L336.27,718.33L328.45,718.33L281.53,718.33L273.71,704.87L242.43,704.87L234.61,691.4L187.69,691.4L179.87,731.8L164.22,731.8L140.76,745.27L125.12,718.33L117.3,718.33L109.48,731.8L86.02,718.33L78.2,718.33L70.38,731.8L62.56,731.8L54.74,718.33L31.28,718.33L23.46,731.8L15.64,718.33L7.82,718.33L0,718.33" style="vector-effect: none; fill: none; stroke: rgb(255, 215, 71); stroke-opacity: 1; stroke-width: 3px; opacity: 1;"/></g><g class="points"/><g class="text"/></g><g class="trace scatter tracef98e0d" style="stroke-miterlimit: 2; opacity: 1;"><g class="fills"/><g class="errorbars"/><g class="lines"><path class="js-line" d="M1392,745.27L1071.37,745.27L1063.55,758.73L1055.73,772.2L1047.91,772.2L1016.63,785.67L1008.81,785.67L1000.99,799.13L993.17,799.13L985.35,799.13L961.89,785.67L954.07,785.67L946.25,799.13L938.43,785.67L930.61,785.67L907.15,812.6L891.51,812.6L883.69,812.6L875.87,839.53L774.2,839.53L766.38,826.07L727.28,826.07L719.46,799.13L711.64,772.2L688.18,758.73L664.72,758.73L656.9,772.2L617.8,772.2L609.98,758.73L578.7,758.73L570.88,745.27L516.13,745.27L508.31,758.73L492.67,758.73L469.21,799.13L461.39,812.6L453.57,812.6L445.75,799.13L437.93,812.6L359.73,812.6L351.91,826.07L344.09,839.53L336.27,826.07L304.99,826.07L297.17,812.6L289.35,826.07L281.53,826.07L273.71,826.07L250.25,812.6L242.43,799.13L234.61,799.13L226.79,772.2L218.97,772.2L195.51,772.2L187.69,758.73L140.76,758.73L132.94,772.2L117.3,799.13L109.48,799.13L86.02,799.13L78.2,785.67L70.38,772.2L62.56,785.67L54.74,785.67L31.28,758.73L0,758.73" style="vector-effect: none; fill: none; stroke: rgb(129, 169, 73); stroke-opacity: 1; stroke-width: 3px; opacity: 1;"/></g><g class="points"/><g class="text"/></g><g class="trace scatter tracef828dd" style="stroke-miterlimit: 2; opacity: 1;"><g class="fills"/><g class="errorbars"/><g class="lines"><path class="js-line" d="M1392,758.73L1384.18,758.73L1376.36,731.8L1337.26,731.8L1329.44,745.27L1321.62,758.73L1313.8,758.73L1282.52,758.73L1274.7,745.27L1266.88,745.27L1235.6,758.73L1212.13,758.73L1204.31,772.2L1180.85,799.13L1173.03,799.13L1165.21,758.73L1157.39,758.73L1149.57,758.73L1126.11,745.27L1063.55,745.27L1055.73,731.8L1047.91,745.27L1016.63,758.73L993.17,758.73L985.35,745.27L954.07,745.27L946.25,731.8L938.43,758.73L930.61,758.73L907.15,772.2L891.51,772.2L821.12,772.2L797.66,785.67L789.84,785.67L782.02,758.73L774.2,758.73L766.38,718.33L742.92,704.87L735.1,704.87L727.28,704.87L719.46,718.33L711.64,718.33L688.18,745.27L680.36,758.73L672.54,758.73L656.9,785.67L633.44,812.6L609.98,812.6L602.16,839.53L578.7,853L570.88,839.53L563.06,839.53L555.24,812.6L547.42,799.13L523.96,799.13L516.13,785.67L508.31,799.13L500.49,785.67L492.67,785.67L469.21,785.67L461.39,745.27L453.57,745.27L445.75,731.8L406.65,731.8L398.83,745.27L391.01,731.8L383.19,745.27L281.53,745.27L273.71,758.73L250.25,718.33L242.43,718.33L187.69,718.33L179.87,731.8L172.04,718.33L164.22,718.33L140.76,718.33L132.94,704.87L86.02,704.87L78.2,718.33L70.38,731.8L62.56,731.8L54.74,745.27L31.28,745.27L23.46,745.27L15.64,731.8L0,731.8" style="vector-effect: none; fill: none; stroke: rgb(3, 123, 102); stroke-opacity: 1; stroke-width: 3px; opacity: 1;"/></g><g class="points"/><g class="text"/></g></g></g></g><g class="zerolinelayer-above"/><path class="xlines-above crisp" d="" style="fill: none; stroke-width: 1px; stroke: rgb(0, 0, 0); stroke-opacity: 0;"/><path class="ylines-above crisp" d="" style="fill: none; stroke-width: 1px; stroke: rgb(0, 0, 0); stroke-opacity: 0;"/><g class="overlines-above"/><g class="xaxislayer-above"><path class="xtick ticks crisp" d="M0,900v-5" transform="translate(227.87,0)" style="stroke: rgb(68, 68, 68); stroke-opacity: 1; stroke-width: 1px;"/><path class="xtick ticks crisp" d="M0,900v-5" transform="translate(470.29,0)" style="stroke: rgb(68, 68, 68); stroke-opacity: 1; stroke-width: 1px;"/><path class="xtick ticks crisp" d="M0,900v-5" transform="translate(704.9,0)" style="stroke: rgb(68, 68, 68); stroke-opacity: 1; stroke-width: 1px;"/><path class="xtick ticks crisp" d="M0,900v-5" transform="translate(947.33,0)" style="stroke: rgb(68, 68, 68); stroke-opacity: 1; stroke-width: 1px;"/><path class="xtick ticks crisp" d="M0,900v-5" transform="translate(1189.75,0)" style="stroke: rgb(68, 68, 68); stroke-opacity: 1; stroke-width: 1px;"/><path class="xtick ticks crisp" d="M0,900v-5" transform="translate(1408.72,0)" style="stroke: rgb(68, 68, 68); stroke-opacity: 1; stroke-width: 1px;"/><g class="xtick"><text text-anchor="middle" x="0" y="895" transform="translate(227.87,-3)" style="font-family: Arial; font-size: 32px; fill: rgb(255, 255, 255); fill-opacity: 0.8; white-space: pre;">Oct 2025</text></g><g class="xtick"><text text-anchor="middle" x="0" y="895" style="font-family: Arial; font-size: 32px; fill: rgb(255, 255, 255); fill-opacity: 0.8; white-space: pre;" transform="translate(470.29,-3)">Nov 2025</text></g><g class="xtick"><text text-anchor="middle" x="0" y="895" style="font-family: Arial; font-size: 32px; fill: rgb(255, 255, 255); fill-opacity: 0.8; white-space: pre;" transform="translate(704.9,-3)">Dec 2025</text></g><g class="xtick"><text text-anchor="middle" x="0" y="895" style="font-family: Arial; font-size: 32px; fill: rgb(255, 255, 255); fill-opacity: 0.8; white-space: pre;" transform="translate(947.33,-3)">Jan 2026</text></g><g class="xtick"><text text-anchor="middle" x="0" y="895" style="font-family: Arial; font-size: 32px; fill: rgb(255, 255, 255); fill-opacity: 0.8; white-space: pre;" transform="translate(1189.75,-3)">Feb 2026</text></g><g class="xtick"/></g><g class="yaxislayer-above"><path class="ytick ticks crisp" d="M47,0h-5" transform="translate(0,853)" style="stroke: rgb(68, 68, 68); stroke-opacity: 1; stroke-width: 1px;"/><path class="ytick ticks crisp" d="M47,0h-5" transform="translate(0,718.33)" style="stroke: rgb(68, 68, 68); stroke-opacity: 1; stroke-width: 1px;"/><path class="ytick ticks crisp" d="M47,0h-5" transform="translate(0,583.67)" style="stroke: rgb(68, 68, 68); stroke-opacity: 1; stroke-width: 1px;"/><path class="ytick ticks crisp" d="M47,0h-5" transform="translate(0,449)" style="stroke: rgb(68, 68, 68); stroke-opacity: 1; stroke-width: 1px;"/><path class="ytick ticks crisp" d="M47,0h-5" transform="translate(0,314.33)" style="stroke: rgb(68, 68, 68); stroke-opacity: 1; stroke-width: 1px;"/><path class="ytick ticks crisp" d="M47,0h-5" transform="translate(0,179.67)" style="stroke: rgb(68, 68, 68); stroke-opacity: 1; stroke-width: 1px;"/><path class="ytick ticks crisp" d="M47,0h-5" transform="translate(0,45)" style="stroke: rgb(68, 68, 68); stroke-opacity: 1; stroke-width: 1px;"/><g class="ytick"><text text-anchor="end" x="35.6" y="11.2" transform="translate(0,853)" style="font-family: Arial; font-size: 32px; fill: rgb(255, 255, 255); fill-opacity: 0.8; white-space: pre;">0</text></g><g class="ytick"><text text-anchor="end" x="35.6" y="11.2" style="font-family: Arial; font-size: 32px; fill: rgb(255, 255, 255); fill-opacity: 0.8; white-space: pre;" transform="translate(0,718.33)">10</text></g><g class="ytick"><text text-anchor="end" x="35.6" y="11.2" style="font-family: Arial; font-size: 32px; fill: rgb(255, 255, 255); fill-opacity: 0.8; white-space: pre;" transform="translate(0,583.67)">20</text></g><g class="ytick"><text text-anchor="end" x="35.6" y="11.2" style="font-family: Arial; font-size: 32px; fill: rgb(255, 255, 255); fill-opacity: 0.8; white-space: pre;" transform="translate(0,449)">30</text></g><g class="ytick"><text text-anchor="end" x="35.6" y="11.2" style="font-family: Arial; font-size: 32px; fill: rgb(255, 255, 255); fill-opacity: 0.8; white-space: pre;" transform="translate(0,314.33)">40</text></g><g class="ytick"><text text-anchor="end" x="35.6" y="11.2" style="font-family: Arial; font-size: 32px; fill: rgb(255, 255, 255); fill-opacity: 0.8; white-space: pre;" transform="translate(0,179.67)">50</text></g><g class="ytick"><text text-anchor="end" x="35.6" y="11.2" style="font-family: Arial; font-size: 32px; fill: rgb(255, 255, 255); fill-opacity: 0.8; white-space: pre;" transform="translate(0,45)">60</text></g></g><g class="overaxes-above"/></g></g><g class="polarlayer"/><g class="smithlayer"/><g class="ternarylayer"/><g class="geolayer"/><g class="funnelarealayer"/><g class="pielayer"/><g class="iciclelayer"/><g class="treemaplayer"/><g class="sunburstlayer"/><g class="glimages"/><defs id="topdefs-ba5596"><g class="clips"/><clipPath id="legendba5596"><rect width="269" height="233" x="0" y="0"/></clipPath></defs><g class="layer-above"><g class="imagelayer"/><g class="shapelayer"/></g><g class="infolayer"><g class="legend" pointer-events="all" transform="translate(48,0)"><rect class="bg" shape-rendering="crispEdges" style="stroke: rgb(0, 0, 0); stroke-opacity: 0; fill: rgb(23, 27, 38); fill-opacity: 0.8; stroke-width: 0px;" width="269" height="233" x="0" y="0"/><g class="scrollbox" transform="" clip-path="url(#legendba5596)"><g class="groups" transform=""><g class="traces" transform="translate(0,27.3)" style="opacity: 1;"><text class="legendtext" text-anchor="start" x="40" y="12.48" style="font-family: Arial; font-size: 32px; fill: rgb(255, 255, 255); fill-opacity: 0.8; white-space: pre;">软件</text><g class="layers" style="opacity: 1;"><g class="legendfill"/><g class="legendlines"><path class="js-line" d="M5,0h30" style="fill: none; stroke: rgb(214, 10, 34); stroke-opacity: 1; stroke-width: 3px;"/></g><g class="legendsymbols"><g class="legendpoints"/></g></g><rect class="legendtoggle" x="0" y="-22.3" width="264" height="44.6" style="fill: rgb(0, 0, 0); fill-opacity: 0;"/></g></g><g class="groups" transform=""><g class="traces" transform="translate(0,71.9)" style="opacity: 1;"><text class="legendtext" text-anchor="start" x="40" y="12.48" style="font-family: Arial; font-size: 32px; fill: rgb(255, 255, 255); fill-opacity: 0.8; white-space: pre;">金融证券交易所</text><g class="layers" style="opacity: 1;"><g class="legendfill"/><g class="legendlines"><path class="js-line" d="M5,0h30" style="fill: none; stroke: rgb(234, 112, 52); stroke-opacity: 1; stroke-width: 3px;"/></g><g class="legendsymbols"><g class="legendpoints"/></g></g><rect class="legendtoggle" x="0" y="-22.3" width="264" height="44.6" style="fill: rgb(0, 0, 0); fill-opacity: 0;"/></g></g><g class="groups" transform=""><g class="traces" transform="translate(0,116.5)" style="opacity: 1;"><text class="legendtext" text-anchor="start" x="40" y="12.48" style="font-family: Arial; font-size: 32px; fill: rgb(255, 255, 255); fill-opacity: 0.8; white-space: pre;">生物技术</text><g class="layers" style="opacity: 1;"><g class="legendfill"/><g class="legendlines"><path class="js-line" d="M5,0h30" style="fill: none; stroke: rgb(255, 215, 71); stroke-opacity: 1; stroke-width: 3px;"/></g><g class="legendsymbols"><g class="legendpoints"/></g></g><rect class="legendtoggle" x="0" y="-22.3" width="264" height="44.6" style="fill: rgb(0, 0, 0); fill-opacity: 0;"/></g></g><g class="groups" transform=""><g class="traces" transform="translate(0,161.10000000000002)" style="opacity: 1;"><text class="legendtext" text-anchor="start" x="40" y="12.48" style="font-family: Arial; font-size: 32px; fill: rgb(255, 255, 255); fill-opacity: 0.8; white-space: pre;">石油天然气</text><g class="layers" style="opacity: 1;"><g class="legendfill"/><g class="legendlines"><path class="js-line" d="M5,0h30" style="fill: none; stroke: rgb(129, 169, 73); stroke-opacity: 1; stroke-width: 3px;"/></g><g class="legendsymbols"><g class="legendpoints"/></g></g><rect class="legendtoggle" x="0" y="-22.3" width="264" height="44.6" style="fill: rgb(0, 0, 0); fill-opacity: 0;"/></g></g><g class="groups" transform=""><g class="traces" transform="translate(0,205.70000000000002)" style="opacity: 1;"><text class="legendtext" text-anchor="start" x="40" y="12.48" style="font-family: Arial; font-size: 32px; fill: rgb(255, 255, 255); fill-opacity: 0.8; white-space: pre;">半导体</text><g class="layers" style="opacity: 1;"><g class="legendfill"/><g class="legendlines"><path class="js-line" d="M5,0h30" style="fill: none; stroke: rgb(3, 123, 102); stroke-opacity: 1; stroke-width: 3px;"/></g><g class="legendsymbols"><g class="legendpoints"/></g></g><rect class="legendtoggle" x="0" y="-22.3" width="264" height="44.6" style="fill: rgb(0, 0, 0); fill-opacity: 0;"/></g></g></g><rect class="scrollbar" rx="20" ry="3" width="0" height="0" style="fill: rgb(128, 139, 164); fill-opacity: 1;" x="0" y="0"/></g><g class="g-gtitle"><text class="gtitle" x="720" y="90" text-anchor="middle" dy="0.7em" style="opacity: 0.8; font-family: Arial; font-size: 35px; fill: rgb(255, 255, 255); fill-opacity: 1; white-space: pre;">Last 180 days top5 Positions</text></g><g class="g-xtitle"/><g class="g-ytitle"/></g></svg>