<svg class="main-svg" xmlns="http://www.w3.org/2000/svg" xmlns:xlink="http://www.w3.org/1999/xlink" width="1728" height="1080" style="" viewBox="0 0 1440 900"><rect x="0" y="0" width="1440" height="900" style="fill: rgb(0, 0, 0); fill-opacity: 0;"/><defs id="defs-77a5be"><g class="clips"><clipPath id="clip77a5bexyplot" class="plotclip"><rect width="1245" height="637"/></clipPath><clipPath class="axesclip" id="clip77a5bex"><rect x="115" y="0" width="1245" height="900"/></clipPath><clipPath class="axesclip" id="clip77a5bey"><rect x="0" y="60" width="1440" height="637"/></clipPath><clipPath class="axesclip" id="clip77a5bexy"><rect x="115" y="60" width="1245" height="637"/></clipPath></g><g class="gradients"/><g class="patterns"/></defs><g class="bglayer"><rect class="bg" x="115" y="60" width="1245" height="637" style="fill: rgb(0, 0, 0); fill-opacity: 0; stroke-width: 0;"/></g><g class="layer-below"><g class="imagelayer"/><g class="shapelayer"/></g><g class="cartesianlayer"><g class="subplot xy"><g class="layer-subplot"><g class="shapelayer"/><g class="imagelayer"/></g><g class="minor-gridlayer"><g class="x"/><g class="y"/></g><g class="gridlayer"><g class="x"><path class="xgrid crisp" transform="translate(146.13,0)" d="M0,60v637" style="stroke: rgb(255, 255, 255); stroke-opacity: 0.5; stroke-width: 1px;"/><path class="xgrid crisp" transform="translate(291.38,0)" d="M0,60v637" style="stroke: rgb(255, 255, 255); stroke-opacity: 0.5; stroke-width: 1px;"/><path class="xgrid crisp" transform="translate(436.63,0)" d="M0,60v637" style="stroke: rgb(255, 255, 255); stroke-opacity: 0.5; stroke-width: 1px;"/><path class="xgrid crisp" transform="translate(581.88,0)" d="M0,60v637" style="stroke: rgb(255, 255, 255); stroke-opacity: 0.5; stroke-width: 1px;"/><path class="xgrid crisp" transform="translate(727.13,0)" d="M0,60v637" style="stroke: rgb(255, 255, 255); stroke-opacity: 0.5; stroke-width: 1px;"/><path class="xgrid crisp" transform="translate(872.38,0)" d="M0,60v637" style="stroke: rgb(255, 255, 255); stroke-opacity: 0.5; stroke-width: 1px;"/><path class="xgrid crisp" transform="translate(1017.63,0)" d="M0,60v637" style="stroke: rgb(255, 255, 255); stroke-opacity: 0.5; stroke-width: 1px;"/><path class="xgrid crisp" transform="translate(1162.88,0)" d="M0,60v637" style="stroke: rgb(255, 255, 255); stroke-opacity: 0.5; stroke-width: 1px;"/><path class="xgrid crisp" transform="translate(1308.13,0)" d="M0,60v637" style="stroke: rgb(255, 255, 255); stroke-opacity: 0.5; stroke-width: 1px;"/></g><g class="y"><path class="ygrid crisp" transform="translate(0,629.39)" d="M115,0h1245" style="stroke: rgb(255, 255, 255); stroke-opacity: 0.5; stroke-width: 1px;"/><path class="ygrid crisp" transform="translate(0,561.77)" d="M115,0h1245" style="stroke: rgb(255, 255, 255); stroke-opacity: 0.5; stroke-width: 1px;"/><path class="ygrid crisp" transform="translate(0,494.16)" d="M115,0h1245" style="stroke: rgb(255, 255, 255); stroke-opacity: 0.5; stroke-width: 1px;"/><path class="ygrid crisp" transform="translate(0,426.54)" d="M115,0h1245" style="stroke: rgb(255, 255, 255); stroke-opacity: 0.5; stroke-width: 1px;"/><path class="ygrid crisp" transform="translate(0,358.93)" d="M115,0h1245" style="stroke: rgb(255, 255, 255); stroke-opacity: 0.5; stroke-width: 1px;"/><path class="ygrid crisp" transform="translate(0,291.31)" d="M115,0h1245" style="stroke: rgb(255, 255, 255); stroke-opacity: 0.5; stroke-width: 1px;"/><path class="ygrid crisp" transform="translate(0,223.7)" d="M115,0h1245" style="stroke: rgb(255, 255, 255); stroke-opacity: 0.5; stroke-width: 1px;"/><path class="ygrid crisp" transform="translate(0,156.07999999999998)" d="M115,0h1245" style="stroke: rgb(255, 255, 255); stroke-opacity: 0.5; stroke-width: 1px;"/><path class="ygrid crisp" transform="translate(0,88.47)" d="M115,0h1245" style="stroke: rgb(255, 255, 255); stroke-opacity: 0.5; stroke-width: 1px;"/></g></g><g class="zerolinelayer"><path class="yzl zl crisp" transform="translate(0,697)" d="M115,0h1245" style="stroke: rgb(255, 255, 255); stroke-opacity: 1; stroke-width: 2px;"/></g><g class="layer-between"><g class="shapelayer"/><g class="imagelayer"/></g><path class="xlines-below"/><path class="ylines-below"/><g class="overlines-below"/><g class="xaxislayer-below"/><g class="yaxislayer-below"/><g class="overaxes-below"/><g class="overplot"><g class="xy" transform="translate(115,60)" clip-path="url(#clip77a5bexyplot)"><g class="scatterlayer mlayer"><g class="trace scatter traceff17c2" style="stroke-miterlimit: 2;"><g class="fills"><g><path class="js-fill" d="M1245,637L0,637L0,549.1L10.38,552.48L41.5,552.48L51.88,545.72L62.25,542.34L72.63,538.96L83,528.82L114.13,528.82L124.5,525.44L134.88,522.06L155.63,522.06L186.75,522.06L197.13,525.44L207.5,528.82L217.88,538.96L228.25,542.34L259.38,566L290.5,576.15L300.88,576.15L332,579.53L342.38,586.29L352.75,586.29L363.13,603.19L415,603.19L435.75,596.43L487.63,596.43L508.38,589.67L518.75,586.29L549.88,582.91L591.38,582.91L622.5,589.67L632.88,589.67L643.25,586.29L653.63,579.53L664,549.1L705.5,542.34L715.88,535.58L726.25,535.58L736.63,532.2L767.75,532.2L778.13,518.67L788.5,528.82L798.88,528.82L809.25,525.44L840.38,525.44L871.5,525.44L881.88,528.82L913,532.2L923.38,532.2L933.75,528.82L944.13,528.82L954.5,528.82L996,532.2L1006.38,525.44L1016.75,525.44L1068.63,525.44L1079,522.06L1089.38,532.2L1099.75,538.96L1130.88,535.58L1141.25,532.2L1151.63,542.34L1162,545.72L1172.38,549.1L1203.5,549.1L1213.88,552.48L1224.25,549.1L1234.63,545.72L1245,538.96" style="fill: rgb(99, 110, 250); fill-opacity: 0.5; stroke-width: 0;"/></g><g><path class="js-fill" d="M0,413.87L10.38,410.49L41.5,410.49L51.88,403.73L62.25,407.11L72.63,400.35L83,380.06L114.13,380.06L124.5,383.45L134.88,383.45L155.63,386.83L186.75,386.83L197.13,396.97L207.5,403.73L217.88,420.63L228.25,424.01L259.38,451.06L269.75,447.68L280.13,457.82L290.5,461.2L300.88,471.34L332,478.11L342.38,498.39L352.75,505.15L363.13,542.34L415,542.34L435.75,535.58L446.13,532.2L477.25,532.2L487.63,525.44L508.38,508.53L518.75,484.87L549.88,471.34L560.25,457.82L570.63,451.06L591.38,447.68L622.5,451.06L632.88,420.63L643.25,410.49L653.63,403.73L664,380.06L705.5,373.3L715.88,369.92L726.25,376.68L736.63,376.68L767.75,386.83L778.13,380.06L788.5,400.35L798.88,400.35L809.25,396.97L840.38,427.39L850.75,427.39L861.13,407.11L871.5,403.73L881.88,413.87L913,417.25L923.38,400.35L933.75,386.83L944.13,403.73L954.5,400.35L996,400.35L1006.38,390.21L1016.75,386.83L1027.13,376.68L1058.25,390.21L1079,396.97L1089.38,424.01L1099.75,464.58L1130.88,451.06L1141.25,474.73L1151.63,491.63L1162,491.63L1172.38,495.01L1203.5,495.01L1213.88,491.63L1224.25,488.25L1234.63,474.73L1245,467.96L1245,538.96L1234.63,545.72L1224.25,549.1L1213.88,552.48L1203.5,549.1L1172.38,549.1L1162,545.72L1151.63,542.34L1141.25,532.2L1130.88,535.58L1099.75,538.96L1089.38,532.2L1079,522.06L1068.63,525.44L1016.75,525.44L1006.38,525.44L996,532.2L954.5,528.82L944.13,528.82L933.75,528.82L923.38,532.2L913,532.2L881.88,528.82L871.5,525.44L840.38,525.44L809.25,525.44L798.88,528.82L788.5,528.82L778.13,518.67L767.75,532.2L736.63,532.2L726.25,535.58L715.88,535.58L705.5,542.34L664,549.1L653.63,579.53L643.25,586.29L632.88,589.67L622.5,589.67L591.38,582.91L549.88,582.91L518.75,586.29L508.38,589.67L487.63,596.43L435.75,596.43L415,603.19L363.13,603.19L352.75,586.29L342.38,586.29L332,579.53L300.88,576.15L290.5,576.15L259.38,566L228.25,542.34L217.88,538.96L207.5,528.82L197.13,525.44L186.75,522.06L155.63,522.06L134.88,522.06L124.5,525.44L114.13,528.82L83,528.82L72.63,538.96L62.25,542.34L51.88,545.72L41.5,552.48L10.38,552.48L0,549.1Z" style="fill: rgb(239, 85, 59); fill-opacity: 0.5; stroke-width: 0;"/></g></g><g class="errorbars"/><g class="lines"><path class="js-line" d="M0,549.1L10.38,552.48L41.5,552.48L51.88,545.72L62.25,542.34L72.63,538.96L83,528.82L114.13,528.82L124.5,525.44L134.88,522.06L155.63,522.06L186.75,522.06L197.13,525.44L207.5,528.82L217.88,538.96L228.25,542.34L259.38,566L290.5,576.15L300.88,576.15L332,579.53L342.38,586.29L352.75,586.29L363.13,603.19L415,603.19L435.75,596.43L487.63,596.43L508.38,589.67L518.75,586.29L549.88,582.91L591.38,582.91L622.5,589.67L632.88,589.67L643.25,586.29L653.63,579.53L664,549.1L705.5,542.34L715.88,535.58L726.25,535.58L736.63,532.2L767.75,532.2L778.13,518.67L788.5,528.82L798.88,528.82L809.25,525.44L840.38,525.44L871.5,525.44L881.88,528.82L913,532.2L923.38,532.2L933.75,528.82L944.13,528.82L954.5,528.82L996,532.2L1006.38,525.44L1016.75,525.44L1068.63,525.44L1079,522.06L1089.38,532.2L1099.75,538.96L1130.88,535.58L1141.25,532.2L1151.63,542.34L1162,545.72L1172.38,549.1L1203.5,549.1L1213.88,552.48L1224.25,549.1L1234.63,545.72L1245,538.96" style="vector-effect: none; fill: none; stroke: rgb(99, 110, 250); stroke-opacity: 1; stroke-width: 2px; opacity: 1;"/></g><g class="points"/><g class="text"/></g><g class="trace scatter trace238429" style="stroke-miterlimit: 2;"><g class="fills"><g><path class="js-fill" d="M0,315.83L10.38,312.45L41.5,305.69L51.88,298.93L62.25,302.31L72.63,298.93L83,275.26L114.13,271.88L124.5,271.88L134.88,268.5L155.63,271.88L186.75,271.88L197.13,282.02L207.5,288.79L217.88,305.69L228.25,309.07L259.38,356.4L269.75,359.78L280.13,386.83L290.5,390.21L300.88,407.11L332,417.25L342.38,444.3L352.75,451.06L363.13,501.77L373.5,501.77L404.63,495.01L415,495.01L435.75,488.25L446.13,471.34L477.25,467.96L487.63,461.2L508.38,437.54L518.75,417.25L549.88,413.87L570.63,400.35L591.38,400.35L622.5,410.49L632.88,373.3L643.25,349.64L653.63,332.73L664,298.93L705.5,288.79L715.88,282.02L726.25,288.79L736.63,288.79L767.75,298.93L778.13,282.02L788.5,298.93L798.88,305.69L809.25,298.93L840.38,336.12L850.75,336.12L861.13,322.59L871.5,325.97L881.88,332.73L913,346.26L933.75,319.21L944.13,339.5L954.5,336.12L996,346.26L1006.38,336.12L1016.75,329.35L1027.13,322.59L1058.25,336.12L1079,322.59L1089.38,349.64L1099.75,383.45L1130.88,359.78L1151.63,393.59L1162,386.83L1172.38,393.59L1203.5,396.97L1213.88,400.35L1224.25,400.35L1234.63,396.97L1245,396.97L1245,467.96L1234.63,474.73L1224.25,488.25L1213.88,491.63L1203.5,495.01L1172.38,495.01L1162,491.63L1151.63,491.63L1141.25,474.73L1130.88,451.06L1099.75,464.58L1089.38,424.01L1079,396.97L1058.25,390.21L1027.13,376.68L1016.75,386.83L1006.38,390.21L996,400.35L954.5,400.35L944.13,403.73L933.75,386.83L923.38,400.35L913,417.25L881.88,413.87L871.5,403.73L861.13,407.11L850.75,427.39L840.38,427.39L809.25,396.97L798.88,400.35L788.5,400.35L778.13,380.06L767.75,386.83L736.63,376.68L726.25,376.68L715.88,369.92L705.5,373.3L664,380.06L653.63,403.73L643.25,410.49L632.88,420.63L622.5,451.06L591.38,447.68L570.63,451.06L560.25,457.82L549.88,471.34L518.75,484.87L508.38,508.53L487.63,525.44L477.25,532.2L446.13,532.2L435.75,535.58L415,542.34L363.13,542.34L352.75,505.15L342.38,498.39L332,478.11L300.88,471.34L290.5,461.2L280.13,457.82L269.75,447.68L259.38,451.06L228.25,424.01L217.88,420.63L207.5,403.73L197.13,396.97L186.75,386.83L155.63,386.83L134.88,383.45L124.5,383.45L114.13,380.06L83,380.06L72.63,400.35L62.25,407.11L51.88,403.73L41.5,410.49L10.38,410.49L0,413.87Z" style="fill: rgb(0, 204, 150); fill-opacity: 0.5; stroke-width: 0;"/></g></g><g class="errorbars"/><g class="lines"><path class="js-line" d="M0,413.87L10.38,410.49L41.5,410.49L51.88,403.73L62.25,407.11L72.63,400.35L83,380.06L114.13,380.06L124.5,383.45L134.88,383.45L155.63,386.83L186.75,386.83L197.13,396.97L207.5,403.73L217.88,420.63L228.25,424.01L259.38,451.06L269.75,447.68L280.13,457.82L290.5,461.2L300.88,471.34L332,478.11L342.38,498.39L352.75,505.15L363.13,542.34L415,542.34L435.75,535.58L446.13,532.2L477.25,532.2L487.63,525.44L508.38,508.53L518.75,484.87L549.88,471.34L560.25,457.82L570.63,451.06L591.38,447.68L622.5,451.06L632.88,420.63L643.25,410.49L653.63,403.73L664,380.06L705.5,373.3L715.88,369.92L726.25,376.68L736.63,376.68L767.75,386.83L778.13,380.06L788.5,400.35L798.88,400.35L809.25,396.97L840.38,427.39L850.75,427.39L861.13,407.11L871.5,403.73L881.88,413.87L913,417.25L923.38,400.35L933.75,386.83L944.13,403.73L954.5,400.35L996,400.35L1006.38,390.21L1016.75,386.83L1027.13,376.68L1058.25,390.21L1079,396.97L1089.38,424.01L1099.75,464.58L1130.88,451.06L1141.25,474.73L1151.63,491.63L1162,491.63L1172.38,495.01L1203.5,495.01L1213.88,491.63L1224.25,488.25L1234.63,474.73L1245,467.96" style="vector-effect: none; fill: none; stroke: rgb(239, 85, 59); stroke-opacity: 1; stroke-width: 2px; opacity: 1;"/></g><g class="points"/><g class="text"/></g><g class="trace scatter trace71403f" style="stroke-miterlimit: 2;"><g class="fills"><g><path class="js-fill" d="M0,194.12L10.38,190.74L41.5,190.74L51.88,187.36L62.25,190.74L72.63,183.98L83,160.32L124.5,160.32L134.88,156.94L155.63,160.32L186.75,160.32L207.5,180.6L217.88,197.51L228.25,194.12L259.38,241.46L269.75,244.84L280.13,275.26L290.5,278.64L300.88,295.55L332,302.31L342.38,329.35L352.75,336.12L363.13,410.49L373.5,410.49L404.63,403.73L415,407.11L435.75,400.35L446.13,383.45L477.25,380.06L487.63,373.3L508.38,349.64L518.75,336.12L549.88,322.59L560.25,295.55L570.63,282.02L591.38,288.79L622.5,302.31L632.88,268.5L643.25,238.07L653.63,207.65L664,170.46L705.5,160.32L715.88,146.79L736.63,146.79L767.75,156.94L778.13,133.27L788.5,146.79L798.88,156.94L809.25,150.18L840.38,190.74L850.75,200.89L861.13,190.74L871.5,204.27L913,231.31L923.38,217.79L933.75,200.89L944.13,224.55L954.5,227.93L996,238.07L1006.38,224.55L1016.75,217.79L1027.13,224.55L1058.25,248.22L1068.63,251.6L1079,251.6L1089.38,278.64L1099.75,315.83L1130.88,288.79L1141.25,305.69L1151.63,325.97L1162,315.83L1172.38,329.35L1203.5,336.12L1213.88,346.26L1224.25,342.88L1234.63,339.5L1245,332.73L1245,396.97L1234.63,396.97L1224.25,400.35L1213.88,400.35L1203.5,396.97L1172.38,393.59L1162,386.83L1151.63,393.59L1130.88,359.78L1099.75,383.45L1089.38,349.64L1079,322.59L1058.25,336.12L1027.13,322.59L1016.75,329.35L1006.38,336.12L996,346.26L954.5,336.12L944.13,339.5L933.75,319.21L913,346.26L881.88,332.73L871.5,325.97L861.13,322.59L850.75,336.12L840.38,336.12L809.25,298.93L798.88,305.69L788.5,298.93L778.13,282.02L767.75,298.93L736.63,288.79L726.25,288.79L715.88,282.02L705.5,288.79L664,298.93L653.63,332.73L643.25,349.64L632.88,373.3L622.5,410.49L591.38,400.35L570.63,400.35L549.88,413.87L518.75,417.25L508.38,437.54L487.63,461.2L477.25,467.96L446.13,471.34L435.75,488.25L415,495.01L404.63,495.01L373.5,501.77L363.13,501.77L352.75,451.06L342.38,444.3L332,417.25L300.88,407.11L290.5,390.21L280.13,386.83L269.75,359.78L259.38,356.4L228.25,309.07L217.88,305.69L207.5,288.79L197.13,282.02L186.75,271.88L155.63,271.88L134.88,268.5L124.5,271.88L114.13,271.88L83,275.26L72.63,298.93L62.25,302.31L51.88,298.93L41.5,305.69L10.38,312.45L0,315.83Z" style="fill: rgb(171, 99, 250); fill-opacity: 0.5; stroke-width: 0;"/></g></g><g class="errorbars"/><g class="lines"><path class="js-line" d="M0,315.83L10.38,312.45L41.5,305.69L51.88,298.93L62.25,302.31L72.63,298.93L83,275.26L114.13,271.88L124.5,271.88L134.88,268.5L155.63,271.88L186.75,271.88L197.13,282.02L207.5,288.79L217.88,305.69L228.25,309.07L259.38,356.4L269.75,359.78L280.13,386.83L290.5,390.21L300.88,407.11L332,417.25L342.38,444.3L352.75,451.06L363.13,501.77L373.5,501.77L404.63,495.01L415,495.01L435.75,488.25L446.13,471.34L477.25,467.96L487.63,461.2L508.38,437.54L518.75,417.25L549.88,413.87L570.63,400.35L591.38,400.35L622.5,410.49L632.88,373.3L643.25,349.64L653.63,332.73L664,298.93L705.5,288.79L715.88,282.02L726.25,288.79L736.63,288.79L767.75,298.93L778.13,282.02L788.5,298.93L798.88,305.69L809.25,298.93L840.38,336.12L850.75,336.12L861.13,322.59L871.5,325.97L881.88,332.73L913,346.26L933.75,319.21L944.13,339.5L954.5,336.12L996,346.26L1006.38,336.12L1016.75,329.35L1027.13,322.59L1058.25,336.12L1079,322.59L1089.38,349.64L1099.75,383.45L1130.88,359.78L1151.63,393.59L1162,386.83L1172.38,393.59L1203.5,396.97L1213.88,400.35L1224.25,400.35L1234.63,396.97L1245,396.97" style="vector-effect: none; fill: none; stroke: rgb(0, 204, 150); stroke-opacity: 1; stroke-width: 2px; opacity: 1;"/></g><g class="points"/><g class="text"/></g><g class="trace scatter tracea45420" style="stroke-miterlimit: 2;"><g class="fills"><g><path class="js-fill" d="M0,102.85L10.38,102.85L41.5,106.23L51.88,96.08L62.25,96.08L72.63,89.32L83,62.28L114.13,65.66L124.5,41.99L134.88,35.23L155.63,35.23L186.75,35.23L197.13,45.37L207.5,62.28L217.88,92.7L228.25,116.37L259.38,190.74L269.75,204.27L280.13,248.22L290.5,251.6L300.88,268.5L332,275.26L342.38,295.55L352.75,298.93L363.13,390.21L373.5,390.21L404.63,380.06L415,386.83L435.75,380.06L446.13,363.16L477.25,363.16L487.63,356.4L508.38,325.97L518.75,312.45L549.88,288.79L560.25,261.74L570.63,251.6L591.38,261.74L622.5,282.02L643.25,207.65L653.63,177.22L664,116.37L705.5,96.08L715.88,72.42L726.25,72.42L736.63,62.28L767.75,62.28L778.13,31.85L788.5,52.13L798.88,62.28L809.25,55.52L840.38,89.32L850.75,102.85L861.13,96.08L871.5,106.23L881.88,109.61L913,140.03L923.38,133.27L933.75,116.37L944.13,153.56L954.5,146.79L996,160.32L1006.38,150.18L1016.75,143.41L1027.13,140.03L1058.25,167.08L1068.63,156.94L1079,143.41L1089.38,177.22L1099.75,207.65L1130.88,177.22L1141.25,194.12L1151.63,217.79L1162,207.65L1172.38,221.17L1203.5,224.55L1213.88,248.22L1224.25,258.36L1234.63,275.26L1245,271.88L1245,332.73L1234.63,339.5L1224.25,342.88L1213.88,346.26L1203.5,336.12L1172.38,329.35L1162,315.83L1151.63,325.97L1141.25,305.69L1130.88,288.79L1099.75,315.83L1089.38,278.64L1079,251.6L1068.63,251.6L1058.25,248.22L1027.13,224.55L1016.75,217.79L1006.38,224.55L996,238.07L954.5,227.93L944.13,224.55L933.75,200.89L923.38,217.79L913,231.31L871.5,204.27L861.13,190.74L850.75,200.89L840.38,190.74L809.25,150.18L798.88,156.94L788.5,146.79L778.13,133.27L767.75,156.94L736.63,146.79L715.88,146.79L705.5,160.32L664,170.46L653.63,207.65L643.25,238.07L632.88,268.5L622.5,302.31L591.38,288.79L570.63,282.02L560.25,295.55L549.88,322.59L518.75,336.12L508.38,349.64L487.63,373.3L477.25,380.06L446.13,383.45L435.75,400.35L415,407.11L404.63,403.73L373.5,410.49L363.13,410.49L352.75,336.12L342.38,329.35L332,302.31L300.88,295.55L290.5,278.64L280.13,275.26L269.75,244.84L259.38,241.46L228.25,194.12L217.88,197.51L207.5,180.6L186.75,160.32L155.63,160.32L134.88,156.94L124.5,160.32L83,160.32L72.63,183.98L62.25,190.74L51.88,187.36L41.5,190.74L10.38,190.74L0,194.12Z" style="fill: rgb(255, 161, 90); fill-opacity: 0.5; stroke-width: 0;"/></g></g><g class="errorbars"/><g class="lines"><path class="js-line" d="M0,194.12L10.38,190.74L41.5,190.74L51.88,187.36L62.25,190.74L72.63,183.98L83,160.32L124.5,160.32L134.88,156.94L155.63,160.32L186.75,160.32L207.5,180.6L217.88,197.51L228.25,194.12L259.38,241.46L269.75,244.84L280.13,275.26L290.5,278.64L300.88,295.55L332,302.31L342.38,329.35L352.75,336.12L363.13,410.49L373.5,410.49L404.63,403.73L415,407.11L435.75,400.35L446.13,383.45L477.25,380.06L487.63,373.3L508.38,349.64L518.75,336.12L549.88,322.59L560.25,295.55L570.63,282.02L591.38,288.79L622.5,302.31L632.88,268.5L643.25,238.07L653.63,207.65L664,170.46L705.5,160.32L715.88,146.79L736.63,146.79L767.75,156.94L778.13,133.27L788.5,146.79L798.88,156.94L809.25,150.18L840.38,190.74L850.75,200.89L861.13,190.74L871.5,204.27L913,231.31L923.38,217.79L933.75,200.89L944.13,224.55L954.5,227.93L996,238.07L1006.38,224.55L1016.75,217.79L1027.13,224.55L1058.25,248.22L1068.63,251.6L1079,251.6L1089.38,278.64L1099.75,315.83L1130.88,288.79L1141.25,305.69L1151.63,325.97L1162,315.83L1172.38,329.35L1203.5,336.12L1213.88,346.26L1224.25,342.88L1234.63,339.5L1245,332.73" style="vector-effect: none; fill: none; stroke: rgb(171, 99, 250); stroke-opacity: 1; stroke-width: 2px; opacity: 1;"/></g><g class="points"/><g class="text"/></g><g class="trace scatter trace7dc68c" style="stroke-miterlimit: 2;"><g class="fills"/><g class="errorbars"/><g class="lines"><path class="js-line" d="M0,102.85L10.38,102.85L41.5,106.23L51.88,96.08L62.25,96.08L72.63,89.32L83,62.28L114.13,65.66L124.5,41.99L134.88,35.23L155.63,35.23L186.75,35.23L197.13,45.37L207.5,62.28L217.88,92.7L228.25,116.37L259.38,190.74L269.75,204.27L280.13,248.22L290.5,251.6L300.88,268.5L332,275.26L342.38,295.55L352.75,298.93L363.13,390.21L373.5,390.21L404.63,380.06L415,386.83L435.75,380.06L446.13,363.16L477.25,363.16L487.63,356.4L508.38,325.97L518.75,312.45L549.88,288.79L560.25,261.74L570.63,251.6L591.38,261.74L622.5,282.02L643.25,207.65L653.63,177.22L664,116.37L705.5,96.08L715.88,72.42L726.25,72.42L736.63,62.28L767.75,62.28L778.13,31.85L788.5,52.13L798.88,62.28L809.25,55.52L840.38,89.32L850.75,102.85L861.13,96.08L871.5,106.23L881.88,109.61L913,140.03L923.38,133.27L933.75,116.37L944.13,153.56L954.5,146.79L996,160.32L1006.38,150.18L1016.75,143.41L1027.13,140.03L1058.25,167.08L1068.63,156.94L1079,143.41L1089.38,177.22L1099.75,207.65L1130.88,177.22L1141.25,194.12L1151.63,217.79L1162,207.65L1172.38,221.17L1203.5,224.55L1213.88,248.22L1224.25,258.36L1234.63,275.26L1245,271.88" style="vector-effect: none; fill: none; stroke: rgb(255, 161, 90); stroke-opacity: 1; stroke-width: 2px; opacity: 1;"/></g><g class="points"/><g class="text"/></g></g></g></g><path class="xlines-above crisp" d="" style="fill: none; stroke-width: 1px; stroke: rgb(0, 0, 0); stroke-opacity: 0;"/><path class="ylines-above crisp" d="" style="fill: none; stroke-width: 1px; stroke: rgb(0, 0, 0); stroke-opacity: 0;"/><g class="overlines-above"/><g class="xaxislayer-above"><path class="xtick ticks crisp" d="M0,698v5" transform="translate(146.13,0)" style="stroke: rgb(68, 68, 68); stroke-opacity: 1; stroke-width: 1px;"/><path class="xtick ticks crisp" d="M0,698v5" transform="translate(291.38,0)" style="stroke: rgb(68, 68, 68); stroke-opacity: 1; stroke-width: 1px;"/><path class="xtick ticks crisp" d="M0,698v5" transform="translate(436.63,0)" style="stroke: rgb(68, 68, 68); stroke-opacity: 1; stroke-width: 1px;"/><path class="xtick ticks crisp" d="M0,698v5" transform="translate(581.88,0)" style="stroke: rgb(68, 68, 68); stroke-opacity: 1; stroke-width: 1px;"/><path class="xtick ticks crisp" d="M0,698v5" transform="translate(727.13,0)" style="stroke: rgb(68, 68, 68); stroke-opacity: 1; stroke-width: 1px;"/><path class="xtick ticks crisp" d="M0,698v5" transform="translate(872.38,0)" style="stroke: rgb(68, 68, 68); stroke-opacity: 1; stroke-width: 1px;"/><path class="xtick ticks crisp" d="M0,698v5" transform="translate(1017.63,0)" style="stroke: rgb(68, 68, 68); stroke-opacity: 1; stroke-width: 1px;"/><path class="xtick ticks crisp" d="M0,698v5" transform="translate(1162.88,0)" style="stroke: rgb(68, 68, 68); stroke-opacity: 1; stroke-width: 1px;"/><path class="xtick ticks crisp" d="M0,698v5" transform="translate(1308.13,0)" style="stroke: rgb(68, 68, 68); stroke-opacity: 1; stroke-width: 1px;"/><g class="xtick"><text text-anchor="middle" x="0" y="736.6" transform="translate(146.13,0)" style="font-family: Arial; font-size: 28px; fill: rgb(255, 255, 255); fill-opacity: 1; white-space: pre; opacity: 1;"><tspan class="line" dy="0em" x="0" y="736.6">Nov 17</tspan><tspan class="line" dy="1.3em" x="0" y="736.6">2024</tspan></text></g><g class="xtick"><text text-anchor="middle" x="0" y="736.6" style="font-family: Arial; font-size: 28px; fill: rgb(255, 255, 255); fill-opacity: 1; white-space: pre; opacity: 1;" transform="translate(291.38,0)">Dec 1</text></g><g class="xtick"><text text-anchor="middle" x="0" y="736.6" style="font-family: Arial; font-size: 28px; fill: rgb(255, 255, 255); fill-opacity: 1; white-space: pre; opacity: 1;" transform="translate(436.63,0)">Dec 15</text></g><g class="xtick"><text text-anchor="middle" x="0" y="736.6" style="font-family: Arial; font-size: 28px; fill: rgb(255, 255, 255); fill-opacity: 1; white-space: pre; opacity: 1;" transform="translate(581.88,0)">Dec 29</text></g><g class="xtick"><text text-anchor="middle" x="0" y="736.6" style="font-family: Arial; font-size: 28px; fill: rgb(255, 255, 255); fill-opacity: 1; white-space: pre; opacity: 1;" transform="translate(727.13,0)"><tspan class="line" dy="0em" x="0" y="736.6">Jan 12</tspan><tspan class="line" dy="1.3em" x="0" y="736.6">2025</tspan></text></g><g class="xtick"><text text-anchor="middle" x="0" y="736.6" style="font-family: Arial; font-size: 28px; fill: rgb(255, 255, 255); fill-opacity: 1; white-space: pre; opacity: 1;" transform="translate(872.38,0)">Jan 26</text></g><g class="xtick"><text text-anchor="middle" x="0" y="736.6" style="font-family: Arial; font-size: 28px; fill: rgb(255, 255, 255); fill-opacity: 1; white-space: pre; opacity: 1;" transform="translate(1017.63,0)">Feb 9</text></g><g class="xtick"><text text-anchor="middle" x="0" y="736.6" style="font-family: Arial; font-size: 28px; fill: rgb(255, 255, 255); fill-opacity: 1; white-space: pre; opacity: 1;" transform="translate(1162.88,0)">Feb 23</text></g><g class="xtick"><text text-anchor="middle" x="0" y="736.6" style="font-family: Arial; font-size: 28px; fill: rgb(255, 255, 255); fill-opacity: 1; white-space: pre; opacity: 1;" transform="translate(1308.13,0)">Mar 9</text></g></g><g class="yaxislayer-above"><path class="ytick ticks crisp" d="M114,0h-5" transform="translate(0,697)" style="stroke: rgb(68, 68, 68); stroke-opacity: 1; stroke-width: 1px;"/><path class="ytick ticks crisp" d="M114,0h-5" transform="translate(0,629.39)" style="stroke: rgb(68, 68, 68); stroke-opacity: 1; stroke-width: 1px;"/><path class="ytick ticks crisp" d="M114,0h-5" transform="translate(0,561.77)" style="stroke: rgb(68, 68, 68); stroke-opacity: 1; stroke-width: 1px;"/><path class="ytick ticks crisp" d="M114,0h-5" transform="translate(0,494.16)" style="stroke: rgb(68, 68, 68); stroke-opacity: 1; stroke-width: 1px;"/><path class="ytick ticks crisp" d="M114,0h-5" transform="translate(0,426.54)" style="stroke: rgb(68, 68, 68); stroke-opacity: 1; stroke-width: 1px;"/><path class="ytick ticks crisp" d="M114,0h-5" transform="translate(0,358.93)" style="stroke: rgb(68, 68, 68); stroke-opacity: 1; stroke-width: 1px;"/><path class="ytick ticks crisp" d="M114,0h-5" transform="translate(0,291.31)" style="stroke: rgb(68, 68, 68); stroke-opacity: 1; stroke-width: 1px;"/><path class="ytick ticks crisp" d="M114,0h-5" transform="translate(0,223.7)" style="stroke: rgb(68, 68, 68); stroke-opacity: 1; stroke-width: 1px;"/><path class="ytick ticks crisp" d="M114,0h-5" transform="translate(0,156.07999999999998)" style="stroke: rgb(68, 68, 68); stroke-opacity: 1; stroke-width: 1px;"/><path class="ytick ticks crisp" d="M114,0h-5" transform="translate(0,88.47)" style="stroke: rgb(68, 68, 68); stroke-opacity: 1; stroke-width: 1px;"/><g class="ytick"><text text-anchor="end" x="103.4" y="9.799999999999999" transform="translate(0,697)" style="font-family: Arial; font-size: 28px; fill: rgb(255, 255, 255); fill-opacity: 1; white-space: pre; opacity: 1;">0</text></g><g class="ytick"><text text-anchor="end" x="103.4" y="9.799999999999999" style="font-family: Arial; font-size: 28px; fill: rgb(255, 255, 255); fill-opacity: 1; white-space: pre; opacity: 1;" transform="translate(0,629.39)">20</text></g><g class="ytick"><text text-anchor="end" x="103.4" y="9.799999999999999" style="font-family: Arial; font-size: 28px; fill: rgb(255, 255, 255); fill-opacity: 1; white-space: pre; opacity: 1;" transform="translate(0,561.77)">40</text></g><g class="ytick"><text text-anchor="end" x="103.4" y="9.799999999999999" style="font-family: Arial; font-size: 28px; fill: rgb(255, 255, 255); fill-opacity: 1; white-space: pre; opacity: 1;" transform="translate(0,494.16)">60</text></g><g class="ytick"><text text-anchor="end" x="103.4" y="9.799999999999999" style="font-family: Arial; font-size: 28px; fill: rgb(255, 255, 255); fill-opacity: 1; white-space: pre; opacity: 1;" transform="translate(0,426.54)">80</text></g><g class="ytick"><text text-anchor="end" x="103.4" y="9.799999999999999" style="font-family: Arial; font-size: 28px; fill: rgb(255, 255, 255); fill-opacity: 1; white-space: pre; opacity: 1;" transform="translate(0,358.93)">100</text></g><g class="ytick"><text text-anchor="end" x="103.4" y="9.799999999999999" style="font-family: Arial; font-size: 28px; fill: rgb(255, 255, 255); fill-opacity: 1; white-space: pre; opacity: 1;" transform="translate(0,291.31)">120</text></g><g class="ytick"><text text-anchor="end" x="103.4" y="9.799999999999999" style="font-family: Arial; font-size: 28px; fill: rgb(255, 255, 255); fill-opacity: 1; white-space: pre; opacity: 1;" transform="translate(0,223.7)">140</text></g><g class="ytick"><text text-anchor="end" x="103.4" y="9.799999999999999" style="font-family: Arial; font-size: 28px; fill: rgb(255, 255, 255); fill-opacity: 1; white-space: pre; opacity: 1;" transform="translate(0,156.07999999999998)">160</text></g><g class="ytick"><text text-anchor="end" x="103.4" y="9.799999999999999" style="font-family: Arial; font-size: 28px; fill: rgb(255, 255, 255); fill-opacity: 1; white-space: pre; opacity: 1;" transform="translate(0,88.47)">180</text></g></g><g class="overaxes-above"/></g></g><g class="polarlayer"/><g class="smithlayer"/><g class="ternarylayer"/><g class="geolayer"/><g class="funnelarealayer"/><g class="pielayer"/><g class="iciclelayer"/><g class="treemaplayer"/><g class="sunburstlayer"/><g class="glimages"/><defs id="topdefs-77a5be"><g class="clips"/><clipPath id="legend77a5be"><rect width="759" height="50" x="0" y="0"/></clipPath></defs><g class="layer-above"><g class="imagelayer"/><g class="shapelayer"/></g><g class="infolayer"><g class="legend" pointer-events="all" transform="translate(358,838.1)"><rect class="bg" shape-rendering="crispEdges" style="stroke: rgb(68, 68, 68); stroke-opacity: 1; fill: rgb(0, 0, 0); fill-opacity: 0; stroke-width: 0px;" width="759" height="50" x="0" y="0"/><g class="scrollbox" transform="" clip-path="url(#legend77a5be)"><g class="groups" transform=""><g class="traces" transform="translate(0,24.7)" style="opacity: 1;"><text class="legendtext" text-anchor="start" x="40" y="10.92" style="font-family: Arial; font-size: 28px; fill: rgb(255, 255, 255); fill-opacity: 1; white-space: pre;">公用事业</text><g class="layers"><g class="legendfill"><path class="js-fill" d="M5,-2h30v6h-30z" style="stroke-width: 0; fill: rgb(99, 110, 250); fill-opacity: 0.5;"/></g><g class="legendlines"><path class="js-line" d="M5,-2h30" style="fill: none; stroke: rgb(99, 110, 250); stroke-opacity: 1; stroke-width: 2px;"/></g><g class="legendsymbols"><g class="legendpoints"/></g></g><rect class="legendtoggle" x="0" y="-19.7" width="154.5" height="39.4" style="fill: rgb(0, 0, 0); fill-opacity: 0;"/></g></g><g class="groups" transform="translate(157,0)"><g class="traces" transform="translate(0,24.7)" style="opacity: 1;"><text class="legendtext" text-anchor="start" x="40" y="10.92" style="font-family: Arial; font-size: 28px; fill: rgb(255, 255, 255); fill-opacity: 1; white-space: pre;">石油和天然气</text><g class="layers"><g class="legendfill"><path class="js-fill" d="M5,-2h30v6h-30z" style="stroke-width: 0; fill: rgb(239, 85, 59); fill-opacity: 0.5;"/></g><g class="legendlines"><path class="js-line" d="M5,-2h30" style="fill: none; stroke: rgb(239, 85, 59); stroke-opacity: 1; stroke-width: 2px;"/></g><g class="legendsymbols"><g class="legendpoints"/></g></g><rect class="legendtoggle" x="0" y="-19.7" width="210.5" height="39.4" style="fill: rgb(0, 0, 0); fill-opacity: 0;"/></g></g><g class="groups" transform="translate(370,0)"><g class="traces" transform="translate(0,24.7)" style="opacity: 1;"><text class="legendtext" text-anchor="start" x="40" y="10.92" style="font-family: Arial; font-size: 28px; fill: rgb(255, 255, 255); fill-opacity: 1; white-space: pre;">保险</text><g class="layers"><g class="legendfill"><path class="js-fill" d="M5,-2h30v6h-30z" style="stroke-width: 0; fill: rgb(0, 204, 150); fill-opacity: 0.5;"/></g><g class="legendlines"><path class="js-line" d="M5,-2h30" style="fill: none; stroke: rgb(0, 204, 150); stroke-opacity: 1; stroke-width: 2px;"/></g><g class="legendsymbols"><g class="legendpoints"/></g></g><rect class="legendtoggle" x="0" y="-19.7" width="99.5" height="39.4" style="fill: rgb(0, 0, 0); fill-opacity: 0;"/></g></g><g class="groups" transform="translate(472,0)"><g class="traces" transform="translate(0,24.7)" style="opacity: 1;"><text class="legendtext" text-anchor="start" x="40" y="10.92" style="font-family: Arial; font-size: 28px; fill: rgb(255, 255, 255); fill-opacity: 1; white-space: pre;">银行</text><g class="layers"><g class="legendfill"><path class="js-fill" d="M5,-2h30v6h-30z" style="stroke-width: 0; fill: rgb(171, 99, 250); fill-opacity: 0.5;"/></g><g class="legendlines"><path class="js-line" d="M5,-2h30" style="fill: none; stroke: rgb(171, 99, 250); stroke-opacity: 1; stroke-width: 2px;"/></g><g class="legendsymbols"><g class="legendpoints"/></g></g><rect class="legendtoggle" x="0" y="-19.7" width="99.5" height="39.4" style="fill: rgb(0, 0, 0); fill-opacity: 0;"/></g></g><g class="groups" transform="translate(574,0)"><g class="traces" transform="translate(0,24.7)" style="opacity: 1;"><text class="legendtext" text-anchor="start" x="40" y="10.92" style="font-family: Arial; font-size: 28px; fill: rgb(255, 255, 255); fill-opacity: 1; white-space: pre;">房地产信托</text><g class="layers"><g class="legendfill"><path class="js-fill" d="M5,-2h30v6h-30z" style="stroke-width: 0; fill: rgb(255, 161, 90); fill-opacity: 0.5;"/></g><g class="legendlines"><path class="js-line" d="M5,-2h30" style="fill: none; stroke: rgb(255, 161, 90); stroke-opacity: 1; stroke-width: 2px;"/></g><g class="legendsymbols"><g class="legendpoints"/></g></g><rect class="legendtoggle" x="0" y="-19.7" width="182.5" height="39.4" style="fill: rgb(0, 0, 0); fill-opacity: 0;"/></g></g></g><rect class="scrollbar" rx="20" ry="3" width="0" height="0" style="fill: rgb(128, 139, 164); fill-opacity: 1;" x="0" y="0"/></g><g class="g-gtitle"><text class="gtitle" x="72" y="30" text-anchor="start" dy="0em" style="opacity: 1; font-family: 'Open Sans', verdana, arial, sans-serif; font-size: 17px; fill: rgb(255, 255, 255); fill-opacity: 1; white-space: pre;">Last 120 days top5 positions</text></g><g class="g-xtitle"><text class="xtitle" x="737.5" y="816.9" text-anchor="middle" style="opacity: 1; font-family: Arial; font-size: 32px; fill: rgb(255, 255, 255); fill-opacity: 1; white-space: pre;">buy_date</text></g><g class="g-ytitle" transform="translate(6.3095703125,0)"><text class="ytitle" transform="rotate(-90,23.690624999999997,378.5)" x="23.690624999999997" y="378.5" text-anchor="middle" style="opacity: 1; font-family: Arial; font-size: 32px; fill: rgb(255, 255, 255); fill-opacity: 1; white-space: pre;">total_cnt</text></g></g></svg>