<svg class="main-svg" xmlns="http://www.w3.org/2000/svg" xmlns:xlink="http://www.w3.org/1999/xlink" width="1728" height="1080" style="" viewBox="0 0 1440 900"><rect x="0" y="0" width="1440" height="900" style="fill: rgb(0, 0, 0); fill-opacity: 0;"/><defs id="defs-d48b45"><g class="clips"><clipPath id="clipd48b45xyplot" class="plotclip"><rect width="1324" height="692"/></clipPath><clipPath class="axesclip" id="clipd48b45x"><rect x="96" y="0" width="1324" height="900"/></clipPath><clipPath class="axesclip" id="clipd48b45y"><rect x="0" y="0" width="1440" height="692"/></clipPath><clipPath class="axesclip" id="clipd48b45xy"><rect x="96" y="0" width="1324" height="692"/></clipPath></g><g class="gradients"/><g class="patterns"/></defs><g class="bglayer"><rect class="bg" x="96" y="0" width="1324" height="692" style="fill: rgb(0, 0, 0); fill-opacity: 0; stroke-width: 0;"/></g><g class="layer-below"><g class="imagelayer"/><g class="shapelayer"/></g><g class="cartesianlayer"><g class="subplot xy"><g class="layer-subplot"><g class="shapelayer"/><g class="imagelayer"/></g><g class="minor-gridlayer"><g class="x"/><g class="y"/></g><g class="gridlayer"><g class="x"><path class="xgrid crisp" transform="translate(129.1,0)" d="M0,0v692" style="stroke: rgb(0, 0, 0); stroke-opacity: 0.5; stroke-width: 1px;"/><path class="xgrid crisp" transform="translate(283.57,0)" d="M0,0v692" style="stroke: rgb(0, 0, 0); stroke-opacity: 0.5; stroke-width: 1px;"/><path class="xgrid crisp" transform="translate(438.03,0)" d="M0,0v692" style="stroke: rgb(0, 0, 0); stroke-opacity: 0.5; stroke-width: 1px;"/><path class="xgrid crisp" transform="translate(592.5,0)" d="M0,0v692" style="stroke: rgb(0, 0, 0); stroke-opacity: 0.5; stroke-width: 1px;"/><path class="xgrid crisp" transform="translate(746.97,0)" d="M0,0v692" style="stroke: rgb(0, 0, 0); stroke-opacity: 0.5; stroke-width: 1px;"/><path class="xgrid crisp" transform="translate(901.43,0)" d="M0,0v692" style="stroke: rgb(0, 0, 0); stroke-opacity: 0.5; stroke-width: 1px;"/><path class="xgrid crisp" transform="translate(1055.9,0)" d="M0,0v692" style="stroke: rgb(0, 0, 0); stroke-opacity: 0.5; stroke-width: 1px;"/><path class="xgrid crisp" transform="translate(1210.37,0)" d="M0,0v692" style="stroke: rgb(0, 0, 0); stroke-opacity: 0.5; stroke-width: 1px;"/><path class="xgrid crisp" transform="translate(1364.83,0)" d="M0,0v692" style="stroke: rgb(0, 0, 0); stroke-opacity: 0.5; stroke-width: 1px;"/></g><g class="y"><path class="ygrid crisp" transform="translate(0,570.03)" d="M96,0h1324" style="stroke: rgb(0, 0, 0); stroke-opacity: 0.5; stroke-width: 1px;"/><path class="ygrid crisp" transform="translate(0,483.22)" d="M96,0h1324" style="stroke: rgb(0, 0, 0); stroke-opacity: 0.5; stroke-width: 1px;"/><path class="ygrid crisp" transform="translate(0,396.41)" d="M96,0h1324" style="stroke: rgb(0, 0, 0); stroke-opacity: 0.5; stroke-width: 1px;"/><path class="ygrid crisp" transform="translate(0,309.6)" d="M96,0h1324" style="stroke: rgb(0, 0, 0); stroke-opacity: 0.5; stroke-width: 1px;"/><path class="ygrid crisp" transform="translate(0,222.78)" d="M96,0h1324" style="stroke: rgb(0, 0, 0); stroke-opacity: 0.5; stroke-width: 1px;"/><path class="ygrid crisp" transform="translate(0,135.97)" d="M96,0h1324" style="stroke: rgb(0, 0, 0); stroke-opacity: 0.5; stroke-width: 1px;"/><path class="ygrid crisp" transform="translate(0,49.16)" d="M96,0h1324" style="stroke: rgb(0, 0, 0); stroke-opacity: 0.5; stroke-width: 1px;"/></g></g><g class="zerolinelayer"><path class="yzl zl crisp" transform="translate(0,656.84)" d="M96,0h1324" style="stroke: rgb(255, 255, 255); stroke-opacity: 1; stroke-width: 2px;"/></g><g class="layer-between"><g class="shapelayer"/><g class="imagelayer"/></g><path class="xlines-below"/><path class="ylines-below"/><g class="overlines-below"/><g class="xaxislayer-below"/><g class="yaxislayer-below"/><g class="overaxes-below"/><g class="overplot"><g class="xy" transform="translate(96,0)" clip-path="url(#clipd48b45xyplot)"><g class="scatterlayer mlayer"><g class="trace scatter tracec7176e" style="stroke-miterlimit: 2; opacity: 1;"><g class="fills"/><g class="errorbars"/><g class="lines"><path class="js-line" d="M1324,507.77L1312.97,507.77L1301.93,503.69L1290.9,520.31L1279.87,460.34L1246.77,422.96L1235.73,438.2L1224.7,437.82L1213.67,449.07L1202.63,458.79L1169.53,432.93L1158.5,437.02L1147.47,393.17L1136.43,405.96L1125.4,377.24L1092.3,282.75L1081.27,257.31L1059.2,297.84L1015.07,267.86L1004.03,257.71L993,279.01L981.97,304.18L970.93,258.25L937.83,254.97L926.8,243.48L915.77,225.97L904.73,239.35L893.7,247.27L860.6,251.27L849.57,273.55L838.53,269.58L827.5,261.81L816.47,277.97L783.37,238.95L772.33,232.68L761.3,219.9L750.27,214.84L706.13,328.39L695.1,287.95L684.07,299.48L673.03,379.01L662,455.25L628.9,355.44L606.83,332.3L595.8,72.25L584.77,34.6L551.67,72.46L540.63,58.19L518.57,172.24L507.53,117.81L474.43,102.03L463.4,125.69L441.33,244.89L430.3,256.8L397.2,309.13L386.17,362.64L375.13,260.5L364.1,244.09L353.07,318.07L319.97,397.15L308.93,446.99L297.9,416.4L286.87,417.07L275.83,446.21L242.73,431.36L231.7,483.79L220.67,503.32L198.6,515.78L165.5,507.32L143.43,534.31L132.4,535.35L121.37,520.66L88.27,541.53L77.23,563.26L66.2,582.87L55.17,588.38L44.13,595.69L11.03,583.43L0,582.3" style="vector-effect: none; fill: none; stroke: rgb(99, 110, 250); stroke-opacity: 1; stroke-width: 3px; opacity: 1;"/></g><g class="points"/><g class="text"/></g><g class="trace scatter trace0d6901" style="stroke-miterlimit: 2; opacity: 1;"><g class="fills"/><g class="errorbars"/><g class="lines"><path class="js-line" d="M1324,571.96L1312.97,571.96L1301.93,570.35L1290.9,575.6L1279.87,572.9L1246.77,553.9L1235.73,553.55L1224.7,547.31L1213.67,559.48L1202.63,553.92L1169.53,554.19L1158.5,556L1147.47,554.99L1136.43,550.73L1125.4,554.65L1092.3,556.49L1081.27,531.45L1059.2,518.67L1015.07,527.43L1004.03,527.93L993,525.8L981.97,523.09L970.93,529.5L937.83,520.75L926.8,512.5L915.77,508.74L904.73,518.75L893.7,525.99L860.6,511.97L849.57,505.31L838.53,513.03L827.5,513.27L816.47,515.92L783.37,521.32L772.33,523.99L761.3,530.65L750.27,521.55L706.13,534.66L695.1,541.52L684.07,536.51L673.03,552.92L662,563.8L628.9,564.97L606.83,551L595.8,548.95L584.77,547.13L551.67,551.95L540.63,551.63L518.57,549.1L507.53,548.41L474.43,547.13L463.4,542.9L441.33,544.17L430.3,547.69L397.2,549.75L386.17,556.77L375.13,552.46L364.1,525.98L353.07,515.6L319.97,515.96L308.93,514.42L297.9,508.34L286.87,512.52L275.83,510.44L242.73,502.14L231.7,501.33L220.67,506.92L198.6,501.44L165.5,497.22L132.4,500.12L121.37,495.25L88.27,502.91L77.23,508.64L66.2,516.72L55.17,516.38L11.03,515.05L0,516.97" style="vector-effect: none; fill: none; stroke: rgb(239, 85, 59); stroke-opacity: 1; stroke-width: 3px; opacity: 1;"/></g><g class="points"/><g class="text"/></g><g class="trace scatter trace28f379" style="stroke-miterlimit: 2; opacity: 1;"><g class="fills"/><g class="errorbars"/><g class="lines"><path class="js-line" d="M1324,599.12L1312.97,599.12L1301.93,603.14L1290.9,599.76L1279.87,592.12L1246.77,598.01L1235.73,603.96L1224.7,597.39L1213.67,594.19L1202.63,581.44L1169.53,586.51L1158.5,584.76L1147.47,570.93L1125.4,576.65L1092.3,569.74L1070.23,565.62L1059.2,566.11L1004.03,573.83L993,580.15L981.97,577.75L970.93,581.21L937.83,586.29L926.8,584.87L915.77,583.78L904.73,589.1L893.7,584.03L860.6,589.22L849.57,583.99L838.53,599.11L827.5,600.42L816.47,596.24L783.37,583.32L772.33,584.53L761.3,586.07L750.27,575.66L706.13,585.03L695.1,586.17L684.07,596.24L673.03,597.17L662,601.88L628.9,598.27L606.83,600.03L595.8,599.07L584.77,594.06L551.67,590.69L540.63,595.03L518.57,599L507.53,598.39L474.43,598.99L463.4,597.33L441.33,597.16L397.2,605.05L386.17,608.86L375.13,599.11L364.1,590.38L353.07,580.93L319.97,576.29L297.9,575.17L286.87,566.02L242.73,556.32L231.7,548.74L220.67,552.07L209.63,551.45L198.6,546.58L165.5,533.45L143.43,533.03L132.4,533.61L121.37,542.58L88.27,543.09L77.23,541.11L66.2,551.18L55.17,552.38L44.13,556.37L11.03,560.76L0,563.18" style="vector-effect: none; fill: none; stroke: rgb(0, 204, 150); stroke-opacity: 1; stroke-width: 3px; opacity: 1;"/></g><g class="points"/><g class="text"/></g><g class="trace scatter traceab1744" style="stroke-miterlimit: 2; opacity: 1;"><g class="fills"/><g class="errorbars"/><g class="lines"><path class="js-line" d="M1324,599.51L1312.97,599.51L1301.93,590.99L1290.9,584.96L1279.87,613L1246.77,607.69L1235.73,612.36L1224.7,609.46L1213.67,616.13L1202.63,615.48L1169.53,607.38L1158.5,607.38L1147.47,603.29L1136.43,608.76L1125.4,607.78L1092.3,601.42L1081.27,604.18L1070.23,608.76L1059.2,607.73L1015.07,608.44L1004.03,607.32L993,607.12L981.97,608.21L970.93,611.72L937.83,611.79L926.8,611.68L915.77,623.22L904.73,616.9L893.7,618.09L860.6,616.65L849.57,613.18L838.53,616.93L827.5,616.85L816.47,619.87L783.37,614.63L772.33,616.41L761.3,613.59L750.27,612.64L706.13,615.35L695.1,617.31L684.07,616.6L673.03,617.89L662,623.82L628.9,618.42L606.83,622.69L595.8,614.65L584.77,612.17L551.67,609.62L540.63,609.55L518.57,618.05L507.53,614.78L474.43,619.07L463.4,616.31L441.33,622.83L430.3,622.48L397.2,626.72L386.17,630.98L375.13,633.02L364.1,618.88L353.07,633.24L319.97,630.54L308.93,631.34L297.9,630.34L286.87,629.65L275.83,632.53L242.73,635.26L231.7,638.4L220.67,638.01L209.63,643.21L198.6,644.28L165.5,641.86L132.4,647.01L121.37,652.77L77.23,654.81L66.2,655.45L55.17,655.78L44.13,655.29L11.03,657.4L0,656.75" style="vector-effect: none; fill: none; stroke: rgb(171, 99, 250); stroke-opacity: 1; stroke-width: 3px; opacity: 1;"/></g><g class="points"/><g class="text"/></g><g class="trace scatter trace09c4f7" style="stroke-miterlimit: 2; opacity: 1;"><g class="fills"/><g class="errorbars"/><g class="lines"><path class="js-line" d="M1324,611.58L1301.93,613.08L1290.9,609.24L1279.87,602.85L1246.77,605.3L1235.73,608.06L1224.7,607.86L1213.67,611.03L1202.63,609.9L1169.53,614.78L1158.5,618.52L1147.47,617.84L1136.43,614.46L1125.4,617.36L1092.3,619.05L1059.2,623.24L1015.07,626.71L1004.03,625.06L993,625.05L981.97,626.95L970.93,622.75L937.83,622.63L926.8,618.39L915.77,615.31L904.73,623.52L893.7,621.72L860.6,621.58L849.57,620.61L838.53,627.88L827.5,625.87L816.47,622.22L761.3,628.67L750.27,628.42L695.1,631.13L684.07,630.69L673.03,633.65L662,632.89L628.9,639.46L606.83,639.94L595.8,639.02L584.77,640.61L518.57,639.17L507.53,639.61L474.43,636.6L463.4,636.43L397.2,639.27L386.17,641.68L375.13,641.3L364.1,639.51L353.07,641.1L319.97,643.36L297.9,641.92L286.87,641.91L275.83,640.09L242.73,640.24L209.63,639.68L198.6,638.44L165.5,639.11L143.43,638.32L132.4,639.42L121.37,639.44L88.27,639.5L77.23,640.28L11.03,643.23L0,639.91" style="vector-effect: none; fill: none; stroke: rgb(255, 161, 90); stroke-opacity: 1; stroke-width: 3px; opacity: 1;"/></g><g class="points"/><g class="text"/></g></g></g></g><path class="xlines-above crisp" d="" style="fill: none; stroke-width: 1px; stroke: rgb(0, 0, 0); stroke-opacity: 0;"/><path class="ylines-above crisp" d="" style="fill: none; stroke-width: 1px; stroke: rgb(0, 0, 0); stroke-opacity: 0;"/><g class="overlines-above"/><g class="xaxislayer-above"><path class="xtick ticks crisp" d="M0,693v5" transform="translate(129.1,0)" style="stroke: rgb(68, 68, 68); stroke-opacity: 1; stroke-width: 1px;"/><path class="xtick ticks crisp" d="M0,693v5" transform="translate(283.57,0)" style="stroke: rgb(68, 68, 68); stroke-opacity: 1; stroke-width: 1px;"/><path class="xtick ticks crisp" d="M0,693v5" transform="translate(438.03,0)" style="stroke: rgb(68, 68, 68); stroke-opacity: 1; stroke-width: 1px;"/><path class="xtick ticks crisp" d="M0,693v5" transform="translate(592.5,0)" style="stroke: rgb(68, 68, 68); stroke-opacity: 1; stroke-width: 1px;"/><path class="xtick ticks crisp" d="M0,693v5" transform="translate(746.97,0)" style="stroke: rgb(68, 68, 68); stroke-opacity: 1; stroke-width: 1px;"/><path class="xtick ticks crisp" d="M0,693v5" transform="translate(901.43,0)" style="stroke: rgb(68, 68, 68); stroke-opacity: 1; stroke-width: 1px;"/><path class="xtick ticks crisp" d="M0,693v5" transform="translate(1055.9,0)" style="stroke: rgb(68, 68, 68); stroke-opacity: 1; stroke-width: 1px;"/><path class="xtick ticks crisp" d="M0,693v5" transform="translate(1210.37,0)" style="stroke: rgb(68, 68, 68); stroke-opacity: 1; stroke-width: 1px;"/><path class="xtick ticks crisp" d="M0,693v5" transform="translate(1364.83,0)" style="stroke: rgb(68, 68, 68); stroke-opacity: 1; stroke-width: 1px;"/><g class="xtick"><text text-anchor="middle" x="0" y="731.6" transform="translate(129.1,0)" style="font-family: Arial; font-size: 28px; fill: rgb(0, 0, 0); fill-opacity: 1; white-space: pre; opacity: 1;"><tspan class="line" dy="0em" x="0" y="731.6">Nov 17</tspan><tspan class="line" dy="1.3em" x="0" y="731.6">2024</tspan></text></g><g class="xtick"><text text-anchor="middle" x="0" y="731.6" style="font-family: Arial; font-size: 28px; fill: rgb(0, 0, 0); fill-opacity: 1; white-space: pre; opacity: 1;" transform="translate(283.57,0)">Dec 1</text></g><g class="xtick"><text text-anchor="middle" x="0" y="731.6" style="font-family: Arial; font-size: 28px; fill: rgb(0, 0, 0); fill-opacity: 1; white-space: pre; opacity: 1;" transform="translate(438.03,0)">Dec 15</text></g><g class="xtick"><text text-anchor="middle" x="0" y="731.6" style="font-family: Arial; font-size: 28px; fill: rgb(0, 0, 0); fill-opacity: 1; white-space: pre; opacity: 1;" transform="translate(592.5,0)">Dec 29</text></g><g class="xtick"><text text-anchor="middle" x="0" y="731.6" style="font-family: Arial; font-size: 28px; fill: rgb(0, 0, 0); fill-opacity: 1; white-space: pre; opacity: 1;" transform="translate(746.97,0)"><tspan class="line" dy="0em" x="0" y="731.6">Jan 12</tspan><tspan class="line" dy="1.3em" x="0" y="731.6">2025</tspan></text></g><g class="xtick"><text text-anchor="middle" x="0" y="731.6" style="font-family: Arial; font-size: 28px; fill: rgb(0, 0, 0); fill-opacity: 1; white-space: pre; opacity: 1;" transform="translate(901.43,0)">Jan 26</text></g><g class="xtick"><text text-anchor="middle" x="0" y="731.6" style="font-family: Arial; font-size: 28px; fill: rgb(0, 0, 0); fill-opacity: 1; white-space: pre; opacity: 1;" transform="translate(1055.9,0)">Feb 9</text></g><g class="xtick"><text text-anchor="middle" x="0" y="731.6" style="font-family: Arial; font-size: 28px; fill: rgb(0, 0, 0); fill-opacity: 1; white-space: pre; opacity: 1;" transform="translate(1210.37,0)">Feb 23</text></g><g class="xtick"><text text-anchor="middle" x="0" y="731.6" style="font-family: Arial; font-size: 28px; fill: rgb(0, 0, 0); fill-opacity: 1; white-space: pre; opacity: 1;" transform="translate(1364.83,0)">Mar 9</text></g></g><g class="yaxislayer-above"><path class="ytick ticks crisp" d="M96,0h5" transform="translate(0,656.84)" style="stroke: rgb(68, 68, 68); stroke-opacity: 1; stroke-width: 1px;"/><path class="ytick ticks crisp" d="M96,0h5" transform="translate(0,570.03)" style="stroke: rgb(68, 68, 68); stroke-opacity: 1; stroke-width: 1px;"/><path class="ytick ticks crisp" d="M96,0h5" transform="translate(0,483.22)" style="stroke: rgb(68, 68, 68); stroke-opacity: 1; stroke-width: 1px;"/><path class="ytick ticks crisp" d="M96,0h5" transform="translate(0,396.41)" style="stroke: rgb(68, 68, 68); stroke-opacity: 1; stroke-width: 1px;"/><path class="ytick ticks crisp" d="M96,0h5" transform="translate(0,309.6)" style="stroke: rgb(68, 68, 68); stroke-opacity: 1; stroke-width: 1px;"/><path class="ytick ticks crisp" d="M96,0h5" transform="translate(0,222.78)" style="stroke: rgb(68, 68, 68); stroke-opacity: 1; stroke-width: 1px;"/><path class="ytick ticks crisp" d="M96,0h5" transform="translate(0,135.97)" style="stroke: rgb(68, 68, 68); stroke-opacity: 1; stroke-width: 1px;"/><path class="ytick ticks crisp" d="M96,0h5" transform="translate(0,49.16)" style="stroke: rgb(68, 68, 68); stroke-opacity: 1; stroke-width: 1px;"/><g class="ytick"><text text-anchor="end" x="95" y="9.799999999999999" transform="translate(0,656.84)" style="font-family: Arial; font-size: 28px; fill: rgb(0, 0, 0); fill-opacity: 1; white-space: pre; opacity: 1;">0</text></g><g class="ytick"><text text-anchor="end" x="95" y="9.799999999999999" style="font-family: Arial; font-size: 28px; fill: rgb(0, 0, 0); fill-opacity: 1; white-space: pre; opacity: 1;" transform="translate(0,570.03)">50k</text></g><g class="ytick"><text text-anchor="end" x="95" y="9.799999999999999" style="font-family: Arial; font-size: 28px; fill: rgb(0, 0, 0); fill-opacity: 1; white-space: pre; opacity: 1;" transform="translate(0,483.22)">100k</text></g><g class="ytick"><text text-anchor="end" x="95" y="9.799999999999999" style="font-family: Arial; font-size: 28px; fill: rgb(0, 0, 0); fill-opacity: 1; white-space: pre; opacity: 1;" transform="translate(0,396.41)">150k</text></g><g class="ytick"><text text-anchor="end" x="95" y="9.799999999999999" style="font-family: Arial; font-size: 28px; fill: rgb(0, 0, 0); fill-opacity: 1; white-space: pre; opacity: 1;" transform="translate(0,309.6)">200k</text></g><g class="ytick"><text text-anchor="end" x="95" y="9.799999999999999" style="font-family: Arial; font-size: 28px; fill: rgb(0, 0, 0); fill-opacity: 1; white-space: pre; opacity: 1;" transform="translate(0,222.78)">250k</text></g><g class="ytick"><text text-anchor="end" x="95" y="9.799999999999999" style="font-family: Arial; font-size: 28px; fill: rgb(0, 0, 0); fill-opacity: 1; white-space: pre; opacity: 1;" transform="translate(0,135.97)">300k</text></g><g class="ytick"><text text-anchor="end" x="95" y="9.799999999999999" style="font-family: Arial; font-size: 28px; fill: rgb(0, 0, 0); fill-opacity: 1; white-space: pre; opacity: 1;" transform="translate(0,49.16)">350k</text></g></g><g class="overaxes-above"/></g></g><g class="polarlayer"/><g class="smithlayer"/><g class="ternarylayer"/><g class="geolayer"/><g class="funnelarealayer"/><g class="pielayer"/><g class="iciclelayer"/><g class="treemaplayer"/><g class="sunburstlayer"/><g class="glimages"/><defs id="topdefs-d48b45"><g class="clips"/><clipPath id="legendd48b45"><rect width="786" height="50" x="0" y="0"/></clipPath></defs><g class="layer-above"><g class="imagelayer"/><g class="shapelayer"/></g><g class="infolayer"><g class="legend" pointer-events="all" transform="translate(365,849.6)"><rect class="bg" shape-rendering="crispEdges" style="stroke: rgb(68, 68, 68); stroke-opacity: 1; fill: rgb(0, 0, 0); fill-opacity: 0; stroke-width: 0px;" width="786" height="50" x="0" y="0"/><g class="scrollbox" transform="" clip-path="url(#legendd48b45)"><g class="groups" transform=""><g class="traces" transform="translate(0,24.7)" style="opacity: 1;"><text class="legendtext" text-anchor="start" x="40" y="10.92" style="font-family: Arial; font-size: 28px; fill: rgb(0, 0, 0); fill-opacity: 1; white-space: pre;">计算机硬件</text><g class="layers" style="opacity: 1;"><g class="legendfill"/><g class="legendlines"><path class="js-line" d="M5,0h30" style="fill: none; stroke: rgb(99, 110, 250); stroke-opacity: 1; stroke-width: 3px;"/></g><g class="legendsymbols"><g class="legendpoints"/></g></g><rect class="legendtoggle" x="0" y="-19.7" width="182.5" height="39.4" style="fill: rgb(0, 0, 0); fill-opacity: 0;"/></g></g><g class="groups" transform="translate(185,0)"><g class="traces" transform="translate(0,24.7)" style="opacity: 1;"><text class="legendtext" text-anchor="start" x="40" y="10.92" style="font-family: Arial; font-size: 28px; fill: rgb(0, 0, 0); fill-opacity: 1; white-space: pre;">银行</text><g class="layers" style="opacity: 1;"><g class="legendfill"/><g class="legendlines"><path class="js-line" d="M5,0h30" style="fill: none; stroke: rgb(239, 85, 59); stroke-opacity: 1; stroke-width: 3px;"/></g><g class="legendsymbols"><g class="legendpoints"/></g></g><rect class="legendtoggle" x="0" y="-19.7" width="99.5" height="39.4" style="fill: rgb(0, 0, 0); fill-opacity: 0;"/></g></g><g class="groups" transform="translate(287,0)"><g class="traces" transform="translate(0,24.7)" style="opacity: 1;"><text class="legendtext" text-anchor="start" x="40" y="10.92" style="font-family: Arial; font-size: 28px; fill: rgb(0, 0, 0); fill-opacity: 1; white-space: pre;">公用事业</text><g class="layers" style="opacity: 1;"><g class="legendfill"/><g class="legendlines"><path class="js-line" d="M5,0h30" style="fill: none; stroke: rgb(0, 204, 150); stroke-opacity: 1; stroke-width: 3px;"/></g><g class="legendsymbols"><g class="legendpoints"/></g></g><rect class="legendtoggle" x="0" y="-19.7" width="154.5" height="39.4" style="fill: rgb(0, 0, 0); fill-opacity: 0;"/></g></g><g class="groups" transform="translate(444,0)"><g class="traces" transform="translate(0,24.7)" style="opacity: 1;"><text class="legendtext" text-anchor="start" x="40" y="10.92" style="font-family: Arial; font-size: 28px; fill: rgb(0, 0, 0); fill-opacity: 1; white-space: pre;">汽车零部件</text><g class="layers" style="opacity: 1;"><g class="legendfill"/><g class="legendlines"><path class="js-line" d="M5,0h30" style="fill: none; stroke: rgb(171, 99, 250); stroke-opacity: 1; stroke-width: 3px;"/></g><g class="legendsymbols"><g class="legendpoints"/></g></g><rect class="legendtoggle" x="0" y="-19.7" width="182.5" height="39.4" style="fill: rgb(0, 0, 0); fill-opacity: 0;"/></g></g><g class="groups" transform="translate(629,0)"><g class="traces" transform="translate(0,24.7)" style="opacity: 1;"><text class="legendtext" text-anchor="start" x="40" y="10.92" style="font-family: Arial; font-size: 28px; fill: rgb(0, 0, 0); fill-opacity: 1; white-space: pre;">药品制造</text><g class="layers" style="opacity: 1;"><g class="legendfill"/><g class="legendlines"><path class="js-line" d="M5,0h30" style="fill: none; stroke: rgb(255, 161, 90); stroke-opacity: 1; stroke-width: 3px;"/></g><g class="legendsymbols"><g class="legendpoints"/></g></g><rect class="legendtoggle" x="0" y="-19.7" width="154.5" height="39.4" style="fill: rgb(0, 0, 0); fill-opacity: 0;"/></g></g></g><rect class="scrollbar" rx="20" ry="3" width="0" height="0" style="fill: rgb(128, 139, 164); fill-opacity: 1;" x="0" y="0"/></g><g class="g-gtitle"><text class="gtitle" x="720" y="90" text-anchor="middle" dy="0.7em" style="opacity: 1; font-family: Arial; font-size: 32px; fill: rgb(0, 0, 0); fill-opacity: 1; white-space: pre;">Last 120 days top5 pnl</text></g><g class="g-xtitle"><text class="xtitle" x="758" y="811.9" text-anchor="middle" style="opacity: 1; font-family: Arial; font-size: 32px; fill: rgb(0, 0, 0); fill-opacity: 1; white-space: pre;">buy_date</text></g><g class="g-ytitle"/></g></svg>