<svg class="main-svg" xmlns="http://www.w3.org/2000/svg" xmlns:xlink="http://www.w3.org/1999/xlink" width="1440" height="900" style="" viewBox="0 0 1440 900"><rect x="0" y="0" width="1440" height="900" style="fill: rgb(0, 0, 0); fill-opacity: 0;"/><defs id="defs-2778e8"><g class="clips"><clipPath id="clip2778e8xyplot" class="plotclip"><rect width="1358" height="900"/></clipPath><clipPath class="axesclip" id="clip2778e8x"><rect x="82" y="0" width="1358" height="900"/></clipPath><clipPath class="axesclip" id="clip2778e8y"><rect x="0" y="0" width="1440" height="900"/></clipPath><clipPath class="axesclip" id="clip2778e8xy"><rect x="82" y="0" width="1358" height="900"/></clipPath></g><g class="gradients"/><g class="patterns"/></defs><g class="bglayer"><rect class="bg" x="82" y="0" width="1358" height="900" style="fill: rgb(0, 0, 0); fill-opacity: 0; stroke-width: 0;"/></g><g class="layer-below"><g class="imagelayer"/><g class="shapelayer"/></g><g class="cartesianlayer"><g class="subplot xy"><g class="layer-subplot"><g class="shapelayer"/><g class="imagelayer"/></g><g class="minor-gridlayer"><g class="x"/><g class="y"/></g><g class="gridlayer"><g class="x"><path class="xgrid crisp" transform="translate(257.47,0)" d="M0,0v900" style="stroke: rgb(255, 255, 255); stroke-opacity: 0.2; stroke-width: 1px;"/><path class="xgrid crisp" transform="translate(493.98,0)" d="M0,0v900" style="stroke: rgb(255, 255, 255); stroke-opacity: 0.2; stroke-width: 1px;"/><path class="xgrid crisp" transform="translate(722.85,0)" d="M0,0v900" style="stroke: rgb(255, 255, 255); stroke-opacity: 0.2; stroke-width: 1px;"/><path class="xgrid crisp" transform="translate(959.36,0)" d="M0,0v900" style="stroke: rgb(255, 255, 255); stroke-opacity: 0.2; stroke-width: 1px;"/><path class="xgrid crisp" transform="translate(1195.87,0)" d="M0,0v900" style="stroke: rgb(255, 255, 255); stroke-opacity: 0.2; stroke-width: 1px;"/><path class="xgrid crisp" transform="translate(1409.48,0)" d="M0,0v900" style="stroke: rgb(255, 255, 255); stroke-opacity: 0.2; stroke-width: 1px;"/></g><g class="y"><path class="ygrid crisp" transform="translate(0,631.09)" d="M82,0h1358" style="stroke: rgb(255, 255, 255); stroke-opacity: 0.2; stroke-width: 1px;"/><path class="ygrid crisp" transform="translate(0,430.63)" d="M82,0h1358" style="stroke: rgb(255, 255, 255); stroke-opacity: 0.2; stroke-width: 1px;"/><path class="ygrid crisp" transform="translate(0,230.17)" d="M82,0h1358" style="stroke: rgb(255, 255, 255); stroke-opacity: 0.2; stroke-width: 1px;"/><path class="ygrid crisp" transform="translate(0,29.71)" d="M82,0h1358" style="stroke: rgb(255, 255, 255); stroke-opacity: 0.2; stroke-width: 1px;"/></g></g><g class="zerolinelayer"><path class="yzl zl crisp" transform="translate(0,831.55)" d="M82,0h1358" style="stroke: rgb(255, 255, 255); stroke-opacity: 1; stroke-width: 2px;"/></g><g class="layer-between"><g class="shapelayer"/><g class="imagelayer"/></g><path class="xlines-below"/><path class="ylines-below"/><g class="overlines-below"/><g class="xaxislayer-below"/><g class="yaxislayer-below"/><g class="overaxes-below"/><g class="overplot"><g class="xy" transform="translate(82,0)" clip-path="url(#clip2778e8xyplot)"><g class="scatterlayer mlayer"><g class="trace scatter trace7d509a" style="stroke-miterlimit: 2; opacity: 1;"><g class="fills"/><g class="errorbars"/><g class="lines"><path class="js-line" d="M1358,597.87L1350.37,594.21L1342.74,627.28L1335.11,612.29L1312.22,624.96L1304.6,634.73L1296.97,631.98L1289.34,635.36L1281.71,646.7L1258.82,646.43L1251.19,652.55L1243.56,647.12L1235.93,650.08L1205.42,658.53L1197.79,632.25L1190.16,640.54L1182.53,631.02L1174.9,625.18L1152.01,627.51L1144.38,646.7L1136.75,646.06L1129.12,650.68L1121.49,649.71L1098.61,618.23L1090.98,615.69L1083.35,627.4L1075.72,611.25L1068.09,621.51L1045.2,615.35L1037.57,601.05L1029.94,616.65L1022.31,634.88L991.8,641.61L984.17,640.56L976.54,647.92L968.91,673.02L961.28,704.92L938.39,690.6L930.76,707.74L923.13,707.2L915.51,751.5L907.88,715.97L884.99,711.88L869.73,714.45L862.1,712.93L854.47,708.49L831.58,704.66L816.33,698.52L808.7,702.72L801.07,689.11L778.18,704.44L770.55,715.34L762.92,700.64L755.29,697.07L747.66,697.85L724.78,693.24L717.15,703.84L709.52,715.37L701.89,718.87L694.26,704.71L671.37,702.81L663.74,705.39L656.11,709.05L648.48,722.64L640.85,712.46L617.97,691.02L602.71,693.53L595.08,696.79L587.45,708.56L564.56,720.31L556.93,732.25L549.3,737.41L541.67,730.58L534.04,734.85L511.16,745.9L503.53,760.88L495.9,748.26L488.27,751.65L480.64,760L457.75,764.85L450.12,757.23L442.49,746.14L434.87,744.23L427.24,739.85L404.35,730.88L396.72,730.17L389.09,738.58L381.46,734.97L373.83,737.99L350.94,743.67L343.31,751.08L335.69,727.24L328.06,720.84L320.43,716.99L297.54,721.7L289.91,722L282.28,720.78L274.65,735.01L267.02,737.96L244.13,745.62L236.51,742.07L228.88,718.55L221.25,715.91L213.62,717.89L190.73,710.2L183.1,718.93L175.47,715.7L167.84,720.13L160.21,727.43L137.33,740.5L129.7,756.2L122.07,747.91L114.44,750.85L106.81,745.44L83.92,749.4L76.29,738.64L68.66,751.14L53.4,763.63L30.52,761.15L22.89,751.2L15.26,637.34L7.63,623.06L0,632.84" style="vector-effect: none; fill: none; stroke: rgb(214, 10, 34); stroke-opacity: 1; stroke-width: 3px; opacity: 1;"/></g><g class="points"/><g class="text"/></g><g class="trace scatter trace032041" style="stroke-miterlimit: 2; opacity: 1;"><g class="fills"/><g class="errorbars"/><g class="lines"><path class="js-line" d="M1358,634.77L1350.37,695.7L1342.74,726.76L1335.11,771.89L1312.22,789.62L1304.6,771.91L1296.97,792.22L1289.34,824.49L1281.71,839L1258.82,810.77L1251.19,827.03L1243.56,829.12L1235.93,834.88L1205.42,829.88L1197.79,836.8L1182.53,828.33L1174.9,831.22L1144.38,831.55L1136.75,833.11L1129.12,843.29L1121.49,837.18L1098.61,840.37L1090.98,853L1083.35,818.35L1075.72,817.14L1068.09,809.71L1045.2,807.42L1037.57,804.41L1029.94,806.56L1022.31,825.64L991.8,815.05L984.17,818.87L976.54,817.41L968.91,810.46L961.28,783.8L938.39,764.92L930.76,750.29L923.13,732.37L915.51,741.85L907.88,758.71L884.99,794.66L869.73,763.39L862.1,745.63L854.47,742.93L831.58,735.95L816.33,738.86L808.7,748.53L801.07,726.94L778.18,747.79L770.55,761.48L762.92,781.05L755.29,776.95L747.66,800.58L724.78,747.18L717.15,717.75L709.52,717.39L701.89,735.54L694.26,743.96L671.37,746.18L656.11,785.04L648.48,800.22L640.85,808.01L617.97,804.11L602.71,813.99L595.08,806.93L587.45,815.86L564.56,816.54L556.93,828.16L549.3,827.46L541.67,828.66L534.04,850.82L511.16,828.26L503.53,824.11L495.9,794.72L488.27,794.37L480.64,793.73L457.75,803.27L450.12,843L442.49,821.6L434.87,822.73L427.24,773.21L404.35,777.1L396.72,806.47L389.09,800.28L381.46,763.43L373.83,750.78L350.94,767.2L343.31,775.7L335.69,791.34L328.06,771.3L320.43,770.97L297.54,781.74L289.91,767.56L282.28,759.66L274.65,761.07L267.02,747.74L244.13,768.98L236.51,715.31L228.88,725.35L221.25,753.54L213.62,736.04L190.73,746.86L183.1,744.76L167.84,715.35L160.21,684.33L137.33,647.53L129.7,650.45L122.07,607.66L114.44,592.03L106.81,555.73L83.92,571.86L76.29,584.5L68.66,611.66L61.03,623.34L53.4,624.29L30.52,649.08L22.89,630.38L15.26,663.82L7.63,628.36L0,631.52" style="vector-effect: none; fill: none; stroke: rgb(234, 112, 52); stroke-opacity: 1; stroke-width: 3px; opacity: 1;"/></g><g class="points"/><g class="text"/></g><g class="trace scatter trace9d4a27" style="stroke-miterlimit: 2; opacity: 1;"><g class="fills"/><g class="errorbars"/><g class="lines"><path class="js-line" d="M1358,753.17L1350.37,756.96L1342.74,776.93L1335.11,777.95L1312.22,796.07L1304.6,799.26L1296.97,808.78L1289.34,805.66L1281.71,808.81L1258.82,802.52L1251.19,804.6L1243.56,803.56L1235.93,796.29L1205.42,794.53L1197.79,801.98L1190.16,790.86L1182.53,797.03L1174.9,793.13L1152.01,790.72L1144.38,801.95L1136.75,801.97L1121.49,821.67L1098.61,820L1075.72,822.93L1068.09,824.39L1045.2,820.62L1037.57,823.39L1029.94,820.93L1022.31,827.59L991.8,829.15L984.17,823.17L976.54,819.84L968.91,823.38L961.28,824.44L938.39,822.18L930.76,820.68L923.13,830.05L915.51,832.79L907.88,828.03L884.99,829.47L869.73,831.55L724.78,831.55L717.15,834.44L709.52,832.69L701.89,830.16L694.26,830.73L671.37,829.86L656.11,828.46L648.48,826.05L640.85,823.82L617.97,826.21L602.71,827.5L595.08,826.47L564.56,826.7L556.93,832.21L549.3,819.19L541.67,809.86L534.04,817.89L511.16,814.55L503.53,824.51L495.9,820.33L488.27,812.72L480.64,815.11L457.75,822.56L450.12,826.35L442.49,834.94L434.87,832.64L427.24,828.85L404.35,834.33L396.72,831.51L389.09,830.78L381.46,835.53L373.83,831.1L350.94,832.84L343.31,831.55L289.91,831.55L282.28,814.75L274.65,812.88L267.02,813.47L244.13,817.37L236.51,811.86L228.88,810.8L221.25,789.29L213.62,786.09L190.73,787.9L183.1,787.28L175.47,782.26L167.84,780.48L160.21,777.02L137.33,769.57L129.7,766.01L122.07,772.97L114.44,774.28L106.81,782.15L83.92,786.58L76.29,782.68L68.66,785.63L61.03,785.36L53.4,800.68L30.52,803.81L22.89,798.06L15.26,797.98L7.63,784.99L0,796.94" style="vector-effect: none; fill: none; stroke: rgb(255, 215, 71); stroke-opacity: 1; stroke-width: 3px; opacity: 1;"/></g><g class="points"/><g class="text"/></g><g class="trace scatter trace732f5f" style="stroke-miterlimit: 2; opacity: 1;"><g class="fills"/><g class="errorbars"/><g class="lines"><path class="js-line" d="M1358,794.09L1342.74,793.85L1335.11,801.72L1312.22,806.88L1304.6,815.99L1296.97,819.96L1289.34,818.94L1281.71,820.74L1258.82,816.76L1251.19,818.9L1243.56,817.94L1235.93,818.4L1205.42,818.01L1182.53,818.65L1174.9,818.7L1152.01,819.21L1144.38,822.6L1136.75,821.72L1129.12,825.05L1121.49,826.13L1098.61,827.22L1090.98,826.53L1083.35,826.71L1075.72,825.73L1068.09,826.44L1037.57,825.81L1029.94,803.17L1022.31,804.81L991.8,805.16L984.17,800.77L976.54,801.82L968.91,801.47L961.28,802.95L930.76,803.87L923.13,803.72L915.51,804.21L907.88,806.23L869.73,806.98L862.1,805.54L854.47,805.47L831.58,803.78L808.7,803.97L801.07,801.82L778.18,802.09L770.55,803.48L762.92,806.22L755.29,803.72L747.66,806.39L724.78,804.98L709.52,807.98L701.89,813.59L694.26,810.31L671.37,808.55L663.74,811.08L656.11,809.17L648.48,814.45L640.85,813.46L617.97,820.08L602.71,819.37L587.45,820.4L564.56,820.1L556.93,823.8L549.3,822.6L541.67,823.15L534.04,822.75L503.53,820.3L495.9,816.91L488.27,818.99L480.64,823.41L457.75,824.94L450.12,830.56L442.49,830.24L434.87,831.33L427.24,829.85L404.35,830.89L396.72,820.21L389.09,821.4L381.46,817.88L373.83,816.55L350.94,817.11L343.31,816.1L335.69,819.33L328.06,817.74L320.43,818.59L297.54,818.94L282.28,819.62L274.65,821.8L244.13,824.62L236.51,814.66L228.88,812.18L221.25,812.36L213.62,810.88L190.73,810.28L183.1,809.84L175.47,810.57L167.84,813.27L160.21,814.21L137.33,812.9L129.7,814.39L122.07,793.01L114.44,792.79L106.81,794.01L83.92,789.91L76.29,788.77L68.66,790.98L61.03,790.79L53.4,789.25L30.52,793.07L22.89,788.03L15.26,797.43L7.63,797.55L0,794.76" style="vector-effect: none; fill: none; stroke: rgb(129, 169, 73); stroke-opacity: 1; stroke-width: 3px; opacity: 1;"/></g><g class="points"/><g class="text"/></g><g class="trace scatter trace1c1d8c" style="stroke-miterlimit: 2; opacity: 1;"><g class="fills"/><g class="errorbars"/><g class="lines"><path class="js-line" d="M1358,827.93L1350.37,814.58L1342.74,845.05L1335.11,826.21L1312.22,839.88L1304.6,818.94L1296.97,814.41L1289.34,819.05L1281.71,826.65L1251.19,826.18L1243.56,830.41L1235.93,829.07L1205.42,826.59L1197.79,828.43L1190.16,826.49L1174.9,817.91L1152.01,821.38L1144.38,827.03L1136.75,820.45L1129.12,802.58L1121.49,806.81L1098.61,801.93L1090.98,777.43L1083.35,760.5L1075.72,764.23L1068.09,792.72L1045.2,778.04L1037.57,792.29L1029.94,788.06L1022.31,789.65L991.8,776.83L984.17,800.89L976.54,795.9L968.91,800.79L961.28,810.3L938.39,825.04L930.76,823.7L923.13,832.45L915.51,818.53L907.88,811.59L884.99,828.45L862.1,828.88L854.47,828.56L801.07,828.52L778.18,829.62L762.92,830.56L755.29,830.81L747.66,852.47L724.78,841.36L717.15,821.52L709.52,818.37L701.89,817.81L694.26,826.09L671.37,835.98L663.74,821.19L656.11,827.03L648.48,839.35L640.85,826.24L617.97,819.6L602.71,828.96L595.08,831.55L556.93,831.66L549.3,829.63L541.67,828.58L534.04,830.79L503.53,827.06L495.9,734.93L488.27,301.52L480.64,262.1L457.75,241.96L450.12,155.06L442.49,45L434.87,107.78L427.24,68.41L404.35,160.3L396.72,177.04L389.09,141.97L381.46,115.52L373.83,101.59L350.94,126.1L343.31,233L335.69,283.56L328.06,207.62L320.43,150.87L297.54,159.73L289.91,146.62L282.28,46.91L274.65,50.7L267.02,109.19L244.13,189.54L236.51,129.77L228.88,178.26L221.25,197.16L213.62,230.62L190.73,304.01L183.1,341.84L175.47,363.87L167.84,368.23L160.21,371.39L137.33,439.6L129.7,397.83L122.07,354.93L114.44,400.06L106.81,393.84L83.92,433.33L76.29,451.47L68.66,445.81L61.03,476.89L53.4,491.02L30.52,514.66L22.89,531.88L15.26,532.33L7.63,571.13L0,628.08" style="vector-effect: none; fill: none; stroke: rgb(3, 123, 102); stroke-opacity: 1; stroke-width: 3px; opacity: 1;"/></g><g class="points"/><g class="text"/></g></g></g></g><g class="zerolinelayer-above"/><path class="xlines-above crisp" d="" style="fill: none; stroke-width: 1px; stroke: rgb(0, 0, 0); stroke-opacity: 0;"/><path class="ylines-above crisp" d="" style="fill: none; stroke-width: 1px; stroke: rgb(0, 0, 0); stroke-opacity: 0;"/><g class="overlines-above"/><g class="xaxislayer-above"><path class="xtick ticks crisp" d="M0,900v-5" transform="translate(257.47,0)" style="stroke: rgb(68, 68, 68); stroke-opacity: 1; stroke-width: 1px;"/><path class="xtick ticks crisp" d="M0,900v-5" transform="translate(493.98,0)" style="stroke: rgb(68, 68, 68); stroke-opacity: 1; stroke-width: 1px;"/><path class="xtick ticks crisp" d="M0,900v-5" transform="translate(722.85,0)" style="stroke: rgb(68, 68, 68); stroke-opacity: 1; stroke-width: 1px;"/><path class="xtick ticks crisp" d="M0,900v-5" transform="translate(959.36,0)" style="stroke: rgb(68, 68, 68); stroke-opacity: 1; stroke-width: 1px;"/><path class="xtick ticks crisp" d="M0,900v-5" transform="translate(1195.87,0)" style="stroke: rgb(68, 68, 68); stroke-opacity: 1; stroke-width: 1px;"/><path class="xtick ticks crisp" d="M0,900v-5" transform="translate(1409.48,0)" style="stroke: rgb(68, 68, 68); stroke-opacity: 1; stroke-width: 1px;"/><g class="xtick"><text text-anchor="middle" x="0" y="895" transform="translate(257.47,-3)" style="font-family: Arial; font-size: 32px; fill: rgb(255, 255, 255); fill-opacity: 0.8; white-space: pre;">Oct 2025</text></g><g class="xtick"><text text-anchor="middle" x="0" y="895" style="font-family: Arial; font-size: 32px; fill: rgb(255, 255, 255); fill-opacity: 0.8; white-space: pre;" transform="translate(493.98,-3)">Nov 2025</text></g><g class="xtick"><text text-anchor="middle" x="0" y="895" style="font-family: Arial; font-size: 32px; fill: rgb(255, 255, 255); fill-opacity: 0.8; white-space: pre;" transform="translate(722.85,-3)">Dec 2025</text></g><g class="xtick"><text text-anchor="middle" x="0" y="895" style="font-family: Arial; font-size: 32px; fill: rgb(255, 255, 255); fill-opacity: 0.8; white-space: pre;" transform="translate(959.36,-3)">Jan 2026</text></g><g class="xtick"><text text-anchor="middle" x="0" y="895" style="font-family: Arial; font-size: 32px; fill: rgb(255, 255, 255); fill-opacity: 0.8; white-space: pre;" transform="translate(1195.87,-3)">Feb 2026</text></g><g class="xtick"/></g><g class="yaxislayer-above"><path class="ytick ticks crisp" d="M81,0h-5" transform="translate(0,831.55)" style="stroke: rgb(68, 68, 68); stroke-opacity: 1; stroke-width: 1px;"/><path class="ytick ticks crisp" d="M81,0h-5" transform="translate(0,631.09)" style="stroke: rgb(68, 68, 68); stroke-opacity: 1; stroke-width: 1px;"/><path class="ytick ticks crisp" d="M81,0h-5" transform="translate(0,430.63)" style="stroke: rgb(68, 68, 68); stroke-opacity: 1; stroke-width: 1px;"/><path class="ytick ticks crisp" d="M81,0h-5" transform="translate(0,230.17)" style="stroke: rgb(68, 68, 68); stroke-opacity: 1; stroke-width: 1px;"/><path class="ytick ticks crisp" d="M81,0h-5" transform="translate(0,29.71)" style="stroke: rgb(68, 68, 68); stroke-opacity: 1; stroke-width: 1px;"/><g class="ytick"><text text-anchor="end" x="69.6" y="11.2" transform="translate(0,831.55)" style="font-family: 'Open Sans', verdana, arial, sans-serif; font-size: 32px; fill: rgb(255, 255, 255); fill-opacity: 0.8; white-space: pre;">0</text></g><g class="ytick"><text text-anchor="end" x="69.6" y="11.2" style="font-family: 'Open Sans', verdana, arial, sans-serif; font-size: 32px; fill: rgb(255, 255, 255); fill-opacity: 0.8; white-space: pre;" transform="translate(0,631.09)">50k</text></g><g class="ytick"><text text-anchor="end" x="69.6" y="11.2" style="font-family: 'Open Sans', verdana, arial, sans-serif; font-size: 32px; fill: rgb(255, 255, 255); fill-opacity: 0.8; white-space: pre;" transform="translate(0,430.63)">100k</text></g><g class="ytick"><text text-anchor="end" x="69.6" y="11.2" style="font-family: 'Open Sans', verdana, arial, sans-serif; font-size: 32px; fill: rgb(255, 255, 255); fill-opacity: 0.8; white-space: pre;" transform="translate(0,230.17)">150k</text></g><g class="ytick"><text text-anchor="end" x="69.6" y="11.2" style="font-family: 'Open Sans', verdana, arial, sans-serif; font-size: 32px; fill: rgb(255, 255, 255); fill-opacity: 0.8; white-space: pre;" transform="translate(0,29.71)">200k</text></g></g><g class="overaxes-above"/></g></g><g class="polarlayer"/><g class="smithlayer"/><g class="ternarylayer"/><g class="geolayer"/><g class="funnelarealayer"/><g class="pielayer"/><g class="iciclelayer"/><g class="treemaplayer"/><g class="sunburstlayer"/><g class="glimages"/><defs id="topdefs-2778e8"><g class="clips"/><clipPath id="legend2778e8"><rect width="333" height="233" x="0" y="0"/></clipPath></defs><g class="layer-above"><g class="imagelayer"/><g class="shapelayer"/></g><g class="infolayer"><g class="legend" pointer-events="all" transform="translate(82,0)"><rect class="bg" shape-rendering="crispEdges" style="stroke: rgb(0, 0, 0); stroke-opacity: 0; fill: rgb(23, 27, 38); fill-opacity: 0.8; stroke-width: 0px;" width="333" height="233" x="0" y="0"/><g class="scrollbox" transform="" clip-path="url(#legend2778e8)"><g class="groups" transform=""><g class="traces" transform="translate(0,27.3)" style="opacity: 1;"><text class="legendtext" text-anchor="start" x="40" y="12.48" style="font-family: Arial; font-size: 32px; fill: rgb(255, 255, 255); fill-opacity: 0.8; white-space: pre;">生物技术</text><g class="layers" style="opacity: 1;"><g class="legendfill"/><g class="legendlines"><path class="js-line" d="M5,0h30" style="fill: none; stroke: rgb(214, 10, 34); stroke-opacity: 1; stroke-width: 3px;"/></g><g class="legendsymbols"><g class="legendpoints"/></g></g><rect class="legendtoggle" x="0" y="-22.3" width="328" height="44.6" style="fill: rgb(0, 0, 0); fill-opacity: 0;"/></g></g><g class="groups" transform=""><g class="traces" transform="translate(0,71.9)" style="opacity: 1;"><text class="legendtext" text-anchor="start" x="40" y="12.48" style="font-family: Arial; font-size: 32px; fill: rgb(255, 255, 255); fill-opacity: 0.8; white-space: pre;">软件</text><g class="layers" style="opacity: 1;"><g class="legendfill"/><g class="legendlines"><path class="js-line" d="M5,0h30" style="fill: none; stroke: rgb(234, 112, 52); stroke-opacity: 1; stroke-width: 3px;"/></g><g class="legendsymbols"><g class="legendpoints"/></g></g><rect class="legendtoggle" x="0" y="-22.3" width="328" height="44.6" style="fill: rgb(0, 0, 0); fill-opacity: 0;"/></g></g><g class="groups" transform=""><g class="traces" transform="translate(0,116.5)" style="opacity: 1;"><text class="legendtext" text-anchor="start" x="40" y="12.48" style="font-family: Arial; font-size: 32px; fill: rgb(255, 255, 255); fill-opacity: 0.8; white-space: pre;">石油天然气炼制销售</text><g class="layers" style="opacity: 1;"><g class="legendfill"/><g class="legendlines"><path class="js-line" d="M5,0h30" style="fill: none; stroke: rgb(255, 215, 71); stroke-opacity: 1; stroke-width: 3px;"/></g><g class="legendsymbols"><g class="legendpoints"/></g></g><rect class="legendtoggle" x="0" y="-22.3" width="328" height="44.6" style="fill: rgb(0, 0, 0); fill-opacity: 0;"/></g></g><g class="groups" transform=""><g class="traces" transform="translate(0,161.10000000000002)" style="opacity: 1;"><text class="legendtext" text-anchor="start" x="40" y="12.48" style="font-family: Arial; font-size: 32px; fill: rgb(255, 255, 255); fill-opacity: 0.8; white-space: pre;">服装制造</text><g class="layers" style="opacity: 1;"><g class="legendfill"/><g class="legendlines"><path class="js-line" d="M5,0h30" style="fill: none; stroke: rgb(129, 169, 73); stroke-opacity: 1; stroke-width: 3px;"/></g><g class="legendsymbols"><g class="legendpoints"/></g></g><rect class="legendtoggle" x="0" y="-22.3" width="328" height="44.6" style="fill: rgb(0, 0, 0); fill-opacity: 0;"/></g></g><g class="groups" transform=""><g class="traces" transform="translate(0,205.70000000000002)" style="opacity: 1;"><text class="legendtext" text-anchor="start" x="40" y="12.48" style="font-family: Arial; font-size: 32px; fill: rgb(255, 255, 255); fill-opacity: 0.8; white-space: pre;">资本市场</text><g class="layers" style="opacity: 1;"><g class="legendfill"/><g class="legendlines"><path class="js-line" d="M5,0h30" style="fill: none; stroke: rgb(3, 123, 102); stroke-opacity: 1; stroke-width: 3px;"/></g><g class="legendsymbols"><g class="legendpoints"/></g></g><rect class="legendtoggle" x="0" y="-22.3" width="328" height="44.6" style="fill: rgb(0, 0, 0); fill-opacity: 0;"/></g></g></g><rect class="scrollbar" rx="20" ry="3" width="0" height="0" style="fill: rgb(128, 139, 164); fill-opacity: 1;" x="0" y="0"/></g><g class="g-gtitle"><text class="gtitle" x="720" y="90" text-anchor="middle" dy="0.7em" style="opacity: 0.8; font-family: Arial; font-size: 35px; fill: rgb(255, 255, 255); fill-opacity: 1; white-space: pre;">Last 180 days top5 pnl</text></g><g class="g-xtitle"/><g class="g-ytitle"/></g></svg>