<svg class="main-svg" xmlns="http://www.w3.org/2000/svg" xmlns:xlink="http://www.w3.org/1999/xlink" width="1728" height="1080" style="" viewBox="0 0 1440 900"><rect x="0" y="0" width="1440" height="900" style="fill: rgb(0, 0, 0); fill-opacity: 0;"/><defs id="defs-0e31a0"><g class="clips"><clipPath id="clip0e31a0xyplot" class="plotclip"><rect width="1325" height="692"/></clipPath><clipPath class="axesclip" id="clip0e31a0x"><rect x="95" y="0" width="1325" height="900"/></clipPath><clipPath class="axesclip" id="clip0e31a0y"><rect x="0" y="0" width="1440" height="692"/></clipPath><clipPath class="axesclip" id="clip0e31a0xy"><rect x="95" y="0" width="1325" height="692"/></clipPath></g><g class="gradients"/><g class="patterns"/></defs><g class="bglayer"><rect class="bg" x="95" y="0" width="1325" height="692" style="fill: rgb(0, 0, 0); fill-opacity: 0; stroke-width: 0;"/></g><g class="layer-below"><g class="imagelayer"/><g class="shapelayer"/></g><g class="cartesianlayer"><g class="subplot xy"><g class="layer-subplot"><g class="shapelayer"/><g class="imagelayer"/></g><g class="minor-gridlayer"><g class="x"/><g class="y"/></g><g class="gridlayer"><g class="x"><path class="xgrid crisp" transform="translate(128.13,0)" d="M0,0v692" style="stroke: rgb(255, 255, 255); stroke-opacity: 0.5; stroke-width: 1px;"/><path class="xgrid crisp" transform="translate(282.71000000000004,0)" d="M0,0v692" style="stroke: rgb(255, 255, 255); stroke-opacity: 0.5; stroke-width: 1px;"/><path class="xgrid crisp" transform="translate(437.29,0)" d="M0,0v692" style="stroke: rgb(255, 255, 255); stroke-opacity: 0.5; stroke-width: 1px;"/><path class="xgrid crisp" transform="translate(591.88,0)" d="M0,0v692" style="stroke: rgb(255, 255, 255); stroke-opacity: 0.5; stroke-width: 1px;"/><path class="xgrid crisp" transform="translate(746.46,0)" d="M0,0v692" style="stroke: rgb(255, 255, 255); stroke-opacity: 0.5; stroke-width: 1px;"/><path class="xgrid crisp" transform="translate(901.04,0)" d="M0,0v692" style="stroke: rgb(255, 255, 255); stroke-opacity: 0.5; stroke-width: 1px;"/><path class="xgrid crisp" transform="translate(1055.63,0)" d="M0,0v692" style="stroke: rgb(255, 255, 255); stroke-opacity: 0.5; stroke-width: 1px;"/><path class="xgrid crisp" transform="translate(1210.21,0)" d="M0,0v692" style="stroke: rgb(255, 255, 255); stroke-opacity: 0.5; stroke-width: 1px;"/><path class="xgrid crisp" transform="translate(1364.79,0)" d="M0,0v692" style="stroke: rgb(255, 255, 255); stroke-opacity: 0.5; stroke-width: 1px;"/></g><g class="y"><path class="ygrid crisp" transform="translate(0,570.03)" d="M95,0h1325" style="stroke: rgb(255, 255, 255); stroke-opacity: 0.5; stroke-width: 1px;"/><path class="ygrid crisp" transform="translate(0,483.22)" d="M95,0h1325" style="stroke: rgb(255, 255, 255); stroke-opacity: 0.5; stroke-width: 1px;"/><path class="ygrid crisp" transform="translate(0,396.41)" d="M95,0h1325" style="stroke: rgb(255, 255, 255); stroke-opacity: 0.5; stroke-width: 1px;"/><path class="ygrid crisp" transform="translate(0,309.6)" d="M95,0h1325" style="stroke: rgb(255, 255, 255); stroke-opacity: 0.5; stroke-width: 1px;"/><path class="ygrid crisp" transform="translate(0,222.78)" d="M95,0h1325" style="stroke: rgb(255, 255, 255); stroke-opacity: 0.5; stroke-width: 1px;"/><path class="ygrid crisp" transform="translate(0,135.97)" d="M95,0h1325" style="stroke: rgb(255, 255, 255); stroke-opacity: 0.5; stroke-width: 1px;"/><path class="ygrid crisp" transform="translate(0,49.16)" d="M95,0h1325" style="stroke: rgb(255, 255, 255); stroke-opacity: 0.5; stroke-width: 1px;"/></g></g><g class="zerolinelayer"><path class="yzl zl crisp" transform="translate(0,656.84)" d="M95,0h1325" style="stroke: rgb(255, 255, 255); stroke-opacity: 1; stroke-width: 2px;"/></g><g class="layer-between"><g class="shapelayer"/><g class="imagelayer"/></g><path class="xlines-below"/><path class="ylines-below"/><g class="overlines-below"/><g class="xaxislayer-below"/><g class="yaxislayer-below"/><g class="overaxes-below"/><g class="overplot"><g class="xy" transform="translate(95,0)" clip-path="url(#clip0e31a0xyplot)"><g class="scatterlayer mlayer"><g class="trace scatter trace5eeb32" style="stroke-miterlimit: 2; opacity: 1;"><g class="fills"/><g class="errorbars"/><g class="lines"><path class="js-line" d="M1325,507.77L1313.96,507.77L1302.92,503.69L1291.88,520.31L1280.83,460.34L1247.71,422.96L1236.67,438.2L1225.63,437.82L1214.58,449.07L1203.54,458.79L1170.42,432.93L1159.38,437.02L1148.33,393.17L1137.29,405.96L1126.25,377.24L1093.13,282.75L1082.08,257.31L1060,297.84L1015.83,267.86L1004.79,257.71L993.75,279.01L982.71,304.18L971.67,258.25L938.54,254.97L927.5,243.48L916.46,225.97L905.42,239.35L894.38,247.27L861.25,251.27L850.21,273.55L839.17,269.58L828.13,261.81L817.08,277.97L783.96,238.95L772.92,232.68L761.88,219.9L750.83,214.84L706.67,328.39L695.63,287.95L684.58,299.48L673.54,379.01L662.5,455.25L629.38,355.44L607.29,332.3L596.25,72.25L585.21,34.6L552.08,72.46L541.04,58.19L518.96,172.24L507.92,117.81L474.79,102.03L463.75,125.69L441.67,244.89L430.63,256.8L397.5,309.13L386.46,362.64L375.42,260.5L364.38,244.09L353.33,318.07L320.21,397.15L309.17,446.99L298.13,416.4L287.08,417.07L276.04,446.21L242.92,431.36L231.88,483.79L220.83,503.32L198.75,515.78L165.63,507.32L143.54,534.31L132.5,535.35L121.46,520.66L88.33,541.53L77.29,563.26L66.25,582.87L55.21,588.38L44.17,595.69L11.04,583.43L0,582.3" style="vector-effect: none; fill: none; stroke: rgb(99, 110, 250); stroke-opacity: 1; stroke-width: 3px; opacity: 1;"/></g><g class="points"/><g class="text"/></g><g class="trace scatter trace287212" style="stroke-miterlimit: 2; opacity: 1;"><g class="fills"/><g class="errorbars"/><g class="lines"><path class="js-line" d="M1325,571.96L1313.96,571.96L1302.92,570.35L1291.88,575.6L1280.83,572.9L1247.71,553.9L1236.67,553.55L1225.63,547.31L1214.58,559.48L1203.54,553.92L1170.42,554.19L1159.38,556L1148.33,554.99L1137.29,550.73L1126.25,554.65L1093.13,556.49L1082.08,531.45L1060,518.67L1015.83,527.43L1004.79,527.93L993.75,525.8L982.71,523.09L971.67,529.5L938.54,520.75L927.5,512.5L916.46,508.74L905.42,518.75L894.38,525.99L861.25,511.97L850.21,505.31L839.17,513.03L828.13,513.27L817.08,515.92L783.96,521.32L772.92,523.99L761.88,530.65L750.83,521.55L706.67,534.66L695.63,541.52L684.58,536.51L673.54,552.92L662.5,563.8L629.38,564.97L607.29,551L596.25,548.95L585.21,547.13L552.08,551.95L541.04,551.63L518.96,549.1L507.92,548.41L474.79,547.13L463.75,542.9L441.67,544.17L430.63,547.69L397.5,549.75L386.46,556.77L375.42,552.46L364.38,525.98L353.33,515.6L320.21,515.96L309.17,514.42L298.13,508.34L287.08,512.52L276.04,510.44L242.92,502.14L231.88,501.33L220.83,506.92L198.75,501.44L165.63,497.22L132.5,500.12L121.46,495.25L88.33,502.91L77.29,508.64L66.25,516.72L55.21,516.38L11.04,515.05L0,516.97" style="vector-effect: none; fill: none; stroke: rgb(239, 85, 59); stroke-opacity: 1; stroke-width: 3px; opacity: 1;"/></g><g class="points"/><g class="text"/></g><g class="trace scatter trace8f18ef" style="stroke-miterlimit: 2; opacity: 1;"><g class="fills"/><g class="errorbars"/><g class="lines"><path class="js-line" d="M1325,599.12L1313.96,599.12L1302.92,603.14L1291.88,599.76L1280.83,592.12L1247.71,598.01L1236.67,603.96L1225.63,597.39L1214.58,594.19L1203.54,581.44L1170.42,586.51L1159.38,584.76L1148.33,570.93L1126.25,576.65L1093.13,569.74L1071.04,565.62L1060,566.11L1004.79,573.83L993.75,580.15L982.71,577.75L971.67,581.21L938.54,586.29L927.5,584.87L916.46,583.78L905.42,589.1L894.38,584.03L861.25,589.22L850.21,583.99L839.17,599.11L828.13,600.42L817.08,596.24L783.96,583.32L772.92,584.53L761.88,586.07L750.83,575.66L706.67,585.03L695.63,586.17L684.58,596.24L673.54,597.17L662.5,601.88L629.38,598.27L607.29,600.03L596.25,599.07L585.21,594.06L552.08,590.69L541.04,595.03L518.96,599L507.92,598.39L474.79,598.99L463.75,597.33L441.67,597.16L397.5,605.05L386.46,608.86L375.42,599.11L364.38,590.38L353.33,580.93L320.21,576.29L298.13,575.17L287.08,566.02L242.92,556.32L231.88,548.74L220.83,552.07L209.79,551.45L198.75,546.58L165.63,533.45L143.54,533.03L132.5,533.61L121.46,542.58L88.33,543.09L77.29,541.11L66.25,551.18L55.21,552.38L44.17,556.37L11.04,560.76L0,563.18" style="vector-effect: none; fill: none; stroke: rgb(0, 204, 150); stroke-opacity: 1; stroke-width: 3px; opacity: 1;"/></g><g class="points"/><g class="text"/></g><g class="trace scatter traced3ad7a" style="stroke-miterlimit: 2; opacity: 1;"><g class="fills"/><g class="errorbars"/><g class="lines"><path class="js-line" d="M1325,599.51L1313.96,599.51L1302.92,590.99L1291.88,584.96L1280.83,613L1247.71,607.69L1236.67,612.36L1225.63,609.46L1214.58,616.13L1203.54,615.48L1170.42,607.38L1159.38,607.38L1148.33,603.29L1137.29,608.76L1126.25,607.78L1093.13,601.42L1082.08,604.18L1071.04,608.76L1060,607.73L1015.83,608.44L1004.79,607.32L993.75,607.12L982.71,608.21L971.67,611.72L938.54,611.79L927.5,611.68L916.46,623.22L905.42,616.9L894.38,618.09L861.25,616.65L850.21,613.18L839.17,616.93L828.13,616.85L817.08,619.87L783.96,614.63L772.92,616.41L761.88,613.59L750.83,612.64L706.67,615.35L695.63,617.31L684.58,616.6L673.54,617.89L662.5,623.82L629.38,618.42L607.29,622.69L596.25,614.65L585.21,612.17L552.08,609.62L541.04,609.55L518.96,618.05L507.92,614.78L474.79,619.07L463.75,616.31L441.67,622.83L430.63,622.48L397.5,626.72L386.46,630.98L375.42,633.02L364.38,618.88L353.33,633.24L320.21,630.54L309.17,631.34L298.13,630.34L287.08,629.65L276.04,632.53L242.92,635.26L231.88,638.4L220.83,638.01L209.79,643.21L198.75,644.28L165.63,641.86L132.5,647.01L121.46,652.77L77.29,654.81L66.25,655.45L55.21,655.78L44.17,655.29L11.04,657.4L0,656.75" style="vector-effect: none; fill: none; stroke: rgb(171, 99, 250); stroke-opacity: 1; stroke-width: 3px; opacity: 1;"/></g><g class="points"/><g class="text"/></g><g class="trace scatter trace3da1c7" style="stroke-miterlimit: 2; opacity: 1;"><g class="fills"/><g class="errorbars"/><g class="lines"><path class="js-line" d="M1325,611.58L1302.92,613.08L1291.88,609.24L1280.83,602.85L1247.71,605.3L1236.67,608.06L1225.63,607.86L1214.58,611.03L1203.54,609.9L1170.42,614.78L1159.38,618.52L1148.33,617.84L1137.29,614.46L1126.25,617.36L1093.13,619.05L1060,623.24L1015.83,626.71L1004.79,625.06L993.75,625.05L982.71,626.95L971.67,622.75L938.54,622.63L927.5,618.39L916.46,615.31L905.42,623.52L894.38,621.72L861.25,621.58L850.21,620.61L839.17,627.88L828.13,625.87L817.08,622.22L761.88,628.67L750.83,628.42L695.63,631.13L684.58,630.69L673.54,633.65L662.5,632.89L629.38,639.46L607.29,639.94L596.25,639.02L585.21,640.61L518.96,639.17L507.92,639.61L474.79,636.6L463.75,636.43L397.5,639.27L386.46,641.68L375.42,641.3L364.38,639.51L353.33,641.1L320.21,643.36L298.13,641.92L287.08,641.91L276.04,640.09L242.92,640.24L209.79,639.68L198.75,638.44L165.63,639.11L143.54,638.32L132.5,639.42L121.46,639.44L88.33,639.5L77.29,640.28L11.04,643.23L0,639.91" style="vector-effect: none; fill: none; stroke: rgb(255, 161, 90); stroke-opacity: 1; stroke-width: 3px; opacity: 1;"/></g><g class="points"/><g class="text"/></g></g></g></g><path class="xlines-above crisp" d="" style="fill: none; stroke-width: 1px; stroke: rgb(0, 0, 0); stroke-opacity: 0;"/><path class="ylines-above crisp" d="" style="fill: none; stroke-width: 1px; stroke: rgb(0, 0, 0); stroke-opacity: 0;"/><g class="overlines-above"/><g class="xaxislayer-above"><path class="xtick ticks crisp" d="M0,693v5" transform="translate(128.13,0)" style="stroke: rgb(68, 68, 68); stroke-opacity: 1; stroke-width: 1px;"/><path class="xtick ticks crisp" d="M0,693v5" transform="translate(282.71000000000004,0)" style="stroke: rgb(68, 68, 68); stroke-opacity: 1; stroke-width: 1px;"/><path class="xtick ticks crisp" d="M0,693v5" transform="translate(437.29,0)" style="stroke: rgb(68, 68, 68); stroke-opacity: 1; stroke-width: 1px;"/><path class="xtick ticks crisp" d="M0,693v5" transform="translate(591.88,0)" style="stroke: rgb(68, 68, 68); stroke-opacity: 1; stroke-width: 1px;"/><path class="xtick ticks crisp" d="M0,693v5" transform="translate(746.46,0)" style="stroke: rgb(68, 68, 68); stroke-opacity: 1; stroke-width: 1px;"/><path class="xtick ticks crisp" d="M0,693v5" transform="translate(901.04,0)" style="stroke: rgb(68, 68, 68); stroke-opacity: 1; stroke-width: 1px;"/><path class="xtick ticks crisp" d="M0,693v5" transform="translate(1055.63,0)" style="stroke: rgb(68, 68, 68); stroke-opacity: 1; stroke-width: 1px;"/><path class="xtick ticks crisp" d="M0,693v5" transform="translate(1210.21,0)" style="stroke: rgb(68, 68, 68); stroke-opacity: 1; stroke-width: 1px;"/><path class="xtick ticks crisp" d="M0,693v5" transform="translate(1364.79,0)" style="stroke: rgb(68, 68, 68); stroke-opacity: 1; stroke-width: 1px;"/><g class="xtick"><text text-anchor="middle" x="0" y="731.6" transform="translate(128.13,0)" style="font-family: Arial; font-size: 28px; fill: rgb(255, 255, 255); fill-opacity: 1; white-space: pre; opacity: 1;"><tspan class="line" dy="0em" x="0" y="731.6">Nov 17</tspan><tspan class="line" dy="1.3em" x="0" y="731.6">2024</tspan></text></g><g class="xtick"><text text-anchor="middle" x="0" y="731.6" style="font-family: Arial; font-size: 28px; fill: rgb(255, 255, 255); fill-opacity: 1; white-space: pre; opacity: 1;" transform="translate(282.71000000000004,0)">Dec 1</text></g><g class="xtick"><text text-anchor="middle" x="0" y="731.6" style="font-family: Arial; font-size: 28px; fill: rgb(255, 255, 255); fill-opacity: 1; white-space: pre; opacity: 1;" transform="translate(437.29,0)">Dec 15</text></g><g class="xtick"><text text-anchor="middle" x="0" y="731.6" style="font-family: Arial; font-size: 28px; fill: rgb(255, 255, 255); fill-opacity: 1; white-space: pre; opacity: 1;" transform="translate(591.88,0)">Dec 29</text></g><g class="xtick"><text text-anchor="middle" x="0" y="731.6" style="font-family: Arial; font-size: 28px; fill: rgb(255, 255, 255); fill-opacity: 1; white-space: pre; opacity: 1;" transform="translate(746.46,0)"><tspan class="line" dy="0em" x="0" y="731.6">Jan 12</tspan><tspan class="line" dy="1.3em" x="0" y="731.6">2025</tspan></text></g><g class="xtick"><text text-anchor="middle" x="0" y="731.6" style="font-family: Arial; font-size: 28px; fill: rgb(255, 255, 255); fill-opacity: 1; white-space: pre; opacity: 1;" transform="translate(901.04,0)">Jan 26</text></g><g class="xtick"><text text-anchor="middle" x="0" y="731.6" style="font-family: Arial; font-size: 28px; fill: rgb(255, 255, 255); fill-opacity: 1; white-space: pre; opacity: 1;" transform="translate(1055.63,0)">Feb 9</text></g><g class="xtick"><text text-anchor="middle" x="0" y="731.6" style="font-family: Arial; font-size: 28px; fill: rgb(255, 255, 255); fill-opacity: 1; white-space: pre; opacity: 1;" transform="translate(1210.21,0)">Feb 23</text></g><g class="xtick"><text text-anchor="middle" x="0" y="731.6" style="font-family: Arial; font-size: 28px; fill: rgb(255, 255, 255); fill-opacity: 1; white-space: pre; opacity: 1;" transform="translate(1364.79,0)">Mar 9</text></g></g><g class="yaxislayer-above"><path class="ytick ticks crisp" d="M95,0h5" transform="translate(0,656.84)" style="stroke: rgb(68, 68, 68); stroke-opacity: 1; stroke-width: 1px;"/><path class="ytick ticks crisp" d="M95,0h5" transform="translate(0,570.03)" style="stroke: rgb(68, 68, 68); stroke-opacity: 1; stroke-width: 1px;"/><path class="ytick ticks crisp" d="M95,0h5" transform="translate(0,483.22)" style="stroke: rgb(68, 68, 68); stroke-opacity: 1; stroke-width: 1px;"/><path class="ytick ticks crisp" d="M95,0h5" transform="translate(0,396.41)" style="stroke: rgb(68, 68, 68); stroke-opacity: 1; stroke-width: 1px;"/><path class="ytick ticks crisp" d="M95,0h5" transform="translate(0,309.6)" style="stroke: rgb(68, 68, 68); stroke-opacity: 1; stroke-width: 1px;"/><path class="ytick ticks crisp" d="M95,0h5" transform="translate(0,222.78)" style="stroke: rgb(68, 68, 68); stroke-opacity: 1; stroke-width: 1px;"/><path class="ytick ticks crisp" d="M95,0h5" transform="translate(0,135.97)" style="stroke: rgb(68, 68, 68); stroke-opacity: 1; stroke-width: 1px;"/><path class="ytick ticks crisp" d="M95,0h5" transform="translate(0,49.16)" style="stroke: rgb(68, 68, 68); stroke-opacity: 1; stroke-width: 1px;"/><g class="ytick"><text text-anchor="end" x="94" y="9.799999999999999" transform="translate(0,656.84)" style="font-family: 'Open Sans', verdana, arial, sans-serif; font-size: 28px; fill: rgb(255, 255, 255); fill-opacity: 1; white-space: pre; opacity: 1;">0</text></g><g class="ytick"><text text-anchor="end" x="94" y="9.799999999999999" style="font-family: 'Open Sans', verdana, arial, sans-serif; font-size: 28px; fill: rgb(255, 255, 255); fill-opacity: 1; white-space: pre; opacity: 1;" transform="translate(0,570.03)">50k</text></g><g class="ytick"><text text-anchor="end" x="94" y="9.799999999999999" style="font-family: 'Open Sans', verdana, arial, sans-serif; font-size: 28px; fill: rgb(255, 255, 255); fill-opacity: 1; white-space: pre; opacity: 1;" transform="translate(0,483.22)">100k</text></g><g class="ytick"><text text-anchor="end" x="94" y="9.799999999999999" style="font-family: 'Open Sans', verdana, arial, sans-serif; font-size: 28px; fill: rgb(255, 255, 255); fill-opacity: 1; white-space: pre; opacity: 1;" transform="translate(0,396.41)">150k</text></g><g class="ytick"><text text-anchor="end" x="94" y="9.799999999999999" style="font-family: 'Open Sans', verdana, arial, sans-serif; font-size: 28px; fill: rgb(255, 255, 255); fill-opacity: 1; white-space: pre; opacity: 1;" transform="translate(0,309.6)">200k</text></g><g class="ytick"><text text-anchor="end" x="94" y="9.799999999999999" style="font-family: 'Open Sans', verdana, arial, sans-serif; font-size: 28px; fill: rgb(255, 255, 255); fill-opacity: 1; white-space: pre; opacity: 1;" transform="translate(0,222.78)">250k</text></g><g class="ytick"><text text-anchor="end" x="94" y="9.799999999999999" style="font-family: 'Open Sans', verdana, arial, sans-serif; font-size: 28px; fill: rgb(255, 255, 255); fill-opacity: 1; white-space: pre; opacity: 1;" transform="translate(0,135.97)">300k</text></g><g class="ytick"><text text-anchor="end" x="94" y="9.799999999999999" style="font-family: 'Open Sans', verdana, arial, sans-serif; font-size: 28px; fill: rgb(255, 255, 255); fill-opacity: 1; white-space: pre; opacity: 1;" transform="translate(0,49.16)">350k</text></g></g><g class="overaxes-above"/></g></g><g class="polarlayer"/><g class="smithlayer"/><g class="ternarylayer"/><g class="geolayer"/><g class="funnelarealayer"/><g class="pielayer"/><g class="iciclelayer"/><g class="treemaplayer"/><g class="sunburstlayer"/><g class="glimages"/><defs id="topdefs-0e31a0"><g class="clips"/><clipPath id="legend0e31a0"><rect width="786" height="50" x="0" y="0"/></clipPath></defs><g class="layer-above"><g class="imagelayer"/><g class="shapelayer"/></g><g class="infolayer"><g class="legend" pointer-events="all" transform="translate(364.5,849.6)"><rect class="bg" shape-rendering="crispEdges" style="stroke: rgb(68, 68, 68); stroke-opacity: 1; fill: rgb(0, 0, 0); fill-opacity: 0; stroke-width: 0px;" width="786" height="50" x="0" y="0"/><g class="scrollbox" transform="" clip-path="url(#legend0e31a0)"><g class="groups" transform=""><g class="traces" transform="translate(0,24.7)" style="opacity: 1;"><text class="legendtext" text-anchor="start" x="40" y="10.92" style="font-family: Arial; font-size: 28px; fill: rgb(255, 255, 255); fill-opacity: 1; white-space: pre;">计算机硬件</text><g class="layers" style="opacity: 1;"><g class="legendfill"/><g class="legendlines"><path class="js-line" d="M5,0h30" style="fill: none; stroke: rgb(99, 110, 250); stroke-opacity: 1; stroke-width: 3px;"/></g><g class="legendsymbols"><g class="legendpoints"/></g></g><rect class="legendtoggle" x="0" y="-19.7" width="182.5" height="39.4" style="fill: rgb(0, 0, 0); fill-opacity: 0;"/></g></g><g class="groups" transform="translate(185,0)"><g class="traces" transform="translate(0,24.7)" style="opacity: 1;"><text class="legendtext" text-anchor="start" x="40" y="10.92" style="font-family: Arial; font-size: 28px; fill: rgb(255, 255, 255); fill-opacity: 1; white-space: pre;">银行</text><g class="layers" style="opacity: 1;"><g class="legendfill"/><g class="legendlines"><path class="js-line" d="M5,0h30" style="fill: none; stroke: rgb(239, 85, 59); stroke-opacity: 1; stroke-width: 3px;"/></g><g class="legendsymbols"><g class="legendpoints"/></g></g><rect class="legendtoggle" x="0" y="-19.7" width="99.5" height="39.4" style="fill: rgb(0, 0, 0); fill-opacity: 0;"/></g></g><g class="groups" transform="translate(287,0)"><g class="traces" transform="translate(0,24.7)" style="opacity: 1;"><text class="legendtext" text-anchor="start" x="40" y="10.92" style="font-family: Arial; font-size: 28px; fill: rgb(255, 255, 255); fill-opacity: 1; white-space: pre;">公用事业</text><g class="layers" style="opacity: 1;"><g class="legendfill"/><g class="legendlines"><path class="js-line" d="M5,0h30" style="fill: none; stroke: rgb(0, 204, 150); stroke-opacity: 1; stroke-width: 3px;"/></g><g class="legendsymbols"><g class="legendpoints"/></g></g><rect class="legendtoggle" x="0" y="-19.7" width="154.5" height="39.4" style="fill: rgb(0, 0, 0); fill-opacity: 0;"/></g></g><g class="groups" transform="translate(444,0)"><g class="traces" transform="translate(0,24.7)" style="opacity: 1;"><text class="legendtext" text-anchor="start" x="40" y="10.92" style="font-family: Arial; font-size: 28px; fill: rgb(255, 255, 255); fill-opacity: 1; white-space: pre;">汽车零部件</text><g class="layers" style="opacity: 1;"><g class="legendfill"/><g class="legendlines"><path class="js-line" d="M5,0h30" style="fill: none; stroke: rgb(171, 99, 250); stroke-opacity: 1; stroke-width: 3px;"/></g><g class="legendsymbols"><g class="legendpoints"/></g></g><rect class="legendtoggle" x="0" y="-19.7" width="182.5" height="39.4" style="fill: rgb(0, 0, 0); fill-opacity: 0;"/></g></g><g class="groups" transform="translate(629,0)"><g class="traces" transform="translate(0,24.7)" style="opacity: 1;"><text class="legendtext" text-anchor="start" x="40" y="10.92" style="font-family: Arial; font-size: 28px; fill: rgb(255, 255, 255); fill-opacity: 1; white-space: pre;">药品制造</text><g class="layers" style="opacity: 1;"><g class="legendfill"/><g class="legendlines"><path class="js-line" d="M5,0h30" style="fill: none; stroke: rgb(255, 161, 90); stroke-opacity: 1; stroke-width: 3px;"/></g><g class="legendsymbols"><g class="legendpoints"/></g></g><rect class="legendtoggle" x="0" y="-19.7" width="154.5" height="39.4" style="fill: rgb(0, 0, 0); fill-opacity: 0;"/></g></g></g><rect class="scrollbar" rx="20" ry="3" width="0" height="0" style="fill: rgb(128, 139, 164); fill-opacity: 1;" x="0" y="0"/></g><g class="g-gtitle"><text class="gtitle" x="720" y="90" text-anchor="middle" dy="0.7em" style="opacity: 1; font-family: Arial; font-size: 32px; fill: rgb(255, 255, 255); fill-opacity: 1; white-space: pre;">Last 120 days top5 pnl</text></g><g class="g-xtitle"><text class="xtitle" x="757.5" y="811.9" text-anchor="middle" style="opacity: 1; font-family: Arial; font-size: 32px; fill: rgb(255, 255, 255); fill-opacity: 1; white-space: pre;">buy_date</text></g><g class="g-ytitle"/></g></svg>